<?xml version="1.0" encoding="utf-8" standalone="no"?>
<!DOCTYPE svg PUBLIC "-//W3C//DTD SVG 1.1//EN"
  "http://www.w3.org/Graphics/SVG/1.1/DTD/svg11.dtd">
<!-- Created with matplotlib (https://matplotlib.org/) -->
<svg height="192.27625pt" version="1.1" viewBox="0 0 273.860937 192.27625" width="273.860937pt" xmlns="http://www.w3.org/2000/svg" xmlns:xlink="http://www.w3.org/1999/xlink">
 <metadata>
  <rdf:RDF xmlns:cc="http://creativecommons.org/ns#" xmlns:dc="http://purl.org/dc/elements/1.1/" xmlns:rdf="http://www.w3.org/1999/02/22-rdf-syntax-ns#">
   <cc:Work>
    <dc:type rdf:resource="http://purl.org/dc/dcmitype/StillImage"/>
    <dc:date>2023-10-02T18:51:04.672151</dc:date>
    <dc:format>image/svg+xml</dc:format>
    <dc:creator>
     <cc:Agent>
      <dc:title>Matplotlib v3.3.4, https://matplotlib.org/</dc:title>
     </cc:Agent>
    </dc:creator>
   </cc:Work>
  </rdf:RDF>
 </metadata>
 <defs>
  <style type="text/css">*{stroke-linecap:butt;stroke-linejoin:round;}</style>
 </defs>
 <g id="figure_1">
  <g id="patch_1">
   <path d="M 0 192.27625 
L 273.860937 192.27625 
L 273.860937 0 
L 0 0 
z
" style="fill:none;"/>
  </g>
  <g id="axes_1">
   <g id="patch_2">
    <path d="M 48.660938 158.22 
L 184.560937 158.22 
L 184.560937 22.32 
L 48.660938 22.32 
z
" style="fill:#ffffff;"/>
   </g>
   <g id="line2d_1">
    <path clip-path="url(#pdfb516cc52)" d="M 75.840937 158.22 
L 75.840937 22.32 
" style="fill:none;stroke:#808080;stroke-dasharray:5.55,2.4;stroke-dashoffset:0;stroke-width:1.5;"/>
   </g>
   <g id="matplotlib.axis_1">
    <g id="xtick_1">
     <g id="line2d_2">
      <defs>
       <path d="M 0 0 
L 0 -3.5 
" id="ma0654f5efe" style="stroke:#000000;stroke-width:0.8;"/>
      </defs>
      <g>
       <use style="stroke:#000000;stroke-width:0.8;" x="48.660938" xlink:href="#ma0654f5efe" y="158.22"/>
      </g>
     </g>
     <g id="text_1">
      <!-- 0 -->
      <g transform="translate(45.479688 169.318438)scale(0.1 -0.1)">
       <defs>
        <path d="M 31.78125 66.40625 
Q 24.171875 66.40625 20.328125 58.90625 
Q 16.5 51.421875 16.5 36.375 
Q 16.5 21.390625 20.328125 13.890625 
Q 24.171875 6.390625 31.78125 6.390625 
Q 39.453125 6.390625 43.28125 13.890625 
Q 47.125 21.390625 47.125 36.375 
Q 47.125 51.421875 43.28125 58.90625 
Q 39.453125 66.40625 31.78125 66.40625 
z
M 31.78125 74.21875 
Q 44.046875 74.21875 50.515625 64.515625 
Q 56.984375 54.828125 56.984375 36.375 
Q 56.984375 17.96875 50.515625 8.265625 
Q 44.046875 -1.421875 31.78125 -1.421875 
Q 19.53125 -1.421875 13.0625 8.265625 
Q 6.59375 17.96875 6.59375 36.375 
Q 6.59375 54.828125 13.0625 64.515625 
Q 19.53125 74.21875 31.78125 74.21875 
z
" id="DejaVuSans-48"/>
       </defs>
       <use xlink:href="#DejaVuSans-48"/>
      </g>
     </g>
    </g>
    <g id="xtick_2">
     <g id="line2d_3">
      <g>
       <use style="stroke:#000000;stroke-width:0.8;" x="103.020938" xlink:href="#ma0654f5efe" y="158.22"/>
      </g>
     </g>
     <g id="text_2">
      <!-- 10 -->
      <g transform="translate(96.658438 169.318438)scale(0.1 -0.1)">
       <defs>
        <path d="M 12.40625 8.296875 
L 28.515625 8.296875 
L 28.515625 63.921875 
L 10.984375 60.40625 
L 10.984375 69.390625 
L 28.421875 72.90625 
L 38.28125 72.90625 
L 38.28125 8.296875 
L 54.390625 8.296875 
L 54.390625 0 
L 12.40625 0 
z
" id="DejaVuSans-49"/>
       </defs>
       <use xlink:href="#DejaVuSans-49"/>
       <use x="63.623047" xlink:href="#DejaVuSans-48"/>
      </g>
     </g>
    </g>
    <g id="xtick_3">
     <g id="line2d_4">
      <g>
       <use style="stroke:#000000;stroke-width:0.8;" x="157.380937" xlink:href="#ma0654f5efe" y="158.22"/>
      </g>
     </g>
     <g id="text_3">
      <!-- 20 -->
      <g transform="translate(151.018437 169.318438)scale(0.1 -0.1)">
       <defs>
        <path d="M 19.1875 8.296875 
L 53.609375 8.296875 
L 53.609375 0 
L 7.328125 0 
L 7.328125 8.296875 
Q 12.9375 14.109375 22.625 23.890625 
Q 32.328125 33.6875 34.8125 36.53125 
Q 39.546875 41.84375 41.421875 45.53125 
Q 43.3125 49.21875 43.3125 52.78125 
Q 43.3125 58.59375 39.234375 62.25 
Q 35.15625 65.921875 28.609375 65.921875 
Q 23.96875 65.921875 18.8125 64.3125 
Q 13.671875 62.703125 7.8125 59.421875 
L 7.8125 69.390625 
Q 13.765625 71.78125 18.9375 73 
Q 24.125 74.21875 28.421875 74.21875 
Q 39.75 74.21875 46.484375 68.546875 
Q 53.21875 62.890625 53.21875 53.421875 
Q 53.21875 48.921875 51.53125 44.890625 
Q 49.859375 40.875 45.40625 35.40625 
Q 44.1875 33.984375 37.640625 27.21875 
Q 31.109375 20.453125 19.1875 8.296875 
z
" id="DejaVuSans-50"/>
       </defs>
       <use xlink:href="#DejaVuSans-50"/>
       <use x="63.623047" xlink:href="#DejaVuSans-48"/>
      </g>
     </g>
    </g>
    <g id="text_4">
     <!-- r (km) -->
     <g transform="translate(101.299219 182.996563)scale(0.1 -0.1)">
      <defs>
       <path d="M 41.109375 46.296875 
Q 39.59375 47.171875 37.8125 47.578125 
Q 36.03125 48 33.890625 48 
Q 26.265625 48 22.1875 43.046875 
Q 18.109375 38.09375 18.109375 28.8125 
L 18.109375 0 
L 9.078125 0 
L 9.078125 54.6875 
L 18.109375 54.6875 
L 18.109375 46.1875 
Q 20.953125 51.171875 25.484375 53.578125 
Q 30.03125 56 36.53125 56 
Q 37.453125 56 38.578125 55.875 
Q 39.703125 55.765625 41.0625 55.515625 
z
" id="DejaVuSans-114"/>
       <path id="DejaVuSans-32"/>
       <path d="M 31 75.875 
Q 24.46875 64.65625 21.28125 53.65625 
Q 18.109375 42.671875 18.109375 31.390625 
Q 18.109375 20.125 21.3125 9.0625 
Q 24.515625 -2 31 -13.1875 
L 23.1875 -13.1875 
Q 15.875 -1.703125 12.234375 9.375 
Q 8.59375 20.453125 8.59375 31.390625 
Q 8.59375 42.28125 12.203125 53.3125 
Q 15.828125 64.359375 23.1875 75.875 
z
" id="DejaVuSans-40"/>
       <path d="M 9.078125 75.984375 
L 18.109375 75.984375 
L 18.109375 31.109375 
L 44.921875 54.6875 
L 56.390625 54.6875 
L 27.390625 29.109375 
L 57.625 0 
L 45.90625 0 
L 18.109375 26.703125 
L 18.109375 0 
L 9.078125 0 
z
" id="DejaVuSans-107"/>
       <path d="M 52 44.1875 
Q 55.375 50.25 60.0625 53.125 
Q 64.75 56 71.09375 56 
Q 79.640625 56 84.28125 50.015625 
Q 88.921875 44.046875 88.921875 33.015625 
L 88.921875 0 
L 79.890625 0 
L 79.890625 32.71875 
Q 79.890625 40.578125 77.09375 44.375 
Q 74.3125 48.1875 68.609375 48.1875 
Q 61.625 48.1875 57.5625 43.546875 
Q 53.515625 38.921875 53.515625 30.90625 
L 53.515625 0 
L 44.484375 0 
L 44.484375 32.71875 
Q 44.484375 40.625 41.703125 44.40625 
Q 38.921875 48.1875 33.109375 48.1875 
Q 26.21875 48.1875 22.15625 43.53125 
Q 18.109375 38.875 18.109375 30.90625 
L 18.109375 0 
L 9.078125 0 
L 9.078125 54.6875 
L 18.109375 54.6875 
L 18.109375 46.1875 
Q 21.1875 51.21875 25.484375 53.609375 
Q 29.78125 56 35.6875 56 
Q 41.65625 56 45.828125 52.96875 
Q 50 49.953125 52 44.1875 
z
" id="DejaVuSans-109"/>
       <path d="M 8.015625 75.875 
L 15.828125 75.875 
Q 23.140625 64.359375 26.78125 53.3125 
Q 30.421875 42.28125 30.421875 31.390625 
Q 30.421875 20.453125 26.78125 9.375 
Q 23.140625 -1.703125 15.828125 -13.1875 
L 8.015625 -13.1875 
Q 14.5 -2 17.703125 9.0625 
Q 20.90625 20.125 20.90625 31.390625 
Q 20.90625 42.671875 17.703125 53.65625 
Q 14.5 64.65625 8.015625 75.875 
z
" id="DejaVuSans-41"/>
      </defs>
      <use xlink:href="#DejaVuSans-114"/>
      <use x="41.113281" xlink:href="#DejaVuSans-32"/>
      <use x="72.900391" xlink:href="#DejaVuSans-40"/>
      <use x="111.914062" xlink:href="#DejaVuSans-107"/>
      <use x="169.824219" xlink:href="#DejaVuSans-109"/>
      <use x="267.236328" xlink:href="#DejaVuSans-41"/>
     </g>
    </g>
   </g>
   <g id="matplotlib.axis_2">
    <g id="ytick_1">
     <g id="line2d_5">
      <defs>
       <path d="M 0 0 
L 3.5 0 
" id="maa27abba0e" style="stroke:#000000;stroke-width:0.8;"/>
      </defs>
      <g>
       <use style="stroke:#000000;stroke-width:0.8;" x="48.660938" xlink:href="#maa27abba0e" y="158.22"/>
      </g>
     </g>
     <g id="text_5">
      <!-- −0.5 -->
      <g transform="translate(20.878125 162.019219)scale(0.1 -0.1)">
       <defs>
        <path d="M 10.59375 35.5 
L 73.1875 35.5 
L 73.1875 27.203125 
L 10.59375 27.203125 
z
" id="DejaVuSans-8722"/>
        <path d="M 10.6875 12.40625 
L 21 12.40625 
L 21 0 
L 10.6875 0 
z
" id="DejaVuSans-46"/>
        <path d="M 10.796875 72.90625 
L 49.515625 72.90625 
L 49.515625 64.59375 
L 19.828125 64.59375 
L 19.828125 46.734375 
Q 21.96875 47.46875 24.109375 47.828125 
Q 26.265625 48.1875 28.421875 48.1875 
Q 40.625 48.1875 47.75 41.5 
Q 54.890625 34.8125 54.890625 23.390625 
Q 54.890625 11.625 47.5625 5.09375 
Q 40.234375 -1.421875 26.90625 -1.421875 
Q 22.3125 -1.421875 17.546875 -0.640625 
Q 12.796875 0.140625 7.71875 1.703125 
L 7.71875 11.625 
Q 12.109375 9.234375 16.796875 8.0625 
Q 21.484375 6.890625 26.703125 6.890625 
Q 35.15625 6.890625 40.078125 11.328125 
Q 45.015625 15.765625 45.015625 23.390625 
Q 45.015625 31 40.078125 35.4375 
Q 35.15625 39.890625 26.703125 39.890625 
Q 22.75 39.890625 18.8125 39.015625 
Q 14.890625 38.140625 10.796875 36.28125 
z
" id="DejaVuSans-53"/>
       </defs>
       <use xlink:href="#DejaVuSans-8722"/>
       <use x="83.789062" xlink:href="#DejaVuSans-48"/>
       <use x="147.412109" xlink:href="#DejaVuSans-46"/>
       <use x="179.199219" xlink:href="#DejaVuSans-53"/>
      </g>
     </g>
    </g>
    <g id="ytick_2">
     <g id="line2d_6">
      <g>
       <use style="stroke:#000000;stroke-width:0.8;" x="48.660938" xlink:href="#maa27abba0e" y="90.27"/>
      </g>
     </g>
     <g id="text_6">
      <!-- 0.0 -->
      <g transform="translate(29.257812 94.069219)scale(0.1 -0.1)">
       <use xlink:href="#DejaVuSans-48"/>
       <use x="63.623047" xlink:href="#DejaVuSans-46"/>
       <use x="95.410156" xlink:href="#DejaVuSans-48"/>
      </g>
     </g>
    </g>
    <g id="ytick_3">
     <g id="line2d_7">
      <g>
       <use style="stroke:#000000;stroke-width:0.8;" x="48.660938" xlink:href="#maa27abba0e" y="22.32"/>
      </g>
     </g>
     <g id="text_7">
      <!-- 0.5 -->
      <g transform="translate(29.257812 26.119219)scale(0.1 -0.1)">
       <use xlink:href="#DejaVuSans-48"/>
       <use x="63.623047" xlink:href="#DejaVuSans-46"/>
       <use x="95.410156" xlink:href="#DejaVuSans-53"/>
      </g>
     </g>
    </g>
    <g id="text_8">
     <!-- $\kappa$ -->
     <g transform="translate(14.798438 93.22)rotate(-90)scale(0.1 -0.1)">
      <defs>
       <path d="M 14.65625 54.6875 
L 23.921875 54.6875 
L 19.484375 31.984375 
L 47.515625 54.6875 
L 58.453125 54.6875 
L 32.90625 34.078125 
L 51.171875 0 
L 40.1875 0 
L 25.4375 28.21875 
L 17.53125 21.921875 
L 13.28125 0 
L 4 0 
z
" id="DejaVuSans-Oblique-954"/>
      </defs>
      <use transform="translate(0 0.3125)" xlink:href="#DejaVuSans-Oblique-954"/>
     </g>
    </g>
   </g>
   <g id="line2d_8">
    <path clip-path="url(#pdfb516cc52)" d="M 52.345449 65.665468 
L 56.029961 44.326439 
L 59.714473 89.489231 
L 63.398985 92.671726 
L 67.083497 92.960703 
L 70.768009 90.016732 
L 74.452521 92.885854 
L 78.137033 89.063832 
L 81.821545 88.499832 
L 85.506057 87.315571 
L 89.190569 90.219506 
L 92.875081 91.028257 
L 96.559593 90.376867 
L 100.244105 91.120167 
L 103.928617 91.419051 
L 107.613129 90.544006 
L 111.297641 90.130009 
L 114.982153 90.227438 
L 118.666665 90.170631 
L 122.351177 90.181337 
L 126.035689 90.157445 
L 129.720201 90.110605 
L 133.404713 90.14507 
L 137.089225 90.213715 
L 140.773737 90.281184 
L 144.458249 90.337986 
L 148.142761 90.314733 
L 151.827273 90.341798 
L 155.511785 90.367791 
L 159.196297 90.426764 
L 162.880809 90.432942 
L 166.565321 90.389682 
L 170.249833 90.362741 
L 173.934344 90.320069 
L 177.618856 90.289947 
L 181.303368 90.277344 
L 184.98788 90.26787 
L 188.672392 90.262737 
L 192.356904 90.277571 
L 196.041416 90.292946 
L 199.725928 90.297966 
L 203.41044 90.301895 
L 207.094952 90.297686 
L 210.779464 90.293221 
L 214.463976 90.287501 
L 218.148488 90.270752 
L 221.833 90.264222 
L 225.517512 90.259285 
L 229.202024 90.256261 
L 232.886536 90.262254 
L 236.571048 90.264216 
L 240.25556 90.266766 
L 243.940072 90.268135 
L 247.624584 90.271361 
L 251.309096 90.278756 
L 254.993608 90.284293 
L 258.67812 90.287035 
L 262.362632 90.287879 
L 266.047144 90.288227 
L 269.731656 90.287393 
L 273.416168 90.284987 
L 274.860937 90.283798 
" style="fill:none;stroke:#0000ff;stroke-linecap:square;stroke-width:1.5;"/>
   </g>
   <g id="line2d_9">
    <path clip-path="url(#pdfb516cc52)" d="M 52.345449 112.521781 
L 56.029961 77.696215 
L 59.714473 74.478945 
L 63.398985 97.368916 
L 67.083497 97.549615 
L 70.768009 89.100495 
L 74.452521 93.009544 
L 78.137033 93.893835 
L 81.821545 91.447707 
L 85.506057 89.896739 
L 89.190569 89.236592 
L 92.875081 89.867305 
L 96.559593 89.613398 
L 100.244105 89.731177 
L 103.928617 89.941026 
L 107.613129 89.974501 
L 111.297641 90.018152 
L 114.982153 90.139662 
L 118.666665 90.132662 
L 122.351177 90.226082 
L 126.035689 90.350537 
L 129.720201 90.391191 
L 133.404713 90.302275 
L 137.089225 90.256968 
L 140.773737 90.224931 
L 144.458249 90.217884 
L 148.142761 90.204938 
L 151.827273 90.201962 
L 155.511785 90.201821 
L 159.196297 90.206315 
L 162.880809 90.198753 
L 166.565321 90.19662 
L 170.249833 90.220918 
L 173.934344 90.216528 
L 177.618856 90.243979 
L 181.303368 90.253186 
L 184.98788 90.256304 
L 188.672392 90.271888 
L 192.356904 90.274302 
L 196.041416 90.285003 
L 199.725928 90.288526 
L 203.41044 90.286112 
L 207.094952 90.281858 
L 210.779464 90.275822 
L 214.463976 90.270511 
L 218.148488 90.265086 
L 221.833 90.265503 
L 225.517512 90.263979 
L 229.202024 90.26612 
L 232.886536 90.2664 
L 236.571048 90.268247 
L 240.25556 90.269203 
L 243.940072 90.270771 
L 247.624584 90.270339 
L 251.309096 90.271408 
L 254.993608 90.272569 
L 258.67812 90.273536 
L 262.362632 90.274537 
L 266.047144 90.275697 
L 269.731656 90.277353 
L 273.416168 90.277775 
L 274.860937 90.27771 
" style="fill:none;stroke:#0000ff;stroke-dasharray:5.55,2.4;stroke-dashoffset:0;stroke-width:1.5;"/>
   </g>
   <g id="line2d_10">
    <path clip-path="url(#pdfb516cc52)" d="M 52.345449 93.226341 
L 56.029961 92.172369 
L 59.714473 95.782177 
L 63.398985 96.118133 
L 67.083497 86.564133 
L 70.768009 92.940928 
L 74.452521 90.129725 
L 78.137033 90.484376 
L 81.821545 88.179276 
L 85.506057 89.342359 
L 89.190569 90.77541 
L 92.875081 90.021428 
L 96.559593 90.172069 
L 100.244105 89.692752 
L 103.928617 90.262851 
L 107.613129 90.827144 
L 111.297641 90.552114 
L 114.982153 90.323257 
L 118.666665 90.169902 
L 122.351177 90.231023 
L 126.035689 90.181101 
L 129.720201 90.133432 
L 133.404713 90.2727 
L 137.089225 90.327764 
L 140.773737 90.297944 
L 144.458249 90.297961 
L 148.142761 90.311967 
L 151.827273 90.295961 
L 155.511785 90.282411 
L 159.196297 90.276978 
L 162.880809 90.26595 
L 166.565321 90.274979 
L 170.249833 90.259014 
L 173.934344 90.244253 
L 177.618856 90.237211 
L 181.303368 90.235695 
L 184.98788 90.240888 
L 188.672392 90.250623 
L 192.356904 90.256465 
L 196.041416 90.26454 
L 199.725928 90.280424 
L 203.41044 90.283301 
L 207.094952 90.288987 
L 210.779464 90.288266 
L 214.463976 90.285616 
L 218.148488 90.284528 
L 221.833 90.275016 
L 225.517512 90.273773 
L 229.202024 90.271244 
L 232.886536 90.270542 
L 236.571048 90.269993 
L 240.25556 90.267912 
L 243.940072 90.268814 
L 247.624584 90.265644 
L 251.309096 90.268358 
L 254.993608 90.271888 
L 258.67812 90.273404 
L 262.362632 90.277182 
L 266.047144 90.279814 
L 269.731656 90.280357 
L 273.416168 90.280282 
L 274.860937 90.279598 
" style="fill:none;stroke:#ff0000;stroke-dasharray:5.55,2.4;stroke-dashoffset:0;stroke-width:1.5;"/>
   </g>
   <g id="line2d_11">
    <path clip-path="url(#pdfb516cc52)" d="M 52.345449 150.327011 
L 56.029961 94.388245 
L 59.714473 76.768847 
L 63.398985 86.729497 
L 67.083497 85.996127 
L 70.768009 86.049258 
L 74.452521 90.851089 
L 78.137033 92.737525 
L 81.821545 90.575251 
L 85.506057 89.80749 
L 89.190569 90.123808 
L 92.875081 90.945124 
L 96.559593 91.012881 
L 100.244105 90.742751 
L 103.928617 90.332286 
L 107.613129 90.076951 
L 111.297641 90.288928 
L 114.982153 90.321666 
L 118.666665 90.293184 
L 122.351177 90.291034 
L 126.035689 90.314334 
L 129.720201 90.318293 
L 133.404713 90.267281 
L 137.089225 90.254271 
L 140.773737 90.259079 
L 144.458249 90.265164 
L 148.142761 90.26048 
L 151.827273 90.239981 
L 155.511785 90.250321 
L 159.196297 90.26795 
L 162.880809 90.273241 
L 166.565321 90.2701 
L 170.249833 90.275362 
L 173.934344 90.276691 
L 177.618856 90.282349 
L 181.303368 90.282581 
L 184.98788 90.279295 
L 188.672392 90.272312 
L 192.356904 90.269688 
L 196.041416 90.265973 
L 199.725928 90.265731 
L 203.41044 90.263441 
L 207.094952 90.264257 
L 210.779464 90.265308 
L 214.463976 90.26681 
L 218.148488 90.267849 
L 221.833 90.26828 
L 225.517512 90.26877 
L 229.202024 90.26829 
L 232.886536 90.269025 
L 236.571048 90.270131 
L 240.25556 90.27111 
L 243.940072 90.272541 
L 247.624584 90.272433 
L 251.309096 90.272852 
L 254.993608 90.272339 
L 258.67812 90.272064 
L 262.362632 90.271911 
L 266.047144 90.27173 
L 269.731656 90.27162 
L 273.416168 90.271895 
L 274.860937 90.271908 
" style="fill:none;stroke:#ff0000;stroke-linecap:square;stroke-width:1.5;"/>
   </g>
   <g id="patch_3">
    <path d="M 48.660938 158.22 
L 48.660938 22.32 
" style="fill:none;stroke:#000000;stroke-linecap:square;stroke-linejoin:miter;stroke-width:0.8;"/>
   </g>
   <g id="patch_4">
    <path d="M 184.560937 158.22 
L 184.560937 22.32 
" style="fill:none;stroke:#000000;stroke-linecap:square;stroke-linejoin:miter;stroke-width:0.8;"/>
   </g>
   <g id="patch_5">
    <path d="M 48.660938 158.22 
L 184.560937 158.22 
" style="fill:none;stroke:#000000;stroke-linecap:square;stroke-linejoin:miter;stroke-width:0.8;"/>
   </g>
   <g id="patch_6">
    <path d="M 48.660938 22.32 
L 184.560937 22.32 
" style="fill:none;stroke:#000000;stroke-linecap:square;stroke-linejoin:miter;stroke-width:0.8;"/>
   </g>
   <g id="text_9">
    <!-- $r=5$ km -->
    <g transform="translate(78.558937 32.636437)scale(0.1 -0.1)">
     <defs>
      <path d="M 44.578125 46.390625 
Q 43.21875 47.125 41.453125 47.515625 
Q 39.703125 47.90625 37.703125 47.90625 
Q 30.515625 47.90625 25.140625 42.453125 
Q 19.78125 37.015625 18.015625 27.875 
L 12.5 0 
L 3.515625 0 
L 14.203125 54.6875 
L 23.1875 54.6875 
L 21.484375 46.1875 
Q 25.046875 50.921875 30 53.453125 
Q 34.96875 56 40.578125 56 
Q 42.046875 56 43.453125 55.828125 
Q 44.875 55.671875 46.296875 55.28125 
z
" id="DejaVuSans-Oblique-114"/>
      <path d="M 10.59375 45.40625 
L 73.1875 45.40625 
L 73.1875 37.203125 
L 10.59375 37.203125 
z
M 10.59375 25.484375 
L 73.1875 25.484375 
L 73.1875 17.1875 
L 10.59375 17.1875 
z
" id="DejaVuSans-61"/>
     </defs>
     <use transform="translate(0 0.015625)" xlink:href="#DejaVuSans-Oblique-114"/>
     <use transform="translate(60.595703 0.015625)" xlink:href="#DejaVuSans-61"/>
     <use transform="translate(163.867188 0.015625)" xlink:href="#DejaVuSans-53"/>
     <use transform="translate(227.490234 0.015625)" xlink:href="#DejaVuSans-32"/>
     <use transform="translate(259.277344 0.015625)" xlink:href="#DejaVuSans-107"/>
     <use transform="translate(317.1875 0.015625)" xlink:href="#DejaVuSans-109"/>
    </g>
   </g>
   <g id="text_10">
    <!-- $\kappa = \partial S_i / \partial \phi_j$ -->
    <g transform="translate(87.030937 16.32)scale(0.12 -0.12)">
     <defs>
      <path d="M 21.34375 -1.421875 
Q 14.453125 -1.421875 9.96875 2.734375 
Q 4.640625 7.671875 4.640625 16.609375 
Q 4.640625 25.875 9.328125 33.109375 
Q 14.15625 40.53125 22.859375 40.53125 
Q 28.5625 40.53125 33.0625 36.96875 
Q 35.6875 34.859375 37.5 31.34375 
Q 38.140625 35.296875 38.140625 39.796875 
Q 38.140625 46.390625 36.578125 50.203125 
Q 33.109375 58.640625 23.921875 58.640625 
Q 20.453125 58.640625 15.09375 56.5 
L 15.09375 64.703125 
Q 20.75 66.21875 25.828125 66.21875 
Q 38.921875 66.21875 44.484375 54.203125 
Q 47.078125 48.53125 47.078125 40.09375 
Q 47.078125 34.578125 45.84375 28.171875 
Q 42.78125 12.15625 34.8125 4.546875 
Q 28.5625 -1.421875 21.34375 -1.421875 
z
M 12.984375 15.140625 
Q 12.984375 10.25 15.140625 7.625 
Q 17.4375 4.828125 20.953125 4.828125 
Q 24.078125 4.828125 26.5625 7.03125 
Q 30.078125 10.0625 32.671875 14.984375 
Q 34.8125 19.046875 35.890625 23.390625 
Q 31.546875 33.890625 24.03125 33.890625 
Q 17.578125 33.890625 14.75 25.390625 
Q 12.984375 20.125 12.984375 15.140625 
z
" id="DejaVuSans-8706"/>
      <path d="M 60.296875 70.515625 
L 58.40625 60.890625 
Q 53.46875 63.53125 48.609375 64.875 
Q 43.75 66.21875 39.203125 66.21875 
Q 30.375 66.21875 25.140625 62.359375 
Q 19.921875 58.5 19.921875 52.09375 
Q 19.921875 48.578125 21.84375 46.703125 
Q 23.78125 44.828125 31.78125 42.671875 
L 37.703125 41.21875 
Q 47.703125 38.625 51.609375 34.640625 
Q 55.515625 30.671875 55.515625 23.484375 
Q 55.515625 12.453125 46.84375 5.515625 
Q 38.1875 -1.421875 24.03125 -1.421875 
Q 18.21875 -1.421875 12.359375 -0.265625 
Q 6.5 0.875 0.59375 3.21875 
L 2.59375 13.375 
Q 8.015625 10.015625 13.453125 8.296875 
Q 18.890625 6.59375 24.3125 6.59375 
Q 33.546875 6.59375 39.109375 10.6875 
Q 44.671875 14.796875 44.671875 21.390625 
Q 44.671875 25.78125 42.453125 28.046875 
Q 40.234375 30.328125 32.90625 32.171875 
L 27 33.6875 
Q 16.890625 36.328125 13.203125 39.765625 
Q 9.515625 43.21875 9.515625 49.421875 
Q 9.515625 60.296875 17.890625 67.25 
Q 26.265625 74.21875 39.703125 74.21875 
Q 44.921875 74.21875 50.046875 73.28125 
Q 55.171875 72.359375 60.296875 70.515625 
z
" id="DejaVuSans-Oblique-83"/>
      <path d="M 18.3125 75.984375 
L 27.296875 75.984375 
L 25.09375 64.59375 
L 16.109375 64.59375 
z
M 14.203125 54.6875 
L 23.1875 54.6875 
L 12.5 0 
L 3.515625 0 
z
" id="DejaVuSans-Oblique-105"/>
      <path d="M 25.390625 72.90625 
L 33.6875 72.90625 
L 8.296875 -9.28125 
L 0 -9.28125 
z
" id="DejaVuSans-47"/>
      <path d="M 46.734375 75.984375 
L 42.78125 55.8125 
Q 52.546875 55.8125 57.5625 48.34375 
Q 62.75 40.71875 60.15625 27.296875 
Q 57.515625 13.875 49.359375 6.25 
Q 41.453125 -1.21875 31.6875 -1.21875 
L 27.875 -20.796875 
L 18.953125 -20.796875 
L 22.75 -1.21875 
Q 13.03125 -1.21875 7.953125 6.25 
Q 2.78125 13.875 5.421875 27.296875 
Q 8.015625 40.71875 16.15625 48.34375 
Q 24.125 55.8125 33.84375 55.8125 
L 37.796875 75.984375 
z
M 33.25 6.78125 
Q 38.765625 6.78125 43.5 11.8125 
Q 48.6875 17.4375 50.6875 27.296875 
Q 52.640625 37.0625 49.515625 42.78125 
Q 46.734375 47.796875 41.21875 47.796875 
z
M 24.3125 6.78125 
L 32.28125 47.796875 
Q 26.8125 47.796875 22.078125 42.78125 
Q 16.75 37.0625 14.890625 27.296875 
Q 13.03125 17.4375 16.0625 11.8125 
Q 18.796875 6.78125 24.3125 6.78125 
z
" id="DejaVuSans-Oblique-981"/>
      <path d="M 14.5 54.6875 
L 23.484375 54.6875 
L 12.703125 -0.984375 
L 12.640625 -1.21875 
Q 10.84375 -10.546875 8.5 -14.015625 
Q 6.296875 -17.28125 2.0625 -19.03125 
Q -2.15625 -20.796875 -7.90625 -20.796875 
L -11.28125 -20.796875 
L -9.8125 -13.1875 
L -7.515625 -13.1875 
Q -2.25 -13.1875 -0.015625 -10.984375 
Q 2.203125 -8.796875 3.71875 -0.984375 
z
M 18.703125 75.984375 
L 27.6875 75.984375 
L 25.484375 64.59375 
L 16.5 64.59375 
z
" id="DejaVuSans-Oblique-106"/>
     </defs>
     <use transform="translate(0 0.015625)" xlink:href="#DejaVuSans-Oblique-954"/>
     <use transform="translate(78.417969 0.015625)" xlink:href="#DejaVuSans-61"/>
     <use transform="translate(181.689453 0.015625)" xlink:href="#DejaVuSans-8706"/>
     <use transform="translate(233.398438 0.015625)" xlink:href="#DejaVuSans-Oblique-83"/>
     <use transform="translate(296.875 -16.390625)scale(0.7)" xlink:href="#DejaVuSans-Oblique-105"/>
     <use transform="translate(319.057617 0.015625)" xlink:href="#DejaVuSans-47"/>
     <use transform="translate(352.749023 0.015625)" xlink:href="#DejaVuSans-8706"/>
     <use transform="translate(404.458008 0.015625)" xlink:href="#DejaVuSans-Oblique-981"/>
     <use transform="translate(470.424805 -16.390625)scale(0.7)" xlink:href="#DejaVuSans-Oblique-106"/>
    </g>
   </g>
   <g id="legend_1">
    <g id="patch_7">
     <path d="M 191.560937 121.17 
L 264.660937 121.17 
Q 266.660937 121.17 266.660937 119.17 
L 266.660937 61.37 
Q 266.660937 59.37 264.660937 59.37 
L 191.560937 59.37 
Q 189.560937 59.37 189.560937 61.37 
L 189.560937 119.17 
Q 189.560937 121.17 191.560937 121.17 
z
" style="fill:none;opacity:0;"/>
    </g>
    <g id="line2d_12">
     <path d="M 193.560937 67.47 
L 213.560937 67.47 
" style="fill:none;stroke:#0000ff;stroke-linecap:square;stroke-width:1.5;"/>
    </g>
    <g id="line2d_13"/>
    <g id="text_11">
     <!-- $\partial S_W / \partial \phi_W$ -->
     <g transform="translate(221.560937 70.97)scale(0.1 -0.1)">
      <defs>
       <path d="M 9.625 72.90625 
L 19.1875 72.90625 
L 22.703125 10.890625 
L 50.203125 72.90625 
L 61.1875 72.90625 
L 64.796875 10.890625 
L 92 72.90625 
L 102 72.90625 
L 69.578125 0 
L 57.171875 0 
L 53.8125 60.796875 
L 26.515625 0 
L 14.109375 0 
z
" id="DejaVuSans-Oblique-87"/>
      </defs>
      <use transform="translate(0 0.015625)" xlink:href="#DejaVuSans-8706"/>
      <use transform="translate(51.708984 0.015625)" xlink:href="#DejaVuSans-Oblique-83"/>
      <use transform="translate(115.185547 -16.390625)scale(0.7)" xlink:href="#DejaVuSans-Oblique-87"/>
      <use transform="translate(187.133789 0.015625)" xlink:href="#DejaVuSans-47"/>
      <use transform="translate(220.825195 0.015625)" xlink:href="#DejaVuSans-8706"/>
      <use transform="translate(272.53418 0.015625)" xlink:href="#DejaVuSans-Oblique-981"/>
      <use transform="translate(338.500977 -16.390625)scale(0.7)" xlink:href="#DejaVuSans-Oblique-87"/>
     </g>
    </g>
    <g id="line2d_14">
     <path d="M 193.560937 82.17 
L 213.560937 82.17 
" style="fill:none;stroke:#0000ff;stroke-dasharray:5.55,2.4;stroke-dashoffset:0;stroke-width:1.5;"/>
    </g>
    <g id="line2d_15"/>
    <g id="text_12">
     <!-- $\partial S_W / \partial \phi_B$ -->
     <g transform="translate(221.560937 85.67)scale(0.1 -0.1)">
      <defs>
       <path d="M 16.890625 72.90625 
L 42.09375 72.90625 
Q 52.34375 72.90625 57.421875 69.09375 
Q 62.5 65.28125 62.5 57.625 
Q 62.5 50.59375 58.125 45.484375 
Q 53.765625 40.375 46.6875 39.3125 
Q 52.734375 37.9375 55.765625 34.078125 
Q 58.796875 30.21875 58.796875 23.78125 
Q 58.796875 12.796875 50.65625 6.390625 
Q 42.53125 0 28.421875 0 
L 2.6875 0 
z
M 19.28125 34.8125 
L 14.109375 8.109375 
L 29.984375 8.109375 
Q 38.921875 8.109375 43.75 12.203125 
Q 48.578125 16.3125 48.578125 23.78125 
Q 48.578125 29.546875 45.375 32.171875 
Q 42.1875 34.8125 35.109375 34.8125 
z
M 25.09375 64.796875 
L 20.796875 42.828125 
L 35.5 42.828125 
Q 43.359375 42.828125 47.78125 46.234375 
Q 52.203125 49.65625 52.203125 55.71875 
Q 52.203125 60.453125 49.21875 62.625 
Q 46.234375 64.796875 39.703125 64.796875 
z
" id="DejaVuSans-Oblique-66"/>
      </defs>
      <use transform="translate(0 0.015625)" xlink:href="#DejaVuSans-8706"/>
      <use transform="translate(51.708984 0.015625)" xlink:href="#DejaVuSans-Oblique-83"/>
      <use transform="translate(115.185547 -16.390625)scale(0.7)" xlink:href="#DejaVuSans-Oblique-87"/>
      <use transform="translate(187.133789 0.015625)" xlink:href="#DejaVuSans-47"/>
      <use transform="translate(220.825195 0.015625)" xlink:href="#DejaVuSans-8706"/>
      <use transform="translate(272.53418 0.015625)" xlink:href="#DejaVuSans-Oblique-981"/>
      <use transform="translate(338.500977 -16.390625)scale(0.7)" xlink:href="#DejaVuSans-Oblique-66"/>
     </g>
    </g>
    <g id="line2d_16">
     <path d="M 193.560937 96.87 
L 213.560937 96.87 
" style="fill:none;stroke:#ff0000;stroke-dasharray:5.55,2.4;stroke-dashoffset:0;stroke-width:1.5;"/>
    </g>
    <g id="line2d_17"/>
    <g id="text_13">
     <!-- $\partial S_B / \partial \phi_W$ -->
     <g transform="translate(221.560937 100.37)scale(0.1 -0.1)">
      <use transform="translate(0 0.015625)" xlink:href="#DejaVuSans-8706"/>
      <use transform="translate(51.708984 0.015625)" xlink:href="#DejaVuSans-Oblique-83"/>
      <use transform="translate(115.185547 -16.390625)scale(0.7)" xlink:href="#DejaVuSans-Oblique-66"/>
      <use transform="translate(165.942383 0.015625)" xlink:href="#DejaVuSans-47"/>
      <use transform="translate(199.633789 0.015625)" xlink:href="#DejaVuSans-8706"/>
      <use transform="translate(251.342773 0.015625)" xlink:href="#DejaVuSans-Oblique-981"/>
      <use transform="translate(317.30957 -16.390625)scale(0.7)" xlink:href="#DejaVuSans-Oblique-87"/>
     </g>
    </g>
    <g id="line2d_18">
     <path d="M 193.560937 111.57 
L 213.560937 111.57 
" style="fill:none;stroke:#ff0000;stroke-linecap:square;stroke-width:1.5;"/>
    </g>
    <g id="line2d_19"/>
    <g id="text_14">
     <!-- $\partial S_B / \partial \phi_B$ -->
     <g transform="translate(221.560937 115.07)scale(0.1 -0.1)">
      <use transform="translate(0 0.015625)" xlink:href="#DejaVuSans-8706"/>
      <use transform="translate(51.708984 0.015625)" xlink:href="#DejaVuSans-Oblique-83"/>
      <use transform="translate(115.185547 -16.390625)scale(0.7)" xlink:href="#DejaVuSans-Oblique-66"/>
      <use transform="translate(165.942383 0.015625)" xlink:href="#DejaVuSans-47"/>
      <use transform="translate(199.633789 0.015625)" xlink:href="#DejaVuSans-8706"/>
      <use transform="translate(251.342773 0.015625)" xlink:href="#DejaVuSans-Oblique-981"/>
      <use transform="translate(317.30957 -16.390625)scale(0.7)" xlink:href="#DejaVuSans-Oblique-66"/>
     </g>
    </g>
   </g>
  </g>
 </g>
 <defs>
  <clipPath id="pdfb516cc52">
   <rect height="135.9" width="135.9" x="48.660938" y="22.32"/>
  </clipPath>
 </defs>
</svg>
