<?xml version="1.0" encoding="utf-8" standalone="no"?>
<!DOCTYPE svg PUBLIC "-//W3C//DTD SVG 1.1//EN"
  "http://www.w3.org/Graphics/SVG/1.1/DTD/svg11.dtd">
<svg xmlns:xlink="http://www.w3.org/1999/xlink" width="276.560938pt" height="194.97625pt" viewBox="0 0 276.560938 194.97625" xmlns="http://www.w3.org/2000/svg" version="1.1">
 <metadata>
  <rdf:RDF xmlns:dc="http://purl.org/dc/elements/1.1/" xmlns:cc="http://creativecommons.org/ns#" xmlns:rdf="http://www.w3.org/1999/02/22-rdf-syntax-ns#">
   <cc:Work>
    <dc:type rdf:resource="http://purl.org/dc/dcmitype/StillImage"/>
    <dc:date>2024-02-26T18:25:48.481366</dc:date>
    <dc:format>image/svg+xml</dc:format>
    <dc:creator>
     <cc:Agent>
      <dc:title>Matplotlib v3.5.2, https://matplotlib.org/</dc:title>
     </cc:Agent>
    </dc:creator>
   </cc:Work>
  </rdf:RDF>
 </metadata>
 <defs>
  <style type="text/css">*{stroke-linejoin: round; stroke-linecap: butt}</style>
 </defs>
 <g id="figure_1">
  <g id="patch_1">
   <path d="M 0 194.97625 
L 276.560938 194.97625 
L 276.560938 0 
L 0 0 
z
" style="fill: #ffffff"/>
  </g>
  <g id="axes_1">
   <g id="patch_2">
    <path d="M 48.660938 160.92 
L 187.260937 160.92 
L 187.260937 22.32 
L 48.660938 22.32 
z
" style="fill: #ffffff"/>
   </g>
   <g id="line2d_1">
    <path d="M 76.380937 160.92 
L 76.380937 22.32 
" clip-path="url(#p34ffecd8c5)" style="fill: none; stroke-dasharray: 5.55,2.4; stroke-dashoffset: 0; stroke: #808080; stroke-width: 1.5"/>
   </g>
   <g id="matplotlib.axis_1">
    <g id="xtick_1">
     <g id="line2d_2">
      <defs>
       <path id="m5836776e07" d="M 0 0 
L 0 -3.5 
" style="stroke: #000000; stroke-width: 0.8"/>
      </defs>
      <g>
       <use xlink:href="#m5836776e07" x="48.660938" y="160.92" style="stroke: #000000; stroke-width: 0.8"/>
      </g>
     </g>
     <g id="text_1">
      <!-- 0 -->
      <g transform="translate(45.479688 172.018438)scale(0.1 -0.1)">
       <defs>
        <path id="DejaVuSans-30" d="M 2034 4250 
Q 1547 4250 1301 3770 
Q 1056 3291 1056 2328 
Q 1056 1369 1301 889 
Q 1547 409 2034 409 
Q 2525 409 2770 889 
Q 3016 1369 3016 2328 
Q 3016 3291 2770 3770 
Q 2525 4250 2034 4250 
z
M 2034 4750 
Q 2819 4750 3233 4129 
Q 3647 3509 3647 2328 
Q 3647 1150 3233 529 
Q 2819 -91 2034 -91 
Q 1250 -91 836 529 
Q 422 1150 422 2328 
Q 422 3509 836 4129 
Q 1250 4750 2034 4750 
z
" transform="scale(0.015625)"/>
       </defs>
       <use xlink:href="#DejaVuSans-30"/>
      </g>
     </g>
    </g>
    <g id="xtick_2">
     <g id="line2d_3">
      <g>
       <use xlink:href="#m5836776e07" x="104.100937" y="160.92" style="stroke: #000000; stroke-width: 0.8"/>
      </g>
     </g>
     <g id="text_2">
      <!-- 10 -->
      <g transform="translate(97.738437 172.018438)scale(0.1 -0.1)">
       <defs>
        <path id="DejaVuSans-31" d="M 794 531 
L 1825 531 
L 1825 4091 
L 703 3866 
L 703 4441 
L 1819 4666 
L 2450 4666 
L 2450 531 
L 3481 531 
L 3481 0 
L 794 0 
L 794 531 
z
" transform="scale(0.015625)"/>
       </defs>
       <use xlink:href="#DejaVuSans-31"/>
       <use xlink:href="#DejaVuSans-30" x="63.623047"/>
      </g>
     </g>
    </g>
    <g id="xtick_3">
     <g id="line2d_4">
      <g>
       <use xlink:href="#m5836776e07" x="159.540937" y="160.92" style="stroke: #000000; stroke-width: 0.8"/>
      </g>
     </g>
     <g id="text_3">
      <!-- 20 -->
      <g transform="translate(153.178437 172.018438)scale(0.1 -0.1)">
       <defs>
        <path id="DejaVuSans-32" d="M 1228 531 
L 3431 531 
L 3431 0 
L 469 0 
L 469 531 
Q 828 903 1448 1529 
Q 2069 2156 2228 2338 
Q 2531 2678 2651 2914 
Q 2772 3150 2772 3378 
Q 2772 3750 2511 3984 
Q 2250 4219 1831 4219 
Q 1534 4219 1204 4116 
Q 875 4013 500 3803 
L 500 4441 
Q 881 4594 1212 4672 
Q 1544 4750 1819 4750 
Q 2544 4750 2975 4387 
Q 3406 4025 3406 3419 
Q 3406 3131 3298 2873 
Q 3191 2616 2906 2266 
Q 2828 2175 2409 1742 
Q 1991 1309 1228 531 
z
" transform="scale(0.015625)"/>
       </defs>
       <use xlink:href="#DejaVuSans-32"/>
       <use xlink:href="#DejaVuSans-30" x="63.623047"/>
      </g>
     </g>
    </g>
    <g id="text_4">
     <!-- r (km) -->
     <g transform="translate(102.649219 185.696563)scale(0.1 -0.1)">
      <defs>
       <path id="DejaVuSans-72" d="M 2631 2963 
Q 2534 3019 2420 3045 
Q 2306 3072 2169 3072 
Q 1681 3072 1420 2755 
Q 1159 2438 1159 1844 
L 1159 0 
L 581 0 
L 581 3500 
L 1159 3500 
L 1159 2956 
Q 1341 3275 1631 3429 
Q 1922 3584 2338 3584 
Q 2397 3584 2469 3576 
Q 2541 3569 2628 3553 
L 2631 2963 
z
" transform="scale(0.015625)"/>
       <path id="DejaVuSans-20" transform="scale(0.015625)"/>
       <path id="DejaVuSans-28" d="M 1984 4856 
Q 1566 4138 1362 3434 
Q 1159 2731 1159 2009 
Q 1159 1288 1364 580 
Q 1569 -128 1984 -844 
L 1484 -844 
Q 1016 -109 783 600 
Q 550 1309 550 2009 
Q 550 2706 781 3412 
Q 1013 4119 1484 4856 
L 1984 4856 
z
" transform="scale(0.015625)"/>
       <path id="DejaVuSans-6b" d="M 581 4863 
L 1159 4863 
L 1159 1991 
L 2875 3500 
L 3609 3500 
L 1753 1863 
L 3688 0 
L 2938 0 
L 1159 1709 
L 1159 0 
L 581 0 
L 581 4863 
z
" transform="scale(0.015625)"/>
       <path id="DejaVuSans-6d" d="M 3328 2828 
Q 3544 3216 3844 3400 
Q 4144 3584 4550 3584 
Q 5097 3584 5394 3201 
Q 5691 2819 5691 2113 
L 5691 0 
L 5113 0 
L 5113 2094 
Q 5113 2597 4934 2840 
Q 4756 3084 4391 3084 
Q 3944 3084 3684 2787 
Q 3425 2491 3425 1978 
L 3425 0 
L 2847 0 
L 2847 2094 
Q 2847 2600 2669 2842 
Q 2491 3084 2119 3084 
Q 1678 3084 1418 2786 
Q 1159 2488 1159 1978 
L 1159 0 
L 581 0 
L 581 3500 
L 1159 3500 
L 1159 2956 
Q 1356 3278 1631 3431 
Q 1906 3584 2284 3584 
Q 2666 3584 2933 3390 
Q 3200 3197 3328 2828 
z
" transform="scale(0.015625)"/>
       <path id="DejaVuSans-29" d="M 513 4856 
L 1013 4856 
Q 1481 4119 1714 3412 
Q 1947 2706 1947 2009 
Q 1947 1309 1714 600 
Q 1481 -109 1013 -844 
L 513 -844 
Q 928 -128 1133 580 
Q 1338 1288 1338 2009 
Q 1338 2731 1133 3434 
Q 928 4138 513 4856 
z
" transform="scale(0.015625)"/>
      </defs>
      <use xlink:href="#DejaVuSans-72"/>
      <use xlink:href="#DejaVuSans-20" x="41.113281"/>
      <use xlink:href="#DejaVuSans-28" x="72.900391"/>
      <use xlink:href="#DejaVuSans-6b" x="111.914062"/>
      <use xlink:href="#DejaVuSans-6d" x="169.824219"/>
      <use xlink:href="#DejaVuSans-29" x="267.236328"/>
     </g>
    </g>
   </g>
   <g id="matplotlib.axis_2">
    <g id="ytick_1">
     <g id="line2d_5">
      <defs>
       <path id="mea7b39ca70" d="M 0 0 
L 3.5 0 
" style="stroke: #000000; stroke-width: 0.8"/>
      </defs>
      <g>
       <use xlink:href="#mea7b39ca70" x="48.660938" y="160.92" style="stroke: #000000; stroke-width: 0.8"/>
      </g>
     </g>
     <g id="text_5">
      <!-- −0.5 -->
      <g transform="translate(20.878125 164.719219)scale(0.1 -0.1)">
       <defs>
        <path id="DejaVuSans-2212" d="M 678 2272 
L 4684 2272 
L 4684 1741 
L 678 1741 
L 678 2272 
z
" transform="scale(0.015625)"/>
        <path id="DejaVuSans-2e" d="M 684 794 
L 1344 794 
L 1344 0 
L 684 0 
L 684 794 
z
" transform="scale(0.015625)"/>
        <path id="DejaVuSans-35" d="M 691 4666 
L 3169 4666 
L 3169 4134 
L 1269 4134 
L 1269 2991 
Q 1406 3038 1543 3061 
Q 1681 3084 1819 3084 
Q 2600 3084 3056 2656 
Q 3513 2228 3513 1497 
Q 3513 744 3044 326 
Q 2575 -91 1722 -91 
Q 1428 -91 1123 -41 
Q 819 9 494 109 
L 494 744 
Q 775 591 1075 516 
Q 1375 441 1709 441 
Q 2250 441 2565 725 
Q 2881 1009 2881 1497 
Q 2881 1984 2565 2268 
Q 2250 2553 1709 2553 
Q 1456 2553 1204 2497 
Q 953 2441 691 2322 
L 691 4666 
z
" transform="scale(0.015625)"/>
       </defs>
       <use xlink:href="#DejaVuSans-2212"/>
       <use xlink:href="#DejaVuSans-30" x="83.789062"/>
       <use xlink:href="#DejaVuSans-2e" x="147.412109"/>
       <use xlink:href="#DejaVuSans-35" x="179.199219"/>
      </g>
     </g>
    </g>
    <g id="ytick_2">
     <g id="line2d_6">
      <g>
       <use xlink:href="#mea7b39ca70" x="48.660938" y="91.62" style="stroke: #000000; stroke-width: 0.8"/>
      </g>
     </g>
     <g id="text_6">
      <!-- 0.0 -->
      <g transform="translate(29.257812 95.419219)scale(0.1 -0.1)">
       <use xlink:href="#DejaVuSans-30"/>
       <use xlink:href="#DejaVuSans-2e" x="63.623047"/>
       <use xlink:href="#DejaVuSans-30" x="95.410156"/>
      </g>
     </g>
    </g>
    <g id="ytick_3">
     <g id="line2d_7">
      <g>
       <use xlink:href="#mea7b39ca70" x="48.660938" y="22.32" style="stroke: #000000; stroke-width: 0.8"/>
      </g>
     </g>
     <g id="text_7">
      <!-- 0.5 -->
      <g transform="translate(29.257812 26.119219)scale(0.1 -0.1)">
       <use xlink:href="#DejaVuSans-30"/>
       <use xlink:href="#DejaVuSans-2e" x="63.623047"/>
       <use xlink:href="#DejaVuSans-35" x="95.410156"/>
      </g>
     </g>
    </g>
    <g id="text_8">
     <!-- $\kappa$ -->
     <g transform="translate(14.798438 94.57)rotate(-90)scale(0.1 -0.1)">
      <defs>
       <path id="DejaVuSans-Oblique-3ba" d="M 938 3500 
L 1531 3500 
L 1247 2047 
L 3041 3500 
L 3741 3500 
L 2106 2181 
L 3275 0 
L 2572 0 
L 1628 1806 
L 1122 1403 
L 850 0 
L 256 0 
L 938 3500 
z
" transform="scale(0.015625)"/>
      </defs>
      <use xlink:href="#DejaVuSans-Oblique-3ba" transform="translate(0 0.3125)"/>
     </g>
    </g>
   </g>
   <g id="line2d_8">
    <path d="M 52.418652 66.220977 
L 56.176366 44.50887 
L 59.93408 91.060925 
L 63.691794 93.879433 
L 67.449508 94.417134 
L 71.207223 91.413455 
L 74.964937 94.214822 
L 78.722651 90.211122 
L 82.480365 89.740475 
L 86.238079 88.601362 
L 89.995794 91.598127 
L 93.753508 92.439555 
L 97.511222 91.746784 
L 101.268936 92.495656 
L 105.02665 92.778515 
L 108.784365 91.887913 
L 112.542079 91.476836 
L 116.299793 91.578399 
L 120.057507 91.516766 
L 123.815221 91.528253 
L 127.572936 91.502474 
L 131.33065 91.45667 
L 135.088364 91.484052 
L 138.846078 91.557344 
L 142.603792 91.629809 
L 146.361507 91.690116 
L 150.119221 91.666917 
L 153.876935 91.698077 
L 157.634649 91.729667 
L 161.392363 91.782799 
L 165.150078 91.78466 
L 168.907792 91.735747 
L 172.665506 91.712599 
L 176.42322 91.669623 
L 180.180934 91.641745 
L 183.938649 91.631525 
L 187.696363 91.621886 
L 191.454077 91.612737 
L 195.211791 91.628072 
L 198.969505 91.645486 
L 202.727219 91.650197 
L 206.484934 91.653796 
L 210.242648 91.648988 
L 214.000362 91.644551 
L 217.758076 91.637929 
L 221.51579 91.620372 
L 225.273505 91.613105 
L 229.031219 91.608599 
L 232.788933 91.606163 
L 236.546647 91.611938 
L 240.304361 91.613539 
L 244.062076 91.616102 
L 247.81979 91.617918 
L 251.577504 91.622076 
L 255.335218 91.63038 
L 259.092932 91.635474 
L 262.850647 91.637583 
L 266.608361 91.638158 
L 270.366075 91.63833 
L 274.123789 91.637758 
L 277.560938 91.635623 
" clip-path="url(#p34ffecd8c5)" style="fill: none; stroke: #0000ff; stroke-width: 1.5; stroke-linecap: square"/>
   </g>
   <g id="line2d_9">
    <path d="M 52.418652 114.419442 
L 56.176366 78.792888 
L 59.93408 75.499441 
L 63.691794 98.79176 
L 67.449508 99.017767 
L 71.207223 90.544896 
L 74.964937 94.482075 
L 78.722651 95.303623 
L 82.480365 92.814581 
L 86.238079 91.193 
L 89.995794 90.551895 
L 93.753508 91.203729 
L 97.511222 90.957033 
L 101.268936 91.067438 
L 105.02665 91.290267 
L 108.784365 91.320954 
L 112.542079 91.365262 
L 116.299793 91.494621 
L 120.057507 91.485971 
L 123.815221 91.583333 
L 127.572936 91.70033 
L 131.33065 91.740125 
L 135.088364 91.651893 
L 138.846078 91.607111 
L 142.603792 91.573743 
L 146.361507 91.566928 
L 150.119221 91.549812 
L 153.876935 91.547529 
L 157.634649 91.550321 
L 161.392363 91.557399 
L 165.150078 91.551073 
L 168.907792 91.54769 
L 172.665506 91.570552 
L 176.42322 91.565082 
L 180.180934 91.593771 
L 183.938649 91.603512 
L 187.696363 91.606623 
L 191.454077 91.622793 
L 195.211791 91.625963 
L 198.969505 91.635747 
L 202.727219 91.638467 
L 206.484934 91.636826 
L 210.242648 91.632157 
L 214.000362 91.625286 
L 217.758076 91.61978 
L 221.51579 91.614745 
L 225.273505 91.615458 
L 229.031219 91.613946 
L 232.788933 91.616264 
L 236.546647 91.616408 
L 240.304361 91.618246 
L 244.062076 91.619179 
L 247.81979 91.620734 
L 251.577504 91.620584 
L 255.335218 91.62157 
L 259.092932 91.622405 
L 262.850647 91.623369 
L 266.608361 91.624601 
L 270.366075 91.625934 
L 274.123789 91.627642 
L 277.560938 91.627886 
" clip-path="url(#p34ffecd8c5)" style="fill: none; stroke-dasharray: 5.55,2.4; stroke-dashoffset: 0; stroke: #0000ff; stroke-width: 1.5"/>
   </g>
   <g id="line2d_10">
    <path d="M 52.418652 94.206577 
L 56.176366 93.892519 
L 59.93408 97.355977 
L 63.691794 97.636658 
L 67.449508 87.838419 
L 71.207223 94.33464 
L 74.964937 91.442047 
L 78.722651 91.84595 
L 82.480365 89.489979 
L 86.238079 90.688049 
L 89.995794 92.125926 
L 93.753508 91.359485 
L 97.511222 91.524287 
L 101.268936 91.027888 
L 105.02665 91.606438 
L 108.784365 92.191039 
L 112.542079 91.907725 
L 116.299793 91.68038 
L 120.057507 91.524781 
L 123.815221 91.580659 
L 127.572936 91.524992 
L 131.33065 91.482691 
L 135.088364 91.621768 
L 138.846078 91.680886 
L 142.603792 91.653192 
L 146.361507 91.650733 
L 150.119221 91.658887 
L 153.876935 91.644667 
L 157.634649 91.63683 
L 161.392363 91.628936 
L 165.150078 91.612516 
L 168.907792 91.620315 
L 172.665506 91.608765 
L 176.42322 91.595772 
L 180.180934 91.587875 
L 183.938649 91.583596 
L 187.696363 91.589578 
L 191.454077 91.598376 
L 195.211791 91.605676 
L 198.969505 91.615965 
L 202.727219 91.630517 
L 206.484934 91.6338 
L 210.242648 91.639385 
L 214.000362 91.639692 
L 217.758076 91.63618 
L 221.51579 91.634705 
L 225.273505 91.624354 
L 229.031219 91.623384 
L 232.788933 91.62151 
L 236.546647 91.621254 
L 240.304361 91.62026 
L 244.062076 91.617341 
L 247.81979 91.618255 
L 251.577504 91.615684 
L 255.335218 91.618858 
L 259.092932 91.622175 
L 262.850647 91.623544 
L 266.608361 91.627491 
L 270.366075 91.630132 
L 274.123789 91.630671 
L 277.560938 91.630536 
" clip-path="url(#p34ffecd8c5)" style="fill: none; stroke-dasharray: 5.55,2.4; stroke-dashoffset: 0; stroke: #ff0000; stroke-width: 1.5"/>
   </g>
   <g id="line2d_11">
    <path d="M 52.418652 152.987214 
L 56.176366 95.780017 
L 59.93408 77.94792 
L 63.691794 88.084632 
L 67.449508 87.201453 
L 71.207223 87.290513 
L 74.964937 92.222085 
L 78.722651 94.148274 
L 82.480365 91.919971 
L 86.238079 91.139504 
L 89.995794 91.472931 
L 93.753508 92.307042 
L 97.511222 92.384772 
L 101.268936 92.104897 
L 105.02665 91.683363 
L 108.784365 91.417101 
L 112.542079 91.637762 
L 116.299793 91.67214 
L 120.057507 91.646977 
L 123.815221 91.640567 
L 127.572936 91.664525 
L 131.33065 91.670447 
L 135.088364 91.614889 
L 138.846078 91.601573 
L 142.603792 91.608656 
L 146.361507 91.617967 
L 150.119221 91.61072 
L 153.876935 91.590056 
L 157.634649 91.601243 
L 161.392363 91.617561 
L 165.150078 91.622259 
L 168.907792 91.619025 
L 172.665506 91.625267 
L 176.42322 91.626272 
L 180.180934 91.632239 
L 183.938649 91.63326 
L 187.696363 91.629906 
L 191.454077 91.622465 
L 195.211791 91.619975 
L 198.969505 91.616095 
L 202.727219 91.615073 
L 206.484934 91.612796 
L 210.242648 91.614248 
L 214.000362 91.615705 
L 217.758076 91.617129 
L 221.51579 91.617777 
L 225.273505 91.618209 
L 229.031219 91.618575 
L 232.788933 91.618158 
L 236.546647 91.618932 
L 240.304361 91.620099 
L 244.062076 91.62127 
L 247.81979 91.622936 
L 251.577504 91.622727 
L 255.335218 91.622953 
L 259.092932 91.622255 
L 262.850647 91.622068 
L 266.608361 91.621908 
L 270.366075 91.621704 
L 274.123789 91.621568 
L 277.560938 91.621957 
" clip-path="url(#p34ffecd8c5)" style="fill: none; stroke: #ff0000; stroke-width: 1.5; stroke-linecap: square"/>
   </g>
   <g id="patch_3">
    <path d="M 48.660938 160.92 
L 48.660938 22.32 
" style="fill: none"/>
   </g>
   <g id="patch_4">
    <path d="M 187.260937 160.92 
L 187.260937 22.32 
" style="fill: none"/>
   </g>
   <g id="patch_5">
    <path d="M 48.660938 160.92 
L 187.260937 160.92 
" style="fill: none"/>
   </g>
   <g id="patch_6">
    <path d="M 48.660938 22.32 
L 187.260937 22.32 
" style="fill: none"/>
   </g>
   <g id="text_9">
    <!-- $r=5$ km -->
    <g transform="translate(79.152937 32.690438)scale(0.1 -0.1)">
     <defs>
      <path id="DejaVuSans-Oblique-72" d="M 2853 2969 
Q 2766 3016 2653 3041 
Q 2541 3066 2413 3066 
Q 1953 3066 1609 2717 
Q 1266 2369 1153 1784 
L 800 0 
L 225 0 
L 909 3500 
L 1484 3500 
L 1375 2956 
Q 1603 3259 1920 3421 
Q 2238 3584 2597 3584 
Q 2691 3584 2781 3573 
Q 2872 3563 2963 3538 
L 2853 2969 
z
" transform="scale(0.015625)"/>
      <path id="DejaVuSans-3d" d="M 678 2906 
L 4684 2906 
L 4684 2381 
L 678 2381 
L 678 2906 
z
M 678 1631 
L 4684 1631 
L 4684 1100 
L 678 1100 
L 678 1631 
z
" transform="scale(0.015625)"/>
     </defs>
     <use xlink:href="#DejaVuSans-Oblique-72" transform="translate(0 0.015625)"/>
     <use xlink:href="#DejaVuSans-3d" transform="translate(60.595703 0.015625)"/>
     <use xlink:href="#DejaVuSans-35" transform="translate(163.867188 0.015625)"/>
     <use xlink:href="#DejaVuSans-20" transform="translate(227.490234 0.015625)"/>
     <use xlink:href="#DejaVuSans-6b" transform="translate(259.277344 0.015625)"/>
     <use xlink:href="#DejaVuSans-6d" transform="translate(317.1875 0.015625)"/>
    </g>
   </g>
   <g id="text_10">
    <!-- $\kappa = \partial S_i / \partial \phi_j$ -->
    <g transform="translate(88.380937 16.32)scale(0.12 -0.12)">
     <defs>
      <path id="DejaVuSans-2202" d="M 1366 -91 
Q 925 -91 638 175 
Q 297 491 297 1063 
Q 297 1656 597 2119 
Q 906 2594 1463 2594 
Q 1828 2594 2116 2366 
Q 2284 2231 2400 2006 
Q 2441 2259 2441 2547 
Q 2441 2969 2341 3213 
Q 2119 3753 1531 3753 
Q 1309 3753 966 3616 
L 966 4141 
Q 1328 4238 1653 4238 
Q 2491 4238 2847 3469 
Q 3013 3106 3013 2566 
Q 3013 2213 2934 1803 
Q 2738 778 2228 291 
Q 1828 -91 1366 -91 
z
M 831 969 
Q 831 656 969 488 
Q 1116 309 1341 309 
Q 1541 309 1700 450 
Q 1925 644 2091 959 
Q 2228 1219 2297 1497 
Q 2019 2169 1538 2169 
Q 1125 2169 944 1625 
Q 831 1288 831 969 
z
" transform="scale(0.015625)"/>
      <path id="DejaVuSans-Oblique-53" d="M 3859 4513 
L 3738 3897 
Q 3422 4066 3111 4152 
Q 2800 4238 2509 4238 
Q 1944 4238 1609 3991 
Q 1275 3744 1275 3334 
Q 1275 3109 1398 2989 
Q 1522 2869 2034 2731 
L 2413 2638 
Q 3053 2472 3303 2217 
Q 3553 1963 3553 1503 
Q 3553 797 2998 353 
Q 2444 -91 1538 -91 
Q 1166 -91 791 -17 
Q 416 56 38 206 
L 166 856 
Q 513 641 861 531 
Q 1209 422 1556 422 
Q 2147 422 2503 684 
Q 2859 947 2859 1369 
Q 2859 1650 2717 1795 
Q 2575 1941 2106 2059 
L 1728 2156 
Q 1081 2325 845 2545 
Q 609 2766 609 3163 
Q 609 3859 1145 4304 
Q 1681 4750 2541 4750 
Q 2875 4750 3203 4690 
Q 3531 4631 3859 4513 
z
" transform="scale(0.015625)"/>
      <path id="DejaVuSans-Oblique-69" d="M 1172 4863 
L 1747 4863 
L 1606 4134 
L 1031 4134 
L 1172 4863 
z
M 909 3500 
L 1484 3500 
L 800 0 
L 225 0 
L 909 3500 
z
" transform="scale(0.015625)"/>
      <path id="DejaVuSans-2f" d="M 1625 4666 
L 2156 4666 
L 531 -594 
L 0 -594 
L 1625 4666 
z
" transform="scale(0.015625)"/>
      <path id="DejaVuSans-Oblique-3d5" d="M 2991 4863 
L 2738 3572 
Q 3363 3572 3684 3094 
Q 4016 2606 3850 1747 
Q 3681 888 3159 400 
Q 2653 -78 2028 -78 
L 1784 -1331 
L 1213 -1331 
L 1456 -78 
Q 834 -78 509 400 
Q 178 888 347 1747 
Q 513 2606 1034 3094 
Q 1544 3572 2166 3572 
L 2419 4863 
L 2991 4863 
z
M 2128 434 
Q 2481 434 2784 756 
Q 3116 1116 3244 1747 
Q 3369 2372 3169 2738 
Q 2991 3059 2638 3059 
L 2128 434 
z
M 1556 434 
L 2066 3059 
Q 1716 3059 1413 2738 
Q 1072 2372 953 1747 
Q 834 1116 1028 756 
Q 1203 434 1556 434 
z
" transform="scale(0.015625)"/>
      <path id="DejaVuSans-Oblique-6a" d="M 928 3500 
L 1503 3500 
L 813 -63 
L 809 -78 
Q 694 -675 544 -897 
Q 403 -1106 132 -1218 
Q -138 -1331 -506 -1331 
L -722 -1331 
L -628 -844 
L -481 -844 
Q -144 -844 -1 -703 
Q 141 -563 238 -63 
L 928 3500 
z
M 1197 4863 
L 1772 4863 
L 1631 4134 
L 1056 4134 
L 1197 4863 
z
" transform="scale(0.015625)"/>
     </defs>
     <use xlink:href="#DejaVuSans-Oblique-3ba" transform="translate(0 0.015625)"/>
     <use xlink:href="#DejaVuSans-3d" transform="translate(78.417969 0.015625)"/>
     <use xlink:href="#DejaVuSans-2202" transform="translate(181.689453 0.015625)"/>
     <use xlink:href="#DejaVuSans-Oblique-53" transform="translate(233.398438 0.015625)"/>
     <use xlink:href="#DejaVuSans-Oblique-69" transform="translate(296.875 -16.390625)scale(0.7)"/>
     <use xlink:href="#DejaVuSans-2f" transform="translate(319.057617 0.015625)"/>
     <use xlink:href="#DejaVuSans-2202" transform="translate(352.749023 0.015625)"/>
     <use xlink:href="#DejaVuSans-Oblique-3d5" transform="translate(404.458008 0.015625)"/>
     <use xlink:href="#DejaVuSans-Oblique-6a" transform="translate(470.424805 -16.390625)scale(0.7)"/>
    </g>
   </g>
   <g id="legend_1">
    <g id="patch_7">
     <path d="M 194.260937 122.52 
L 267.360937 122.52 
Q 269.360937 122.52 269.360937 120.52 
L 269.360937 62.72 
Q 269.360937 60.72 267.360937 60.72 
L 194.260937 60.72 
Q 192.260937 60.72 192.260937 62.72 
L 192.260937 120.52 
Q 192.260937 122.52 194.260937 122.52 
L 194.260937 122.52 
z
" style="fill: none; opacity: 0"/>
    </g>
    <g id="line2d_12">
     <path d="M 196.260937 68.82 
L 206.260937 68.82 
L 216.260937 68.82 
" style="fill: none; stroke: #0000ff; stroke-width: 1.5; stroke-linecap: square"/>
    </g>
    <g id="text_11">
     <!-- $\partial S_W / \partial \phi_W$ -->
     <g transform="translate(224.260937 72.32)scale(0.1 -0.1)">
      <defs>
       <path id="DejaVuSans-Oblique-57" d="M 616 4666 
L 1228 4666 
L 1453 697 
L 3213 4666 
L 3916 4666 
L 4147 697 
L 5888 4666 
L 6528 4666 
L 4453 0 
L 3659 0 
L 3444 3891 
L 1697 0 
L 903 0 
L 616 4666 
z
" transform="scale(0.015625)"/>
      </defs>
      <use xlink:href="#DejaVuSans-2202" transform="translate(0 0.015625)"/>
      <use xlink:href="#DejaVuSans-Oblique-53" transform="translate(51.708984 0.015625)"/>
      <use xlink:href="#DejaVuSans-Oblique-57" transform="translate(115.185547 -16.390625)scale(0.7)"/>
      <use xlink:href="#DejaVuSans-2f" transform="translate(187.133789 0.015625)"/>
      <use xlink:href="#DejaVuSans-2202" transform="translate(220.825195 0.015625)"/>
      <use xlink:href="#DejaVuSans-Oblique-3d5" transform="translate(272.53418 0.015625)"/>
      <use xlink:href="#DejaVuSans-Oblique-57" transform="translate(338.500977 -16.390625)scale(0.7)"/>
     </g>
    </g>
    <g id="line2d_13">
     <path d="M 196.260937 83.52 
L 206.260937 83.52 
L 216.260937 83.52 
" style="fill: none; stroke-dasharray: 5.55,2.4; stroke-dashoffset: 0; stroke: #0000ff; stroke-width: 1.5"/>
    </g>
    <g id="text_12">
     <!-- $\partial S_W / \partial \phi_B$ -->
     <g transform="translate(224.260937 87.02)scale(0.1 -0.1)">
      <defs>
       <path id="DejaVuSans-Oblique-42" d="M 1081 4666 
L 2694 4666 
Q 3350 4666 3675 4422 
Q 4000 4178 4000 3688 
Q 4000 3238 3720 2911 
Q 3441 2584 2988 2516 
Q 3375 2428 3569 2181 
Q 3763 1934 3763 1522 
Q 3763 819 3242 409 
Q 2722 0 1819 0 
L 172 0 
L 1081 4666 
z
M 1234 2228 
L 903 519 
L 1919 519 
Q 2491 519 2800 781 
Q 3109 1044 3109 1522 
Q 3109 1891 2904 2059 
Q 2700 2228 2247 2228 
L 1234 2228 
z
M 1606 4147 
L 1331 2741 
L 2272 2741 
Q 2775 2741 3058 2959 
Q 3341 3178 3341 3566 
Q 3341 3869 3150 4008 
Q 2959 4147 2541 4147 
L 1606 4147 
z
" transform="scale(0.015625)"/>
      </defs>
      <use xlink:href="#DejaVuSans-2202" transform="translate(0 0.015625)"/>
      <use xlink:href="#DejaVuSans-Oblique-53" transform="translate(51.708984 0.015625)"/>
      <use xlink:href="#DejaVuSans-Oblique-57" transform="translate(115.185547 -16.390625)scale(0.7)"/>
      <use xlink:href="#DejaVuSans-2f" transform="translate(187.133789 0.015625)"/>
      <use xlink:href="#DejaVuSans-2202" transform="translate(220.825195 0.015625)"/>
      <use xlink:href="#DejaVuSans-Oblique-3d5" transform="translate(272.53418 0.015625)"/>
      <use xlink:href="#DejaVuSans-Oblique-42" transform="translate(338.500977 -16.390625)scale(0.7)"/>
     </g>
    </g>
    <g id="line2d_14">
     <path d="M 196.260937 98.22 
L 206.260937 98.22 
L 216.260937 98.22 
" style="fill: none; stroke-dasharray: 5.55,2.4; stroke-dashoffset: 0; stroke: #ff0000; stroke-width: 1.5"/>
    </g>
    <g id="text_13">
     <!-- $\partial S_B / \partial \phi_W$ -->
     <g transform="translate(224.260937 101.72)scale(0.1 -0.1)">
      <use xlink:href="#DejaVuSans-2202" transform="translate(0 0.015625)"/>
      <use xlink:href="#DejaVuSans-Oblique-53" transform="translate(51.708984 0.015625)"/>
      <use xlink:href="#DejaVuSans-Oblique-42" transform="translate(115.185547 -16.390625)scale(0.7)"/>
      <use xlink:href="#DejaVuSans-2f" transform="translate(165.942383 0.015625)"/>
      <use xlink:href="#DejaVuSans-2202" transform="translate(199.633789 0.015625)"/>
      <use xlink:href="#DejaVuSans-Oblique-3d5" transform="translate(251.342773 0.015625)"/>
      <use xlink:href="#DejaVuSans-Oblique-57" transform="translate(317.30957 -16.390625)scale(0.7)"/>
     </g>
    </g>
    <g id="line2d_15">
     <path d="M 196.260937 112.92 
L 206.260937 112.92 
L 216.260937 112.92 
" style="fill: none; stroke: #ff0000; stroke-width: 1.5; stroke-linecap: square"/>
    </g>
    <g id="text_14">
     <!-- $\partial S_B / \partial \phi_B$ -->
     <g transform="translate(224.260937 116.42)scale(0.1 -0.1)">
      <use xlink:href="#DejaVuSans-2202" transform="translate(0 0.015625)"/>
      <use xlink:href="#DejaVuSans-Oblique-53" transform="translate(51.708984 0.015625)"/>
      <use xlink:href="#DejaVuSans-Oblique-42" transform="translate(115.185547 -16.390625)scale(0.7)"/>
      <use xlink:href="#DejaVuSans-2f" transform="translate(165.942383 0.015625)"/>
      <use xlink:href="#DejaVuSans-2202" transform="translate(199.633789 0.015625)"/>
      <use xlink:href="#DejaVuSans-Oblique-3d5" transform="translate(251.342773 0.015625)"/>
      <use xlink:href="#DejaVuSans-Oblique-42" transform="translate(317.30957 -16.390625)scale(0.7)"/>
     </g>
    </g>
   </g>
  </g>
 </g>
 <defs>
  <clipPath id="p34ffecd8c5">
   <rect x="48.660938" y="22.32" width="138.6" height="138.6"/>
  </clipPath>
 </defs>
</svg>
