<?xml version="1.0" encoding="utf-8" standalone="no"?>
<!DOCTYPE svg PUBLIC "-//W3C//DTD SVG 1.1//EN"
  "http://www.w3.org/Graphics/SVG/1.1/DTD/svg11.dtd">
<svg xmlns:xlink="http://www.w3.org/1999/xlink" width="416.052813pt" height="331.750125pt" viewBox="0 0 416.052813 331.750125" xmlns="http://www.w3.org/2000/svg" version="1.1">
 <metadata>
  <rdf:RDF xmlns:dc="http://purl.org/dc/elements/1.1/" xmlns:cc="http://creativecommons.org/ns#" xmlns:rdf="http://www.w3.org/1999/02/22-rdf-syntax-ns#">
   <cc:Work>
    <dc:type rdf:resource="http://purl.org/dc/dcmitype/StillImage"/>
    <dc:date>2024-04-02T15:25:51.396342</dc:date>
    <dc:format>image/svg+xml</dc:format>
    <dc:creator>
     <cc:Agent>
      <dc:title>Matplotlib v3.5.2, https://matplotlib.org/</dc:title>
     </cc:Agent>
    </dc:creator>
   </cc:Work>
  </rdf:RDF>
 </metadata>
 <defs>
  <style type="text/css">*{stroke-linejoin: round; stroke-linecap: butt}</style>
 </defs>
 <g id="figure_1">
  <g id="patch_1">
   <path d="M 0 331.750125 
L 416.052813 331.750125 
L 416.052813 0 
L 0 0 
z
" style="fill: #ffffff"/>
  </g>
  <g id="axes_1">
   <g id="patch_2">
    <path d="M 43.78125 120.028235 
L 400.90125 120.028235 
L 400.90125 41.76 
L 43.78125 41.76 
z
" style="fill: #ffffff"/>
   </g>
   <g id="matplotlib.axis_1">
    <g id="xtick_1">
     <g id="line2d_1">
      <defs>
       <path id="m1d006f2f4b" d="M 0 0 
L 0 3.5 
" style="stroke: #000000; stroke-width: 0.8"/>
      </defs>
      <g>
       <use xlink:href="#m1d006f2f4b" x="43.78125" y="120.028235" style="stroke: #000000; stroke-width: 0.8"/>
      </g>
     </g>
    </g>
    <g id="xtick_2">
     <g id="line2d_2">
      <g>
       <use xlink:href="#m1d006f2f4b" x="115.20525" y="120.028235" style="stroke: #000000; stroke-width: 0.8"/>
      </g>
     </g>
    </g>
    <g id="xtick_3">
     <g id="line2d_3">
      <g>
       <use xlink:href="#m1d006f2f4b" x="186.62925" y="120.028235" style="stroke: #000000; stroke-width: 0.8"/>
      </g>
     </g>
    </g>
    <g id="xtick_4">
     <g id="line2d_4">
      <g>
       <use xlink:href="#m1d006f2f4b" x="258.05325" y="120.028235" style="stroke: #000000; stroke-width: 0.8"/>
      </g>
     </g>
    </g>
    <g id="xtick_5">
     <g id="line2d_5">
      <g>
       <use xlink:href="#m1d006f2f4b" x="329.47725" y="120.028235" style="stroke: #000000; stroke-width: 0.8"/>
      </g>
     </g>
    </g>
    <g id="xtick_6">
     <g id="line2d_6">
      <g>
       <use xlink:href="#m1d006f2f4b" x="400.90125" y="120.028235" style="stroke: #000000; stroke-width: 0.8"/>
      </g>
     </g>
    </g>
   </g>
   <g id="matplotlib.axis_2">
    <g id="ytick_1">
     <g id="line2d_7">
      <defs>
       <path id="mde11ff491d" d="M 0 0 
L -3.5 0 
" style="stroke: #000000; stroke-width: 0.8"/>
      </defs>
      <g>
       <use xlink:href="#mde11ff491d" x="43.78125" y="120.028235" style="stroke: #000000; stroke-width: 0.8"/>
      </g>
     </g>
     <g id="text_1">
      <!-- 0.0 -->
      <g transform="translate(20.878125 123.827454)scale(0.1 -0.1)">
       <defs>
        <path id="DejaVuSans-30" d="M 2034 4250 
Q 1547 4250 1301 3770 
Q 1056 3291 1056 2328 
Q 1056 1369 1301 889 
Q 1547 409 2034 409 
Q 2525 409 2770 889 
Q 3016 1369 3016 2328 
Q 3016 3291 2770 3770 
Q 2525 4250 2034 4250 
z
M 2034 4750 
Q 2819 4750 3233 4129 
Q 3647 3509 3647 2328 
Q 3647 1150 3233 529 
Q 2819 -91 2034 -91 
Q 1250 -91 836 529 
Q 422 1150 422 2328 
Q 422 3509 836 4129 
Q 1250 4750 2034 4750 
z
" transform="scale(0.015625)"/>
        <path id="DejaVuSans-2e" d="M 684 794 
L 1344 794 
L 1344 0 
L 684 0 
L 684 794 
z
" transform="scale(0.015625)"/>
       </defs>
       <use xlink:href="#DejaVuSans-30"/>
       <use xlink:href="#DejaVuSans-2e" x="63.623047"/>
       <use xlink:href="#DejaVuSans-30" x="95.410156"/>
      </g>
     </g>
    </g>
    <g id="ytick_2">
     <g id="line2d_8">
      <g>
       <use xlink:href="#mde11ff491d" x="43.78125" y="80.894118" style="stroke: #000000; stroke-width: 0.8"/>
      </g>
     </g>
     <g id="text_2">
      <!-- 0.5 -->
      <g transform="translate(20.878125 84.693336)scale(0.1 -0.1)">
       <defs>
        <path id="DejaVuSans-35" d="M 691 4666 
L 3169 4666 
L 3169 4134 
L 1269 4134 
L 1269 2991 
Q 1406 3038 1543 3061 
Q 1681 3084 1819 3084 
Q 2600 3084 3056 2656 
Q 3513 2228 3513 1497 
Q 3513 744 3044 326 
Q 2575 -91 1722 -91 
Q 1428 -91 1123 -41 
Q 819 9 494 109 
L 494 744 
Q 775 591 1075 516 
Q 1375 441 1709 441 
Q 2250 441 2565 725 
Q 2881 1009 2881 1497 
Q 2881 1984 2565 2268 
Q 2250 2553 1709 2553 
Q 1456 2553 1204 2497 
Q 953 2441 691 2322 
L 691 4666 
z
" transform="scale(0.015625)"/>
       </defs>
       <use xlink:href="#DejaVuSans-30"/>
       <use xlink:href="#DejaVuSans-2e" x="63.623047"/>
       <use xlink:href="#DejaVuSans-35" x="95.410156"/>
      </g>
     </g>
    </g>
    <g id="ytick_3">
     <g id="line2d_9">
      <g>
       <use xlink:href="#mde11ff491d" x="43.78125" y="41.76" style="stroke: #000000; stroke-width: 0.8"/>
      </g>
     </g>
     <g id="text_3">
      <!-- 1.0 -->
      <g transform="translate(20.878125 45.559219)scale(0.1 -0.1)">
       <defs>
        <path id="DejaVuSans-31" d="M 794 531 
L 1825 531 
L 1825 4091 
L 703 3866 
L 703 4441 
L 1819 4666 
L 2450 4666 
L 2450 531 
L 3481 531 
L 3481 0 
L 794 0 
L 794 531 
z
" transform="scale(0.015625)"/>
       </defs>
       <use xlink:href="#DejaVuSans-31"/>
       <use xlink:href="#DejaVuSans-2e" x="63.623047"/>
       <use xlink:href="#DejaVuSans-30" x="95.410156"/>
      </g>
     </g>
    </g>
    <g id="text_4">
     <!-- IC -->
     <g transform="translate(14.798438 85.860524)rotate(-90)scale(0.1 -0.1)">
      <defs>
       <path id="DejaVuSans-49" d="M 628 4666 
L 1259 4666 
L 1259 0 
L 628 0 
L 628 4666 
z
" transform="scale(0.015625)"/>
       <path id="DejaVuSans-43" d="M 4122 4306 
L 4122 3641 
Q 3803 3938 3442 4084 
Q 3081 4231 2675 4231 
Q 1875 4231 1450 3742 
Q 1025 3253 1025 2328 
Q 1025 1406 1450 917 
Q 1875 428 2675 428 
Q 3081 428 3442 575 
Q 3803 722 4122 1019 
L 4122 359 
Q 3791 134 3420 21 
Q 3050 -91 2638 -91 
Q 1578 -91 968 557 
Q 359 1206 359 2328 
Q 359 3453 968 4101 
Q 1578 4750 2638 4750 
Q 3056 4750 3426 4639 
Q 3797 4528 4122 4306 
z
" transform="scale(0.015625)"/>
      </defs>
      <use xlink:href="#DejaVuSans-49"/>
      <use xlink:href="#DejaVuSans-43" x="29.492188"/>
     </g>
    </g>
   </g>
   <g id="line2d_10">
    <path d="M 43.78125 100.461176 
L 49.449821 98.895811 
L 55.118393 99.208885 
L 60.786964 99.208885 
L 66.455536 97.486984 
L 72.124107 98.895811 
L 77.792679 99.208885 
L 83.46125 101.556932 
L 89.129821 103.748442 
L 94.798393 101.713468 
L 100.466964 102.183078 
L 106.135536 101.713468 
L 111.804107 97.643519 
L 117.472679 97.956593 
L 123.14125 96.234693 
L 128.809821 96.704301 
L 134.478393 99.835032 
L 140.146964 101.556932 
L 145.815536 102.652687 
L 151.484107 101.400395 
L 157.152679 102.026541 
L 162.82125 99.678495 
L 168.489821 100.30464 
L 174.158393 98.58274 
L 179.826964 99.521958 
L 185.495536 99.678495 
L 191.164107 100.148103 
L 196.832679 99.678495 
L 202.50125 99.835032 
L 208.169821 102.809224 
L 213.838393 103.122296 
L 219.506964 102.026541 
L 225.175536 101.243859 
L 230.844107 100.461176 
L 236.512679 98.426203 
L 242.18125 97.643519 
L 247.849821 99.835032 
L 253.518393 100.930786 
L 259.186964 100.461176 
L 264.855536 101.556932 
L 270.524107 100.930786 
L 276.192679 101.087322 
L 281.86125 102.96576 
L 287.529821 102.026541 
L 293.198393 101.870005 
L 298.866964 98.58274 
L 304.535536 97.173911 
L 310.204107 97.800056 
L 315.872679 101.713468 
L 321.54125 103.43537 
L 327.209821 103.748442 
L 332.878393 101.870005 
L 338.546964 100.30464 
L 344.215536 98.269666 
L 349.884107 98.58274 
L 355.552679 99.052348 
L 361.22125 99.835032 
L 366.889821 102.183078 
L 372.558393 101.870005 
L 378.226964 102.809224 
L 383.895536 103.43537 
L 389.564107 102.183078 
L 395.232679 101.087322 
L 400.90125 100.461176 
" clip-path="url(#p54d90d774a)" style="fill: none; stroke: #0000ff; stroke-width: 1.5; stroke-linecap: square"/>
   </g>
   <g id="line2d_11">
    <path d="M 43.78125 99.678495 
L 49.449821 100.30464 
L 55.118393 100.774249 
L 60.786964 99.521958 
L 66.455536 101.243859 
L 72.124107 101.243859 
L 77.792679 101.243859 
L 83.46125 101.556932 
L 89.129821 103.278833 
L 94.798393 103.278833 
L 100.466964 101.087322 
L 106.135536 101.087322 
L 111.804107 100.148103 
L 117.472679 99.678495 
L 123.14125 99.678495 
L 128.809821 99.521958 
L 134.478393 100.148103 
L 140.146964 102.339614 
L 145.815536 101.556932 
L 151.484107 99.991566 
L 157.152679 99.208885 
L 162.82125 98.269666 
L 168.489821 100.148103 
L 174.158393 100.617713 
L 179.826964 102.026541 
L 185.495536 101.556932 
L 191.164107 101.087322 
L 196.832679 100.148103 
L 202.50125 100.461176 
L 208.169821 100.30464 
L 213.838393 100.461176 
L 219.506964 100.461176 
L 225.175536 99.521958 
L 230.844107 100.461176 
L 236.512679 99.052348 
L 242.18125 99.365421 
L 247.849821 99.991566 
L 253.518393 99.052348 
L 259.186964 100.617713 
L 264.855536 99.835032 
L 270.524107 97.956593 
L 276.192679 98.895811 
L 281.86125 101.243859 
L 287.529821 103.278833 
L 293.198393 99.521958 
L 298.866964 99.052348 
L 304.535536 98.269666 
L 310.204107 99.208885 
L 315.872679 99.991566 
L 321.54125 101.556932 
L 327.209821 101.870005 
L 332.878393 102.49615 
L 338.546964 101.400395 
L 344.215536 102.026541 
L 349.884107 101.400395 
L 355.552679 101.400395 
L 361.22125 101.400395 
L 366.889821 101.556932 
L 372.558393 99.365421 
L 378.226964 101.400395 
L 383.895536 100.930786 
L 389.564107 98.739274 
L 395.232679 98.113129 
L 400.90125 98.426203 
" clip-path="url(#p54d90d774a)" style="fill: none; stroke: #ff0000; stroke-width: 1.5; stroke-linecap: square"/>
   </g>
   <g id="patch_3">
    <path d="M 43.78125 120.028235 
L 43.78125 41.76 
" style="fill: none; stroke: #000000; stroke-width: 0.8; stroke-linejoin: miter; stroke-linecap: square"/>
   </g>
   <g id="patch_4">
    <path d="M 400.90125 120.028235 
L 400.90125 41.76 
" style="fill: none; stroke: #000000; stroke-width: 0.8; stroke-linejoin: miter; stroke-linecap: square"/>
   </g>
   <g id="patch_5">
    <path d="M 43.78125 120.028235 
L 400.90125 120.028235 
" style="fill: none; stroke: #000000; stroke-width: 0.8; stroke-linejoin: miter; stroke-linecap: square"/>
   </g>
   <g id="patch_6">
    <path d="M 43.78125 41.76 
L 400.90125 41.76 
" style="fill: none; stroke: #000000; stroke-width: 0.8; stroke-linejoin: miter; stroke-linecap: square"/>
   </g>
  </g>
  <g id="axes_2">
   <g id="patch_7">
    <path d="M 43.78125 213.950118 
L 400.90125 213.950118 
L 400.90125 135.681882 
L 43.78125 135.681882 
z
" style="fill: #ffffff"/>
   </g>
   <g id="matplotlib.axis_3">
    <g id="xtick_7">
     <g id="line2d_12">
      <g>
       <use xlink:href="#m1d006f2f4b" x="43.78125" y="213.950118" style="stroke: #000000; stroke-width: 0.8"/>
      </g>
     </g>
    </g>
    <g id="xtick_8">
     <g id="line2d_13">
      <g>
       <use xlink:href="#m1d006f2f4b" x="115.20525" y="213.950118" style="stroke: #000000; stroke-width: 0.8"/>
      </g>
     </g>
    </g>
    <g id="xtick_9">
     <g id="line2d_14">
      <g>
       <use xlink:href="#m1d006f2f4b" x="186.62925" y="213.950118" style="stroke: #000000; stroke-width: 0.8"/>
      </g>
     </g>
    </g>
    <g id="xtick_10">
     <g id="line2d_15">
      <g>
       <use xlink:href="#m1d006f2f4b" x="258.05325" y="213.950118" style="stroke: #000000; stroke-width: 0.8"/>
      </g>
     </g>
    </g>
    <g id="xtick_11">
     <g id="line2d_16">
      <g>
       <use xlink:href="#m1d006f2f4b" x="329.47725" y="213.950118" style="stroke: #000000; stroke-width: 0.8"/>
      </g>
     </g>
    </g>
    <g id="xtick_12">
     <g id="line2d_17">
      <g>
       <use xlink:href="#m1d006f2f4b" x="400.90125" y="213.950118" style="stroke: #000000; stroke-width: 0.8"/>
      </g>
     </g>
    </g>
   </g>
   <g id="matplotlib.axis_4">
    <g id="ytick_4">
     <g id="line2d_18">
      <g>
       <use xlink:href="#mde11ff491d" x="43.78125" y="213.950118" style="stroke: #000000; stroke-width: 0.8"/>
      </g>
     </g>
     <g id="text_5">
      <!-- 0.0 -->
      <g transform="translate(20.878125 217.749336)scale(0.1 -0.1)">
       <use xlink:href="#DejaVuSans-30"/>
       <use xlink:href="#DejaVuSans-2e" x="63.623047"/>
       <use xlink:href="#DejaVuSans-30" x="95.410156"/>
      </g>
     </g>
    </g>
    <g id="ytick_5">
     <g id="line2d_19">
      <g>
       <use xlink:href="#mde11ff491d" x="43.78125" y="174.816" style="stroke: #000000; stroke-width: 0.8"/>
      </g>
     </g>
     <g id="text_6">
      <!-- 0.5 -->
      <g transform="translate(20.878125 178.615219)scale(0.1 -0.1)">
       <use xlink:href="#DejaVuSans-30"/>
       <use xlink:href="#DejaVuSans-2e" x="63.623047"/>
       <use xlink:href="#DejaVuSans-35" x="95.410156"/>
      </g>
     </g>
    </g>
    <g id="ytick_6">
     <g id="line2d_20">
      <g>
       <use xlink:href="#mde11ff491d" x="43.78125" y="135.681882" style="stroke: #000000; stroke-width: 0.8"/>
      </g>
     </g>
     <g id="text_7">
      <!-- 1.0 -->
      <g transform="translate(20.878125 139.481101)scale(0.1 -0.1)">
       <use xlink:href="#DejaVuSans-31"/>
       <use xlink:href="#DejaVuSans-2e" x="63.623047"/>
       <use xlink:href="#DejaVuSans-30" x="95.410156"/>
      </g>
     </g>
    </g>
    <g id="text_8">
     <!-- Target -->
     <g transform="translate(14.798438 190.287875)rotate(-90)scale(0.1 -0.1)">
      <defs>
       <path id="DejaVuSans-54" d="M -19 4666 
L 3928 4666 
L 3928 4134 
L 2272 4134 
L 2272 0 
L 1638 0 
L 1638 4134 
L -19 4134 
L -19 4666 
z
" transform="scale(0.015625)"/>
       <path id="DejaVuSans-61" d="M 2194 1759 
Q 1497 1759 1228 1600 
Q 959 1441 959 1056 
Q 959 750 1161 570 
Q 1363 391 1709 391 
Q 2188 391 2477 730 
Q 2766 1069 2766 1631 
L 2766 1759 
L 2194 1759 
z
M 3341 1997 
L 3341 0 
L 2766 0 
L 2766 531 
Q 2569 213 2275 61 
Q 1981 -91 1556 -91 
Q 1019 -91 701 211 
Q 384 513 384 1019 
Q 384 1609 779 1909 
Q 1175 2209 1959 2209 
L 2766 2209 
L 2766 2266 
Q 2766 2663 2505 2880 
Q 2244 3097 1772 3097 
Q 1472 3097 1187 3025 
Q 903 2953 641 2809 
L 641 3341 
Q 956 3463 1253 3523 
Q 1550 3584 1831 3584 
Q 2591 3584 2966 3190 
Q 3341 2797 3341 1997 
z
" transform="scale(0.015625)"/>
       <path id="DejaVuSans-72" d="M 2631 2963 
Q 2534 3019 2420 3045 
Q 2306 3072 2169 3072 
Q 1681 3072 1420 2755 
Q 1159 2438 1159 1844 
L 1159 0 
L 581 0 
L 581 3500 
L 1159 3500 
L 1159 2956 
Q 1341 3275 1631 3429 
Q 1922 3584 2338 3584 
Q 2397 3584 2469 3576 
Q 2541 3569 2628 3553 
L 2631 2963 
z
" transform="scale(0.015625)"/>
       <path id="DejaVuSans-67" d="M 2906 1791 
Q 2906 2416 2648 2759 
Q 2391 3103 1925 3103 
Q 1463 3103 1205 2759 
Q 947 2416 947 1791 
Q 947 1169 1205 825 
Q 1463 481 1925 481 
Q 2391 481 2648 825 
Q 2906 1169 2906 1791 
z
M 3481 434 
Q 3481 -459 3084 -895 
Q 2688 -1331 1869 -1331 
Q 1566 -1331 1297 -1286 
Q 1028 -1241 775 -1147 
L 775 -588 
Q 1028 -725 1275 -790 
Q 1522 -856 1778 -856 
Q 2344 -856 2625 -561 
Q 2906 -266 2906 331 
L 2906 616 
Q 2728 306 2450 153 
Q 2172 0 1784 0 
Q 1141 0 747 490 
Q 353 981 353 1791 
Q 353 2603 747 3093 
Q 1141 3584 1784 3584 
Q 2172 3584 2450 3431 
Q 2728 3278 2906 2969 
L 2906 3500 
L 3481 3500 
L 3481 434 
z
" transform="scale(0.015625)"/>
       <path id="DejaVuSans-65" d="M 3597 1894 
L 3597 1613 
L 953 1613 
Q 991 1019 1311 708 
Q 1631 397 2203 397 
Q 2534 397 2845 478 
Q 3156 559 3463 722 
L 3463 178 
Q 3153 47 2828 -22 
Q 2503 -91 2169 -91 
Q 1331 -91 842 396 
Q 353 884 353 1716 
Q 353 2575 817 3079 
Q 1281 3584 2069 3584 
Q 2775 3584 3186 3129 
Q 3597 2675 3597 1894 
z
M 3022 2063 
Q 3016 2534 2758 2815 
Q 2500 3097 2075 3097 
Q 1594 3097 1305 2825 
Q 1016 2553 972 2059 
L 3022 2063 
z
" transform="scale(0.015625)"/>
       <path id="DejaVuSans-74" d="M 1172 4494 
L 1172 3500 
L 2356 3500 
L 2356 3053 
L 1172 3053 
L 1172 1153 
Q 1172 725 1289 603 
Q 1406 481 1766 481 
L 2356 481 
L 2356 0 
L 1766 0 
Q 1100 0 847 248 
Q 594 497 594 1153 
L 594 3053 
L 172 3053 
L 172 3500 
L 594 3500 
L 594 4494 
L 1172 4494 
z
" transform="scale(0.015625)"/>
      </defs>
      <use xlink:href="#DejaVuSans-54"/>
      <use xlink:href="#DejaVuSans-61" x="44.583984"/>
      <use xlink:href="#DejaVuSans-72" x="105.863281"/>
      <use xlink:href="#DejaVuSans-67" x="145.226562"/>
      <use xlink:href="#DejaVuSans-65" x="208.703125"/>
      <use xlink:href="#DejaVuSans-74" x="270.226562"/>
     </g>
    </g>
   </g>
   <g id="line2d_21">
    <path d="M 43.78125 176.537902 
L 49.449821 170.902587 
L 55.118393 172.467955 
L 60.786964 177.790192 
L 66.455536 187.338917 
L 72.124107 201.114127 
L 77.792679 209.723633 
L 83.46125 211.132461 
L 89.129821 212.228216 
L 94.798393 211.132461 
L 100.466964 205.653685 
L 106.135536 195.322277 
L 111.804107 183.112433 
L 117.472679 176.224829 
L 123.14125 177.320584 
L 128.809821 181.547068 
L 134.478393 190.626183 
L 140.146964 201.896809 
L 145.815536 207.062513 
L 151.484107 207.062513 
L 157.152679 200.331445 
L 162.82125 189.06082 
L 168.489821 179.042484 
L 174.158393 178.572876 
L 179.826964 182.016678 
L 185.495536 193.913448 
L 191.164107 204.401393 
L 196.832679 208.784414 
L 202.50125 211.288998 
L 208.169821 209.097487 
L 213.838393 204.55793 
L 219.506964 195.948423 
L 225.175536 184.834333 
L 230.844107 176.068292 
L 236.512679 174.502926 
L 242.18125 176.694437 
L 247.849821 185.147407 
L 253.518393 196.887643 
L 259.186964 206.592904 
L 264.855536 210.349779 
L 270.524107 212.384753 
L 276.192679 210.349779 
L 281.86125 201.740273 
L 287.529821 189.217354 
L 293.198393 178.729413 
L 298.866964 174.502926 
L 304.535536 175.911755 
L 310.204107 183.112433 
L 315.872679 195.635351 
L 321.54125 205.497148 
L 327.209821 210.662852 
L 332.878393 210.349779 
L 338.546964 205.184075 
L 344.215536 194.696131 
L 349.884107 186.243162 
L 355.552679 181.07746 
L 361.22125 185.930089 
L 366.889821 194.696131 
L 372.558393 203.775247 
L 378.226964 208.627877 
L 383.895536 210.193242 
L 389.564107 209.097487 
L 395.232679 201.270663 
L 400.90125 187.338917 
" clip-path="url(#pef82a065d7)" style="fill: none; stroke: #0000ff; stroke-opacity: 0.3; stroke-width: 1.5; stroke-linecap: square"/>
   </g>
   <g id="line2d_22">
    <path d="M 43.78125 184.364725 
L 49.449821 185.303944 
L 55.118393 184.208189 
L 60.786964 185.303944 
L 66.455536 188.904283 
L 72.124107 196.887643 
L 77.792679 202.522955 
L 83.46125 207.375586 
L 89.129821 209.254024 
L 94.798393 205.810221 
L 100.466964 200.487981 
L 106.135536 191.408867 
L 111.804107 186.712773 
L 117.472679 184.677797 
L 123.14125 184.364725 
L 128.809821 185.303944 
L 134.478393 190.469646 
L 140.146964 197.826861 
L 145.815536 202.522955 
L 151.484107 201.896809 
L 157.152679 197.983398 
L 162.82125 192.97423 
L 168.489821 189.373891 
L 174.158393 185.930089 
L 179.826964 187.182381 
L 185.495536 193.287304 
L 191.164107 200.018372 
L 196.832679 204.401393 
L 202.50125 206.123294 
L 208.169821 204.55793 
L 213.838393 198.922616 
L 219.506964 191.721938 
L 225.175536 187.808528 
L 230.844107 184.521262 
L 236.512679 182.642823 
L 242.18125 182.79936 
L 247.849821 185.773552 
L 253.518393 192.035012 
L 259.186964 201.270663 
L 264.855536 205.810221 
L 270.524107 206.123294 
L 276.192679 204.401393 
L 281.86125 198.453007 
L 287.529821 191.095793 
L 293.198393 185.303944 
L 298.866964 183.895115 
L 304.535536 184.521262 
L 310.204107 187.965065 
L 315.872679 193.756914 
L 321.54125 201.740273 
L 327.209821 204.871003 
L 332.878393 205.653685 
L 338.546964 200.331445 
L 344.215536 195.635351 
L 349.884107 190.469646 
L 355.552679 185.773552 
L 361.22125 186.243162 
L 366.889821 191.878475 
L 372.558393 198.139934 
L 378.226964 202.679492 
L 383.895536 204.401393 
L 389.564107 202.522955 
L 395.232679 195.948423 
L 400.90125 187.965065 
" clip-path="url(#pef82a065d7)" style="fill: none; stroke: #ff0000; stroke-opacity: 0.3; stroke-width: 1.5; stroke-linecap: square"/>
   </g>
   <g id="line2d_23">
    <path d="M 43.78125 173.250637 
L 49.449821 169.180685 
L 55.118393 171.215661 
L 60.786964 176.224829 
L 66.455536 186.869309 
L 72.124107 201.740273 
L 77.792679 210.036706 
L 83.46125 212.228216 
L 89.129821 212.228216 
L 94.798393 212.228216 
L 100.466964 208.471341 
L 106.135536 199.392226 
L 111.804107 186.086625 
L 117.472679 177.790192 
L 123.14125 174.659466 
L 128.809821 178.259802 
L 134.478393 187.182381 
L 140.146964 197.670324 
L 145.815536 203.149101 
L 151.484107 204.08832 
L 157.152679 198.922616 
L 162.82125 190.156575 
L 168.489821 182.642823 
L 174.158393 179.199021 
L 179.826964 184.051652 
L 185.495536 197.513789 
L 191.164107 205.966758 
L 196.832679 211.132461 
L 202.50125 212.541289 
L 208.169821 211.602071 
L 213.838393 206.74944 
L 219.506964 194.539596 
L 225.175536 180.764386 
L 230.844107 174.346392 
L 236.512679 172.467955 
L 242.18125 174.659466 
L 247.849821 183.425507 
L 253.518393 198.453007 
L 259.186964 208.158268 
L 264.855536 211.915143 
L 270.524107 212.384753 
L 276.192679 210.975925 
L 281.86125 202.836028 
L 287.529821 192.191548 
L 293.198393 181.233994 
L 298.866964 174.972537 
L 304.535536 171.998342 
L 310.204107 178.885947 
L 315.872679 191.721938 
L 321.54125 202.679492 
L 327.209821 210.036706 
L 332.878393 211.602071 
L 338.546964 208.471341 
L 344.215536 200.018372 
L 349.884107 190.78272 
L 355.552679 184.521262 
L 361.22125 187.808528 
L 366.889821 195.791888 
L 372.558393 204.401393 
L 378.226964 209.254024 
L 383.895536 209.723633 
L 389.564107 206.74944 
L 395.232679 196.887643 
L 400.90125 183.425507 
" clip-path="url(#pef82a065d7)" style="fill: none; stroke: #0000ff; stroke-width: 1.5; stroke-linecap: square"/>
   </g>
   <g id="line2d_24">
    <path d="M 43.78125 184.208189 
L 49.449821 185.147407 
L 55.118393 184.364725 
L 60.786964 184.051652 
L 66.455536 186.399699 
L 72.124107 195.948423 
L 77.792679 203.618711 
L 83.46125 208.001732 
L 89.129821 210.036706 
L 94.798393 207.532122 
L 100.466964 202.366419 
L 106.135536 194.383059 
L 111.804107 189.06082 
L 117.472679 185.147407 
L 123.14125 183.738578 
L 128.809821 184.677797 
L 134.478393 188.434673 
L 140.146964 194.539596 
L 145.815536 199.392226 
L 151.484107 199.705299 
L 157.152679 195.009205 
L 162.82125 189.373891 
L 168.489821 186.243162 
L 174.158393 186.712773 
L 179.826964 189.373891 
L 185.495536 195.635351 
L 191.164107 201.114127 
L 196.832679 205.966758 
L 202.50125 208.784414 
L 208.169821 207.062513 
L 213.838393 201.114127 
L 219.506964 193.287304 
L 225.175536 186.556236 
L 230.844107 182.642823 
L 236.512679 181.860141 
L 242.18125 182.642823 
L 247.849821 186.243162 
L 253.518393 194.069985 
L 259.186964 203.775247 
L 264.855536 206.905976 
L 270.524107 207.219049 
L 276.192679 203.931783 
L 281.86125 197.357252 
L 287.529821 190.626183 
L 293.198393 185.773552 
L 298.866964 184.051652 
L 304.535536 182.329749 
L 310.204107 185.773552 
L 315.872679 192.035012 
L 321.54125 200.174908 
L 327.209821 205.184075 
L 332.878393 206.905976 
L 338.546964 202.679492 
L 344.215536 195.791888 
L 349.884107 189.06082 
L 355.552679 187.025844 
L 361.22125 187.651991 
L 366.889821 191.565401 
L 372.558393 199.23569 
L 378.226964 203.149101 
L 383.895536 203.775247 
L 389.564107 200.801054 
L 395.232679 194.852668 
L 400.90125 188.434673 
" clip-path="url(#pef82a065d7)" style="fill: none; stroke: #ff0000; stroke-width: 1.5; stroke-linecap: square"/>
   </g>
   <g id="patch_8">
    <path d="M 43.78125 213.950118 
L 43.78125 135.681882 
" style="fill: none; stroke: #000000; stroke-width: 0.8; stroke-linejoin: miter; stroke-linecap: square"/>
   </g>
   <g id="patch_9">
    <path d="M 400.90125 213.950118 
L 400.90125 135.681882 
" style="fill: none; stroke: #000000; stroke-width: 0.8; stroke-linejoin: miter; stroke-linecap: square"/>
   </g>
   <g id="patch_10">
    <path d="M 43.78125 213.950118 
L 400.90125 213.950118 
" style="fill: none; stroke: #000000; stroke-width: 0.8; stroke-linejoin: miter; stroke-linecap: square"/>
   </g>
   <g id="patch_11">
    <path d="M 43.78125 135.681882 
L 400.90125 135.681882 
" style="fill: none; stroke: #000000; stroke-width: 0.8; stroke-linejoin: miter; stroke-linecap: square"/>
   </g>
  </g>
  <g id="axes_3">
   <g id="patch_12">
    <path d="M 43.78125 307.872 
L 400.90125 307.872 
L 400.90125 229.603765 
L 43.78125 229.603765 
z
" style="fill: #ffffff"/>
   </g>
   <g id="matplotlib.axis_5">
    <g id="xtick_13">
     <g id="line2d_25">
      <g>
       <use xlink:href="#m1d006f2f4b" x="43.78125" y="307.872" style="stroke: #000000; stroke-width: 0.8"/>
      </g>
     </g>
     <g id="text_9">
      <!-- 0.0 -->
      <g transform="translate(35.829688 322.470437)scale(0.1 -0.1)">
       <use xlink:href="#DejaVuSans-30"/>
       <use xlink:href="#DejaVuSans-2e" x="63.623047"/>
       <use xlink:href="#DejaVuSans-30" x="95.410156"/>
      </g>
     </g>
    </g>
    <g id="xtick_14">
     <g id="line2d_26">
      <g>
       <use xlink:href="#m1d006f2f4b" x="115.20525" y="307.872" style="stroke: #000000; stroke-width: 0.8"/>
      </g>
     </g>
     <g id="text_10">
      <!-- 0.2 -->
      <g transform="translate(107.253688 322.470437)scale(0.1 -0.1)">
       <defs>
        <path id="DejaVuSans-32" d="M 1228 531 
L 3431 531 
L 3431 0 
L 469 0 
L 469 531 
Q 828 903 1448 1529 
Q 2069 2156 2228 2338 
Q 2531 2678 2651 2914 
Q 2772 3150 2772 3378 
Q 2772 3750 2511 3984 
Q 2250 4219 1831 4219 
Q 1534 4219 1204 4116 
Q 875 4013 500 3803 
L 500 4441 
Q 881 4594 1212 4672 
Q 1544 4750 1819 4750 
Q 2544 4750 2975 4387 
Q 3406 4025 3406 3419 
Q 3406 3131 3298 2873 
Q 3191 2616 2906 2266 
Q 2828 2175 2409 1742 
Q 1991 1309 1228 531 
z
" transform="scale(0.015625)"/>
       </defs>
       <use xlink:href="#DejaVuSans-30"/>
       <use xlink:href="#DejaVuSans-2e" x="63.623047"/>
       <use xlink:href="#DejaVuSans-32" x="95.410156"/>
      </g>
     </g>
    </g>
    <g id="xtick_15">
     <g id="line2d_27">
      <g>
       <use xlink:href="#m1d006f2f4b" x="186.62925" y="307.872" style="stroke: #000000; stroke-width: 0.8"/>
      </g>
     </g>
     <g id="text_11">
      <!-- 0.4 -->
      <g transform="translate(178.677688 322.470437)scale(0.1 -0.1)">
       <defs>
        <path id="DejaVuSans-34" d="M 2419 4116 
L 825 1625 
L 2419 1625 
L 2419 4116 
z
M 2253 4666 
L 3047 4666 
L 3047 1625 
L 3713 1625 
L 3713 1100 
L 3047 1100 
L 3047 0 
L 2419 0 
L 2419 1100 
L 313 1100 
L 313 1709 
L 2253 4666 
z
" transform="scale(0.015625)"/>
       </defs>
       <use xlink:href="#DejaVuSans-30"/>
       <use xlink:href="#DejaVuSans-2e" x="63.623047"/>
       <use xlink:href="#DejaVuSans-34" x="95.410156"/>
      </g>
     </g>
    </g>
    <g id="xtick_16">
     <g id="line2d_28">
      <g>
       <use xlink:href="#m1d006f2f4b" x="258.05325" y="307.872" style="stroke: #000000; stroke-width: 0.8"/>
      </g>
     </g>
     <g id="text_12">
      <!-- 0.6 -->
      <g transform="translate(250.101688 322.470437)scale(0.1 -0.1)">
       <defs>
        <path id="DejaVuSans-36" d="M 2113 2584 
Q 1688 2584 1439 2293 
Q 1191 2003 1191 1497 
Q 1191 994 1439 701 
Q 1688 409 2113 409 
Q 2538 409 2786 701 
Q 3034 994 3034 1497 
Q 3034 2003 2786 2293 
Q 2538 2584 2113 2584 
z
M 3366 4563 
L 3366 3988 
Q 3128 4100 2886 4159 
Q 2644 4219 2406 4219 
Q 1781 4219 1451 3797 
Q 1122 3375 1075 2522 
Q 1259 2794 1537 2939 
Q 1816 3084 2150 3084 
Q 2853 3084 3261 2657 
Q 3669 2231 3669 1497 
Q 3669 778 3244 343 
Q 2819 -91 2113 -91 
Q 1303 -91 875 529 
Q 447 1150 447 2328 
Q 447 3434 972 4092 
Q 1497 4750 2381 4750 
Q 2619 4750 2861 4703 
Q 3103 4656 3366 4563 
z
" transform="scale(0.015625)"/>
       </defs>
       <use xlink:href="#DejaVuSans-30"/>
       <use xlink:href="#DejaVuSans-2e" x="63.623047"/>
       <use xlink:href="#DejaVuSans-36" x="95.410156"/>
      </g>
     </g>
    </g>
    <g id="xtick_17">
     <g id="line2d_29">
      <g>
       <use xlink:href="#m1d006f2f4b" x="329.47725" y="307.872" style="stroke: #000000; stroke-width: 0.8"/>
      </g>
     </g>
     <g id="text_13">
      <!-- 0.8 -->
      <g transform="translate(321.525688 322.470437)scale(0.1 -0.1)">
       <defs>
        <path id="DejaVuSans-38" d="M 2034 2216 
Q 1584 2216 1326 1975 
Q 1069 1734 1069 1313 
Q 1069 891 1326 650 
Q 1584 409 2034 409 
Q 2484 409 2743 651 
Q 3003 894 3003 1313 
Q 3003 1734 2745 1975 
Q 2488 2216 2034 2216 
z
M 1403 2484 
Q 997 2584 770 2862 
Q 544 3141 544 3541 
Q 544 4100 942 4425 
Q 1341 4750 2034 4750 
Q 2731 4750 3128 4425 
Q 3525 4100 3525 3541 
Q 3525 3141 3298 2862 
Q 3072 2584 2669 2484 
Q 3125 2378 3379 2068 
Q 3634 1759 3634 1313 
Q 3634 634 3220 271 
Q 2806 -91 2034 -91 
Q 1263 -91 848 271 
Q 434 634 434 1313 
Q 434 1759 690 2068 
Q 947 2378 1403 2484 
z
M 1172 3481 
Q 1172 3119 1398 2916 
Q 1625 2713 2034 2713 
Q 2441 2713 2670 2916 
Q 2900 3119 2900 3481 
Q 2900 3844 2670 4047 
Q 2441 4250 2034 4250 
Q 1625 4250 1398 4047 
Q 1172 3844 1172 3481 
z
" transform="scale(0.015625)"/>
       </defs>
       <use xlink:href="#DejaVuSans-30"/>
       <use xlink:href="#DejaVuSans-2e" x="63.623047"/>
       <use xlink:href="#DejaVuSans-38" x="95.410156"/>
      </g>
     </g>
    </g>
    <g id="xtick_18">
     <g id="line2d_30">
      <g>
       <use xlink:href="#m1d006f2f4b" x="400.90125" y="307.872" style="stroke: #000000; stroke-width: 0.8"/>
      </g>
     </g>
     <g id="text_14">
      <!-- 1.0 -->
      <g transform="translate(392.949687 322.470437)scale(0.1 -0.1)">
       <use xlink:href="#DejaVuSans-31"/>
       <use xlink:href="#DejaVuSans-2e" x="63.623047"/>
       <use xlink:href="#DejaVuSans-30" x="95.410156"/>
      </g>
     </g>
    </g>
   </g>
   <g id="matplotlib.axis_6">
    <g id="ytick_7">
     <g id="line2d_31">
      <g>
       <use xlink:href="#mde11ff491d" x="43.78125" y="307.872" style="stroke: #000000; stroke-width: 0.8"/>
      </g>
     </g>
     <g id="text_15">
      <!-- 0.0 -->
      <g transform="translate(20.878125 311.671219)scale(0.1 -0.1)">
       <use xlink:href="#DejaVuSans-30"/>
       <use xlink:href="#DejaVuSans-2e" x="63.623047"/>
       <use xlink:href="#DejaVuSans-30" x="95.410156"/>
      </g>
     </g>
    </g>
    <g id="ytick_8">
     <g id="line2d_32">
      <g>
       <use xlink:href="#mde11ff491d" x="43.78125" y="268.737882" style="stroke: #000000; stroke-width: 0.8"/>
      </g>
     </g>
     <g id="text_16">
      <!-- 0.5 -->
      <g transform="translate(20.878125 272.537101)scale(0.1 -0.1)">
       <use xlink:href="#DejaVuSans-30"/>
       <use xlink:href="#DejaVuSans-2e" x="63.623047"/>
       <use xlink:href="#DejaVuSans-35" x="95.410156"/>
      </g>
     </g>
    </g>
    <g id="ytick_9">
     <g id="line2d_33">
      <g>
       <use xlink:href="#mde11ff491d" x="43.78125" y="229.603765" style="stroke: #000000; stroke-width: 0.8"/>
      </g>
     </g>
     <g id="text_17">
      <!-- 1.0 -->
      <g transform="translate(20.878125 233.402983)scale(0.1 -0.1)">
       <use xlink:href="#DejaVuSans-31"/>
       <use xlink:href="#DejaVuSans-2e" x="63.623047"/>
       <use xlink:href="#DejaVuSans-30" x="95.410156"/>
      </g>
     </g>
    </g>
    <g id="text_18">
     <!-- Prediction -->
     <g transform="translate(14.798438 293.574601)rotate(-90)scale(0.1 -0.1)">
      <defs>
       <path id="DejaVuSans-50" d="M 1259 4147 
L 1259 2394 
L 2053 2394 
Q 2494 2394 2734 2622 
Q 2975 2850 2975 3272 
Q 2975 3691 2734 3919 
Q 2494 4147 2053 4147 
L 1259 4147 
z
M 628 4666 
L 2053 4666 
Q 2838 4666 3239 4311 
Q 3641 3956 3641 3272 
Q 3641 2581 3239 2228 
Q 2838 1875 2053 1875 
L 1259 1875 
L 1259 0 
L 628 0 
L 628 4666 
z
" transform="scale(0.015625)"/>
       <path id="DejaVuSans-64" d="M 2906 2969 
L 2906 4863 
L 3481 4863 
L 3481 0 
L 2906 0 
L 2906 525 
Q 2725 213 2448 61 
Q 2172 -91 1784 -91 
Q 1150 -91 751 415 
Q 353 922 353 1747 
Q 353 2572 751 3078 
Q 1150 3584 1784 3584 
Q 2172 3584 2448 3432 
Q 2725 3281 2906 2969 
z
M 947 1747 
Q 947 1113 1208 752 
Q 1469 391 1925 391 
Q 2381 391 2643 752 
Q 2906 1113 2906 1747 
Q 2906 2381 2643 2742 
Q 2381 3103 1925 3103 
Q 1469 3103 1208 2742 
Q 947 2381 947 1747 
z
" transform="scale(0.015625)"/>
       <path id="DejaVuSans-69" d="M 603 3500 
L 1178 3500 
L 1178 0 
L 603 0 
L 603 3500 
z
M 603 4863 
L 1178 4863 
L 1178 4134 
L 603 4134 
L 603 4863 
z
" transform="scale(0.015625)"/>
       <path id="DejaVuSans-63" d="M 3122 3366 
L 3122 2828 
Q 2878 2963 2633 3030 
Q 2388 3097 2138 3097 
Q 1578 3097 1268 2742 
Q 959 2388 959 1747 
Q 959 1106 1268 751 
Q 1578 397 2138 397 
Q 2388 397 2633 464 
Q 2878 531 3122 666 
L 3122 134 
Q 2881 22 2623 -34 
Q 2366 -91 2075 -91 
Q 1284 -91 818 406 
Q 353 903 353 1747 
Q 353 2603 823 3093 
Q 1294 3584 2113 3584 
Q 2378 3584 2631 3529 
Q 2884 3475 3122 3366 
z
" transform="scale(0.015625)"/>
       <path id="DejaVuSans-6f" d="M 1959 3097 
Q 1497 3097 1228 2736 
Q 959 2375 959 1747 
Q 959 1119 1226 758 
Q 1494 397 1959 397 
Q 2419 397 2687 759 
Q 2956 1122 2956 1747 
Q 2956 2369 2687 2733 
Q 2419 3097 1959 3097 
z
M 1959 3584 
Q 2709 3584 3137 3096 
Q 3566 2609 3566 1747 
Q 3566 888 3137 398 
Q 2709 -91 1959 -91 
Q 1206 -91 779 398 
Q 353 888 353 1747 
Q 353 2609 779 3096 
Q 1206 3584 1959 3584 
z
" transform="scale(0.015625)"/>
       <path id="DejaVuSans-6e" d="M 3513 2113 
L 3513 0 
L 2938 0 
L 2938 2094 
Q 2938 2591 2744 2837 
Q 2550 3084 2163 3084 
Q 1697 3084 1428 2787 
Q 1159 2491 1159 1978 
L 1159 0 
L 581 0 
L 581 3500 
L 1159 3500 
L 1159 2956 
Q 1366 3272 1645 3428 
Q 1925 3584 2291 3584 
Q 2894 3584 3203 3211 
Q 3513 2838 3513 2113 
z
" transform="scale(0.015625)"/>
      </defs>
      <use xlink:href="#DejaVuSans-50"/>
      <use xlink:href="#DejaVuSans-72" x="58.552734"/>
      <use xlink:href="#DejaVuSans-65" x="97.416016"/>
      <use xlink:href="#DejaVuSans-64" x="158.939453"/>
      <use xlink:href="#DejaVuSans-69" x="222.416016"/>
      <use xlink:href="#DejaVuSans-63" x="250.199219"/>
      <use xlink:href="#DejaVuSans-74" x="305.179688"/>
      <use xlink:href="#DejaVuSans-69" x="344.388672"/>
      <use xlink:href="#DejaVuSans-6f" x="372.171875"/>
      <use xlink:href="#DejaVuSans-6e" x="433.353516"/>
     </g>
    </g>
   </g>
   <g id="line2d_34">
    <path d="M 43.78125 271.000732 
L 49.449821 265.434405 
L 55.118393 264.541393 
L 60.786964 267.656626 
L 66.455536 278.621638 
L 72.124107 293.860025 
L 77.792679 303.463545 
L 83.46125 306.27608 
L 89.129821 306.762212 
L 94.798393 305.75815 
L 100.466964 301.245431 
L 106.135536 289.710962 
L 111.804107 271.855775 
L 117.472679 265.424445 
L 123.14125 263.944781 
L 128.809821 267.014459 
L 134.478393 277.10946 
L 140.146964 294.501255 
L 145.815536 303.681023 
L 151.484107 305.49672 
L 157.152679 303.768459 
L 162.82125 294.905933 
L 168.489821 277.647853 
L 174.158393 267.344229 
L 179.826964 267.645817 
L 185.495536 271.14395 
L 191.164107 282.765224 
L 196.832679 297.07841 
L 202.50125 305.585551 
L 208.169821 306.937211 
L 213.838393 306.915833 
L 219.506964 305.464946 
L 225.175536 296.866852 
L 230.844107 282.051265 
L 236.512679 270.045316 
L 242.18125 265.992782 
L 247.849821 264.116603 
L 253.518393 266.802535 
L 259.186964 277.540296 
L 264.855536 294.61932 
L 270.524107 305.102522 
L 276.192679 306.690051 
L 281.86125 306.400096 
L 287.529821 303.632797 
L 293.198393 288.994609 
L 298.866964 274.74285 
L 304.535536 268.971737 
L 310.204107 270.181697 
L 315.872679 279.429838 
L 321.54125 294.360614 
L 327.209821 302.770154 
L 332.878393 304.201443 
L 338.546964 300.421293 
L 344.215536 288.215753 
L 349.884107 273.38924 
L 355.552679 268.111912 
L 361.22125 273.739705 
L 366.889821 285.141365 
L 372.558393 299.102299 
L 378.226964 305.125136 
L 383.895536 306.561837 
L 389.564107 305.75 
L 395.232679 301.048919 
L 400.90125 288.174662 
" clip-path="url(#pf5aeaf2629)" style="fill: none; stroke: #0000ff; stroke-opacity: 0.3; stroke-width: 1.5; stroke-linecap: square"/>
   </g>
   <g id="line2d_35">
    <path d="M 43.78125 276.923127 
L 49.449821 275.218905 
L 55.118393 275.691301 
L 60.786964 277.631805 
L 66.455536 281.1925 
L 72.124107 291.144161 
L 77.792679 299.736148 
L 83.46125 303.413238 
L 89.129821 303.78322 
L 94.798393 300.985226 
L 100.466964 293.463846 
L 106.135536 283.41514 
L 111.804107 279.000873 
L 117.472679 277.050343 
L 123.14125 277.51046 
L 128.809821 279.191864 
L 134.478393 280.724832 
L 140.146964 292.331871 
L 145.815536 300.780855 
L 151.484107 302.769604 
L 157.152679 301.131639 
L 162.82125 291.246535 
L 168.489821 278.85017 
L 174.158393 274.489488 
L 179.826964 273.702643 
L 185.495536 274.905428 
L 191.164107 281.735742 
L 196.832679 293.667252 
L 202.50125 302.551695 
L 208.169821 305.227177 
L 213.838393 305.125435 
L 219.506964 302.121521 
L 225.175536 293.018852 
L 230.844107 281.633744 
L 236.512679 275.359594 
L 242.18125 274.165712 
L 247.849821 274.123351 
L 253.518393 275.319057 
L 259.186964 281.175131 
L 264.855536 292.948662 
L 270.524107 301.162273 
L 276.192679 304.182071 
L 281.86125 303.15805 
L 287.529821 296.736715 
L 293.198393 286.853683 
L 298.866964 278.639496 
L 304.535536 276.723969 
L 310.204107 277.464219 
L 315.872679 279.600769 
L 321.54125 292.469577 
L 327.209821 300.71983 
L 332.878393 302.120434 
L 338.546964 298.593688 
L 344.215536 287.248182 
L 349.884107 277.024456 
L 355.552679 274.851436 
L 361.22125 277.423154 
L 366.889821 284.300297 
L 372.558393 295.953278 
L 378.226964 302.897597 
L 383.895536 304.470977 
L 389.564107 302.793466 
L 395.232679 295.609914 
L 400.90125 283.30348 
" clip-path="url(#pf5aeaf2629)" style="fill: none; stroke: #ff0000; stroke-opacity: 0.3; stroke-width: 1.5; stroke-linecap: square"/>
   </g>
   <g id="line2d_36">
    <path d="M 43.78125 270.5837 
L 49.449821 267.670715 
L 55.118393 267.502863 
L 60.786964 268.642578 
L 66.455536 274.358623 
L 72.124107 286.662132 
L 77.792679 299.243044 
L 83.46125 304.979588 
L 89.129821 306.518332 
L 94.798393 306.268651 
L 100.466964 304.003625 
L 106.135536 297.347258 
L 111.804107 283.229633 
L 117.472679 273.778398 
L 123.14125 270.251488 
L 128.809821 269.889608 
L 134.478393 273.894833 
L 140.146964 287.234254 
L 145.815536 300.5306 
L 151.484107 304.648325 
L 157.152679 303.634744 
L 162.82125 295.78788 
L 168.489821 279.613684 
L 174.158393 269.584486 
L 179.826964 269.393777 
L 185.495536 272.437417 
L 191.164107 282.127468 
L 196.832679 295.970896 
L 202.50125 304.223722 
L 208.169821 306.246015 
L 213.838393 305.772223 
L 219.506964 301.515817 
L 225.175536 289.116708 
L 230.844107 276.934545 
L 236.512679 272.200455 
L 242.18125 271.802114 
L 247.849821 273.21558 
L 253.518393 273.476411 
L 259.186964 279.070778 
L 264.855536 292.04502 
L 270.524107 299.857297 
L 276.192679 303.986056 
L 281.86125 303.14474 
L 287.529821 297.619716 
L 293.198393 288.03924 
L 298.866964 282.902954 
L 304.535536 282.081108 
L 310.204107 286.374077 
L 315.872679 299.568972 
L 321.54125 303.923627 
L 327.209821 303.924763 
L 332.878393 297.337533 
L 338.546964 281.06891 
L 344.215536 268.291941 
L 349.884107 267.855082 
L 355.552679 272.455972 
L 361.22125 281.487664 
L 366.889821 296.118872 
L 372.558393 304.005754 
L 378.226964 306.340391 
L 383.895536 306.612727 
L 389.564107 304.838775 
L 395.232679 297.951548 
L 400.90125 284.689923 
" clip-path="url(#pf5aeaf2629)" style="fill: none; stroke: #0000ff; stroke-width: 1.5; stroke-linecap: square"/>
   </g>
   <g id="line2d_37">
    <path d="M 43.78125 272.702819 
L 49.449821 269.812745 
L 55.118393 269.807046 
L 60.786964 270.710809 
L 66.455536 274.598615 
L 72.124107 285.804992 
L 77.792679 298.249255 
L 83.46125 304.243304 
L 89.129821 305.755783 
L 94.798393 305.2334 
L 100.466964 301.666944 
L 106.135536 291.869188 
L 111.804107 280.732404 
L 117.472679 273.216259 
L 123.14125 271.805086 
L 128.809821 272.672004 
L 134.478393 273.192035 
L 140.146964 287.746919 
L 145.815536 300.73815 
L 151.484107 304.618198 
L 157.152679 304.129943 
L 162.82125 296.987204 
L 168.489821 281.011123 
L 174.158393 271.459659 
L 179.826964 272.39254 
L 185.495536 272.57467 
L 191.164107 279.777557 
L 196.832679 294.749287 
L 202.50125 304.810934 
L 208.169821 306.609795 
L 213.838393 306.406679 
L 219.506964 303.50029 
L 225.175536 289.908762 
L 230.844107 274.360364 
L 236.512679 267.99081 
L 242.18125 267.262239 
L 247.849821 267.492973 
L 253.518393 271.469967 
L 259.186964 283.506358 
L 264.855536 298.661666 
L 270.524107 305.752018 
L 276.192679 306.72706 
L 281.86125 305.883389 
L 287.529821 300.58556 
L 293.198393 282.61948 
L 298.866964 271.646144 
L 304.535536 269.851248 
L 310.204107 277.425806 
L 315.872679 293.481798 
L 321.54125 303.265945 
L 327.209821 304.992648 
L 332.878393 302.488472 
L 338.546964 290.868852 
L 344.215536 277.728884 
L 349.884107 272.033895 
L 355.552679 269.671395 
L 361.22125 280.374962 
L 366.889821 291.63019 
L 372.558393 302.023362 
L 378.226964 305.697273 
L 383.895536 305.733586 
L 389.564107 303.686884 
L 395.232679 296.037209 
L 400.90125 282.084983 
" clip-path="url(#pf5aeaf2629)" style="fill: none; stroke: #ff0000; stroke-width: 1.5; stroke-linecap: square"/>
   </g>
   <g id="patch_13">
    <path d="M 43.78125 307.872 
L 43.78125 229.603765 
" style="fill: none; stroke: #000000; stroke-width: 0.8; stroke-linejoin: miter; stroke-linecap: square"/>
   </g>
   <g id="patch_14">
    <path d="M 400.90125 307.872 
L 400.90125 229.603765 
" style="fill: none; stroke: #000000; stroke-width: 0.8; stroke-linejoin: miter; stroke-linecap: square"/>
   </g>
   <g id="patch_15">
    <path d="M 43.78125 307.872 
L 400.90125 307.872 
" style="fill: none; stroke: #000000; stroke-width: 0.8; stroke-linejoin: miter; stroke-linecap: square"/>
   </g>
   <g id="patch_16">
    <path d="M 43.78125 229.603765 
L 400.90125 229.603765 
" style="fill: none; stroke: #000000; stroke-width: 0.8; stroke-linejoin: miter; stroke-linecap: square"/>
   </g>
  </g>
  <g id="text_19">
   <!-- Integrated Phase -->
   <g transform="translate(165.3375 16.318125)scale(0.12 -0.12)">
    <defs>
     <path id="DejaVuSans-20" transform="scale(0.015625)"/>
     <path id="DejaVuSans-68" d="M 3513 2113 
L 3513 0 
L 2938 0 
L 2938 2094 
Q 2938 2591 2744 2837 
Q 2550 3084 2163 3084 
Q 1697 3084 1428 2787 
Q 1159 2491 1159 1978 
L 1159 0 
L 581 0 
L 581 4863 
L 1159 4863 
L 1159 2956 
Q 1366 3272 1645 3428 
Q 1925 3584 2291 3584 
Q 2894 3584 3203 3211 
Q 3513 2838 3513 2113 
z
" transform="scale(0.015625)"/>
     <path id="DejaVuSans-73" d="M 2834 3397 
L 2834 2853 
Q 2591 2978 2328 3040 
Q 2066 3103 1784 3103 
Q 1356 3103 1142 2972 
Q 928 2841 928 2578 
Q 928 2378 1081 2264 
Q 1234 2150 1697 2047 
L 1894 2003 
Q 2506 1872 2764 1633 
Q 3022 1394 3022 966 
Q 3022 478 2636 193 
Q 2250 -91 1575 -91 
Q 1294 -91 989 -36 
Q 684 19 347 128 
L 347 722 
Q 666 556 975 473 
Q 1284 391 1588 391 
Q 1994 391 2212 530 
Q 2431 669 2431 922 
Q 2431 1156 2273 1281 
Q 2116 1406 1581 1522 
L 1381 1569 
Q 847 1681 609 1914 
Q 372 2147 372 2553 
Q 372 3047 722 3315 
Q 1072 3584 1716 3584 
Q 2034 3584 2315 3537 
Q 2597 3491 2834 3397 
z
" transform="scale(0.015625)"/>
    </defs>
    <use xlink:href="#DejaVuSans-49"/>
    <use xlink:href="#DejaVuSans-6e" x="29.492188"/>
    <use xlink:href="#DejaVuSans-74" x="92.871094"/>
    <use xlink:href="#DejaVuSans-65" x="132.080078"/>
    <use xlink:href="#DejaVuSans-67" x="193.603516"/>
    <use xlink:href="#DejaVuSans-72" x="257.080078"/>
    <use xlink:href="#DejaVuSans-61" x="298.193359"/>
    <use xlink:href="#DejaVuSans-74" x="359.472656"/>
    <use xlink:href="#DejaVuSans-65" x="398.681641"/>
    <use xlink:href="#DejaVuSans-64" x="460.205078"/>
    <use xlink:href="#DejaVuSans-20" x="523.681641"/>
    <use xlink:href="#DejaVuSans-50" x="555.46875"/>
    <use xlink:href="#DejaVuSans-68" x="615.771484"/>
    <use xlink:href="#DejaVuSans-61" x="679.150391"/>
    <use xlink:href="#DejaVuSans-73" x="740.429688"/>
    <use xlink:href="#DejaVuSans-65" x="792.529297"/>
   </g>
  </g>
 </g>
 <defs>
  <clipPath id="p54d90d774a">
   <rect x="43.78125" y="41.76" width="357.12" height="78.268235"/>
  </clipPath>
  <clipPath id="pef82a065d7">
   <rect x="43.78125" y="135.681882" width="357.12" height="78.268235"/>
  </clipPath>
  <clipPath id="pf5aeaf2629">
   <rect x="43.78125" y="229.603765" width="357.12" height="78.268235"/>
  </clipPath>
 </defs>
</svg>
