<?xml version="1.0" encoding="utf-8" standalone="no"?>
<!DOCTYPE svg PUBLIC "-//W3C//DTD SVG 1.1//EN"
  "http://www.w3.org/Graphics/SVG/1.1/DTD/svg11.dtd">
<svg xmlns:xlink="http://www.w3.org/1999/xlink" width="416.052813pt" height="331.750125pt" viewBox="0 0 416.052813 331.750125" xmlns="http://www.w3.org/2000/svg" version="1.1">
 <metadata>
  <rdf:RDF xmlns:dc="http://purl.org/dc/elements/1.1/" xmlns:cc="http://creativecommons.org/ns#" xmlns:rdf="http://www.w3.org/1999/02/22-rdf-syntax-ns#">
   <cc:Work>
    <dc:type rdf:resource="http://purl.org/dc/dcmitype/StillImage"/>
    <dc:date>2024-04-02T15:25:13.558544</dc:date>
    <dc:format>image/svg+xml</dc:format>
    <dc:creator>
     <cc:Agent>
      <dc:title>Matplotlib v3.5.2, https://matplotlib.org/</dc:title>
     </cc:Agent>
    </dc:creator>
   </cc:Work>
  </rdf:RDF>
 </metadata>
 <defs>
  <style type="text/css">*{stroke-linejoin: round; stroke-linecap: butt}</style>
 </defs>
 <g id="figure_1">
  <g id="patch_1">
   <path d="M 0 331.750125 
L 416.052813 331.750125 
L 416.052813 0 
L 0 0 
z
" style="fill: #ffffff"/>
  </g>
  <g id="axes_1">
   <g id="patch_2">
    <path d="M 43.78125 120.028235 
L 400.90125 120.028235 
L 400.90125 41.76 
L 43.78125 41.76 
z
" style="fill: #ffffff"/>
   </g>
   <g id="matplotlib.axis_1">
    <g id="xtick_1">
     <g id="line2d_1">
      <defs>
       <path id="m875fcd7b2c" d="M 0 0 
L 0 3.5 
" style="stroke: #000000; stroke-width: 0.8"/>
      </defs>
      <g>
       <use xlink:href="#m875fcd7b2c" x="43.78125" y="120.028235" style="stroke: #000000; stroke-width: 0.8"/>
      </g>
     </g>
    </g>
    <g id="xtick_2">
     <g id="line2d_2">
      <g>
       <use xlink:href="#m875fcd7b2c" x="115.20525" y="120.028235" style="stroke: #000000; stroke-width: 0.8"/>
      </g>
     </g>
    </g>
    <g id="xtick_3">
     <g id="line2d_3">
      <g>
       <use xlink:href="#m875fcd7b2c" x="186.62925" y="120.028235" style="stroke: #000000; stroke-width: 0.8"/>
      </g>
     </g>
    </g>
    <g id="xtick_4">
     <g id="line2d_4">
      <g>
       <use xlink:href="#m875fcd7b2c" x="258.05325" y="120.028235" style="stroke: #000000; stroke-width: 0.8"/>
      </g>
     </g>
    </g>
    <g id="xtick_5">
     <g id="line2d_5">
      <g>
       <use xlink:href="#m875fcd7b2c" x="329.47725" y="120.028235" style="stroke: #000000; stroke-width: 0.8"/>
      </g>
     </g>
    </g>
    <g id="xtick_6">
     <g id="line2d_6">
      <g>
       <use xlink:href="#m875fcd7b2c" x="400.90125" y="120.028235" style="stroke: #000000; stroke-width: 0.8"/>
      </g>
     </g>
    </g>
   </g>
   <g id="matplotlib.axis_2">
    <g id="ytick_1">
     <g id="line2d_7">
      <defs>
       <path id="m9a9cb4d567" d="M 0 0 
L -3.5 0 
" style="stroke: #000000; stroke-width: 0.8"/>
      </defs>
      <g>
       <use xlink:href="#m9a9cb4d567" x="43.78125" y="120.028235" style="stroke: #000000; stroke-width: 0.8"/>
      </g>
     </g>
     <g id="text_1">
      <!-- 0.0 -->
      <g transform="translate(20.878125 123.827454)scale(0.1 -0.1)">
       <defs>
        <path id="DejaVuSans-30" d="M 2034 4250 
Q 1547 4250 1301 3770 
Q 1056 3291 1056 2328 
Q 1056 1369 1301 889 
Q 1547 409 2034 409 
Q 2525 409 2770 889 
Q 3016 1369 3016 2328 
Q 3016 3291 2770 3770 
Q 2525 4250 2034 4250 
z
M 2034 4750 
Q 2819 4750 3233 4129 
Q 3647 3509 3647 2328 
Q 3647 1150 3233 529 
Q 2819 -91 2034 -91 
Q 1250 -91 836 529 
Q 422 1150 422 2328 
Q 422 3509 836 4129 
Q 1250 4750 2034 4750 
z
" transform="scale(0.015625)"/>
        <path id="DejaVuSans-2e" d="M 684 794 
L 1344 794 
L 1344 0 
L 684 0 
L 684 794 
z
" transform="scale(0.015625)"/>
       </defs>
       <use xlink:href="#DejaVuSans-30"/>
       <use xlink:href="#DejaVuSans-2e" x="63.623047"/>
       <use xlink:href="#DejaVuSans-30" x="95.410156"/>
      </g>
     </g>
    </g>
    <g id="ytick_2">
     <g id="line2d_8">
      <g>
       <use xlink:href="#m9a9cb4d567" x="43.78125" y="80.894118" style="stroke: #000000; stroke-width: 0.8"/>
      </g>
     </g>
     <g id="text_2">
      <!-- 0.5 -->
      <g transform="translate(20.878125 84.693336)scale(0.1 -0.1)">
       <defs>
        <path id="DejaVuSans-35" d="M 691 4666 
L 3169 4666 
L 3169 4134 
L 1269 4134 
L 1269 2991 
Q 1406 3038 1543 3061 
Q 1681 3084 1819 3084 
Q 2600 3084 3056 2656 
Q 3513 2228 3513 1497 
Q 3513 744 3044 326 
Q 2575 -91 1722 -91 
Q 1428 -91 1123 -41 
Q 819 9 494 109 
L 494 744 
Q 775 591 1075 516 
Q 1375 441 1709 441 
Q 2250 441 2565 725 
Q 2881 1009 2881 1497 
Q 2881 1984 2565 2268 
Q 2250 2553 1709 2553 
Q 1456 2553 1204 2497 
Q 953 2441 691 2322 
L 691 4666 
z
" transform="scale(0.015625)"/>
       </defs>
       <use xlink:href="#DejaVuSans-30"/>
       <use xlink:href="#DejaVuSans-2e" x="63.623047"/>
       <use xlink:href="#DejaVuSans-35" x="95.410156"/>
      </g>
     </g>
    </g>
    <g id="ytick_3">
     <g id="line2d_9">
      <g>
       <use xlink:href="#m9a9cb4d567" x="43.78125" y="41.76" style="stroke: #000000; stroke-width: 0.8"/>
      </g>
     </g>
     <g id="text_3">
      <!-- 1.0 -->
      <g transform="translate(20.878125 45.559219)scale(0.1 -0.1)">
       <defs>
        <path id="DejaVuSans-31" d="M 794 531 
L 1825 531 
L 1825 4091 
L 703 3866 
L 703 4441 
L 1819 4666 
L 2450 4666 
L 2450 531 
L 3481 531 
L 3481 0 
L 794 0 
L 794 531 
z
" transform="scale(0.015625)"/>
       </defs>
       <use xlink:href="#DejaVuSans-31"/>
       <use xlink:href="#DejaVuSans-2e" x="63.623047"/>
       <use xlink:href="#DejaVuSans-30" x="95.410156"/>
      </g>
     </g>
    </g>
    <g id="text_4">
     <!-- IC -->
     <g transform="translate(14.798438 85.860524)rotate(-90)scale(0.1 -0.1)">
      <defs>
       <path id="DejaVuSans-49" d="M 628 4666 
L 1259 4666 
L 1259 0 
L 628 0 
L 628 4666 
z
" transform="scale(0.015625)"/>
       <path id="DejaVuSans-43" d="M 4122 4306 
L 4122 3641 
Q 3803 3938 3442 4084 
Q 3081 4231 2675 4231 
Q 1875 4231 1450 3742 
Q 1025 3253 1025 2328 
Q 1025 1406 1450 917 
Q 1875 428 2675 428 
Q 3081 428 3442 575 
Q 3803 722 4122 1019 
L 4122 359 
Q 3791 134 3420 21 
Q 3050 -91 2638 -91 
Q 1578 -91 968 557 
Q 359 1206 359 2328 
Q 359 3453 968 4101 
Q 1578 4750 2638 4750 
Q 3056 4750 3426 4639 
Q 3797 4528 4122 4306 
z
" transform="scale(0.015625)"/>
      </defs>
      <use xlink:href="#DejaVuSans-49"/>
      <use xlink:href="#DejaVuSans-43" x="29.492188"/>
     </g>
    </g>
   </g>
   <g id="line2d_10">
    <path d="M 43.78125 107.505318 
L 49.449821 105.783417 
L 55.118393 106.566098 
L 60.786964 106.879172 
L 66.455536 105.000734 
L 72.124107 103.278833 
L 77.792679 100.148103 
L 83.46125 97.956593 
L 89.129821 93.730109 
L 94.798393 93.103961 
L 100.466964 94.356253 
L 106.135536 97.017374 
L 111.804107 99.208885 
L 117.472679 101.400395 
L 123.14125 101.087322 
L 128.809821 101.870005 
L 134.478393 99.835032 
L 140.146964 98.58274 
L 145.815536 95.921619 
L 151.484107 95.921619 
L 157.152679 94.669327 
L 162.82125 93.730109 
L 168.489821 94.982401 
L 174.158393 98.113129 
L 179.826964 99.991566 
L 185.495536 102.49615 
L 191.164107 106.253026 
L 196.832679 107.974927 
L 202.50125 110.792583 
L 208.169821 111.888339 
L 213.838393 111.262193 
L 219.506964 111.731802 
L 225.175536 111.418729 
L 230.844107 110.166437 
L 236.512679 106.409563 
L 242.18125 102.339614 
L 247.849821 96.078156 
L 253.518393 86.999041 
L 259.186964 82.302946 
L 264.855536 81.363728 
L 270.524107 84.024846 
L 276.192679 88.877477 
L 281.86125 96.860837 
L 287.529821 102.183078 
L 293.198393 106.566098 
L 298.866964 107.974927 
L 304.535536 107.81839 
L 310.204107 108.75761 
L 315.872679 109.227219 
L 321.54125 111.418729 
L 327.209821 111.575266 
L 332.878393 107.348781 
L 338.546964 100.30464 
L 344.215536 92.32128 
L 349.884107 86.059822 
L 355.552679 81.050654 
L 361.22125 81.833336 
L 366.889821 86.216357 
L 372.558393 93.417035 
L 378.226964 101.400395 
L 383.895536 108.288 
L 389.564107 109.540292 
L 395.232679 110.94912 
L 400.90125 109.383755 
" clip-path="url(#pd6923a99b6)" style="fill: none; stroke: #0000ff; stroke-width: 1.5; stroke-linecap: square"/>
   </g>
   <g id="line2d_11">
    <path d="M 43.78125 102.652687 
L 49.449821 102.339614 
L 55.118393 104.061516 
L 60.786964 104.531125 
L 66.455536 104.844197 
L 72.124107 101.243859 
L 77.792679 100.461176 
L 83.46125 99.678495 
L 89.129821 99.991566 
L 94.798393 98.895811 
L 100.466964 97.173911 
L 106.135536 97.956593 
L 111.804107 98.426203 
L 117.472679 99.835032 
L 123.14125 99.521958 
L 128.809821 97.173911 
L 134.478393 97.330448 
L 140.146964 97.956593 
L 145.815536 97.017374 
L 151.484107 95.452009 
L 157.152679 97.486984 
L 162.82125 99.835032 
L 168.489821 101.087322 
L 174.158393 102.652687 
L 179.826964 105.470343 
L 185.495536 106.253026 
L 191.164107 104.374588 
L 196.832679 104.061516 
L 202.50125 104.687662 
L 208.169821 103.122296 
L 213.838393 101.713468 
L 219.506964 102.339614 
L 225.175536 104.218051 
L 230.844107 104.061516 
L 236.512679 102.652687 
L 242.18125 102.96576 
L 247.849821 102.026541 
L 253.518393 100.617713 
L 259.186964 97.330448 
L 264.855536 97.643519 
L 270.524107 96.391229 
L 276.192679 96.391229 
L 281.86125 94.51279 
L 287.529821 94.825864 
L 293.198393 96.547764 
L 298.866964 98.739274 
L 304.535536 100.461176 
L 310.204107 101.713468 
L 315.872679 105.157271 
L 321.54125 106.409563 
L 327.209821 104.531125 
L 332.878393 100.30464 
L 338.546964 99.521958 
L 344.215536 97.017374 
L 349.884107 97.330448 
L 355.552679 97.173911 
L 361.22125 97.330448 
L 366.889821 97.800056 
L 372.558393 98.426203 
L 378.226964 99.991566 
L 383.895536 100.774249 
L 389.564107 101.713468 
L 395.232679 102.49615 
L 400.90125 102.809224 
" clip-path="url(#pd6923a99b6)" style="fill: none; stroke: #ff0000; stroke-width: 1.5; stroke-linecap: square"/>
   </g>
   <g id="patch_3">
    <path d="M 43.78125 120.028235 
L 43.78125 41.76 
" style="fill: none; stroke: #000000; stroke-width: 0.8; stroke-linejoin: miter; stroke-linecap: square"/>
   </g>
   <g id="patch_4">
    <path d="M 400.90125 120.028235 
L 400.90125 41.76 
" style="fill: none; stroke: #000000; stroke-width: 0.8; stroke-linejoin: miter; stroke-linecap: square"/>
   </g>
   <g id="patch_5">
    <path d="M 43.78125 120.028235 
L 400.90125 120.028235 
" style="fill: none; stroke: #000000; stroke-width: 0.8; stroke-linejoin: miter; stroke-linecap: square"/>
   </g>
   <g id="patch_6">
    <path d="M 43.78125 41.76 
L 400.90125 41.76 
" style="fill: none; stroke: #000000; stroke-width: 0.8; stroke-linejoin: miter; stroke-linecap: square"/>
   </g>
  </g>
  <g id="axes_2">
   <g id="patch_7">
    <path d="M 43.78125 213.950118 
L 400.90125 213.950118 
L 400.90125 135.681882 
L 43.78125 135.681882 
z
" style="fill: #ffffff"/>
   </g>
   <g id="matplotlib.axis_3">
    <g id="xtick_7">
     <g id="line2d_12">
      <g>
       <use xlink:href="#m875fcd7b2c" x="43.78125" y="213.950118" style="stroke: #000000; stroke-width: 0.8"/>
      </g>
     </g>
    </g>
    <g id="xtick_8">
     <g id="line2d_13">
      <g>
       <use xlink:href="#m875fcd7b2c" x="115.20525" y="213.950118" style="stroke: #000000; stroke-width: 0.8"/>
      </g>
     </g>
    </g>
    <g id="xtick_9">
     <g id="line2d_14">
      <g>
       <use xlink:href="#m875fcd7b2c" x="186.62925" y="213.950118" style="stroke: #000000; stroke-width: 0.8"/>
      </g>
     </g>
    </g>
    <g id="xtick_10">
     <g id="line2d_15">
      <g>
       <use xlink:href="#m875fcd7b2c" x="258.05325" y="213.950118" style="stroke: #000000; stroke-width: 0.8"/>
      </g>
     </g>
    </g>
    <g id="xtick_11">
     <g id="line2d_16">
      <g>
       <use xlink:href="#m875fcd7b2c" x="329.47725" y="213.950118" style="stroke: #000000; stroke-width: 0.8"/>
      </g>
     </g>
    </g>
    <g id="xtick_12">
     <g id="line2d_17">
      <g>
       <use xlink:href="#m875fcd7b2c" x="400.90125" y="213.950118" style="stroke: #000000; stroke-width: 0.8"/>
      </g>
     </g>
    </g>
   </g>
   <g id="matplotlib.axis_4">
    <g id="ytick_4">
     <g id="line2d_18">
      <g>
       <use xlink:href="#m9a9cb4d567" x="43.78125" y="213.950118" style="stroke: #000000; stroke-width: 0.8"/>
      </g>
     </g>
     <g id="text_5">
      <!-- 0.0 -->
      <g transform="translate(20.878125 217.749336)scale(0.1 -0.1)">
       <use xlink:href="#DejaVuSans-30"/>
       <use xlink:href="#DejaVuSans-2e" x="63.623047"/>
       <use xlink:href="#DejaVuSans-30" x="95.410156"/>
      </g>
     </g>
    </g>
    <g id="ytick_5">
     <g id="line2d_19">
      <g>
       <use xlink:href="#m9a9cb4d567" x="43.78125" y="174.816" style="stroke: #000000; stroke-width: 0.8"/>
      </g>
     </g>
     <g id="text_6">
      <!-- 0.5 -->
      <g transform="translate(20.878125 178.615219)scale(0.1 -0.1)">
       <use xlink:href="#DejaVuSans-30"/>
       <use xlink:href="#DejaVuSans-2e" x="63.623047"/>
       <use xlink:href="#DejaVuSans-35" x="95.410156"/>
      </g>
     </g>
    </g>
    <g id="ytick_6">
     <g id="line2d_20">
      <g>
       <use xlink:href="#m9a9cb4d567" x="43.78125" y="135.681882" style="stroke: #000000; stroke-width: 0.8"/>
      </g>
     </g>
     <g id="text_7">
      <!-- 1.0 -->
      <g transform="translate(20.878125 139.481101)scale(0.1 -0.1)">
       <use xlink:href="#DejaVuSans-31"/>
       <use xlink:href="#DejaVuSans-2e" x="63.623047"/>
       <use xlink:href="#DejaVuSans-30" x="95.410156"/>
      </g>
     </g>
    </g>
    <g id="text_8">
     <!-- Target -->
     <g transform="translate(14.798438 190.287875)rotate(-90)scale(0.1 -0.1)">
      <defs>
       <path id="DejaVuSans-54" d="M -19 4666 
L 3928 4666 
L 3928 4134 
L 2272 4134 
L 2272 0 
L 1638 0 
L 1638 4134 
L -19 4134 
L -19 4666 
z
" transform="scale(0.015625)"/>
       <path id="DejaVuSans-61" d="M 2194 1759 
Q 1497 1759 1228 1600 
Q 959 1441 959 1056 
Q 959 750 1161 570 
Q 1363 391 1709 391 
Q 2188 391 2477 730 
Q 2766 1069 2766 1631 
L 2766 1759 
L 2194 1759 
z
M 3341 1997 
L 3341 0 
L 2766 0 
L 2766 531 
Q 2569 213 2275 61 
Q 1981 -91 1556 -91 
Q 1019 -91 701 211 
Q 384 513 384 1019 
Q 384 1609 779 1909 
Q 1175 2209 1959 2209 
L 2766 2209 
L 2766 2266 
Q 2766 2663 2505 2880 
Q 2244 3097 1772 3097 
Q 1472 3097 1187 3025 
Q 903 2953 641 2809 
L 641 3341 
Q 956 3463 1253 3523 
Q 1550 3584 1831 3584 
Q 2591 3584 2966 3190 
Q 3341 2797 3341 1997 
z
" transform="scale(0.015625)"/>
       <path id="DejaVuSans-72" d="M 2631 2963 
Q 2534 3019 2420 3045 
Q 2306 3072 2169 3072 
Q 1681 3072 1420 2755 
Q 1159 2438 1159 1844 
L 1159 0 
L 581 0 
L 581 3500 
L 1159 3500 
L 1159 2956 
Q 1341 3275 1631 3429 
Q 1922 3584 2338 3584 
Q 2397 3584 2469 3576 
Q 2541 3569 2628 3553 
L 2631 2963 
z
" transform="scale(0.015625)"/>
       <path id="DejaVuSans-67" d="M 2906 1791 
Q 2906 2416 2648 2759 
Q 2391 3103 1925 3103 
Q 1463 3103 1205 2759 
Q 947 2416 947 1791 
Q 947 1169 1205 825 
Q 1463 481 1925 481 
Q 2391 481 2648 825 
Q 2906 1169 2906 1791 
z
M 3481 434 
Q 3481 -459 3084 -895 
Q 2688 -1331 1869 -1331 
Q 1566 -1331 1297 -1286 
Q 1028 -1241 775 -1147 
L 775 -588 
Q 1028 -725 1275 -790 
Q 1522 -856 1778 -856 
Q 2344 -856 2625 -561 
Q 2906 -266 2906 331 
L 2906 616 
Q 2728 306 2450 153 
Q 2172 0 1784 0 
Q 1141 0 747 490 
Q 353 981 353 1791 
Q 353 2603 747 3093 
Q 1141 3584 1784 3584 
Q 2172 3584 2450 3431 
Q 2728 3278 2906 2969 
L 2906 3500 
L 3481 3500 
L 3481 434 
z
" transform="scale(0.015625)"/>
       <path id="DejaVuSans-65" d="M 3597 1894 
L 3597 1613 
L 953 1613 
Q 991 1019 1311 708 
Q 1631 397 2203 397 
Q 2534 397 2845 478 
Q 3156 559 3463 722 
L 3463 178 
Q 3153 47 2828 -22 
Q 2503 -91 2169 -91 
Q 1331 -91 842 396 
Q 353 884 353 1716 
Q 353 2575 817 3079 
Q 1281 3584 2069 3584 
Q 2775 3584 3186 3129 
Q 3597 2675 3597 1894 
z
M 3022 2063 
Q 3016 2534 2758 2815 
Q 2500 3097 2075 3097 
Q 1594 3097 1305 2825 
Q 1016 2553 972 2059 
L 3022 2063 
z
" transform="scale(0.015625)"/>
       <path id="DejaVuSans-74" d="M 1172 4494 
L 1172 3500 
L 2356 3500 
L 2356 3053 
L 1172 3053 
L 1172 1153 
Q 1172 725 1289 603 
Q 1406 481 1766 481 
L 2356 481 
L 2356 0 
L 1766 0 
Q 1100 0 847 248 
Q 594 497 594 1153 
L 594 3053 
L 172 3053 
L 172 3500 
L 594 3500 
L 594 4494 
L 1172 4494 
z
" transform="scale(0.015625)"/>
      </defs>
      <use xlink:href="#DejaVuSans-54"/>
      <use xlink:href="#DejaVuSans-61" x="44.583984"/>
      <use xlink:href="#DejaVuSans-72" x="105.863281"/>
      <use xlink:href="#DejaVuSans-67" x="145.226562"/>
      <use xlink:href="#DejaVuSans-65" x="208.703125"/>
      <use xlink:href="#DejaVuSans-74" x="270.226562"/>
     </g>
    </g>
   </g>
   <g id="line2d_21">
    <path d="M 43.78125 202.836028 
L 49.449821 201.740273 
L 55.118393 201.114127 
L 60.786964 200.018372 
L 66.455536 200.174908 
L 72.124107 200.174908 
L 77.792679 199.548762 
L 83.46125 195.009205 
L 89.129821 191.721938 
L 94.798393 188.278136 
L 100.466964 184.677797 
L 106.135536 184.834333 
L 111.804107 185.460481 
L 117.472679 189.843501 
L 123.14125 195.322277 
L 128.809821 197.200715 
L 134.478393 199.548762 
L 140.146964 198.453007 
L 145.815536 198.139934 
L 151.484107 197.983398 
L 157.152679 195.948423 
L 162.82125 191.408867 
L 168.489821 188.591209 
L 174.158393 187.495454 
L 179.826964 186.869309 
L 185.495536 191.095793 
L 191.164107 195.009205 
L 196.832679 199.23569 
L 202.50125 200.801054 
L 208.169821 206.436367 
L 213.838393 208.158268 
L 219.506964 207.532122 
L 225.175536 205.027539 
L 230.844107 204.244857 
L 236.512679 198.922616 
L 242.18125 191.25233 
L 247.849821 183.26897 
L 253.518393 176.381366 
L 259.186964 173.094098 
L 264.855536 175.755218 
L 270.524107 180.607849 
L 276.192679 187.495454 
L 281.86125 195.165742 
L 287.529821 199.861835 
L 293.198393 204.871003 
L 298.866964 205.497148 
L 304.535536 204.714466 
L 310.204107 205.340612 
L 315.872679 203.462174 
L 321.54125 202.679492 
L 327.209821 201.270663 
L 332.878393 199.548762 
L 338.546964 195.322277 
L 344.215536 189.217354 
L 349.884107 182.173215 
L 355.552679 174.033318 
L 361.22125 172.781024 
L 366.889821 176.224829 
L 372.558393 183.112433 
L 378.226964 190.78272 
L 383.895536 197.044178 
L 389.564107 203.462174 
L 395.232679 203.775247 
L 400.90125 203.462174 
" clip-path="url(#p6ef5cc70b6)" style="fill: none; stroke: #0000ff; stroke-opacity: 0.3; stroke-width: 1.5; stroke-linecap: square"/>
   </g>
   <g id="line2d_22">
    <path d="M 43.78125 204.401393 
L 49.449821 202.992565 
L 55.118393 202.209882 
L 60.786964 199.23569 
L 66.455536 197.200715 
L 72.124107 194.226522 
L 77.792679 191.095793 
L 83.46125 191.095793 
L 89.129821 188.434673 
L 94.798393 188.591209 
L 100.466964 189.373891 
L 106.135536 189.686965 
L 111.804107 190.626183 
L 117.472679 190.313112 
L 123.14125 191.408867 
L 128.809821 193.913448 
L 134.478393 193.756914 
L 140.146964 195.635351 
L 145.815536 194.226522 
L 151.484107 192.035012 
L 157.152679 191.878475 
L 162.82125 190.469646 
L 168.489821 192.035012 
L 174.158393 190.626183 
L 179.826964 192.348085 
L 185.495536 194.539596 
L 191.164107 198.609544 
L 196.832679 199.23569 
L 202.50125 201.270663 
L 208.169821 204.08832 
L 213.838393 205.653685 
L 219.506964 205.027539 
L 225.175536 203.462174 
L 230.844107 199.392226 
L 236.512679 196.731106 
L 242.18125 191.878475 
L 247.849821 189.217354 
L 253.518393 189.530428 
L 259.186964 189.843501 
L 264.855536 188.434673 
L 270.524107 184.834333 
L 276.192679 185.930089 
L 281.86125 188.747746 
L 287.529821 192.661156 
L 293.198393 196.261497 
L 298.866964 199.079153 
L 304.535536 201.270663 
L 310.204107 198.609544 
L 315.872679 200.331445 
L 321.54125 198.29647 
L 327.209821 194.852668 
L 332.878393 193.913448 
L 338.546964 192.191548 
L 344.215536 188.904283 
L 349.884107 189.530428 
L 355.552679 189.373891 
L 361.22125 188.747746 
L 366.889821 187.965065 
L 372.558393 187.182381 
L 378.226964 189.530428 
L 383.895536 195.009205 
L 389.564107 197.670324 
L 395.232679 200.487981 
L 400.90125 204.401393 
" clip-path="url(#p6ef5cc70b6)" style="fill: none; stroke: #ff0000; stroke-opacity: 0.3; stroke-width: 1.5; stroke-linecap: square"/>
   </g>
   <g id="line2d_23">
    <path d="M 43.78125 195.009205 
L 49.449821 193.600377 
L 55.118393 195.165742 
L 60.786964 197.357252 
L 66.455536 197.513789 
L 72.124107 198.29647 
L 77.792679 198.453007 
L 83.46125 197.826861 
L 89.129821 197.670324 
L 94.798393 197.983398 
L 100.466964 195.948423 
L 106.135536 192.97423 
L 111.804107 190.939256 
L 117.472679 192.348085 
L 123.14125 190.626183 
L 128.809821 193.130767 
L 134.478393 193.913448 
L 140.146964 194.852668 
L 145.815536 194.069985 
L 151.484107 194.539596 
L 157.152679 196.261497 
L 162.82125 196.10496 
L 168.489821 196.261497 
L 174.158393 195.165742 
L 179.826964 198.76608 
L 185.495536 200.644518 
L 191.164107 198.76608 
L 196.832679 196.574569 
L 202.50125 195.478814 
L 208.169821 194.852668 
L 213.838393 195.948423 
L 219.506964 197.670324 
L 225.175536 197.357252 
L 230.844107 196.418032 
L 236.512679 192.97423 
L 242.18125 189.530428 
L 247.849821 186.556236 
L 253.518393 182.329749 
L 259.186964 182.016678 
L 264.855536 182.016678 
L 270.524107 187.338917 
L 276.192679 192.191548 
L 281.86125 195.635351 
L 287.529821 199.23569 
L 293.198393 199.23569 
L 298.866964 200.487981 
L 304.535536 201.270663 
L 310.204107 201.896809 
L 315.872679 200.801054 
L 321.54125 201.114127 
L 327.209821 203.149101 
L 332.878393 200.174908 
L 338.546964 197.357252 
L 344.215536 192.348085 
L 349.884107 187.965065 
L 355.552679 182.955897 
L 361.22125 180.607849 
L 366.889821 181.547068 
L 372.558393 184.051652 
L 378.226964 188.591209 
L 383.895536 195.791888 
L 389.564107 198.609544 
L 395.232679 196.574569 
L 400.90125 197.670324 
" clip-path="url(#p6ef5cc70b6)" style="fill: none; stroke: #0000ff; stroke-width: 1.5; stroke-linecap: square"/>
   </g>
   <g id="line2d_24">
    <path d="M 43.78125 201.270663 
L 49.449821 201.896809 
L 55.118393 200.801054 
L 60.786964 201.4272 
L 66.455536 198.139934 
L 72.124107 196.418032 
L 77.792679 195.009205 
L 83.46125 193.130767 
L 89.129821 192.504622 
L 94.798393 191.408867 
L 100.466964 189.373891 
L 106.135536 186.869309 
L 111.804107 186.712773 
L 117.472679 187.965065 
L 123.14125 188.434673 
L 128.809821 190.000038 
L 134.478393 192.348085 
L 140.146964 192.661156 
L 145.815536 194.069985 
L 151.484107 193.756914 
L 157.152679 193.913448 
L 162.82125 195.322277 
L 168.489821 194.069985 
L 174.158393 192.817693 
L 179.826964 192.504622 
L 185.495536 194.226522 
L 191.164107 196.574569 
L 196.832679 197.357252 
L 202.50125 199.861835 
L 208.169821 203.149101 
L 213.838393 203.931783 
L 219.506964 202.366419 
L 225.175536 201.896809 
L 230.844107 201.4272 
L 236.512679 198.76608 
L 242.18125 193.913448 
L 247.849821 191.25233 
L 253.518393 189.843501 
L 259.186964 189.217354 
L 264.855536 189.217354 
L 270.524107 188.121599 
L 276.192679 190.156575 
L 281.86125 191.408867 
L 287.529821 193.756914 
L 293.198393 196.10496 
L 298.866964 199.392226 
L 304.535536 199.861835 
L 310.204107 198.609544 
L 315.872679 198.139934 
L 321.54125 196.731106 
L 327.209821 195.009205 
L 332.878393 193.756914 
L 338.546964 189.843501 
L 344.215536 187.808528 
L 349.884107 186.869309 
L 355.552679 186.712773 
L 361.22125 188.434673 
L 366.889821 189.217354 
L 372.558393 191.565401 
L 378.226964 192.191548 
L 383.895536 195.478814 
L 389.564107 197.200715 
L 395.232679 198.609544 
L 400.90125 199.705299 
" clip-path="url(#p6ef5cc70b6)" style="fill: none; stroke: #ff0000; stroke-width: 1.5; stroke-linecap: square"/>
   </g>
   <g id="patch_8">
    <path d="M 43.78125 213.950118 
L 43.78125 135.681882 
" style="fill: none; stroke: #000000; stroke-width: 0.8; stroke-linejoin: miter; stroke-linecap: square"/>
   </g>
   <g id="patch_9">
    <path d="M 400.90125 213.950118 
L 400.90125 135.681882 
" style="fill: none; stroke: #000000; stroke-width: 0.8; stroke-linejoin: miter; stroke-linecap: square"/>
   </g>
   <g id="patch_10">
    <path d="M 43.78125 213.950118 
L 400.90125 213.950118 
" style="fill: none; stroke: #000000; stroke-width: 0.8; stroke-linejoin: miter; stroke-linecap: square"/>
   </g>
   <g id="patch_11">
    <path d="M 43.78125 135.681882 
L 400.90125 135.681882 
" style="fill: none; stroke: #000000; stroke-width: 0.8; stroke-linejoin: miter; stroke-linecap: square"/>
   </g>
  </g>
  <g id="axes_3">
   <g id="patch_12">
    <path d="M 43.78125 307.872 
L 400.90125 307.872 
L 400.90125 229.603765 
L 43.78125 229.603765 
z
" style="fill: #ffffff"/>
   </g>
   <g id="matplotlib.axis_5">
    <g id="xtick_13">
     <g id="line2d_25">
      <g>
       <use xlink:href="#m875fcd7b2c" x="43.78125" y="307.872" style="stroke: #000000; stroke-width: 0.8"/>
      </g>
     </g>
     <g id="text_9">
      <!-- 0.0 -->
      <g transform="translate(35.829688 322.470437)scale(0.1 -0.1)">
       <use xlink:href="#DejaVuSans-30"/>
       <use xlink:href="#DejaVuSans-2e" x="63.623047"/>
       <use xlink:href="#DejaVuSans-30" x="95.410156"/>
      </g>
     </g>
    </g>
    <g id="xtick_14">
     <g id="line2d_26">
      <g>
       <use xlink:href="#m875fcd7b2c" x="115.20525" y="307.872" style="stroke: #000000; stroke-width: 0.8"/>
      </g>
     </g>
     <g id="text_10">
      <!-- 0.2 -->
      <g transform="translate(107.253688 322.470437)scale(0.1 -0.1)">
       <defs>
        <path id="DejaVuSans-32" d="M 1228 531 
L 3431 531 
L 3431 0 
L 469 0 
L 469 531 
Q 828 903 1448 1529 
Q 2069 2156 2228 2338 
Q 2531 2678 2651 2914 
Q 2772 3150 2772 3378 
Q 2772 3750 2511 3984 
Q 2250 4219 1831 4219 
Q 1534 4219 1204 4116 
Q 875 4013 500 3803 
L 500 4441 
Q 881 4594 1212 4672 
Q 1544 4750 1819 4750 
Q 2544 4750 2975 4387 
Q 3406 4025 3406 3419 
Q 3406 3131 3298 2873 
Q 3191 2616 2906 2266 
Q 2828 2175 2409 1742 
Q 1991 1309 1228 531 
z
" transform="scale(0.015625)"/>
       </defs>
       <use xlink:href="#DejaVuSans-30"/>
       <use xlink:href="#DejaVuSans-2e" x="63.623047"/>
       <use xlink:href="#DejaVuSans-32" x="95.410156"/>
      </g>
     </g>
    </g>
    <g id="xtick_15">
     <g id="line2d_27">
      <g>
       <use xlink:href="#m875fcd7b2c" x="186.62925" y="307.872" style="stroke: #000000; stroke-width: 0.8"/>
      </g>
     </g>
     <g id="text_11">
      <!-- 0.4 -->
      <g transform="translate(178.677688 322.470437)scale(0.1 -0.1)">
       <defs>
        <path id="DejaVuSans-34" d="M 2419 4116 
L 825 1625 
L 2419 1625 
L 2419 4116 
z
M 2253 4666 
L 3047 4666 
L 3047 1625 
L 3713 1625 
L 3713 1100 
L 3047 1100 
L 3047 0 
L 2419 0 
L 2419 1100 
L 313 1100 
L 313 1709 
L 2253 4666 
z
" transform="scale(0.015625)"/>
       </defs>
       <use xlink:href="#DejaVuSans-30"/>
       <use xlink:href="#DejaVuSans-2e" x="63.623047"/>
       <use xlink:href="#DejaVuSans-34" x="95.410156"/>
      </g>
     </g>
    </g>
    <g id="xtick_16">
     <g id="line2d_28">
      <g>
       <use xlink:href="#m875fcd7b2c" x="258.05325" y="307.872" style="stroke: #000000; stroke-width: 0.8"/>
      </g>
     </g>
     <g id="text_12">
      <!-- 0.6 -->
      <g transform="translate(250.101688 322.470437)scale(0.1 -0.1)">
       <defs>
        <path id="DejaVuSans-36" d="M 2113 2584 
Q 1688 2584 1439 2293 
Q 1191 2003 1191 1497 
Q 1191 994 1439 701 
Q 1688 409 2113 409 
Q 2538 409 2786 701 
Q 3034 994 3034 1497 
Q 3034 2003 2786 2293 
Q 2538 2584 2113 2584 
z
M 3366 4563 
L 3366 3988 
Q 3128 4100 2886 4159 
Q 2644 4219 2406 4219 
Q 1781 4219 1451 3797 
Q 1122 3375 1075 2522 
Q 1259 2794 1537 2939 
Q 1816 3084 2150 3084 
Q 2853 3084 3261 2657 
Q 3669 2231 3669 1497 
Q 3669 778 3244 343 
Q 2819 -91 2113 -91 
Q 1303 -91 875 529 
Q 447 1150 447 2328 
Q 447 3434 972 4092 
Q 1497 4750 2381 4750 
Q 2619 4750 2861 4703 
Q 3103 4656 3366 4563 
z
" transform="scale(0.015625)"/>
       </defs>
       <use xlink:href="#DejaVuSans-30"/>
       <use xlink:href="#DejaVuSans-2e" x="63.623047"/>
       <use xlink:href="#DejaVuSans-36" x="95.410156"/>
      </g>
     </g>
    </g>
    <g id="xtick_17">
     <g id="line2d_29">
      <g>
       <use xlink:href="#m875fcd7b2c" x="329.47725" y="307.872" style="stroke: #000000; stroke-width: 0.8"/>
      </g>
     </g>
     <g id="text_13">
      <!-- 0.8 -->
      <g transform="translate(321.525688 322.470437)scale(0.1 -0.1)">
       <defs>
        <path id="DejaVuSans-38" d="M 2034 2216 
Q 1584 2216 1326 1975 
Q 1069 1734 1069 1313 
Q 1069 891 1326 650 
Q 1584 409 2034 409 
Q 2484 409 2743 651 
Q 3003 894 3003 1313 
Q 3003 1734 2745 1975 
Q 2488 2216 2034 2216 
z
M 1403 2484 
Q 997 2584 770 2862 
Q 544 3141 544 3541 
Q 544 4100 942 4425 
Q 1341 4750 2034 4750 
Q 2731 4750 3128 4425 
Q 3525 4100 3525 3541 
Q 3525 3141 3298 2862 
Q 3072 2584 2669 2484 
Q 3125 2378 3379 2068 
Q 3634 1759 3634 1313 
Q 3634 634 3220 271 
Q 2806 -91 2034 -91 
Q 1263 -91 848 271 
Q 434 634 434 1313 
Q 434 1759 690 2068 
Q 947 2378 1403 2484 
z
M 1172 3481 
Q 1172 3119 1398 2916 
Q 1625 2713 2034 2713 
Q 2441 2713 2670 2916 
Q 2900 3119 2900 3481 
Q 2900 3844 2670 4047 
Q 2441 4250 2034 4250 
Q 1625 4250 1398 4047 
Q 1172 3844 1172 3481 
z
" transform="scale(0.015625)"/>
       </defs>
       <use xlink:href="#DejaVuSans-30"/>
       <use xlink:href="#DejaVuSans-2e" x="63.623047"/>
       <use xlink:href="#DejaVuSans-38" x="95.410156"/>
      </g>
     </g>
    </g>
    <g id="xtick_18">
     <g id="line2d_30">
      <g>
       <use xlink:href="#m875fcd7b2c" x="400.90125" y="307.872" style="stroke: #000000; stroke-width: 0.8"/>
      </g>
     </g>
     <g id="text_14">
      <!-- 1.0 -->
      <g transform="translate(392.949687 322.470437)scale(0.1 -0.1)">
       <use xlink:href="#DejaVuSans-31"/>
       <use xlink:href="#DejaVuSans-2e" x="63.623047"/>
       <use xlink:href="#DejaVuSans-30" x="95.410156"/>
      </g>
     </g>
    </g>
   </g>
   <g id="matplotlib.axis_6">
    <g id="ytick_7">
     <g id="line2d_31">
      <g>
       <use xlink:href="#m9a9cb4d567" x="43.78125" y="307.872" style="stroke: #000000; stroke-width: 0.8"/>
      </g>
     </g>
     <g id="text_15">
      <!-- 0.0 -->
      <g transform="translate(20.878125 311.671219)scale(0.1 -0.1)">
       <use xlink:href="#DejaVuSans-30"/>
       <use xlink:href="#DejaVuSans-2e" x="63.623047"/>
       <use xlink:href="#DejaVuSans-30" x="95.410156"/>
      </g>
     </g>
    </g>
    <g id="ytick_8">
     <g id="line2d_32">
      <g>
       <use xlink:href="#m9a9cb4d567" x="43.78125" y="268.737882" style="stroke: #000000; stroke-width: 0.8"/>
      </g>
     </g>
     <g id="text_16">
      <!-- 0.5 -->
      <g transform="translate(20.878125 272.537101)scale(0.1 -0.1)">
       <use xlink:href="#DejaVuSans-30"/>
       <use xlink:href="#DejaVuSans-2e" x="63.623047"/>
       <use xlink:href="#DejaVuSans-35" x="95.410156"/>
      </g>
     </g>
    </g>
    <g id="ytick_9">
     <g id="line2d_33">
      <g>
       <use xlink:href="#m9a9cb4d567" x="43.78125" y="229.603765" style="stroke: #000000; stroke-width: 0.8"/>
      </g>
     </g>
     <g id="text_17">
      <!-- 1.0 -->
      <g transform="translate(20.878125 233.402983)scale(0.1 -0.1)">
       <use xlink:href="#DejaVuSans-31"/>
       <use xlink:href="#DejaVuSans-2e" x="63.623047"/>
       <use xlink:href="#DejaVuSans-30" x="95.410156"/>
      </g>
     </g>
    </g>
    <g id="text_18">
     <!-- Prediction -->
     <g transform="translate(14.798438 293.574601)rotate(-90)scale(0.1 -0.1)">
      <defs>
       <path id="DejaVuSans-50" d="M 1259 4147 
L 1259 2394 
L 2053 2394 
Q 2494 2394 2734 2622 
Q 2975 2850 2975 3272 
Q 2975 3691 2734 3919 
Q 2494 4147 2053 4147 
L 1259 4147 
z
M 628 4666 
L 2053 4666 
Q 2838 4666 3239 4311 
Q 3641 3956 3641 3272 
Q 3641 2581 3239 2228 
Q 2838 1875 2053 1875 
L 1259 1875 
L 1259 0 
L 628 0 
L 628 4666 
z
" transform="scale(0.015625)"/>
       <path id="DejaVuSans-64" d="M 2906 2969 
L 2906 4863 
L 3481 4863 
L 3481 0 
L 2906 0 
L 2906 525 
Q 2725 213 2448 61 
Q 2172 -91 1784 -91 
Q 1150 -91 751 415 
Q 353 922 353 1747 
Q 353 2572 751 3078 
Q 1150 3584 1784 3584 
Q 2172 3584 2448 3432 
Q 2725 3281 2906 2969 
z
M 947 1747 
Q 947 1113 1208 752 
Q 1469 391 1925 391 
Q 2381 391 2643 752 
Q 2906 1113 2906 1747 
Q 2906 2381 2643 2742 
Q 2381 3103 1925 3103 
Q 1469 3103 1208 2742 
Q 947 2381 947 1747 
z
" transform="scale(0.015625)"/>
       <path id="DejaVuSans-69" d="M 603 3500 
L 1178 3500 
L 1178 0 
L 603 0 
L 603 3500 
z
M 603 4863 
L 1178 4863 
L 1178 4134 
L 603 4134 
L 603 4863 
z
" transform="scale(0.015625)"/>
       <path id="DejaVuSans-63" d="M 3122 3366 
L 3122 2828 
Q 2878 2963 2633 3030 
Q 2388 3097 2138 3097 
Q 1578 3097 1268 2742 
Q 959 2388 959 1747 
Q 959 1106 1268 751 
Q 1578 397 2138 397 
Q 2388 397 2633 464 
Q 2878 531 3122 666 
L 3122 134 
Q 2881 22 2623 -34 
Q 2366 -91 2075 -91 
Q 1284 -91 818 406 
Q 353 903 353 1747 
Q 353 2603 823 3093 
Q 1294 3584 2113 3584 
Q 2378 3584 2631 3529 
Q 2884 3475 3122 3366 
z
" transform="scale(0.015625)"/>
       <path id="DejaVuSans-6f" d="M 1959 3097 
Q 1497 3097 1228 2736 
Q 959 2375 959 1747 
Q 959 1119 1226 758 
Q 1494 397 1959 397 
Q 2419 397 2687 759 
Q 2956 1122 2956 1747 
Q 2956 2369 2687 2733 
Q 2419 3097 1959 3097 
z
M 1959 3584 
Q 2709 3584 3137 3096 
Q 3566 2609 3566 1747 
Q 3566 888 3137 398 
Q 2709 -91 1959 -91 
Q 1206 -91 779 398 
Q 353 888 353 1747 
Q 353 2609 779 3096 
Q 1206 3584 1959 3584 
z
" transform="scale(0.015625)"/>
       <path id="DejaVuSans-6e" d="M 3513 2113 
L 3513 0 
L 2938 0 
L 2938 2094 
Q 2938 2591 2744 2837 
Q 2550 3084 2163 3084 
Q 1697 3084 1428 2787 
Q 1159 2491 1159 1978 
L 1159 0 
L 581 0 
L 581 3500 
L 1159 3500 
L 1159 2956 
Q 1366 3272 1645 3428 
Q 1925 3584 2291 3584 
Q 2894 3584 3203 3211 
Q 3513 2838 3513 2113 
z
" transform="scale(0.015625)"/>
      </defs>
      <use xlink:href="#DejaVuSans-50"/>
      <use xlink:href="#DejaVuSans-72" x="58.552734"/>
      <use xlink:href="#DejaVuSans-65" x="97.416016"/>
      <use xlink:href="#DejaVuSans-64" x="158.939453"/>
      <use xlink:href="#DejaVuSans-69" x="222.416016"/>
      <use xlink:href="#DejaVuSans-63" x="250.199219"/>
      <use xlink:href="#DejaVuSans-74" x="305.179688"/>
      <use xlink:href="#DejaVuSans-69" x="344.388672"/>
      <use xlink:href="#DejaVuSans-6f" x="372.171875"/>
      <use xlink:href="#DejaVuSans-6e" x="433.353516"/>
     </g>
    </g>
   </g>
   <g id="line2d_34">
    <path d="M 43.78125 283.010168 
L 49.449821 284.753309 
L 55.118393 287.308358 
L 60.786964 290.07183 
L 66.455536 292.190148 
L 72.124107 294.015067 
L 77.792679 295.001256 
L 83.46125 295.112291 
L 89.129821 294.815737 
L 94.798393 293.256378 
L 100.466964 290.91046 
L 106.135536 287.986141 
L 111.804107 285.279241 
L 117.472679 282.324582 
L 123.14125 280.116487 
L 128.809821 279.236526 
L 134.478393 279.803985 
L 140.146964 281.876051 
L 145.815536 284.898649 
L 151.484107 288.195072 
L 157.152679 290.776846 
L 162.82125 293.354089 
L 168.489821 295.301118 
L 174.158393 296.575488 
L 179.826964 297.079688 
L 185.495536 296.846647 
L 191.164107 295.555443 
L 196.832679 293.0413 
L 202.50125 289.858991 
L 208.169821 286.027461 
L 213.838393 283.009935 
L 219.506964 281.71133 
L 225.175536 282.563681 
L 230.844107 284.378695 
L 236.512679 286.858105 
L 242.18125 289.471574 
L 247.849821 291.922875 
L 253.518393 293.806175 
L 259.186964 295.176544 
L 264.855536 295.975381 
L 270.524107 295.850365 
L 276.192679 294.929758 
L 281.86125 292.758728 
L 287.529821 289.314172 
L 293.198393 285.000741 
L 298.866964 281.037241 
L 304.535536 278.287058 
L 310.204107 277.353708 
L 315.872679 278.453354 
L 321.54125 280.787369 
L 327.209821 283.864455 
L 332.878393 286.972299 
L 338.546964 289.441845 
L 344.215536 291.254315 
L 349.884107 292.255213 
L 355.552679 292.54072 
L 361.22125 292.194394 
L 366.889821 291.268203 
L 372.558393 289.83906 
L 378.226964 288.045365 
L 383.895536 286.136603 
L 389.564107 284.407651 
L 395.232679 283.204315 
L 400.90125 282.775833 
" clip-path="url(#pe5048f3ff7)" style="fill: none; stroke: #0000ff; stroke-opacity: 0.3; stroke-width: 1.5; stroke-linecap: square"/>
   </g>
   <g id="line2d_35">
    <path d="M 43.78125 291.158579 
L 49.449821 293.256 
L 55.118393 295.239186 
L 60.786964 296.719408 
L 66.455536 297.017735 
L 72.124107 296.763073 
L 77.792679 295.623452 
L 83.46125 293.666659 
L 89.129821 291.618999 
L 94.798393 288.66768 
L 100.466964 285.609641 
L 106.135536 282.747707 
L 111.804107 280.213784 
L 117.472679 278.493908 
L 123.14125 277.46918 
L 128.809821 276.990398 
L 134.478393 277.124556 
L 140.146964 277.61558 
L 145.815536 278.783603 
L 151.484107 280.706433 
L 157.152679 283.384099 
L 162.82125 286.451066 
L 168.489821 289.74797 
L 174.158393 293.060633 
L 179.826964 295.369994 
L 185.495536 298.098883 
L 191.164107 300.027722 
L 196.832679 300.920098 
L 202.50125 300.927511 
L 208.169821 299.448814 
L 213.838393 296.81342 
L 219.506964 293.37964 
L 225.175536 290.430682 
L 230.844107 287.351562 
L 236.512679 285.008089 
L 242.18125 283.460476 
L 247.849821 282.510157 
L 253.518393 282.476141 
L 259.186964 283.189067 
L 264.855536 284.595979 
L 270.524107 286.013662 
L 276.192679 288.017218 
L 281.86125 289.773428 
L 287.529821 291.00019 
L 293.198393 291.686419 
L 298.866964 291.567045 
L 304.535536 290.960452 
L 310.204107 290.001845 
L 315.872679 289.278668 
L 321.54125 288.176568 
L 327.209821 287.250834 
L 332.878393 286.546893 
L 338.546964 285.769828 
L 344.215536 285.328692 
L 349.884107 284.972869 
L 355.552679 284.71829 
L 361.22125 284.544559 
L 366.889821 284.57346 
L 372.558393 284.770926 
L 378.226964 285.154896 
L 383.895536 285.980922 
L 389.564107 286.871648 
L 395.232679 288.067606 
L 400.90125 289.61057 
" clip-path="url(#pe5048f3ff7)" style="fill: none; stroke: #ff0000; stroke-opacity: 0.3; stroke-width: 1.5; stroke-linecap: square"/>
   </g>
   <g id="line2d_36">
    <path d="M 43.78125 295.765349 
L 49.449821 293.335331 
L 55.118393 289.138307 
L 60.786964 283.311973 
L 66.455536 276.771458 
L 72.124107 270.812053 
L 77.792679 266.773369 
L 83.46125 265.831326 
L 89.129821 268.409754 
L 94.798393 273.831606 
L 100.466964 281.261786 
L 106.135536 288.927076 
L 111.804107 295.701444 
L 117.472679 298.933488 
L 123.14125 300.682364 
L 128.809821 301.76711 
L 134.478393 303.27097 
L 140.146964 303.556013 
L 145.815536 303.347285 
L 151.484107 302.373938 
L 157.152679 298.560628 
L 162.82125 293.99078 
L 168.489821 287.816808 
L 174.158393 281.662089 
L 179.826964 276.069803 
L 185.495536 275.117093 
L 191.164107 277.129228 
L 196.832679 280.912105 
L 202.50125 285.717579 
L 208.169821 289.609072 
L 213.838393 292.405641 
L 219.506964 293.958693 
L 225.175536 293.943867 
L 230.844107 294.034324 
L 236.512679 293.748672 
L 242.18125 293.115194 
L 247.849821 292.152384 
L 253.518393 290.935867 
L 259.186964 289.62822 
L 264.855536 288.490749 
L 270.524107 288.116026 
L 276.192679 287.911604 
L 281.86125 288.147516 
L 287.529821 288.617851 
L 293.198393 289.363781 
L 298.866964 289.137092 
L 304.535536 288.294207 
L 310.204107 287.04728 
L 315.872679 285.648385 
L 321.54125 284.273169 
L 327.209821 283.159476 
L 332.878393 282.433817 
L 338.546964 281.844954 
L 344.215536 282.372965 
L 349.884107 283.617631 
L 355.552679 285.380575 
L 361.22125 287.112431 
L 366.889821 289.625295 
L 372.558393 292.04843 
L 378.226964 294.033338 
L 383.895536 295.498479 
L 389.564107 296.352843 
L 395.232679 296.654539 
L 400.90125 296.353606 
" clip-path="url(#pe5048f3ff7)" style="fill: none; stroke: #0000ff; stroke-width: 1.5; stroke-linecap: square"/>
   </g>
   <g id="line2d_37">
    <path d="M 43.78125 292.504612 
L 49.449821 289.876425 
L 55.118393 286.818578 
L 60.786964 284.006091 
L 66.455536 281.996254 
L 72.124107 281.634212 
L 77.792679 282.266455 
L 83.46125 282.664149 
L 89.129821 282.359149 
L 94.798393 281.756012 
L 100.466964 281.892379 
L 106.135536 282.851338 
L 111.804107 283.452123 
L 117.472679 284.3463 
L 123.14125 285.092234 
L 128.809821 286.171437 
L 134.478393 287.477208 
L 140.146964 290.597818 
L 145.815536 294.370887 
L 151.484107 298.19011 
L 157.152679 301.1743 
L 162.82125 301.394565 
L 168.489821 299.017393 
L 174.158393 294.042386 
L 179.826964 288.938949 
L 185.495536 284.519127 
L 191.164107 281.78356 
L 196.832679 280.72528 
L 202.50125 281.545164 
L 208.169821 283.348326 
L 213.838393 286.140416 
L 219.506964 289.417943 
L 225.175536 292.0065 
L 230.844107 294.906059 
L 236.512679 297.161575 
L 242.18125 298.634655 
L 247.849821 299.084601 
L 253.518393 298.804627 
L 259.186964 297.660228 
L 264.855536 295.693033 
L 270.524107 293.699394 
L 276.192679 290.795499 
L 281.86125 287.821016 
L 287.529821 285.005159 
L 293.198393 282.449028 
L 298.866964 280.34745 
L 304.535536 278.753946 
L 310.204107 277.795185 
L 315.872679 277.763152 
L 321.54125 278.316178 
L 327.209821 279.459298 
L 332.878393 281.024512 
L 338.546964 283.076017 
L 344.215536 285.060115 
L 349.884107 287.057079 
L 355.552679 288.992554 
L 361.22125 290.345513 
L 366.889821 291.977618 
L 372.558393 293.343024 
L 378.226964 294.421173 
L 383.895536 294.646502 
L 389.564107 295.009541 
L 395.232679 294.84007 
L 400.90125 293.92836 
" clip-path="url(#pe5048f3ff7)" style="fill: none; stroke: #ff0000; stroke-width: 1.5; stroke-linecap: square"/>
   </g>
   <g id="patch_13">
    <path d="M 43.78125 307.872 
L 43.78125 229.603765 
" style="fill: none; stroke: #000000; stroke-width: 0.8; stroke-linejoin: miter; stroke-linecap: square"/>
   </g>
   <g id="patch_14">
    <path d="M 400.90125 307.872 
L 400.90125 229.603765 
" style="fill: none; stroke: #000000; stroke-width: 0.8; stroke-linejoin: miter; stroke-linecap: square"/>
   </g>
   <g id="patch_15">
    <path d="M 43.78125 307.872 
L 400.90125 307.872 
" style="fill: none; stroke: #000000; stroke-width: 0.8; stroke-linejoin: miter; stroke-linecap: square"/>
   </g>
   <g id="patch_16">
    <path d="M 43.78125 229.603765 
L 400.90125 229.603765 
" style="fill: none; stroke: #000000; stroke-width: 0.8; stroke-linejoin: miter; stroke-linecap: square"/>
   </g>
  </g>
  <g id="text_19">
   <!-- Migration 2 Phase -->
   <g transform="translate(162.74625 16.318125)scale(0.12 -0.12)">
    <defs>
     <path id="DejaVuSans-4d" d="M 628 4666 
L 1569 4666 
L 2759 1491 
L 3956 4666 
L 4897 4666 
L 4897 0 
L 4281 0 
L 4281 4097 
L 3078 897 
L 2444 897 
L 1241 4097 
L 1241 0 
L 628 0 
L 628 4666 
z
" transform="scale(0.015625)"/>
     <path id="DejaVuSans-20" transform="scale(0.015625)"/>
     <path id="DejaVuSans-68" d="M 3513 2113 
L 3513 0 
L 2938 0 
L 2938 2094 
Q 2938 2591 2744 2837 
Q 2550 3084 2163 3084 
Q 1697 3084 1428 2787 
Q 1159 2491 1159 1978 
L 1159 0 
L 581 0 
L 581 4863 
L 1159 4863 
L 1159 2956 
Q 1366 3272 1645 3428 
Q 1925 3584 2291 3584 
Q 2894 3584 3203 3211 
Q 3513 2838 3513 2113 
z
" transform="scale(0.015625)"/>
     <path id="DejaVuSans-73" d="M 2834 3397 
L 2834 2853 
Q 2591 2978 2328 3040 
Q 2066 3103 1784 3103 
Q 1356 3103 1142 2972 
Q 928 2841 928 2578 
Q 928 2378 1081 2264 
Q 1234 2150 1697 2047 
L 1894 2003 
Q 2506 1872 2764 1633 
Q 3022 1394 3022 966 
Q 3022 478 2636 193 
Q 2250 -91 1575 -91 
Q 1294 -91 989 -36 
Q 684 19 347 128 
L 347 722 
Q 666 556 975 473 
Q 1284 391 1588 391 
Q 1994 391 2212 530 
Q 2431 669 2431 922 
Q 2431 1156 2273 1281 
Q 2116 1406 1581 1522 
L 1381 1569 
Q 847 1681 609 1914 
Q 372 2147 372 2553 
Q 372 3047 722 3315 
Q 1072 3584 1716 3584 
Q 2034 3584 2315 3537 
Q 2597 3491 2834 3397 
z
" transform="scale(0.015625)"/>
    </defs>
    <use xlink:href="#DejaVuSans-4d"/>
    <use xlink:href="#DejaVuSans-69" x="86.279297"/>
    <use xlink:href="#DejaVuSans-67" x="114.0625"/>
    <use xlink:href="#DejaVuSans-72" x="177.539062"/>
    <use xlink:href="#DejaVuSans-61" x="218.652344"/>
    <use xlink:href="#DejaVuSans-74" x="279.931641"/>
    <use xlink:href="#DejaVuSans-69" x="319.140625"/>
    <use xlink:href="#DejaVuSans-6f" x="346.923828"/>
    <use xlink:href="#DejaVuSans-6e" x="408.105469"/>
    <use xlink:href="#DejaVuSans-20" x="471.484375"/>
    <use xlink:href="#DejaVuSans-32" x="503.271484"/>
    <use xlink:href="#DejaVuSans-20" x="566.894531"/>
    <use xlink:href="#DejaVuSans-50" x="598.681641"/>
    <use xlink:href="#DejaVuSans-68" x="658.984375"/>
    <use xlink:href="#DejaVuSans-61" x="722.363281"/>
    <use xlink:href="#DejaVuSans-73" x="783.642578"/>
    <use xlink:href="#DejaVuSans-65" x="835.742188"/>
   </g>
  </g>
 </g>
 <defs>
  <clipPath id="pd6923a99b6">
   <rect x="43.78125" y="41.76" width="357.12" height="78.268235"/>
  </clipPath>
  <clipPath id="p6ef5cc70b6">
   <rect x="43.78125" y="135.681882" width="357.12" height="78.268235"/>
  </clipPath>
  <clipPath id="pe5048f3ff7">
   <rect x="43.78125" y="229.603765" width="357.12" height="78.268235"/>
  </clipPath>
 </defs>
</svg>
