<?xml version="1.0" encoding="utf-8" standalone="no"?>
<!DOCTYPE svg PUBLIC "-//W3C//DTD SVG 1.1//EN"
  "http://www.w3.org/Graphics/SVG/1.1/DTD/svg11.dtd">
<svg xmlns:xlink="http://www.w3.org/1999/xlink" width="416.052813pt" height="331.750125pt" viewBox="0 0 416.052813 331.750125" xmlns="http://www.w3.org/2000/svg" version="1.1">
 <metadata>
  <rdf:RDF xmlns:dc="http://purl.org/dc/elements/1.1/" xmlns:cc="http://creativecommons.org/ns#" xmlns:rdf="http://www.w3.org/1999/02/22-rdf-syntax-ns#">
   <cc:Work>
    <dc:type rdf:resource="http://purl.org/dc/dcmitype/StillImage"/>
    <dc:date>2024-04-02T15:25:03.914179</dc:date>
    <dc:format>image/svg+xml</dc:format>
    <dc:creator>
     <cc:Agent>
      <dc:title>Matplotlib v3.5.2, https://matplotlib.org/</dc:title>
     </cc:Agent>
    </dc:creator>
   </cc:Work>
  </rdf:RDF>
 </metadata>
 <defs>
  <style type="text/css">*{stroke-linejoin: round; stroke-linecap: butt}</style>
 </defs>
 <g id="figure_1">
  <g id="patch_1">
   <path d="M 0 331.750125 
L 416.052813 331.750125 
L 416.052813 0 
L 0 0 
z
" style="fill: #ffffff"/>
  </g>
  <g id="axes_1">
   <g id="patch_2">
    <path d="M 43.78125 120.028235 
L 400.90125 120.028235 
L 400.90125 41.76 
L 43.78125 41.76 
z
" style="fill: #ffffff"/>
   </g>
   <g id="matplotlib.axis_1">
    <g id="xtick_1">
     <g id="line2d_1">
      <defs>
       <path id="me1297f4030" d="M 0 0 
L 0 3.5 
" style="stroke: #000000; stroke-width: 0.8"/>
      </defs>
      <g>
       <use xlink:href="#me1297f4030" x="43.78125" y="120.028235" style="stroke: #000000; stroke-width: 0.8"/>
      </g>
     </g>
    </g>
    <g id="xtick_2">
     <g id="line2d_2">
      <g>
       <use xlink:href="#me1297f4030" x="115.20525" y="120.028235" style="stroke: #000000; stroke-width: 0.8"/>
      </g>
     </g>
    </g>
    <g id="xtick_3">
     <g id="line2d_3">
      <g>
       <use xlink:href="#me1297f4030" x="186.62925" y="120.028235" style="stroke: #000000; stroke-width: 0.8"/>
      </g>
     </g>
    </g>
    <g id="xtick_4">
     <g id="line2d_4">
      <g>
       <use xlink:href="#me1297f4030" x="258.05325" y="120.028235" style="stroke: #000000; stroke-width: 0.8"/>
      </g>
     </g>
    </g>
    <g id="xtick_5">
     <g id="line2d_5">
      <g>
       <use xlink:href="#me1297f4030" x="329.47725" y="120.028235" style="stroke: #000000; stroke-width: 0.8"/>
      </g>
     </g>
    </g>
    <g id="xtick_6">
     <g id="line2d_6">
      <g>
       <use xlink:href="#me1297f4030" x="400.90125" y="120.028235" style="stroke: #000000; stroke-width: 0.8"/>
      </g>
     </g>
    </g>
   </g>
   <g id="matplotlib.axis_2">
    <g id="ytick_1">
     <g id="line2d_7">
      <defs>
       <path id="md9d4d03855" d="M 0 0 
L -3.5 0 
" style="stroke: #000000; stroke-width: 0.8"/>
      </defs>
      <g>
       <use xlink:href="#md9d4d03855" x="43.78125" y="120.028235" style="stroke: #000000; stroke-width: 0.8"/>
      </g>
     </g>
     <g id="text_1">
      <!-- 0.0 -->
      <g transform="translate(20.878125 123.827454)scale(0.1 -0.1)">
       <defs>
        <path id="DejaVuSans-30" d="M 2034 4250 
Q 1547 4250 1301 3770 
Q 1056 3291 1056 2328 
Q 1056 1369 1301 889 
Q 1547 409 2034 409 
Q 2525 409 2770 889 
Q 3016 1369 3016 2328 
Q 3016 3291 2770 3770 
Q 2525 4250 2034 4250 
z
M 2034 4750 
Q 2819 4750 3233 4129 
Q 3647 3509 3647 2328 
Q 3647 1150 3233 529 
Q 2819 -91 2034 -91 
Q 1250 -91 836 529 
Q 422 1150 422 2328 
Q 422 3509 836 4129 
Q 1250 4750 2034 4750 
z
" transform="scale(0.015625)"/>
        <path id="DejaVuSans-2e" d="M 684 794 
L 1344 794 
L 1344 0 
L 684 0 
L 684 794 
z
" transform="scale(0.015625)"/>
       </defs>
       <use xlink:href="#DejaVuSans-30"/>
       <use xlink:href="#DejaVuSans-2e" x="63.623047"/>
       <use xlink:href="#DejaVuSans-30" x="95.410156"/>
      </g>
     </g>
    </g>
    <g id="ytick_2">
     <g id="line2d_8">
      <g>
       <use xlink:href="#md9d4d03855" x="43.78125" y="80.894118" style="stroke: #000000; stroke-width: 0.8"/>
      </g>
     </g>
     <g id="text_2">
      <!-- 0.5 -->
      <g transform="translate(20.878125 84.693336)scale(0.1 -0.1)">
       <defs>
        <path id="DejaVuSans-35" d="M 691 4666 
L 3169 4666 
L 3169 4134 
L 1269 4134 
L 1269 2991 
Q 1406 3038 1543 3061 
Q 1681 3084 1819 3084 
Q 2600 3084 3056 2656 
Q 3513 2228 3513 1497 
Q 3513 744 3044 326 
Q 2575 -91 1722 -91 
Q 1428 -91 1123 -41 
Q 819 9 494 109 
L 494 744 
Q 775 591 1075 516 
Q 1375 441 1709 441 
Q 2250 441 2565 725 
Q 2881 1009 2881 1497 
Q 2881 1984 2565 2268 
Q 2250 2553 1709 2553 
Q 1456 2553 1204 2497 
Q 953 2441 691 2322 
L 691 4666 
z
" transform="scale(0.015625)"/>
       </defs>
       <use xlink:href="#DejaVuSans-30"/>
       <use xlink:href="#DejaVuSans-2e" x="63.623047"/>
       <use xlink:href="#DejaVuSans-35" x="95.410156"/>
      </g>
     </g>
    </g>
    <g id="ytick_3">
     <g id="line2d_9">
      <g>
       <use xlink:href="#md9d4d03855" x="43.78125" y="41.76" style="stroke: #000000; stroke-width: 0.8"/>
      </g>
     </g>
     <g id="text_3">
      <!-- 1.0 -->
      <g transform="translate(20.878125 45.559219)scale(0.1 -0.1)">
       <defs>
        <path id="DejaVuSans-31" d="M 794 531 
L 1825 531 
L 1825 4091 
L 703 3866 
L 703 4441 
L 1819 4666 
L 2450 4666 
L 2450 531 
L 3481 531 
L 3481 0 
L 794 0 
L 794 531 
z
" transform="scale(0.015625)"/>
       </defs>
       <use xlink:href="#DejaVuSans-31"/>
       <use xlink:href="#DejaVuSans-2e" x="63.623047"/>
       <use xlink:href="#DejaVuSans-30" x="95.410156"/>
      </g>
     </g>
    </g>
    <g id="text_4">
     <!-- IC -->
     <g transform="translate(14.798438 85.860524)rotate(-90)scale(0.1 -0.1)">
      <defs>
       <path id="DejaVuSans-49" d="M 628 4666 
L 1259 4666 
L 1259 0 
L 628 0 
L 628 4666 
z
" transform="scale(0.015625)"/>
       <path id="DejaVuSans-43" d="M 4122 4306 
L 4122 3641 
Q 3803 3938 3442 4084 
Q 3081 4231 2675 4231 
Q 1875 4231 1450 3742 
Q 1025 3253 1025 2328 
Q 1025 1406 1450 917 
Q 1875 428 2675 428 
Q 3081 428 3442 575 
Q 3803 722 4122 1019 
L 4122 359 
Q 3791 134 3420 21 
Q 3050 -91 2638 -91 
Q 1578 -91 968 557 
Q 359 1206 359 2328 
Q 359 3453 968 4101 
Q 1578 4750 2638 4750 
Q 3056 4750 3426 4639 
Q 3797 4528 4122 4306 
z
" transform="scale(0.015625)"/>
      </defs>
      <use xlink:href="#DejaVuSans-49"/>
      <use xlink:href="#DejaVuSans-43" x="29.492188"/>
     </g>
    </g>
   </g>
   <g id="line2d_10">
    <path d="M 43.78125 104.844197 
L 49.449821 107.192244 
L 55.118393 108.75761 
L 60.786964 110.166437 
L 66.455536 108.75761 
L 72.124107 106.096489 
L 77.792679 102.183078 
L 83.46125 98.426203 
L 89.129821 89.660159 
L 94.798393 83.242165 
L 100.466964 80.581044 
L 106.135536 79.954897 
L 111.804107 84.33792 
L 117.472679 91.695135 
L 123.14125 99.052348 
L 128.809821 104.061516 
L 134.478393 106.566098 
L 140.146964 108.288 
L 145.815536 109.383755 
L 151.484107 109.227219 
L 157.152679 109.696828 
L 162.82125 109.383755 
L 168.489821 109.540292 
L 174.158393 110.166437 
L 179.826964 108.914146 
L 185.495536 105.939952 
L 191.164107 100.930786 
L 196.832679 96.234693 
L 202.50125 91.225525 
L 208.169821 86.372894 
L 213.838393 85.120602 
L 219.506964 87.625186 
L 225.175536 91.695135 
L 230.844107 97.643519 
L 236.512679 103.748442 
L 242.18125 108.288 
L 247.849821 108.444536 
L 253.518393 108.75761 
L 259.186964 109.696828 
L 264.855536 107.974927 
L 270.524107 104.844197 
L 276.192679 105.313808 
L 281.86125 105.157271 
L 287.529821 105.783417 
L 293.198393 105.470343 
L 298.866964 104.844197 
L 304.535536 100.461176 
L 310.204107 95.295472 
L 315.872679 87.625186 
L 321.54125 82.772554 
L 327.209821 78.07646 
L 332.878393 79.485289 
L 338.546964 85.433675 
L 344.215536 94.51279 
L 349.884107 100.930786 
L 355.552679 105.000734 
L 361.22125 108.131464 
L 366.889821 108.914146 
L 372.558393 109.227219 
L 378.226964 107.974927 
L 383.895536 107.974927 
L 389.564107 106.096489 
L 395.232679 104.531125 
L 400.90125 105.783417 
" clip-path="url(#p60d5b32315)" style="fill: none; stroke: #0000ff; stroke-width: 1.5; stroke-linecap: square"/>
   </g>
   <g id="line2d_11">
    <path d="M 43.78125 96.860837 
L 49.449821 96.704301 
L 55.118393 96.078156 
L 60.786964 97.173911 
L 66.455536 97.643519 
L 72.124107 99.052348 
L 77.792679 102.026541 
L 83.46125 105.157271 
L 89.129821 106.879172 
L 94.798393 109.540292 
L 100.466964 111.418729 
L 106.135536 111.575266 
L 111.804107 110.322974 
L 117.472679 109.383755 
L 123.14125 105.470343 
L 128.809821 100.617713 
L 134.478393 97.173911 
L 140.146964 95.765082 
L 145.815536 92.79089 
L 151.484107 91.851669 
L 157.152679 92.947427 
L 162.82125 94.51279 
L 168.489821 96.078156 
L 174.158393 94.199717 
L 179.826964 94.669327 
L 185.495536 96.234693 
L 191.164107 97.330448 
L 196.832679 98.895811 
L 202.50125 101.870005 
L 208.169821 104.687662 
L 213.838393 107.81839 
L 219.506964 107.81839 
L 225.175536 105.62688 
L 230.844107 105.313808 
L 236.512679 104.844197 
L 242.18125 105.157271 
L 247.849821 101.087322 
L 253.518393 97.956593 
L 259.186964 96.704301 
L 264.855536 94.669327 
L 270.524107 91.851669 
L 276.192679 93.260498 
L 281.86125 93.730109 
L 287.529821 92.947427 
L 293.198393 93.730109 
L 298.866964 94.199717 
L 304.535536 97.800056 
L 310.204107 102.49615 
L 315.872679 108.288 
L 321.54125 112.984094 
L 327.209821 113.923313 
L 332.878393 113.61024 
L 338.546964 111.575266 
L 344.215536 107.661854 
L 349.884107 103.122296 
L 355.552679 100.930786 
L 361.22125 97.800056 
L 366.889821 96.391229 
L 372.558393 95.452009 
L 378.226964 95.138937 
L 383.895536 95.295472 
L 389.564107 95.138937 
L 395.232679 94.669327 
L 400.90125 95.608545 
" clip-path="url(#p60d5b32315)" style="fill: none; stroke: #ff0000; stroke-width: 1.5; stroke-linecap: square"/>
   </g>
   <g id="patch_3">
    <path d="M 43.78125 120.028235 
L 43.78125 41.76 
" style="fill: none; stroke: #000000; stroke-width: 0.8; stroke-linejoin: miter; stroke-linecap: square"/>
   </g>
   <g id="patch_4">
    <path d="M 400.90125 120.028235 
L 400.90125 41.76 
" style="fill: none; stroke: #000000; stroke-width: 0.8; stroke-linejoin: miter; stroke-linecap: square"/>
   </g>
   <g id="patch_5">
    <path d="M 43.78125 120.028235 
L 400.90125 120.028235 
" style="fill: none; stroke: #000000; stroke-width: 0.8; stroke-linejoin: miter; stroke-linecap: square"/>
   </g>
   <g id="patch_6">
    <path d="M 43.78125 41.76 
L 400.90125 41.76 
" style="fill: none; stroke: #000000; stroke-width: 0.8; stroke-linejoin: miter; stroke-linecap: square"/>
   </g>
  </g>
  <g id="axes_2">
   <g id="patch_7">
    <path d="M 43.78125 213.950118 
L 400.90125 213.950118 
L 400.90125 135.681882 
L 43.78125 135.681882 
z
" style="fill: #ffffff"/>
   </g>
   <g id="matplotlib.axis_3">
    <g id="xtick_7">
     <g id="line2d_12">
      <g>
       <use xlink:href="#me1297f4030" x="43.78125" y="213.950118" style="stroke: #000000; stroke-width: 0.8"/>
      </g>
     </g>
    </g>
    <g id="xtick_8">
     <g id="line2d_13">
      <g>
       <use xlink:href="#me1297f4030" x="115.20525" y="213.950118" style="stroke: #000000; stroke-width: 0.8"/>
      </g>
     </g>
    </g>
    <g id="xtick_9">
     <g id="line2d_14">
      <g>
       <use xlink:href="#me1297f4030" x="186.62925" y="213.950118" style="stroke: #000000; stroke-width: 0.8"/>
      </g>
     </g>
    </g>
    <g id="xtick_10">
     <g id="line2d_15">
      <g>
       <use xlink:href="#me1297f4030" x="258.05325" y="213.950118" style="stroke: #000000; stroke-width: 0.8"/>
      </g>
     </g>
    </g>
    <g id="xtick_11">
     <g id="line2d_16">
      <g>
       <use xlink:href="#me1297f4030" x="329.47725" y="213.950118" style="stroke: #000000; stroke-width: 0.8"/>
      </g>
     </g>
    </g>
    <g id="xtick_12">
     <g id="line2d_17">
      <g>
       <use xlink:href="#me1297f4030" x="400.90125" y="213.950118" style="stroke: #000000; stroke-width: 0.8"/>
      </g>
     </g>
    </g>
   </g>
   <g id="matplotlib.axis_4">
    <g id="ytick_4">
     <g id="line2d_18">
      <g>
       <use xlink:href="#md9d4d03855" x="43.78125" y="213.950118" style="stroke: #000000; stroke-width: 0.8"/>
      </g>
     </g>
     <g id="text_5">
      <!-- 0.0 -->
      <g transform="translate(20.878125 217.749336)scale(0.1 -0.1)">
       <use xlink:href="#DejaVuSans-30"/>
       <use xlink:href="#DejaVuSans-2e" x="63.623047"/>
       <use xlink:href="#DejaVuSans-30" x="95.410156"/>
      </g>
     </g>
    </g>
    <g id="ytick_5">
     <g id="line2d_19">
      <g>
       <use xlink:href="#md9d4d03855" x="43.78125" y="174.816" style="stroke: #000000; stroke-width: 0.8"/>
      </g>
     </g>
     <g id="text_6">
      <!-- 0.5 -->
      <g transform="translate(20.878125 178.615219)scale(0.1 -0.1)">
       <use xlink:href="#DejaVuSans-30"/>
       <use xlink:href="#DejaVuSans-2e" x="63.623047"/>
       <use xlink:href="#DejaVuSans-35" x="95.410156"/>
      </g>
     </g>
    </g>
    <g id="ytick_6">
     <g id="line2d_20">
      <g>
       <use xlink:href="#md9d4d03855" x="43.78125" y="135.681882" style="stroke: #000000; stroke-width: 0.8"/>
      </g>
     </g>
     <g id="text_7">
      <!-- 1.0 -->
      <g transform="translate(20.878125 139.481101)scale(0.1 -0.1)">
       <use xlink:href="#DejaVuSans-31"/>
       <use xlink:href="#DejaVuSans-2e" x="63.623047"/>
       <use xlink:href="#DejaVuSans-30" x="95.410156"/>
      </g>
     </g>
    </g>
    <g id="text_8">
     <!-- Target -->
     <g transform="translate(14.798438 190.287875)rotate(-90)scale(0.1 -0.1)">
      <defs>
       <path id="DejaVuSans-54" d="M -19 4666 
L 3928 4666 
L 3928 4134 
L 2272 4134 
L 2272 0 
L 1638 0 
L 1638 4134 
L -19 4134 
L -19 4666 
z
" transform="scale(0.015625)"/>
       <path id="DejaVuSans-61" d="M 2194 1759 
Q 1497 1759 1228 1600 
Q 959 1441 959 1056 
Q 959 750 1161 570 
Q 1363 391 1709 391 
Q 2188 391 2477 730 
Q 2766 1069 2766 1631 
L 2766 1759 
L 2194 1759 
z
M 3341 1997 
L 3341 0 
L 2766 0 
L 2766 531 
Q 2569 213 2275 61 
Q 1981 -91 1556 -91 
Q 1019 -91 701 211 
Q 384 513 384 1019 
Q 384 1609 779 1909 
Q 1175 2209 1959 2209 
L 2766 2209 
L 2766 2266 
Q 2766 2663 2505 2880 
Q 2244 3097 1772 3097 
Q 1472 3097 1187 3025 
Q 903 2953 641 2809 
L 641 3341 
Q 956 3463 1253 3523 
Q 1550 3584 1831 3584 
Q 2591 3584 2966 3190 
Q 3341 2797 3341 1997 
z
" transform="scale(0.015625)"/>
       <path id="DejaVuSans-72" d="M 2631 2963 
Q 2534 3019 2420 3045 
Q 2306 3072 2169 3072 
Q 1681 3072 1420 2755 
Q 1159 2438 1159 1844 
L 1159 0 
L 581 0 
L 581 3500 
L 1159 3500 
L 1159 2956 
Q 1341 3275 1631 3429 
Q 1922 3584 2338 3584 
Q 2397 3584 2469 3576 
Q 2541 3569 2628 3553 
L 2631 2963 
z
" transform="scale(0.015625)"/>
       <path id="DejaVuSans-67" d="M 2906 1791 
Q 2906 2416 2648 2759 
Q 2391 3103 1925 3103 
Q 1463 3103 1205 2759 
Q 947 2416 947 1791 
Q 947 1169 1205 825 
Q 1463 481 1925 481 
Q 2391 481 2648 825 
Q 2906 1169 2906 1791 
z
M 3481 434 
Q 3481 -459 3084 -895 
Q 2688 -1331 1869 -1331 
Q 1566 -1331 1297 -1286 
Q 1028 -1241 775 -1147 
L 775 -588 
Q 1028 -725 1275 -790 
Q 1522 -856 1778 -856 
Q 2344 -856 2625 -561 
Q 2906 -266 2906 331 
L 2906 616 
Q 2728 306 2450 153 
Q 2172 0 1784 0 
Q 1141 0 747 490 
Q 353 981 353 1791 
Q 353 2603 747 3093 
Q 1141 3584 1784 3584 
Q 2172 3584 2450 3431 
Q 2728 3278 2906 2969 
L 2906 3500 
L 3481 3500 
L 3481 434 
z
" transform="scale(0.015625)"/>
       <path id="DejaVuSans-65" d="M 3597 1894 
L 3597 1613 
L 953 1613 
Q 991 1019 1311 708 
Q 1631 397 2203 397 
Q 2534 397 2845 478 
Q 3156 559 3463 722 
L 3463 178 
Q 3153 47 2828 -22 
Q 2503 -91 2169 -91 
Q 1331 -91 842 396 
Q 353 884 353 1716 
Q 353 2575 817 3079 
Q 1281 3584 2069 3584 
Q 2775 3584 3186 3129 
Q 3597 2675 3597 1894 
z
M 3022 2063 
Q 3016 2534 2758 2815 
Q 2500 3097 2075 3097 
Q 1594 3097 1305 2825 
Q 1016 2553 972 2059 
L 3022 2063 
z
" transform="scale(0.015625)"/>
       <path id="DejaVuSans-74" d="M 1172 4494 
L 1172 3500 
L 2356 3500 
L 2356 3053 
L 1172 3053 
L 1172 1153 
Q 1172 725 1289 603 
Q 1406 481 1766 481 
L 2356 481 
L 2356 0 
L 1766 0 
Q 1100 0 847 248 
Q 594 497 594 1153 
L 594 3053 
L 172 3053 
L 172 3500 
L 594 3500 
L 594 4494 
L 1172 4494 
z
" transform="scale(0.015625)"/>
      </defs>
      <use xlink:href="#DejaVuSans-54"/>
      <use xlink:href="#DejaVuSans-61" x="44.583984"/>
      <use xlink:href="#DejaVuSans-72" x="105.863281"/>
      <use xlink:href="#DejaVuSans-67" x="145.226562"/>
      <use xlink:href="#DejaVuSans-65" x="208.703125"/>
      <use xlink:href="#DejaVuSans-74" x="270.226562"/>
     </g>
    </g>
   </g>
   <g id="line2d_21">
    <path d="M 43.78125 198.453007 
L 49.449821 197.983398 
L 55.118393 197.357252 
L 60.786964 200.801054 
L 66.455536 201.4272 
L 72.124107 201.740273 
L 77.792679 199.705299 
L 83.46125 192.97423 
L 89.129821 184.677797 
L 94.798393 176.224829 
L 100.466964 171.059126 
L 106.135536 173.56371 
L 111.804107 181.07746 
L 117.472679 190.156575 
L 123.14125 197.983398 
L 128.809821 202.209882 
L 134.478393 203.462174 
L 140.146964 204.871003 
L 145.815536 202.992565 
L 151.484107 201.740273 
L 157.152679 202.992565 
L 162.82125 198.76608 
L 168.489821 196.887643 
L 174.158393 193.756914 
L 179.826964 190.469646 
L 185.495536 187.338917 
L 191.164107 184.364725 
L 196.832679 183.738578 
L 202.50125 185.617017 
L 208.169821 189.686965 
L 213.838393 193.756914 
L 219.506964 198.29647 
L 225.175536 200.018372 
L 230.844107 202.053346 
L 236.512679 201.583736 
L 242.18125 200.174908 
L 247.849821 200.644518 
L 253.518393 202.836028 
L 259.186964 201.740273 
L 264.855536 202.209882 
L 270.524107 203.305637 
L 276.192679 202.209882 
L 281.86125 201.114127 
L 287.529821 195.478814 
L 293.198393 186.086625 
L 298.866964 174.972537 
L 304.535536 165.580351 
L 310.204107 160.884256 
L 315.872679 164.014983 
L 321.54125 175.442145 
L 327.209821 187.808528 
L 332.878393 198.76608 
L 338.546964 203.462174 
L 344.215536 205.810221 
L 349.884107 205.027539 
L 355.552679 204.401393 
L 361.22125 202.836028 
L 366.889821 202.209882 
L 372.558393 201.114127 
L 378.226964 200.174908 
L 383.895536 200.487981 
L 389.564107 201.270663 
L 395.232679 200.801054 
L 400.90125 199.861835 
" clip-path="url(#pb1406cddd9)" style="fill: none; stroke: #0000ff; stroke-opacity: 0.3; stroke-width: 1.5; stroke-linecap: square"/>
   </g>
   <g id="line2d_22">
    <path d="M 43.78125 188.747746 
L 49.449821 188.121599 
L 55.118393 187.495454 
L 60.786964 188.904283 
L 66.455536 190.939256 
L 72.124107 194.226522 
L 77.792679 197.200715 
L 83.46125 199.705299 
L 89.129821 203.775247 
L 94.798393 207.532122 
L 100.466964 208.001732 
L 106.135536 208.001732 
L 111.804107 206.436367 
L 117.472679 204.401393 
L 123.14125 200.487981 
L 128.809821 195.791888 
L 134.478393 192.191548 
L 140.146964 188.121599 
L 145.815536 185.930089 
L 151.484107 185.460481 
L 157.152679 183.112433 
L 162.82125 181.233994 
L 168.489821 183.26897 
L 174.158393 185.147407 
L 179.826964 187.025844 
L 185.495536 192.191548 
L 191.164107 195.948423 
L 196.832679 197.513789 
L 202.50125 203.305637 
L 208.169821 203.305637 
L 213.838393 202.679492 
L 219.506964 200.331445 
L 225.175536 201.583736 
L 230.844107 198.609544 
L 236.512679 194.383059 
L 242.18125 191.721938 
L 247.849821 191.095793 
L 253.518393 189.530428 
L 259.186964 185.930089 
L 264.855536 182.79936 
L 270.524107 182.486286 
L 276.192679 182.955897 
L 281.86125 185.147407 
L 287.529821 188.278136 
L 293.198393 191.878475 
L 298.866964 195.948423 
L 304.535536 201.4272 
L 310.204107 205.184075 
L 315.872679 207.532122 
L 321.54125 208.158268 
L 327.209821 206.592904 
L 332.878393 204.401393 
L 338.546964 201.114127 
L 344.215536 197.513789 
L 349.884107 195.009205 
L 355.552679 193.600377 
L 361.22125 190.626183 
L 366.889821 190.156575 
L 372.558393 192.035012 
L 378.226964 190.939256 
L 383.895536 190.156575 
L 389.564107 188.591209 
L 395.232679 190.626183 
L 400.90125 187.965065 
" clip-path="url(#pb1406cddd9)" style="fill: none; stroke: #ff0000; stroke-opacity: 0.3; stroke-width: 1.5; stroke-linecap: square"/>
   </g>
   <g id="line2d_23">
    <path d="M 43.78125 200.801054 
L 49.449821 201.114127 
L 55.118393 200.018372 
L 60.786964 197.357252 
L 66.455536 190.626183 
L 72.124107 183.895115 
L 77.792679 177.946729 
L 83.46125 177.164047 
L 89.129821 179.355558 
L 94.798393 186.712773 
L 100.466964 194.383059 
L 106.135536 202.053346 
L 111.804107 203.618711 
L 117.472679 205.184075 
L 123.14125 202.992565 
L 128.809821 202.366419 
L 134.478393 199.548762 
L 140.146964 197.044178 
L 145.815536 194.226522 
L 151.484107 190.156575 
L 157.152679 184.208189 
L 162.82125 178.103266 
L 168.489821 173.876779 
L 174.158393 170.589514 
L 179.826964 174.346392 
L 185.495536 184.051652 
L 191.164107 195.165742 
L 196.832679 202.053346 
L 202.50125 205.810221 
L 208.169821 208.627877 
L 213.838393 209.254024 
L 219.506964 209.567096 
L 225.175536 208.314805 
L 230.844107 207.688659 
L 236.512679 208.471341 
L 242.18125 207.219049 
L 247.849821 204.401393 
L 253.518393 203.305637 
L 259.186964 203.149101 
L 264.855536 201.4272 
L 270.524107 198.29647 
L 276.192679 189.686965 
L 281.86125 177.633658 
L 287.529821 164.797664 
L 293.198393 154.935868 
L 298.866964 150.239773 
L 304.535536 156.188162 
L 310.204107 170.119906 
L 315.872679 188.434673 
L 321.54125 203.618711 
L 327.209821 210.819388 
L 332.878393 210.349779 
L 338.546964 209.567096 
L 344.215536 208.314805 
L 349.884107 208.471341 
L 355.552679 206.74944 
L 361.22125 205.653685 
L 366.889821 201.740273 
L 372.558393 201.114127 
L 378.226964 200.801054 
L 383.895536 199.705299 
L 389.564107 199.392226 
L 395.232679 198.453007 
L 400.90125 199.23569 
" clip-path="url(#pb1406cddd9)" style="fill: none; stroke: #0000ff; stroke-width: 1.5; stroke-linecap: square"/>
   </g>
   <g id="line2d_24">
    <path d="M 43.78125 187.338917 
L 49.449821 185.617017 
L 55.118393 187.495454 
L 60.786964 190.626183 
L 66.455536 194.069985 
L 72.124107 199.392226 
L 77.792679 203.305637 
L 83.46125 204.55793 
L 89.129821 206.592904 
L 94.798393 207.688659 
L 100.466964 207.062513 
L 106.135536 206.279831 
L 111.804107 200.801054 
L 117.472679 197.826861 
L 123.14125 193.44384 
L 128.809821 190.156575 
L 134.478393 185.617017 
L 140.146964 183.738578 
L 145.815536 181.390531 
L 151.484107 183.425507 
L 157.152679 186.712773 
L 162.82125 191.408867 
L 168.489821 194.852668 
L 174.158393 199.23569 
L 179.826964 202.679492 
L 185.495536 202.679492 
L 191.164107 201.4272 
L 196.832679 200.644518 
L 202.50125 197.044178 
L 208.169821 196.574569 
L 213.838393 194.226522 
L 219.506964 192.191548 
L 225.175536 191.565401 
L 230.844107 190.626183 
L 236.512679 188.121599 
L 242.18125 184.677797 
L 247.849821 183.112433 
L 253.518393 180.138239 
L 259.186964 180.138239 
L 264.855536 179.668631 
L 270.524107 182.173215 
L 276.192679 187.808528 
L 281.86125 192.504622 
L 287.529821 199.861835 
L 293.198393 206.905976 
L 298.866964 210.193242 
L 304.535536 211.288998 
L 310.204107 210.036706 
L 315.872679 206.905976 
L 321.54125 205.340612 
L 327.209821 202.209882 
L 332.878393 198.922616 
L 338.546964 196.887643 
L 344.215536 193.130767 
L 349.884107 192.661156 
L 355.552679 191.408867 
L 361.22125 190.939256 
L 366.889821 190.78272 
L 372.558393 190.78272 
L 378.226964 190.313112 
L 383.895536 190.000038 
L 389.564107 189.843501 
L 395.232679 187.965065 
L 400.90125 187.495454 
" clip-path="url(#pb1406cddd9)" style="fill: none; stroke: #ff0000; stroke-width: 1.5; stroke-linecap: square"/>
   </g>
   <g id="patch_8">
    <path d="M 43.78125 213.950118 
L 43.78125 135.681882 
" style="fill: none; stroke: #000000; stroke-width: 0.8; stroke-linejoin: miter; stroke-linecap: square"/>
   </g>
   <g id="patch_9">
    <path d="M 400.90125 213.950118 
L 400.90125 135.681882 
" style="fill: none; stroke: #000000; stroke-width: 0.8; stroke-linejoin: miter; stroke-linecap: square"/>
   </g>
   <g id="patch_10">
    <path d="M 43.78125 213.950118 
L 400.90125 213.950118 
" style="fill: none; stroke: #000000; stroke-width: 0.8; stroke-linejoin: miter; stroke-linecap: square"/>
   </g>
   <g id="patch_11">
    <path d="M 43.78125 135.681882 
L 400.90125 135.681882 
" style="fill: none; stroke: #000000; stroke-width: 0.8; stroke-linejoin: miter; stroke-linecap: square"/>
   </g>
  </g>
  <g id="axes_3">
   <g id="patch_12">
    <path d="M 43.78125 307.872 
L 400.90125 307.872 
L 400.90125 229.603765 
L 43.78125 229.603765 
z
" style="fill: #ffffff"/>
   </g>
   <g id="matplotlib.axis_5">
    <g id="xtick_13">
     <g id="line2d_25">
      <g>
       <use xlink:href="#me1297f4030" x="43.78125" y="307.872" style="stroke: #000000; stroke-width: 0.8"/>
      </g>
     </g>
     <g id="text_9">
      <!-- 0.0 -->
      <g transform="translate(35.829688 322.470437)scale(0.1 -0.1)">
       <use xlink:href="#DejaVuSans-30"/>
       <use xlink:href="#DejaVuSans-2e" x="63.623047"/>
       <use xlink:href="#DejaVuSans-30" x="95.410156"/>
      </g>
     </g>
    </g>
    <g id="xtick_14">
     <g id="line2d_26">
      <g>
       <use xlink:href="#me1297f4030" x="115.20525" y="307.872" style="stroke: #000000; stroke-width: 0.8"/>
      </g>
     </g>
     <g id="text_10">
      <!-- 0.2 -->
      <g transform="translate(107.253688 322.470437)scale(0.1 -0.1)">
       <defs>
        <path id="DejaVuSans-32" d="M 1228 531 
L 3431 531 
L 3431 0 
L 469 0 
L 469 531 
Q 828 903 1448 1529 
Q 2069 2156 2228 2338 
Q 2531 2678 2651 2914 
Q 2772 3150 2772 3378 
Q 2772 3750 2511 3984 
Q 2250 4219 1831 4219 
Q 1534 4219 1204 4116 
Q 875 4013 500 3803 
L 500 4441 
Q 881 4594 1212 4672 
Q 1544 4750 1819 4750 
Q 2544 4750 2975 4387 
Q 3406 4025 3406 3419 
Q 3406 3131 3298 2873 
Q 3191 2616 2906 2266 
Q 2828 2175 2409 1742 
Q 1991 1309 1228 531 
z
" transform="scale(0.015625)"/>
       </defs>
       <use xlink:href="#DejaVuSans-30"/>
       <use xlink:href="#DejaVuSans-2e" x="63.623047"/>
       <use xlink:href="#DejaVuSans-32" x="95.410156"/>
      </g>
     </g>
    </g>
    <g id="xtick_15">
     <g id="line2d_27">
      <g>
       <use xlink:href="#me1297f4030" x="186.62925" y="307.872" style="stroke: #000000; stroke-width: 0.8"/>
      </g>
     </g>
     <g id="text_11">
      <!-- 0.4 -->
      <g transform="translate(178.677688 322.470437)scale(0.1 -0.1)">
       <defs>
        <path id="DejaVuSans-34" d="M 2419 4116 
L 825 1625 
L 2419 1625 
L 2419 4116 
z
M 2253 4666 
L 3047 4666 
L 3047 1625 
L 3713 1625 
L 3713 1100 
L 3047 1100 
L 3047 0 
L 2419 0 
L 2419 1100 
L 313 1100 
L 313 1709 
L 2253 4666 
z
" transform="scale(0.015625)"/>
       </defs>
       <use xlink:href="#DejaVuSans-30"/>
       <use xlink:href="#DejaVuSans-2e" x="63.623047"/>
       <use xlink:href="#DejaVuSans-34" x="95.410156"/>
      </g>
     </g>
    </g>
    <g id="xtick_16">
     <g id="line2d_28">
      <g>
       <use xlink:href="#me1297f4030" x="258.05325" y="307.872" style="stroke: #000000; stroke-width: 0.8"/>
      </g>
     </g>
     <g id="text_12">
      <!-- 0.6 -->
      <g transform="translate(250.101688 322.470437)scale(0.1 -0.1)">
       <defs>
        <path id="DejaVuSans-36" d="M 2113 2584 
Q 1688 2584 1439 2293 
Q 1191 2003 1191 1497 
Q 1191 994 1439 701 
Q 1688 409 2113 409 
Q 2538 409 2786 701 
Q 3034 994 3034 1497 
Q 3034 2003 2786 2293 
Q 2538 2584 2113 2584 
z
M 3366 4563 
L 3366 3988 
Q 3128 4100 2886 4159 
Q 2644 4219 2406 4219 
Q 1781 4219 1451 3797 
Q 1122 3375 1075 2522 
Q 1259 2794 1537 2939 
Q 1816 3084 2150 3084 
Q 2853 3084 3261 2657 
Q 3669 2231 3669 1497 
Q 3669 778 3244 343 
Q 2819 -91 2113 -91 
Q 1303 -91 875 529 
Q 447 1150 447 2328 
Q 447 3434 972 4092 
Q 1497 4750 2381 4750 
Q 2619 4750 2861 4703 
Q 3103 4656 3366 4563 
z
" transform="scale(0.015625)"/>
       </defs>
       <use xlink:href="#DejaVuSans-30"/>
       <use xlink:href="#DejaVuSans-2e" x="63.623047"/>
       <use xlink:href="#DejaVuSans-36" x="95.410156"/>
      </g>
     </g>
    </g>
    <g id="xtick_17">
     <g id="line2d_29">
      <g>
       <use xlink:href="#me1297f4030" x="329.47725" y="307.872" style="stroke: #000000; stroke-width: 0.8"/>
      </g>
     </g>
     <g id="text_13">
      <!-- 0.8 -->
      <g transform="translate(321.525688 322.470437)scale(0.1 -0.1)">
       <defs>
        <path id="DejaVuSans-38" d="M 2034 2216 
Q 1584 2216 1326 1975 
Q 1069 1734 1069 1313 
Q 1069 891 1326 650 
Q 1584 409 2034 409 
Q 2484 409 2743 651 
Q 3003 894 3003 1313 
Q 3003 1734 2745 1975 
Q 2488 2216 2034 2216 
z
M 1403 2484 
Q 997 2584 770 2862 
Q 544 3141 544 3541 
Q 544 4100 942 4425 
Q 1341 4750 2034 4750 
Q 2731 4750 3128 4425 
Q 3525 4100 3525 3541 
Q 3525 3141 3298 2862 
Q 3072 2584 2669 2484 
Q 3125 2378 3379 2068 
Q 3634 1759 3634 1313 
Q 3634 634 3220 271 
Q 2806 -91 2034 -91 
Q 1263 -91 848 271 
Q 434 634 434 1313 
Q 434 1759 690 2068 
Q 947 2378 1403 2484 
z
M 1172 3481 
Q 1172 3119 1398 2916 
Q 1625 2713 2034 2713 
Q 2441 2713 2670 2916 
Q 2900 3119 2900 3481 
Q 2900 3844 2670 4047 
Q 2441 4250 2034 4250 
Q 1625 4250 1398 4047 
Q 1172 3844 1172 3481 
z
" transform="scale(0.015625)"/>
       </defs>
       <use xlink:href="#DejaVuSans-30"/>
       <use xlink:href="#DejaVuSans-2e" x="63.623047"/>
       <use xlink:href="#DejaVuSans-38" x="95.410156"/>
      </g>
     </g>
    </g>
    <g id="xtick_18">
     <g id="line2d_30">
      <g>
       <use xlink:href="#me1297f4030" x="400.90125" y="307.872" style="stroke: #000000; stroke-width: 0.8"/>
      </g>
     </g>
     <g id="text_14">
      <!-- 1.0 -->
      <g transform="translate(392.949687 322.470437)scale(0.1 -0.1)">
       <use xlink:href="#DejaVuSans-31"/>
       <use xlink:href="#DejaVuSans-2e" x="63.623047"/>
       <use xlink:href="#DejaVuSans-30" x="95.410156"/>
      </g>
     </g>
    </g>
   </g>
   <g id="matplotlib.axis_6">
    <g id="ytick_7">
     <g id="line2d_31">
      <g>
       <use xlink:href="#md9d4d03855" x="43.78125" y="307.872" style="stroke: #000000; stroke-width: 0.8"/>
      </g>
     </g>
     <g id="text_15">
      <!-- 0.0 -->
      <g transform="translate(20.878125 311.671219)scale(0.1 -0.1)">
       <use xlink:href="#DejaVuSans-30"/>
       <use xlink:href="#DejaVuSans-2e" x="63.623047"/>
       <use xlink:href="#DejaVuSans-30" x="95.410156"/>
      </g>
     </g>
    </g>
    <g id="ytick_8">
     <g id="line2d_32">
      <g>
       <use xlink:href="#md9d4d03855" x="43.78125" y="268.737882" style="stroke: #000000; stroke-width: 0.8"/>
      </g>
     </g>
     <g id="text_16">
      <!-- 0.5 -->
      <g transform="translate(20.878125 272.537101)scale(0.1 -0.1)">
       <use xlink:href="#DejaVuSans-30"/>
       <use xlink:href="#DejaVuSans-2e" x="63.623047"/>
       <use xlink:href="#DejaVuSans-35" x="95.410156"/>
      </g>
     </g>
    </g>
    <g id="ytick_9">
     <g id="line2d_33">
      <g>
       <use xlink:href="#md9d4d03855" x="43.78125" y="229.603765" style="stroke: #000000; stroke-width: 0.8"/>
      </g>
     </g>
     <g id="text_17">
      <!-- 1.0 -->
      <g transform="translate(20.878125 233.402983)scale(0.1 -0.1)">
       <use xlink:href="#DejaVuSans-31"/>
       <use xlink:href="#DejaVuSans-2e" x="63.623047"/>
       <use xlink:href="#DejaVuSans-30" x="95.410156"/>
      </g>
     </g>
    </g>
    <g id="text_18">
     <!-- Prediction -->
     <g transform="translate(14.798438 293.574601)rotate(-90)scale(0.1 -0.1)">
      <defs>
       <path id="DejaVuSans-50" d="M 1259 4147 
L 1259 2394 
L 2053 2394 
Q 2494 2394 2734 2622 
Q 2975 2850 2975 3272 
Q 2975 3691 2734 3919 
Q 2494 4147 2053 4147 
L 1259 4147 
z
M 628 4666 
L 2053 4666 
Q 2838 4666 3239 4311 
Q 3641 3956 3641 3272 
Q 3641 2581 3239 2228 
Q 2838 1875 2053 1875 
L 1259 1875 
L 1259 0 
L 628 0 
L 628 4666 
z
" transform="scale(0.015625)"/>
       <path id="DejaVuSans-64" d="M 2906 2969 
L 2906 4863 
L 3481 4863 
L 3481 0 
L 2906 0 
L 2906 525 
Q 2725 213 2448 61 
Q 2172 -91 1784 -91 
Q 1150 -91 751 415 
Q 353 922 353 1747 
Q 353 2572 751 3078 
Q 1150 3584 1784 3584 
Q 2172 3584 2448 3432 
Q 2725 3281 2906 2969 
z
M 947 1747 
Q 947 1113 1208 752 
Q 1469 391 1925 391 
Q 2381 391 2643 752 
Q 2906 1113 2906 1747 
Q 2906 2381 2643 2742 
Q 2381 3103 1925 3103 
Q 1469 3103 1208 2742 
Q 947 2381 947 1747 
z
" transform="scale(0.015625)"/>
       <path id="DejaVuSans-69" d="M 603 3500 
L 1178 3500 
L 1178 0 
L 603 0 
L 603 3500 
z
M 603 4863 
L 1178 4863 
L 1178 4134 
L 603 4134 
L 603 4863 
z
" transform="scale(0.015625)"/>
       <path id="DejaVuSans-63" d="M 3122 3366 
L 3122 2828 
Q 2878 2963 2633 3030 
Q 2388 3097 2138 3097 
Q 1578 3097 1268 2742 
Q 959 2388 959 1747 
Q 959 1106 1268 751 
Q 1578 397 2138 397 
Q 2388 397 2633 464 
Q 2878 531 3122 666 
L 3122 134 
Q 2881 22 2623 -34 
Q 2366 -91 2075 -91 
Q 1284 -91 818 406 
Q 353 903 353 1747 
Q 353 2603 823 3093 
Q 1294 3584 2113 3584 
Q 2378 3584 2631 3529 
Q 2884 3475 3122 3366 
z
" transform="scale(0.015625)"/>
       <path id="DejaVuSans-6f" d="M 1959 3097 
Q 1497 3097 1228 2736 
Q 959 2375 959 1747 
Q 959 1119 1226 758 
Q 1494 397 1959 397 
Q 2419 397 2687 759 
Q 2956 1122 2956 1747 
Q 2956 2369 2687 2733 
Q 2419 3097 1959 3097 
z
M 1959 3584 
Q 2709 3584 3137 3096 
Q 3566 2609 3566 1747 
Q 3566 888 3137 398 
Q 2709 -91 1959 -91 
Q 1206 -91 779 398 
Q 353 888 353 1747 
Q 353 2609 779 3096 
Q 1206 3584 1959 3584 
z
" transform="scale(0.015625)"/>
       <path id="DejaVuSans-6e" d="M 3513 2113 
L 3513 0 
L 2938 0 
L 2938 2094 
Q 2938 2591 2744 2837 
Q 2550 3084 2163 3084 
Q 1697 3084 1428 2787 
Q 1159 2491 1159 1978 
L 1159 0 
L 581 0 
L 581 3500 
L 1159 3500 
L 1159 2956 
Q 1366 3272 1645 3428 
Q 1925 3584 2291 3584 
Q 2894 3584 3203 3211 
Q 3513 2838 3513 2113 
z
" transform="scale(0.015625)"/>
      </defs>
      <use xlink:href="#DejaVuSans-50"/>
      <use xlink:href="#DejaVuSans-72" x="58.552734"/>
      <use xlink:href="#DejaVuSans-65" x="97.416016"/>
      <use xlink:href="#DejaVuSans-64" x="158.939453"/>
      <use xlink:href="#DejaVuSans-69" x="222.416016"/>
      <use xlink:href="#DejaVuSans-63" x="250.199219"/>
      <use xlink:href="#DejaVuSans-74" x="305.179688"/>
      <use xlink:href="#DejaVuSans-69" x="344.388672"/>
      <use xlink:href="#DejaVuSans-6f" x="372.171875"/>
      <use xlink:href="#DejaVuSans-6e" x="433.353516"/>
     </g>
    </g>
   </g>
   <g id="line2d_34">
    <path d="M 43.78125 290.608998 
L 49.449821 290.608641 
L 55.118393 290.189065 
L 60.786964 289.927089 
L 66.455536 288.638178 
L 72.124107 289.25966 
L 77.792679 289.808941 
L 83.46125 290.301472 
L 89.129821 288.374725 
L 94.798393 287.484052 
L 100.466964 286.884958 
L 106.135536 287.167666 
L 111.804107 288.648299 
L 117.472679 288.853446 
L 123.14125 288.471179 
L 128.809821 287.107584 
L 134.478393 287.71821 
L 140.146964 287.358718 
L 145.815536 287.614653 
L 151.484107 287.043083 
L 157.152679 285.585828 
L 162.82125 283.16016 
L 168.489821 280.9466 
L 174.158393 280.681052 
L 179.826964 282.14186 
L 185.495536 286.420972 
L 191.164107 290.767753 
L 196.832679 294.190961 
L 202.50125 295.281823 
L 208.169821 295.730344 
L 213.838393 295.454195 
L 219.506964 294.830474 
L 225.175536 294.819798 
L 230.844107 293.755078 
L 236.512679 292.700646 
L 242.18125 291.461032 
L 247.849821 291.247387 
L 253.518393 290.577704 
L 259.186964 289.856099 
L 264.855536 288.550328 
L 270.524107 286.292657 
L 276.192679 283.666247 
L 281.86125 280.714984 
L 287.529821 279.022761 
L 293.198393 277.636598 
L 298.866964 279.862379 
L 304.535536 283.020506 
L 310.204107 287.01569 
L 315.872679 288.784185 
L 321.54125 291.159187 
L 327.209821 292.345073 
L 332.878393 292.803784 
L 338.546964 292.374765 
L 344.215536 291.310203 
L 349.884107 290.16179 
L 355.552679 288.784589 
L 361.22125 289.413299 
L 366.889821 288.396632 
L 372.558393 287.938302 
L 378.226964 287.470999 
L 383.895536 288.650631 
L 389.564107 289.210078 
L 395.232679 289.973334 
L 400.90125 290.484308 
" clip-path="url(#pb0af961114)" style="fill: none; stroke: #0000ff; stroke-opacity: 0.3; stroke-width: 1.5; stroke-linecap: square"/>
   </g>
   <g id="line2d_35">
    <path d="M 43.78125 271.509119 
L 49.449821 272.286109 
L 55.118393 274.258495 
L 60.786964 277.509104 
L 66.455536 281.337754 
L 72.124107 286.637183 
L 77.792679 292.545679 
L 83.46125 298.157883 
L 89.129821 302.211535 
L 94.798393 304.113669 
L 100.466964 304.699108 
L 106.135536 304.377774 
L 111.804107 303.398062 
L 117.472679 300.96678 
L 123.14125 296.59607 
L 128.809821 290.215155 
L 134.478393 282.846379 
L 140.146964 276.828629 
L 145.815536 272.258312 
L 151.484107 270.107186 
L 157.152679 271.342219 
L 162.82125 275.336996 
L 168.489821 280.863075 
L 174.158393 286.483093 
L 179.826964 290.07147 
L 185.495536 293.432697 
L 191.164107 295.106791 
L 196.832679 295.548553 
L 202.50125 294.635051 
L 208.169821 293.613038 
L 213.838393 292.184695 
L 219.506964 290.413799 
L 225.175536 289.697559 
L 230.844107 287.176339 
L 236.512679 284.141453 
L 242.18125 280.650563 
L 247.849821 277.397941 
L 253.518393 274.541693 
L 259.186964 272.819576 
L 264.855536 272.754976 
L 270.524107 275.154913 
L 276.192679 278.892156 
L 281.86125 283.862454 
L 287.529821 289.388665 
L 293.198393 293.254132 
L 298.866964 297.877596 
L 304.535536 300.896257 
L 310.204107 302.538893 
L 315.872679 302.823971 
L 321.54125 302.908723 
L 327.209821 302.553554 
L 332.878393 301.877828 
L 338.546964 301.743751 
L 344.215536 300.560245 
L 349.884107 298.895269 
L 355.552679 296.650426 
L 361.22125 294.801798 
L 366.889821 291.627083 
L 372.558393 288.00876 
L 378.226964 284.096369 
L 383.895536 279.269786 
L 389.564107 275.847987 
L 395.232679 273.368989 
L 400.90125 272.08105 
" clip-path="url(#pb0af961114)" style="fill: none; stroke: #ff0000; stroke-opacity: 0.3; stroke-width: 1.5; stroke-linecap: square"/>
   </g>
   <g id="line2d_36">
    <path d="M 43.78125 269.349997 
L 49.449821 270.630692 
L 55.118393 273.779235 
L 60.786964 278.531985 
L 66.455536 283.620004 
L 72.124107 289.511736 
L 77.792679 294.694975 
L 83.46125 298.417704 
L 89.129821 301.858355 
L 94.798393 302.925023 
L 100.466964 303.403334 
L 106.135536 303.471791 
L 111.804107 302.454967 
L 117.472679 301.898564 
L 123.14125 300.509707 
L 128.809821 297.697788 
L 134.478393 292.256725 
L 140.146964 284.780509 
L 145.815536 277.045932 
L 151.484107 271.194662 
L 157.152679 269.071846 
L 162.82125 269.470645 
L 168.489821 272.300315 
L 174.158393 276.456644 
L 179.826964 280.919285 
L 185.495536 285.623289 
L 191.164107 289.411904 
L 196.832679 292.085178 
L 202.50125 293.519329 
L 208.169821 294.17029 
L 213.838393 294.225414 
L 219.506964 293.918904 
L 225.175536 293.200713 
L 230.844107 292.167065 
L 236.512679 290.667987 
L 242.18125 288.778295 
L 247.849821 286.213883 
L 253.518393 284.149584 
L 259.186964 282.253259 
L 264.855536 281.217687 
L 270.524107 280.221565 
L 276.192679 281.455343 
L 281.86125 283.50323 
L 287.529821 286.464936 
L 293.198393 288.471237 
L 298.866964 291.059946 
L 304.535536 293.051648 
L 310.204107 294.648631 
L 315.872679 296.035762 
L 321.54125 296.805601 
L 327.209821 297.374658 
L 332.878393 297.735263 
L 338.546964 298.277111 
L 344.215536 298.388748 
L 349.884107 298.364953 
L 355.552679 297.948045 
L 361.22125 297.367182 
L 366.889821 295.387379 
L 372.558393 292.219968 
L 378.226964 287.377696 
L 383.895536 283.076287 
L 389.564107 277.423585 
L 395.232679 273.00399 
L 400.90125 270.017342 
" clip-path="url(#pb0af961114)" style="fill: none; stroke: #0000ff; stroke-width: 1.5; stroke-linecap: square"/>
   </g>
   <g id="line2d_37">
    <path d="M 43.78125 289.773479 
L 49.449821 288.284904 
L 55.118393 286.36151 
L 60.786964 284.270836 
L 66.455536 282.316117 
L 72.124107 280.676275 
L 77.792679 279.747982 
L 83.46125 279.704834 
L 89.129821 281.536447 
L 94.798393 283.323764 
L 100.466964 285.567571 
L 106.135536 287.77397 
L 111.804107 289.783374 
L 117.472679 291.335915 
L 123.14125 292.713653 
L 128.809821 294.286219 
L 134.478393 295.29189 
L 140.146964 296.973322 
L 145.815536 298.040471 
L 151.484107 298.27023 
L 157.152679 297.839081 
L 162.82125 296.116082 
L 168.489821 293.392838 
L 174.158393 289.695408 
L 179.826964 285.930879 
L 185.495536 281.646479 
L 191.164107 277.831616 
L 196.832679 274.805843 
L 202.50125 272.047265 
L 208.169821 270.720916 
L 213.838393 270.136077 
L 219.506964 270.235839 
L 225.175536 271.221426 
L 230.844107 272.802581 
L 236.512679 275.540996 
L 242.18125 279.442235 
L 247.849821 284.805635 
L 253.518393 289.986686 
L 259.186964 294.886944 
L 264.855536 298.607557 
L 270.524107 300.122182 
L 276.192679 301.036011 
L 281.86125 300.859232 
L 287.529821 299.854134 
L 293.198393 298.5039 
L 298.866964 296.55129 
L 304.535536 294.540759 
L 310.204107 292.76622 
L 315.872679 291.571801 
L 321.54125 290.718676 
L 327.209821 290.223505 
L 332.878393 289.929104 
L 338.546964 289.857783 
L 344.215536 289.629403 
L 349.884107 289.354467 
L 355.552679 289.120741 
L 361.22125 289.246751 
L 366.889821 289.467875 
L 372.558393 289.96287 
L 378.226964 290.601599 
L 383.895536 291.04519 
L 389.564107 291.425789 
L 395.232679 291.452131 
L 400.90125 291.017684 
" clip-path="url(#pb0af961114)" style="fill: none; stroke: #ff0000; stroke-width: 1.5; stroke-linecap: square"/>
   </g>
   <g id="patch_13">
    <path d="M 43.78125 307.872 
L 43.78125 229.603765 
" style="fill: none; stroke: #000000; stroke-width: 0.8; stroke-linejoin: miter; stroke-linecap: square"/>
   </g>
   <g id="patch_14">
    <path d="M 400.90125 307.872 
L 400.90125 229.603765 
" style="fill: none; stroke: #000000; stroke-width: 0.8; stroke-linejoin: miter; stroke-linecap: square"/>
   </g>
   <g id="patch_15">
    <path d="M 43.78125 307.872 
L 400.90125 307.872 
" style="fill: none; stroke: #000000; stroke-width: 0.8; stroke-linejoin: miter; stroke-linecap: square"/>
   </g>
   <g id="patch_16">
    <path d="M 43.78125 229.603765 
L 400.90125 229.603765 
" style="fill: none; stroke: #000000; stroke-width: 0.8; stroke-linejoin: miter; stroke-linecap: square"/>
   </g>
  </g>
  <g id="text_19">
   <!-- Migration 1 Phase -->
   <g transform="translate(162.74625 16.318125)scale(0.12 -0.12)">
    <defs>
     <path id="DejaVuSans-4d" d="M 628 4666 
L 1569 4666 
L 2759 1491 
L 3956 4666 
L 4897 4666 
L 4897 0 
L 4281 0 
L 4281 4097 
L 3078 897 
L 2444 897 
L 1241 4097 
L 1241 0 
L 628 0 
L 628 4666 
z
" transform="scale(0.015625)"/>
     <path id="DejaVuSans-20" transform="scale(0.015625)"/>
     <path id="DejaVuSans-68" d="M 3513 2113 
L 3513 0 
L 2938 0 
L 2938 2094 
Q 2938 2591 2744 2837 
Q 2550 3084 2163 3084 
Q 1697 3084 1428 2787 
Q 1159 2491 1159 1978 
L 1159 0 
L 581 0 
L 581 4863 
L 1159 4863 
L 1159 2956 
Q 1366 3272 1645 3428 
Q 1925 3584 2291 3584 
Q 2894 3584 3203 3211 
Q 3513 2838 3513 2113 
z
" transform="scale(0.015625)"/>
     <path id="DejaVuSans-73" d="M 2834 3397 
L 2834 2853 
Q 2591 2978 2328 3040 
Q 2066 3103 1784 3103 
Q 1356 3103 1142 2972 
Q 928 2841 928 2578 
Q 928 2378 1081 2264 
Q 1234 2150 1697 2047 
L 1894 2003 
Q 2506 1872 2764 1633 
Q 3022 1394 3022 966 
Q 3022 478 2636 193 
Q 2250 -91 1575 -91 
Q 1294 -91 989 -36 
Q 684 19 347 128 
L 347 722 
Q 666 556 975 473 
Q 1284 391 1588 391 
Q 1994 391 2212 530 
Q 2431 669 2431 922 
Q 2431 1156 2273 1281 
Q 2116 1406 1581 1522 
L 1381 1569 
Q 847 1681 609 1914 
Q 372 2147 372 2553 
Q 372 3047 722 3315 
Q 1072 3584 1716 3584 
Q 2034 3584 2315 3537 
Q 2597 3491 2834 3397 
z
" transform="scale(0.015625)"/>
    </defs>
    <use xlink:href="#DejaVuSans-4d"/>
    <use xlink:href="#DejaVuSans-69" x="86.279297"/>
    <use xlink:href="#DejaVuSans-67" x="114.0625"/>
    <use xlink:href="#DejaVuSans-72" x="177.539062"/>
    <use xlink:href="#DejaVuSans-61" x="218.652344"/>
    <use xlink:href="#DejaVuSans-74" x="279.931641"/>
    <use xlink:href="#DejaVuSans-69" x="319.140625"/>
    <use xlink:href="#DejaVuSans-6f" x="346.923828"/>
    <use xlink:href="#DejaVuSans-6e" x="408.105469"/>
    <use xlink:href="#DejaVuSans-20" x="471.484375"/>
    <use xlink:href="#DejaVuSans-31" x="503.271484"/>
    <use xlink:href="#DejaVuSans-20" x="566.894531"/>
    <use xlink:href="#DejaVuSans-50" x="598.681641"/>
    <use xlink:href="#DejaVuSans-68" x="658.984375"/>
    <use xlink:href="#DejaVuSans-61" x="722.363281"/>
    <use xlink:href="#DejaVuSans-73" x="783.642578"/>
    <use xlink:href="#DejaVuSans-65" x="835.742188"/>
   </g>
  </g>
 </g>
 <defs>
  <clipPath id="p60d5b32315">
   <rect x="43.78125" y="41.76" width="357.12" height="78.268235"/>
  </clipPath>
  <clipPath id="pb1406cddd9">
   <rect x="43.78125" y="135.681882" width="357.12" height="78.268235"/>
  </clipPath>
  <clipPath id="pb0af961114">
   <rect x="43.78125" y="229.603765" width="357.12" height="78.268235"/>
  </clipPath>
 </defs>
</svg>
