<?xml version="1.0" encoding="utf-8" standalone="no"?>
<!DOCTYPE svg PUBLIC "-//W3C//DTD SVG 1.1//EN"
  "http://www.w3.org/Graphics/SVG/1.1/DTD/svg11.dtd">
<svg xmlns:xlink="http://www.w3.org/1999/xlink" width="515.950313pt" height="139.534375pt" viewBox="0 0 515.950313 139.534375" xmlns="http://www.w3.org/2000/svg" version="1.1">
 <metadata>
  <rdf:RDF xmlns:dc="http://purl.org/dc/elements/1.1/" xmlns:cc="http://creativecommons.org/ns#" xmlns:rdf="http://www.w3.org/1999/02/22-rdf-syntax-ns#">
   <cc:Work>
    <dc:type rdf:resource="http://purl.org/dc/dcmitype/StillImage"/>
    <dc:date>2024-04-02T15:50:45.481272</dc:date>
    <dc:format>image/svg+xml</dc:format>
    <dc:creator>
     <cc:Agent>
      <dc:title>Matplotlib v3.5.2, https://matplotlib.org/</dc:title>
     </cc:Agent>
    </dc:creator>
   </cc:Work>
  </rdf:RDF>
 </metadata>
 <defs>
  <style type="text/css">*{stroke-linejoin: round; stroke-linecap: butt}</style>
 </defs>
 <g id="figure_1">
  <g id="patch_1">
   <path d="M 0 139.534375 
L 515.950313 139.534375 
L 515.950313 0 
L 0 0 
z
" style="fill: #ffffff"/>
  </g>
  <g id="axes_1">
   <g id="patch_2">
    <path d="M 39.120313 105.478125 
L 124.033356 105.478125 
L 124.033356 22.318125 
L 39.120313 22.318125 
z
" style="fill: #ffffff"/>
   </g>
   <g id="matplotlib.axis_1">
    <g id="xtick_1">
     <g id="line2d_1">
      <defs>
       <path id="m99132c570e" d="M 0 0 
L 0 -3.5 
" style="stroke: #000000; stroke-width: 0.8"/>
      </defs>
      <g>
       <use xlink:href="#m99132c570e" x="39.120313" y="105.478125" style="stroke: #000000; stroke-width: 0.8"/>
      </g>
     </g>
     <g id="text_1">
      <!-- 0.0 -->
      <g transform="translate(31.16875 116.576563)scale(0.1 -0.1)">
       <defs>
        <path id="DejaVuSans-30" d="M 2034 4250 
Q 1547 4250 1301 3770 
Q 1056 3291 1056 2328 
Q 1056 1369 1301 889 
Q 1547 409 2034 409 
Q 2525 409 2770 889 
Q 3016 1369 3016 2328 
Q 3016 3291 2770 3770 
Q 2525 4250 2034 4250 
z
M 2034 4750 
Q 2819 4750 3233 4129 
Q 3647 3509 3647 2328 
Q 3647 1150 3233 529 
Q 2819 -91 2034 -91 
Q 1250 -91 836 529 
Q 422 1150 422 2328 
Q 422 3509 836 4129 
Q 1250 4750 2034 4750 
z
" transform="scale(0.015625)"/>
        <path id="DejaVuSans-2e" d="M 684 794 
L 1344 794 
L 1344 0 
L 684 0 
L 684 794 
z
" transform="scale(0.015625)"/>
       </defs>
       <use xlink:href="#DejaVuSans-30"/>
       <use xlink:href="#DejaVuSans-2e" x="63.623047"/>
       <use xlink:href="#DejaVuSans-30" x="95.410156"/>
      </g>
     </g>
    </g>
    <g id="xtick_2">
     <g id="line2d_2">
      <g>
       <use xlink:href="#m99132c570e" x="124.033356" y="105.478125" style="stroke: #000000; stroke-width: 0.8"/>
      </g>
     </g>
     <g id="text_2">
      <!-- 0.5 -->
      <g transform="translate(116.081793 116.576563)scale(0.1 -0.1)">
       <defs>
        <path id="DejaVuSans-35" d="M 691 4666 
L 3169 4666 
L 3169 4134 
L 1269 4134 
L 1269 2991 
Q 1406 3038 1543 3061 
Q 1681 3084 1819 3084 
Q 2600 3084 3056 2656 
Q 3513 2228 3513 1497 
Q 3513 744 3044 326 
Q 2575 -91 1722 -91 
Q 1428 -91 1123 -41 
Q 819 9 494 109 
L 494 744 
Q 775 591 1075 516 
Q 1375 441 1709 441 
Q 2250 441 2565 725 
Q 2881 1009 2881 1497 
Q 2881 1984 2565 2268 
Q 2250 2553 1709 2553 
Q 1456 2553 1204 2497 
Q 953 2441 691 2322 
L 691 4666 
z
" transform="scale(0.015625)"/>
       </defs>
       <use xlink:href="#DejaVuSans-30"/>
       <use xlink:href="#DejaVuSans-2e" x="63.623047"/>
       <use xlink:href="#DejaVuSans-35" x="95.410156"/>
      </g>
     </g>
    </g>
    <g id="text_3">
     <!-- $x$ -->
     <g transform="translate(78.576834 130.254688)scale(0.1 -0.1)">
      <defs>
       <path id="DejaVuSans-Oblique-78" d="M 3841 3500 
L 2234 1784 
L 3219 0 
L 2559 0 
L 1819 1388 
L 531 0 
L -166 0 
L 1556 1844 
L 641 3500 
L 1300 3500 
L 1972 2234 
L 3144 3500 
L 3841 3500 
z
" transform="scale(0.015625)"/>
      </defs>
      <use xlink:href="#DejaVuSans-Oblique-78" transform="translate(0 0.3125)"/>
     </g>
    </g>
   </g>
   <g id="matplotlib.axis_2">
    <g id="ytick_1">
     <g id="line2d_3">
      <defs>
       <path id="ma4f7697a64" d="M 0 0 
L 3.5 0 
" style="stroke: #000000; stroke-width: 0.8"/>
      </defs>
      <g>
       <use xlink:href="#ma4f7697a64" x="39.120313" y="98.548125" style="stroke: #000000; stroke-width: 0.8"/>
      </g>
     </g>
     <g id="text_4">
      <!-- −1 -->
      <g transform="translate(20.878125 102.347344)scale(0.1 -0.1)">
       <defs>
        <path id="DejaVuSans-2212" d="M 678 2272 
L 4684 2272 
L 4684 1741 
L 678 1741 
L 678 2272 
z
" transform="scale(0.015625)"/>
        <path id="DejaVuSans-31" d="M 794 531 
L 1825 531 
L 1825 4091 
L 703 3866 
L 703 4441 
L 1819 4666 
L 2450 4666 
L 2450 531 
L 3481 531 
L 3481 0 
L 794 0 
L 794 531 
z
" transform="scale(0.015625)"/>
       </defs>
       <use xlink:href="#DejaVuSans-2212"/>
       <use xlink:href="#DejaVuSans-31" x="83.789062"/>
      </g>
     </g>
    </g>
    <g id="ytick_2">
     <g id="line2d_4">
      <g>
       <use xlink:href="#ma4f7697a64" x="39.120313" y="63.898125" style="stroke: #000000; stroke-width: 0.8"/>
      </g>
     </g>
     <g id="text_5">
      <!-- 0 -->
      <g transform="translate(29.257813 67.697344)scale(0.1 -0.1)">
       <use xlink:href="#DejaVuSans-30"/>
      </g>
     </g>
    </g>
    <g id="ytick_3">
     <g id="line2d_5">
      <g>
       <use xlink:href="#ma4f7697a64" x="39.120313" y="29.248125" style="stroke: #000000; stroke-width: 0.8"/>
      </g>
     </g>
     <g id="text_6">
      <!-- 1 -->
      <g transform="translate(29.257813 33.047344)scale(0.1 -0.1)">
       <use xlink:href="#DejaVuSans-31"/>
      </g>
     </g>
    </g>
    <g id="text_7">
     <!-- $\kappa(x)$ -->
     <g transform="translate(14.798438 73.748125)rotate(-90)scale(0.1 -0.1)">
      <defs>
       <path id="DejaVuSans-Oblique-3ba" d="M 938 3500 
L 1531 3500 
L 1247 2047 
L 3041 3500 
L 3741 3500 
L 2106 2181 
L 3275 0 
L 2572 0 
L 1628 1806 
L 1122 1403 
L 850 0 
L 256 0 
L 938 3500 
z
" transform="scale(0.015625)"/>
       <path id="DejaVuSans-28" d="M 1984 4856 
Q 1566 4138 1362 3434 
Q 1159 2731 1159 2009 
Q 1159 1288 1364 580 
Q 1569 -128 1984 -844 
L 1484 -844 
Q 1016 -109 783 600 
Q 550 1309 550 2009 
Q 550 2706 781 3412 
Q 1013 4119 1484 4856 
L 1984 4856 
z
" transform="scale(0.015625)"/>
       <path id="DejaVuSans-29" d="M 513 4856 
L 1013 4856 
Q 1481 4119 1714 3412 
Q 1947 2706 1947 2009 
Q 1947 1309 1714 600 
Q 1481 -109 1013 -844 
L 513 -844 
Q 928 -128 1133 580 
Q 1338 1288 1338 2009 
Q 1338 2731 1133 3434 
Q 928 4138 513 4856 
z
" transform="scale(0.015625)"/>
      </defs>
      <use xlink:href="#DejaVuSans-Oblique-3ba" transform="translate(0 0.125)"/>
      <use xlink:href="#DejaVuSans-28" transform="translate(58.935547 0.125)"/>
      <use xlink:href="#DejaVuSans-Oblique-78" transform="translate(97.949219 0.125)"/>
      <use xlink:href="#DejaVuSans-29" transform="translate(157.128906 0.125)"/>
     </g>
    </g>
   </g>
   <g id="line2d_6">
    <path d="M 39.120313 44.338507 
L 39.97802 44.338507 
L 40.835728 42.121686 
L 41.693435 36.949104 
L 42.551143 31.776522 
L 43.40885 30.878475 
L 44.266558 40.666766 
L 45.124265 50.455056 
L 45.981973 59.500051 
L 46.83968 64.085265 
L 47.697388 68.670479 
L 48.555095 73.255694 
L 49.412803 73.011127 
L 50.27051 72.76656 
L 51.128218 72.521993 
L 51.985925 74.116179 
L 52.843633 76.016823 
L 53.70134 77.917467 
L 54.559048 77.181684 
L 55.416755 75.39133 
L 56.274463 73.600976 
L 57.13217 71.867477 
L 57.989878 70.176618 
L 58.847585 68.48576 
L 59.705293 67.332678 
L 60.563 66.896633 
L 61.420708 66.460587 
L 62.278415 66.057432 
L 63.136123 65.736501 
L 63.99383 65.415571 
L 64.851538 65.191327 
L 65.709245 65.547195 
L 66.566953 65.903064 
L 67.42466 66.258932 
L 68.282368 66.703286 
L 69.140075 67.147639 
L 69.997783 67.591993 
L 70.85549 67.297521 
L 71.713198 66.879912 
L 72.570905 66.462302 
L 73.428613 66.112644 
L 74.28632 65.790167 
L 75.144028 65.46769 
L 76.001735 65.300741 
L 76.859443 65.250438 
L 77.71715 65.200136 
L 78.574858 65.130002 
L 79.432565 65.033424 
L 80.290273 64.936847 
L 81.14798 64.861713 
L 82.005688 64.840188 
L 82.863396 64.818663 
L 83.721103 64.778464 
L 84.578811 64.626222 
L 85.436518 64.473979 
L 86.294226 64.321737 
L 87.151933 64.194244 
L 88.009641 64.066752 
L 88.867348 63.939259 
L 89.725056 63.910316 
L 90.582763 63.897798 
L 91.440471 63.88528 
L 92.298178 63.941292 
L 93.155886 64.024717 
L 94.013593 64.108142 
L 94.871301 64.139153 
L 95.729008 64.130855 
L 96.586716 64.122557 
L 97.444423 64.09385 
L 98.302131 64.03793 
L 99.159838 63.982011 
L 100.017546 63.917809 
L 100.875253 63.8329 
L 101.732961 63.747991 
L 102.590668 63.661095 
L 103.448376 63.562281 
L 104.306083 63.463468 
L 105.163791 63.364654 
L 106.021498 63.406407 
L 106.879206 63.448161 
L 107.736913 63.489915 
L 108.594621 63.513806 
L 109.452328 63.534721 
L 110.310036 63.555635 
L 111.167743 63.565287 
L 112.025451 63.570434 
L 112.883158 63.575581 
L 113.740866 63.587217 
L 114.598573 63.60372 
L 115.456281 63.620223 
L 116.313988 63.636314 
L 117.171696 63.651855 
L 118.029403 63.667396 
L 118.887111 63.697936 
L 119.744818 63.765971 
L 120.602526 63.834006 
L 121.460233 63.897523 
L 122.317941 63.933931 
L 123.175648 63.970339 
L 124.033356 64.006747 
" clip-path="url(#p7d1c63d11b)" style="fill: none; stroke: #1f77b4; stroke-width: 1.5; stroke-linecap: square"/>
   </g>
   <g id="line2d_7">
    <path d="M 39.120313 31.425677 
L 39.97802 31.425677 
L 40.835728 30.130406 
L 41.693435 27.108108 
L 42.551143 24.08581 
L 43.40885 24.492718 
L 44.266558 33.472642 
L 45.124265 42.452566 
L 45.981973 50.924555 
L 46.83968 56.34893 
L 47.697388 61.773304 
L 48.555095 67.197678 
L 49.412803 69.692064 
L 50.27051 72.186452 
L 51.128218 74.680839 
L 51.985925 75.158281 
L 52.843633 75.299567 
L 53.70134 75.440852 
L 54.559048 74.487579 
L 55.416755 73.096484 
L 56.274463 71.705389 
L 57.13217 70.183039 
L 57.989878 68.562249 
L 58.847585 66.941459 
L 59.705293 65.764121 
L 60.563 65.178051 
L 61.420708 64.591982 
L 62.278415 64.181217 
L 63.136123 64.208711 
L 63.99383 64.236206 
L 64.851538 64.298014 
L 65.709245 64.565704 
L 66.566953 64.833393 
L 67.42466 65.101083 
L 68.282368 65.346259 
L 69.140075 65.591435 
L 69.997783 65.836611 
L 70.85549 65.970501 
L 71.713198 66.085844 
L 72.570905 66.201187 
L 73.428613 66.140553 
L 74.28632 66.009529 
L 75.144028 65.878504 
L 76.001735 65.716075 
L 76.859443 65.530093 
L 77.71715 65.344111 
L 78.574858 65.162844 
L 79.432565 64.987864 
L 80.290273 64.812883 
L 81.14798 64.638474 
L 82.005688 64.465491 
L 82.863396 64.292507 
L 83.721103 64.139923 
L 84.578811 64.109732 
L 85.436518 64.079542 
L 86.294226 64.049352 
L 87.151933 64.106286 
L 88.009641 64.16322 
L 88.867348 64.220154 
L 89.725056 64.270709 
L 90.582763 64.320201 
L 91.440471 64.369693 
L 92.298178 64.414117 
L 93.155886 64.456513 
L 94.013593 64.498909 
L 94.871301 64.510768 
L 95.729008 64.499724 
L 96.586716 64.488681 
L 97.444423 64.455778 
L 98.302131 64.393731 
L 99.159838 64.331684 
L 100.017546 64.27628 
L 100.875253 64.237485 
L 101.732961 64.198689 
L 102.590668 64.159611 
L 103.448376 64.118843 
L 104.306083 64.078075 
L 105.163791 64.037307 
L 106.021498 64.014717 
L 106.879206 63.992128 
L 107.736913 63.969539 
L 108.594621 63.970795 
L 109.452328 63.976025 
L 110.310036 63.981255 
L 111.167743 63.982795 
L 112.025451 63.982859 
L 112.883158 63.982923 
L 113.740866 63.987955 
L 114.598573 63.996712 
L 115.456281 64.005469 
L 116.313988 64.014643 
L 117.171696 64.024372 
L 118.029403 64.034101 
L 118.887111 64.044111 
L 119.744818 64.05482 
L 120.602526 64.065529 
L 121.460233 64.075587 
L 122.317941 64.081734 
L 123.175648 64.087882 
L 124.033356 64.094029 
" clip-path="url(#p7d1c63d11b)" style="fill: none; stroke: #ff7f0e; stroke-width: 1.5; stroke-linecap: square"/>
   </g>
   <g id="line2d_8">
    <path d="M 39.120313 53.074019 
L 39.97802 53.074019 
L 40.835728 48.727793 
L 41.693435 38.586598 
L 42.551143 28.445403 
L 43.40885 24.110843 
L 44.266558 34.29287 
L 45.124265 44.474898 
L 45.981973 54.207012 
L 46.83968 61.239641 
L 47.697388 68.272271 
L 48.555095 75.3049 
L 49.412803 73.636064 
L 50.27051 71.967228 
L 51.128218 70.298392 
L 51.985925 69.944829 
L 52.843633 69.810479 
L 53.70134 69.676129 
L 54.559048 69.08687 
L 55.416755 68.315647 
L 56.274463 67.544425 
L 57.13217 67.101791 
L 57.989878 66.905598 
L 58.847585 66.709405 
L 59.705293 66.643472 
L 60.563 66.751222 
L 61.420708 66.858971 
L 62.278415 66.933831 
L 63.136123 66.926468 
L 63.99383 66.919106 
L 64.851538 66.907509 
L 65.709245 66.870509 
L 66.566953 66.833508 
L 67.42466 66.796508 
L 68.282368 66.759602 
L 69.140075 66.722696 
L 69.997783 66.685789 
L 70.85549 66.686247 
L 71.713198 66.692931 
L 72.570905 66.699615 
L 73.428613 66.727016 
L 74.28632 66.762703 
L 75.144028 66.798389 
L 76.001735 66.815305 
L 76.859443 66.818142 
L 77.71715 66.820978 
L 78.574858 66.825949 
L 79.432565 66.833766 
L 80.290273 66.841582 
L 81.14798 66.842326 
L 82.005688 66.825388 
L 82.863396 66.808451 
L 83.721103 66.790354 
L 84.578811 66.765304 
L 85.436518 66.740255 
L 86.294226 66.715205 
L 87.151933 66.715017 
L 88.009641 66.714829 
L 88.867348 66.714641 
L 89.725056 66.70074 
L 90.582763 66.684553 
L 91.440471 66.668367 
L 92.298178 66.642833 
L 93.155886 66.61356 
L 94.013593 66.584287 
L 94.871301 66.581325 
L 95.729008 66.598097 
L 96.586716 66.614869 
L 97.444423 66.647547 
L 98.302131 66.701433 
L 99.159838 66.755319 
L 100.017546 66.808852 
L 100.875253 66.861502 
L 101.732961 66.914152 
L 102.590668 66.962824 
L 103.448376 66.987627 
L 104.306083 67.01243 
L 105.163791 67.037233 
L 106.021498 67.00628 
L 106.879206 66.975326 
L 107.736913 66.944372 
L 108.594621 66.872986 
L 109.452328 66.79486 
L 110.310036 66.716735 
L 111.167743 66.6539 
L 112.025451 66.597181 
L 112.883158 66.540462 
L 113.740866 66.520676 
L 114.598573 66.528588 
L 115.456281 66.536501 
L 116.313988 66.554878 
L 117.171696 66.587208 
L 118.029403 66.619539 
L 118.887111 66.656125 
L 119.744818 66.703353 
L 120.602526 66.750581 
L 121.460233 66.794851 
L 122.317941 66.821379 
L 123.175648 66.847907 
L 124.033356 66.874434 
" clip-path="url(#p7d1c63d11b)" style="fill: none; stroke: #2ca02c; stroke-width: 1.5; stroke-linecap: square"/>
   </g>
   <g id="line2d_9">
    <path d="M 39.120313 41.692823 
L 39.97802 41.692823 
L 40.835728 40.358602 
L 41.693435 37.24542 
L 42.551143 34.132238 
L 43.40885 34.068261 
L 44.266558 41.627297 
L 45.124265 49.186333 
L 45.981973 56.303776 
L 46.83968 60.771651 
L 47.697388 65.239526 
L 48.555095 69.707401 
L 49.412803 69.55539 
L 50.27051 69.403379 
L 51.128218 69.251367 
L 51.985925 69.808586 
L 52.843633 70.48401 
L 53.70134 71.159433 
L 54.559048 70.013923 
L 55.416755 68.14004 
L 56.274463 66.266157 
L 57.13217 65.340102 
L 57.989878 65.124919 
L 58.847585 64.909735 
L 59.705293 64.958833 
L 60.563 65.360304 
L 61.420708 65.761776 
L 62.278415 66.194549 
L 63.136123 66.705578 
L 63.99383 67.216606 
L 64.851538 67.619644 
L 65.709245 67.374746 
L 66.566953 67.129847 
L 67.42466 66.884948 
L 68.282368 66.694123 
L 69.140075 66.503297 
L 69.997783 66.312471 
L 70.85549 66.216222 
L 71.713198 66.135735 
L 72.570905 66.055249 
L 73.428613 66.040418 
L 74.28632 66.05185 
L 75.144028 66.063282 
L 76.001735 66.096706 
L 76.859443 66.146625 
L 77.71715 66.196545 
L 78.574858 66.221884 
L 79.432565 66.21445 
L 80.290273 66.207017 
L 81.14798 66.208583 
L 82.005688 66.23265 
L 82.863396 66.256716 
L 83.721103 66.275495 
L 84.578811 66.262548 
L 85.436518 66.2496 
L 86.294226 66.236653 
L 87.151933 66.219791 
L 88.009641 66.20293 
L 88.867348 66.186068 
L 89.725056 66.198106 
L 90.582763 66.214961 
L 91.440471 66.231816 
L 92.298178 66.23861 
L 93.155886 66.241381 
L 94.013593 66.244151 
L 94.871301 66.256715 
L 95.729008 66.276624 
L 96.586716 66.296533 
L 97.444423 66.314354 
L 98.302131 66.32939 
L 99.159838 66.344427 
L 100.017546 66.354184 
L 100.875253 66.350743 
L 101.732961 66.347302 
L 102.590668 66.341843 
L 103.448376 66.324272 
L 104.306083 66.306702 
L 105.163791 66.289131 
L 106.021498 66.264596 
L 106.879206 66.24006 
L 107.736913 66.215525 
L 108.594621 66.197347 
L 109.452328 66.180229 
L 110.310036 66.16311 
L 111.167743 66.167343 
L 112.025451 66.180115 
L 112.883158 66.192888 
L 113.740866 66.208271 
L 114.598573 66.225613 
L 115.456281 66.242955 
L 116.313988 66.258067 
L 117.171696 66.270206 
L 118.029403 66.282345 
L 118.887111 66.29182 
L 119.744818 66.294635 
L 120.602526 66.297451 
L 121.460233 66.298321 
L 122.317941 66.287523 
L 123.175648 66.276724 
L 124.033356 66.265926 
" clip-path="url(#p7d1c63d11b)" style="fill: none; stroke: #d62728; stroke-width: 1.5; stroke-linecap: square"/>
   </g>
   <g id="patch_3">
    <path d="M 39.120313 105.478125 
L 39.120313 22.318125 
" style="fill: none; stroke: #000000; stroke-width: 0.8; stroke-linejoin: miter; stroke-linecap: square"/>
   </g>
   <g id="patch_4">
    <path d="M 124.033356 105.478125 
L 124.033356 22.318125 
" style="fill: none; stroke: #000000; stroke-width: 0.8; stroke-linejoin: miter; stroke-linecap: square"/>
   </g>
   <g id="patch_5">
    <path d="M 39.120313 105.478125 
L 124.033356 105.478125 
" style="fill: none; stroke: #000000; stroke-width: 0.8; stroke-linejoin: miter; stroke-linecap: square"/>
   </g>
   <g id="patch_6">
    <path d="M 39.120313 22.318125 
L 124.033356 22.318125 
" style="fill: none; stroke: #000000; stroke-width: 0.8; stroke-linejoin: miter; stroke-linecap: square"/>
   </g>
   <g id="text_8">
    <!-- $\kappa^{AA}$ -->
    <g transform="translate(71.856834 16.318125)scale(0.12 -0.12)">
     <defs>
      <path id="DejaVuSans-Oblique-41" d="M 2356 4666 
L 3072 4666 
L 3938 0 
L 3278 0 
L 3084 1197 
L 984 1197 
L 325 0 
L -341 0 
L 2356 4666 
z
M 2584 4044 
L 1275 1722 
L 2988 1722 
L 2584 4044 
z
" transform="scale(0.015625)"/>
     </defs>
     <use xlink:href="#DejaVuSans-Oblique-3ba" transform="translate(0 0.684375)"/>
     <use xlink:href="#DejaVuSans-Oblique-41" transform="translate(63.401693 38.965625)scale(0.7)"/>
     <use xlink:href="#DejaVuSans-Oblique-41" transform="translate(111.287435 38.965625)scale(0.7)"/>
    </g>
   </g>
  </g>
  <g id="axes_2">
   <g id="patch_7">
    <path d="M 141.015965 105.478125 
L 225.929008 105.478125 
L 225.929008 22.318125 
L 141.015965 22.318125 
z
" style="fill: #ffffff"/>
   </g>
   <g id="matplotlib.axis_3">
    <g id="xtick_3">
     <g id="line2d_10">
      <g>
       <use xlink:href="#m99132c570e" x="141.015965" y="105.478125" style="stroke: #000000; stroke-width: 0.8"/>
      </g>
     </g>
     <g id="text_9">
      <!-- 0.0 -->
      <g transform="translate(133.064402 116.576563)scale(0.1 -0.1)">
       <use xlink:href="#DejaVuSans-30"/>
       <use xlink:href="#DejaVuSans-2e" x="63.623047"/>
       <use xlink:href="#DejaVuSans-30" x="95.410156"/>
      </g>
     </g>
    </g>
    <g id="xtick_4">
     <g id="line2d_11">
      <g>
       <use xlink:href="#m99132c570e" x="225.929008" y="105.478125" style="stroke: #000000; stroke-width: 0.8"/>
      </g>
     </g>
     <g id="text_10">
      <!-- 0.5 -->
      <g transform="translate(217.977446 116.576563)scale(0.1 -0.1)">
       <use xlink:href="#DejaVuSans-30"/>
       <use xlink:href="#DejaVuSans-2e" x="63.623047"/>
       <use xlink:href="#DejaVuSans-35" x="95.410156"/>
      </g>
     </g>
    </g>
    <g id="text_11">
     <!-- $x$ -->
     <g transform="translate(180.472486 130.254688)scale(0.1 -0.1)">
      <use xlink:href="#DejaVuSans-Oblique-78" transform="translate(0 0.3125)"/>
     </g>
    </g>
   </g>
   <g id="matplotlib.axis_4">
    <g id="ytick_4">
     <g id="line2d_12">
      <g>
       <use xlink:href="#ma4f7697a64" x="141.015965" y="98.548125" style="stroke: #000000; stroke-width: 0.8"/>
      </g>
     </g>
    </g>
    <g id="ytick_5">
     <g id="line2d_13">
      <g>
       <use xlink:href="#ma4f7697a64" x="141.015965" y="63.898125" style="stroke: #000000; stroke-width: 0.8"/>
      </g>
     </g>
    </g>
    <g id="ytick_6">
     <g id="line2d_14">
      <g>
       <use xlink:href="#ma4f7697a64" x="141.015965" y="29.248125" style="stroke: #000000; stroke-width: 0.8"/>
      </g>
     </g>
    </g>
   </g>
   <g id="line2d_15">
    <path d="M 141.015965 107.890349 
L 141.873672 107.890349 
L 142.73138 101.478416 
L 143.589087 86.51724 
L 144.446795 71.556064 
L 145.304502 58.77108 
L 146.16221 51.426571 
L 147.019917 44.082063 
L 147.877625 38.858053 
L 148.735332 46.357042 
L 149.59304 53.856032 
L 150.450747 61.355021 
L 151.308455 64.253315 
L 152.166162 67.151609 
L 153.02387 70.049902 
L 153.881577 68.950255 
L 154.739285 67.184284 
L 155.596992 65.418313 
L 156.4547 63.358257 
L 157.312407 61.180567 
L 158.170115 59.002878 
L 159.027822 58.731238 
L 159.88553 59.889136 
L 160.743237 61.047033 
L 161.600945 61.669278 
L 162.458652 61.577321 
L 163.31636 61.485363 
L 164.174067 61.267188 
L 165.031775 60.73347 
L 165.889482 60.199751 
L 166.74719 59.790368 
L 167.604897 60.126998 
L 168.462605 60.463628 
L 169.320313 60.800257 
L 170.17802 61.247117 
L 171.035728 61.693976 
L 171.893435 62.140835 
L 172.751143 62.184616 
L 173.60885 62.161218 
L 174.466558 62.13782 
L 175.324265 62.093169 
L 176.181973 62.040018 
L 177.03968 61.986867 
L 177.897388 62.008489 
L 178.755095 62.086191 
L 179.612803 62.163893 
L 180.47051 62.320733 
L 181.328218 62.583092 
L 182.185925 62.84545 
L 183.043633 63.074304 
L 183.90134 63.219396 
L 184.759048 63.364488 
L 185.616755 63.454377 
L 186.474463 63.213045 
L 187.33217 62.971712 
L 188.189878 62.730379 
L 189.047585 62.60186 
L 189.905293 62.473341 
L 190.763 62.344823 
L 191.620708 62.378538 
L 192.478415 62.439293 
L 193.336123 62.500047 
L 194.19383 62.642498 
L 195.051538 62.817627 
L 195.909245 62.992756 
L 196.766953 63.156897 
L 197.62466 63.312797 
L 198.482368 63.468697 
L 199.340075 63.564054 
L 200.197783 63.578687 
L 201.05549 63.59332 
L 201.913198 63.571772 
L 202.770905 63.459774 
L 203.628613 63.347776 
L 204.48632 63.239375 
L 205.344028 63.152563 
L 206.201735 63.065751 
L 207.059443 62.978939 
L 207.91715 62.976151 
L 208.774858 62.973363 
L 209.632565 62.970575 
L 210.490273 63.021357 
L 211.34798 63.081068 
L 212.205688 63.140778 
L 213.063396 63.189046 
L 213.921103 63.232737 
L 214.778811 63.276428 
L 215.636518 63.303996 
L 216.494226 63.319472 
L 217.351933 63.334948 
L 218.209641 63.348567 
L 219.067348 63.35971 
L 219.925056 63.370854 
L 220.782763 63.382974 
L 221.640471 63.397534 
L 222.498178 63.412095 
L 223.355886 63.426115 
L 224.213593 63.436893 
L 225.071301 63.44767 
L 225.929008 63.458448 
" clip-path="url(#p75f69f342c)" style="fill: none; stroke: #1f77b4; stroke-width: 1.5; stroke-linecap: square"/>
   </g>
   <g id="line2d_16">
    <path d="M 141.015965 49.455293 
L 141.873672 49.455293 
L 142.73138 49.790312 
L 143.589087 50.572025 
L 144.446795 51.353737 
L 145.304502 52.67231 
L 146.16221 55.333035 
L 147.019917 57.993759 
L 147.877625 60.590082 
L 148.735332 62.800002 
L 149.59304 65.009922 
L 150.450747 67.219842 
L 151.308455 67.176304 
L 152.166162 67.132765 
L 153.02387 67.089227 
L 153.881577 63.702099 
L 154.739285 59.757707 
L 155.596992 55.813315 
L 156.4547 54.949349 
L 157.312407 55.317552 
L 158.170115 55.685756 
L 159.027822 57.030536 
L 159.88553 59.107749 
L 160.743237 61.184961 
L 161.600945 62.831124 
L 162.458652 63.902553 
L 163.31636 64.973983 
L 164.174067 65.755722 
L 165.031775 65.813235 
L 165.889482 65.870748 
L 166.74719 65.882466 
L 167.604897 65.619413 
L 168.462605 65.35636 
L 169.320313 65.093307 
L 170.17802 64.616487 
L 171.035728 64.139666 
L 171.893435 63.662845 
L 172.751143 63.38463 
L 173.60885 63.139515 
L 174.466558 62.894401 
L 175.324265 62.873311 
L 176.181973 62.941831 
L 177.03968 63.010351 
L 177.897388 63.178191 
L 178.755095 63.420519 
L 179.612803 63.662847 
L 180.47051 63.901828 
L 181.328218 64.136346 
L 182.185925 64.370865 
L 183.043633 64.554791 
L 183.90134 64.612239 
L 184.759048 64.669687 
L 185.616755 64.718889 
L 186.474463 64.718623 
L 187.33217 64.718356 
L 188.189878 64.71809 
L 189.047585 64.640134 
L 189.905293 64.562179 
L 190.763 64.484223 
L 191.620708 64.435981 
L 192.478415 64.392691 
L 193.336123 64.349402 
L 194.19383 64.315743 
L 195.051538 64.285936 
L 195.909245 64.256129 
L 196.766953 64.238495 
L 197.62466 64.229992 
L 198.482368 64.221488 
L 199.340075 64.2298 
L 200.197783 64.260535 
L 201.05549 64.291269 
L 201.913198 64.321869 
L 202.770905 64.352129 
L 203.628613 64.38239 
L 204.48632 64.408995 
L 205.344028 64.41367 
L 206.201735 64.418344 
L 207.059443 64.423018 
L 207.91715 64.422352 
L 208.774858 64.421686 
L 209.632565 64.42102 
L 210.490273 64.40004 
L 211.34798 64.375673 
L 212.205688 64.351307 
L 213.063396 64.314211 
L 213.921103 64.272024 
L 214.778811 64.229836 
L 215.636518 64.180189 
L 216.494226 64.124947 
L 217.351933 64.069705 
L 218.209641 64.007228 
L 219.067348 63.935105 
L 219.925056 63.862982 
L 220.782763 63.796204 
L 221.640471 63.742788 
L 222.498178 63.689373 
L 223.355886 63.638499 
L 224.213593 63.602872 
L 225.071301 63.567245 
L 225.929008 63.531618 
" clip-path="url(#p75f69f342c)" style="fill: none; stroke: #ff7f0e; stroke-width: 1.5; stroke-linecap: square"/>
   </g>
   <g id="line2d_17">
    <path d="M 141.015965 52.01982 
L 141.873672 52.01982 
L 142.73138 53.766253 
L 143.589087 57.841262 
L 144.446795 61.91627 
L 145.304502 65.141534 
L 146.16221 66.242432 
L 147.019917 67.34333 
L 147.877625 68.417107 
L 148.735332 69.328152 
L 149.59304 70.239198 
L 150.450747 71.150243 
L 151.308455 69.15651 
L 152.166162 67.162776 
L 153.02387 65.169042 
L 153.881577 64.966896 
L 154.739285 65.063347 
L 155.596992 65.159799 
L 156.4547 64.687741 
L 157.312407 63.98828 
L 158.170115 63.288818 
L 159.027822 63.277856 
L 159.88553 63.783267 
L 160.743237 64.288679 
L 161.600945 64.450692 
L 162.458652 64.154843 
L 163.31636 63.858993 
L 164.174067 63.706282 
L 165.031775 63.911419 
L 165.889482 64.116556 
L 166.74719 64.284272 
L 167.604897 64.227468 
L 168.462605 64.170663 
L 169.320313 64.113858 
L 170.17802 64.220621 
L 171.035728 64.327384 
L 171.893435 64.434147 
L 172.751143 64.40231 
L 173.60885 64.347373 
L 174.466558 64.292436 
L 175.324265 64.289439 
L 176.181973 64.307219 
L 177.03968 64.324998 
L 177.897388 64.359371 
L 178.755095 64.406189 
L 179.612803 64.453008 
L 180.47051 64.487193 
L 181.328218 64.504533 
L 182.185925 64.521874 
L 183.043633 64.520982 
L 183.90134 64.474504 
L 184.759048 64.428027 
L 185.616755 64.375702 
L 186.474463 64.288293 
L 187.33217 64.200883 
L 188.189878 64.113474 
L 189.047585 64.031086 
L 189.905293 63.948697 
L 190.763 63.866309 
L 191.620708 63.844767 
L 192.478415 63.833366 
L 193.336123 63.821964 
L 194.19383 63.865252 
L 195.051538 63.930416 
L 195.909245 63.99558 
L 196.766953 64.068188 
L 197.62466 64.14638 
L 198.482368 64.224572 
L 199.340075 64.284809 
L 200.197783 64.321105 
L 201.05549 64.357401 
L 201.913198 64.380611 
L 202.770905 64.371106 
L 203.628613 64.361602 
L 204.48632 64.348329 
L 205.344028 64.312448 
L 206.201735 64.276567 
L 207.059443 64.240685 
L 207.91715 64.209929 
L 208.774858 64.179172 
L 209.632565 64.148416 
L 210.490273 64.139493 
L 211.34798 64.13421 
L 212.205688 64.128927 
L 213.063396 64.146058 
L 213.921103 64.172155 
L 214.778811 64.198251 
L 215.636518 64.215716 
L 216.494226 64.226707 
L 217.351933 64.237698 
L 218.209641 64.247026 
L 219.067348 64.254137 
L 219.925056 64.261248 
L 220.782763 64.265694 
L 221.640471 64.263476 
L 222.498178 64.261257 
L 223.355886 64.257981 
L 224.213593 64.248359 
L 225.071301 64.238737 
L 225.929008 64.229115 
" clip-path="url(#p75f69f342c)" style="fill: none; stroke: #2ca02c; stroke-width: 1.5; stroke-linecap: square"/>
   </g>
   <g id="line2d_18">
    <path d="M 141.015965 75.561022 
L 141.873672 75.561022 
L 142.73138 74.119426 
L 143.589087 70.755702 
L 144.446795 67.391978 
L 145.304502 64.612379 
L 146.16221 63.293093 
L 147.019917 61.973808 
L 147.877625 60.727266 
L 148.735332 59.917189 
L 149.59304 59.107111 
L 150.450747 58.297034 
L 151.308455 58.405333 
L 152.166162 58.513632 
L 153.02387 58.621931 
L 153.881577 60.152816 
L 154.739285 61.9208 
L 155.596992 63.688783 
L 156.4547 64.456359 
L 157.312407 64.823772 
L 158.170115 65.191185 
L 159.027822 65.091399 
L 159.88553 64.641213 
L 160.743237 64.191028 
L 161.600945 63.847914 
L 162.458652 63.647564 
L 163.31636 63.447213 
L 164.174067 63.336837 
L 165.031775 63.451398 
L 165.889482 63.565958 
L 166.74719 63.681614 
L 167.604897 63.803838 
L 168.462605 63.926063 
L 169.320313 64.048287 
L 170.17802 63.945934 
L 171.035728 63.84358 
L 171.893435 63.741227 
L 172.751143 63.690597 
L 173.60885 63.648589 
L 174.466558 63.60658 
L 175.324265 63.608874 
L 176.181973 63.628888 
L 177.03968 63.648902 
L 177.897388 63.710411 
L 178.755095 63.80304 
L 179.612803 63.895669 
L 180.47051 63.984047 
L 181.328218 64.066756 
L 182.185925 64.149466 
L 183.043633 64.211453 
L 183.90134 64.221637 
L 184.759048 64.23182 
L 185.616755 64.236381 
L 186.474463 64.207213 
L 187.33217 64.178044 
L 188.189878 64.148876 
L 189.047585 64.100015 
L 189.905293 64.051154 
L 190.763 64.002293 
L 191.620708 63.961399 
L 192.478415 63.921832 
L 193.336123 63.882265 
L 194.19383 63.865219 
L 195.051538 63.857181 
L 195.909245 63.849143 
L 196.766953 63.849959 
L 197.62466 63.857417 
L 198.482368 63.864874 
L 199.340075 63.866077 
L 200.197783 63.85894 
L 201.05549 63.851803 
L 201.913198 63.843961 
L 202.770905 63.834359 
L 203.628613 63.824757 
L 204.48632 63.815037 
L 205.344028 63.804607 
L 206.201735 63.794177 
L 207.059443 63.783747 
L 207.91715 63.811531 
L 208.774858 63.839315 
L 209.632565 63.867099 
L 210.490273 63.912342 
L 211.34798 63.960495 
L 212.205688 64.008648 
L 213.063396 64.049972 
L 213.921103 64.088564 
L 214.778811 64.127156 
L 215.636518 64.147264 
L 216.494226 64.153511 
L 217.351933 64.159757 
L 218.209641 64.145739 
L 219.067348 64.104702 
L 219.925056 64.063666 
L 220.782763 64.023302 
L 221.640471 63.98462 
L 222.498178 63.945937 
L 223.355886 63.908494 
L 224.213593 63.878483 
L 225.071301 63.848472 
L 225.929008 63.818461 
" clip-path="url(#p75f69f342c)" style="fill: none; stroke: #d62728; stroke-width: 1.5; stroke-linecap: square"/>
   </g>
   <g id="patch_8">
    <path d="M 141.015965 105.478125 
L 141.015965 22.318125 
" style="fill: none; stroke: #000000; stroke-width: 0.8; stroke-linejoin: miter; stroke-linecap: square"/>
   </g>
   <g id="patch_9">
    <path d="M 225.929008 105.478125 
L 225.929008 22.318125 
" style="fill: none; stroke: #000000; stroke-width: 0.8; stroke-linejoin: miter; stroke-linecap: square"/>
   </g>
   <g id="patch_10">
    <path d="M 141.015965 105.478125 
L 225.929008 105.478125 
" style="fill: none; stroke: #000000; stroke-width: 0.8; stroke-linejoin: miter; stroke-linecap: square"/>
   </g>
   <g id="patch_11">
    <path d="M 141.015965 22.318125 
L 225.929008 22.318125 
" style="fill: none; stroke: #000000; stroke-width: 0.8; stroke-linejoin: miter; stroke-linecap: square"/>
   </g>
   <g id="text_12">
    <!-- $\kappa^{AB}$ -->
    <g transform="translate(173.692486 16.318125)scale(0.12 -0.12)">
     <defs>
      <path id="DejaVuSans-Oblique-42" d="M 1081 4666 
L 2694 4666 
Q 3350 4666 3675 4422 
Q 4000 4178 4000 3688 
Q 4000 3238 3720 2911 
Q 3441 2584 2988 2516 
Q 3375 2428 3569 2181 
Q 3763 1934 3763 1522 
Q 3763 819 3242 409 
Q 2722 0 1819 0 
L 172 0 
L 1081 4666 
z
M 1234 2228 
L 903 519 
L 1919 519 
Q 2491 519 2800 781 
Q 3109 1044 3109 1522 
Q 3109 1891 2904 2059 
Q 2700 2228 2247 2228 
L 1234 2228 
z
M 1606 4147 
L 1331 2741 
L 2272 2741 
Q 2775 2741 3058 2959 
Q 3341 3178 3341 3566 
Q 3341 3869 3150 4008 
Q 2959 4147 2541 4147 
L 1606 4147 
z
" transform="scale(0.015625)"/>
     </defs>
     <use xlink:href="#DejaVuSans-Oblique-3ba" transform="translate(0 0.684375)"/>
     <use xlink:href="#DejaVuSans-Oblique-41" transform="translate(63.401693 38.965625)scale(0.7)"/>
     <use xlink:href="#DejaVuSans-Oblique-42" transform="translate(111.287435 38.965625)scale(0.7)"/>
    </g>
   </g>
  </g>
  <g id="axes_3">
   <g id="patch_12">
    <path d="M 242.911617 105.478125 
L 327.82466 105.478125 
L 327.82466 22.318125 
L 242.911617 22.318125 
z
" style="fill: #ffffff"/>
   </g>
   <g id="matplotlib.axis_5">
    <g id="xtick_5">
     <g id="line2d_19">
      <g>
       <use xlink:href="#m99132c570e" x="242.911617" y="105.478125" style="stroke: #000000; stroke-width: 0.8"/>
      </g>
     </g>
     <g id="text_13">
      <!-- 0.0 -->
      <g transform="translate(234.960054 116.576563)scale(0.1 -0.1)">
       <use xlink:href="#DejaVuSans-30"/>
       <use xlink:href="#DejaVuSans-2e" x="63.623047"/>
       <use xlink:href="#DejaVuSans-30" x="95.410156"/>
      </g>
     </g>
    </g>
    <g id="xtick_6">
     <g id="line2d_20">
      <g>
       <use xlink:href="#m99132c570e" x="327.82466" y="105.478125" style="stroke: #000000; stroke-width: 0.8"/>
      </g>
     </g>
     <g id="text_14">
      <!-- 0.5 -->
      <g transform="translate(319.873098 116.576563)scale(0.1 -0.1)">
       <use xlink:href="#DejaVuSans-30"/>
       <use xlink:href="#DejaVuSans-2e" x="63.623047"/>
       <use xlink:href="#DejaVuSans-35" x="95.410156"/>
      </g>
     </g>
    </g>
    <g id="text_15">
     <!-- $x$ -->
     <g transform="translate(282.368139 130.254688)scale(0.1 -0.1)">
      <use xlink:href="#DejaVuSans-Oblique-78" transform="translate(0 0.3125)"/>
     </g>
    </g>
   </g>
   <g id="matplotlib.axis_6">
    <g id="ytick_7">
     <g id="line2d_21">
      <g>
       <use xlink:href="#ma4f7697a64" x="242.911617" y="98.548125" style="stroke: #000000; stroke-width: 0.8"/>
      </g>
     </g>
    </g>
    <g id="ytick_8">
     <g id="line2d_22">
      <g>
       <use xlink:href="#ma4f7697a64" x="242.911617" y="63.898125" style="stroke: #000000; stroke-width: 0.8"/>
      </g>
     </g>
    </g>
    <g id="ytick_9">
     <g id="line2d_23">
      <g>
       <use xlink:href="#ma4f7697a64" x="242.911617" y="29.248125" style="stroke: #000000; stroke-width: 0.8"/>
      </g>
     </g>
    </g>
   </g>
   <g id="line2d_24">
    <path d="M 242.911617 84.599917 
L 243.769324 84.599917 
L 244.627032 81.030035 
L 245.484739 72.700312 
L 246.342447 64.370588 
L 247.200154 57.943171 
L 248.057862 56.271515 
L 248.915569 54.59986 
L 249.773277 53.547171 
L 250.630984 56.208285 
L 251.488692 58.869398 
L 252.346399 61.530511 
L 253.204107 63.509669 
L 254.061814 65.488827 
L 254.919522 67.467985 
L 255.777229 68.51251 
L 256.634937 69.401262 
L 257.492645 70.290015 
L 258.350352 69.55796 
L 259.20806 68.177583 
L 260.065767 66.797205 
L 260.923475 66.009592 
L 261.781182 65.666552 
L 262.63889 65.323512 
L 263.496597 64.765437 
L 264.354305 63.920648 
L 265.212012 63.07586 
L 266.06972 62.353209 
L 266.927427 61.935903 
L 267.785135 61.518597 
L 268.642842 61.207186 
L 269.50055 61.531141 
L 270.358257 61.855095 
L 271.215965 62.17905 
L 272.073672 62.405258 
L 272.93138 62.631467 
L 273.789087 62.857675 
L 274.646795 63.165537 
L 275.504502 63.487008 
L 276.36221 63.808478 
L 277.219917 64.028248 
L 278.077625 64.207336 
L 278.935332 64.386425 
L 279.79304 64.400896 
L 280.650747 64.291902 
L 281.508455 64.182909 
L 282.366162 64.06794 
L 283.22387 63.945002 
L 284.081577 63.822064 
L 284.939285 63.696179 
L 285.796992 63.56293 
L 286.6547 63.42968 
L 287.512407 63.295879 
L 288.370115 63.15877 
L 289.227822 63.021661 
L 290.08553 62.884551 
L 290.943237 62.941261 
L 291.800945 62.99797 
L 292.658652 63.054679 
L 293.51636 63.140716 
L 294.374067 63.231642 
L 295.231775 63.322567 
L 296.089482 63.427561 
L 296.94719 63.538183 
L 297.804897 63.648804 
L 298.662605 63.73944 
L 299.520313 63.815087 
L 300.37802 63.890733 
L 301.235728 63.931126 
L 302.093435 63.924516 
L 302.951143 63.917905 
L 303.80885 63.905016 
L 304.666558 63.876432 
L 305.524265 63.847848 
L 306.381973 63.813455 
L 307.23968 63.744206 
L 308.097388 63.674956 
L 308.955095 63.605707 
L 309.812803 63.612819 
L 310.67051 63.61993 
L 311.528218 63.627042 
L 312.385925 63.661436 
L 313.243633 63.700376 
L 314.10134 63.739317 
L 314.959048 63.765837 
L 315.816755 63.787388 
L 316.674463 63.808939 
L 317.53217 63.83867 
L 318.389878 63.874537 
L 319.247585 63.910403 
L 320.105293 63.924477 
L 320.963 63.909494 
L 321.820708 63.894511 
L 322.678415 63.876896 
L 323.536123 63.852698 
L 324.39383 63.828501 
L 325.251538 63.807421 
L 326.109245 63.805042 
L 326.966953 63.802663 
L 327.82466 63.800283 
" clip-path="url(#p41cfea0e98)" style="fill: none; stroke: #1f77b4; stroke-width: 1.5; stroke-linecap: square"/>
   </g>
   <g id="line2d_25">
    <path d="M 242.911617 51.993195 
L 243.769324 51.993195 
L 244.627032 52.790777 
L 245.484739 54.651801 
L 246.342447 56.512825 
L 247.200154 58.727454 
L 248.057862 61.826093 
L 248.915569 64.924732 
L 249.773277 67.641246 
L 250.630984 68.065006 
L 251.488692 68.488767 
L 252.346399 68.912527 
L 253.204107 66.112787 
L 254.061814 63.313048 
L 254.919522 60.513308 
L 255.777229 59.117735 
L 256.634937 57.956189 
L 257.492645 56.794643 
L 258.350352 57.076416 
L 259.20806 57.935515 
L 260.065767 58.794614 
L 260.923475 59.863601 
L 261.781182 61.090004 
L 262.63889 62.316407 
L 263.496597 63.414068 
L 264.354305 64.340073 
L 265.212012 65.266077 
L 266.06972 65.998569 
L 266.927427 66.247276 
L 267.785135 66.495984 
L 268.642842 66.668683 
L 269.50055 66.385331 
L 270.358257 66.101979 
L 271.215965 65.818627 
L 272.073672 65.367214 
L 272.93138 64.9158 
L 273.789087 64.464387 
L 274.646795 64.108899 
L 275.504502 63.769398 
L 276.36221 63.429897 
L 277.219917 63.308875 
L 278.077625 63.275245 
L 278.935332 63.241615 
L 279.79304 63.332917 
L 280.650747 63.517918 
L 281.508455 63.702919 
L 282.366162 63.900138 
L 283.22387 64.11365 
L 284.081577 64.327161 
L 284.939285 64.52344 
L 285.796992 64.676636 
L 286.6547 64.829833 
L 287.512407 64.9594 
L 288.370115 64.947186 
L 289.227822 64.934972 
L 290.08553 64.922758 
L 290.943237 64.827393 
L 291.800945 64.732027 
L 292.658652 64.636662 
L 293.51636 64.514899 
L 294.374067 64.388737 
L 295.231775 64.262575 
L 296.089482 64.15773 
L 296.94719 64.061411 
L 297.804897 63.965093 
L 298.662605 63.925261 
L 299.520313 63.927794 
L 300.37802 63.930326 
L 301.235728 63.957425 
L 302.093435 64.017279 
L 302.951143 64.077132 
L 303.80885 64.133259 
L 304.666558 64.18007 
L 305.524265 64.22688 
L 306.381973 64.268804 
L 307.23968 64.281405 
L 308.097388 64.294007 
L 308.955095 64.306609 
L 309.812803 64.290032 
L 310.67051 64.273455 
L 311.528218 64.256878 
L 312.385925 64.220605 
L 313.243633 64.181049 
L 314.10134 64.141493 
L 314.959048 64.103025 
L 315.816755 64.064993 
L 316.674463 64.02696 
L 317.53217 63.996884 
L 318.389878 63.972774 
L 319.247585 63.948665 
L 320.105293 63.93082 
L 320.963 63.921327 
L 321.820708 63.911835 
L 322.678415 63.904378 
L 323.536123 63.902008 
L 324.39383 63.899639 
L 325.251538 63.898096 
L 326.109245 63.901514 
L 326.966953 63.904932 
L 327.82466 63.908351 
" clip-path="url(#p41cfea0e98)" style="fill: none; stroke: #ff7f0e; stroke-width: 1.5; stroke-linecap: square"/>
   </g>
   <g id="line2d_26">
    <path d="M 242.911617 69.900967 
L 243.769324 69.900967 
L 244.627032 69.725893 
L 245.484739 69.317387 
L 246.342447 68.908882 
L 247.200154 68.02048 
L 248.057862 65.932339 
L 248.915569 63.844198 
L 249.773277 61.974883 
L 250.630984 61.418524 
L 251.488692 60.862165 
L 252.346399 60.305806 
L 253.204107 61.285507 
L 254.061814 62.265208 
L 254.919522 63.244908 
L 255.777229 63.127288 
L 256.634937 62.82678 
L 257.492645 62.526273 
L 258.350352 62.733432 
L 259.20806 63.143658 
L 260.065767 63.553883 
L 260.923475 63.853712 
L 261.781182 64.070744 
L 262.63889 64.287775 
L 263.496597 64.475478 
L 264.354305 64.624075 
L 265.212012 64.772673 
L 266.06972 64.82585 
L 266.927427 64.640476 
L 267.785135 64.455101 
L 268.642842 64.285163 
L 269.50055 64.207847 
L 270.358257 64.13053 
L 271.215965 64.053213 
L 272.073672 64.126031 
L 272.93138 64.198849 
L 273.789087 64.271667 
L 274.646795 64.329058 
L 275.504502 64.383877 
L 276.36221 64.438696 
L 277.219917 64.469523 
L 278.077625 64.490754 
L 278.935332 64.511984 
L 279.79304 64.512259 
L 280.650747 64.496817 
L 281.508455 64.481375 
L 282.366162 64.462213 
L 283.22387 64.438092 
L 284.081577 64.41397 
L 284.939285 64.403827 
L 285.796992 64.428632 
L 286.6547 64.453437 
L 287.512407 64.475504 
L 288.370115 64.481147 
L 289.227822 64.48679 
L 290.08553 64.492433 
L 290.943237 64.492402 
L 291.800945 64.492371 
L 292.658652 64.492339 
L 293.51636 64.509707 
L 294.374067 64.529974 
L 295.231775 64.550241 
L 296.089482 64.533909 
L 296.94719 64.502939 
L 297.804897 64.471968 
L 298.662605 64.451397 
L 299.520313 64.438625 
L 300.37802 64.425853 
L 301.235728 64.430776 
L 302.093435 64.459291 
L 302.951143 64.487806 
L 303.80885 64.508492 
L 304.666558 64.509606 
L 305.524265 64.510721 
L 306.381973 64.506986 
L 307.23968 64.474154 
L 308.097388 64.441323 
L 308.955095 64.408491 
L 309.812803 64.383075 
L 310.67051 64.357658 
L 311.528218 64.332241 
L 312.385925 64.300766 
L 313.243633 64.268281 
L 314.10134 64.235795 
L 314.959048 64.219131 
L 315.816755 64.208794 
L 316.674463 64.198457 
L 317.53217 64.212267 
L 318.389878 64.244186 
L 319.247585 64.276105 
L 320.105293 64.313079 
L 320.963 64.356792 
L 321.820708 64.400506 
L 322.678415 64.442437 
L 323.536123 64.479912 
L 324.39383 64.517388 
L 325.251538 64.553018 
L 326.109245 64.577578 
L 326.966953 64.602137 
L 327.82466 64.626697 
" clip-path="url(#p41cfea0e98)" style="fill: none; stroke: #2ca02c; stroke-width: 1.5; stroke-linecap: square"/>
   </g>
   <g id="line2d_27">
    <path d="M 242.911617 57.781272 
L 243.769324 57.781272 
L 244.627032 58.308281 
L 245.484739 59.537969 
L 246.342447 60.767656 
L 247.200154 61.928423 
L 248.057862 62.916887 
L 248.915569 63.905351 
L 249.773277 64.86644 
L 250.630984 65.663279 
L 251.488692 66.460119 
L 252.346399 67.256958 
L 253.204107 67.503941 
L 254.061814 67.750924 
L 254.919522 67.997907 
L 255.777229 67.210191 
L 256.634937 66.250024 
L 257.492645 65.289857 
L 258.350352 64.907281 
L 259.20806 64.755742 
L 260.065767 64.604202 
L 260.923475 64.292906 
L 261.781182 63.861794 
L 262.63889 63.430682 
L 263.496597 63.21337 
L 264.354305 63.281125 
L 265.212012 63.34888 
L 266.06972 63.423669 
L 266.927427 63.516045 
L 267.785135 63.608421 
L 268.642842 63.709878 
L 269.50055 63.865817 
L 270.358257 64.021756 
L 271.215965 64.177695 
L 272.073672 64.163816 
L 272.93138 64.149937 
L 273.789087 64.136058 
L 274.646795 64.1386 
L 275.504502 64.143878 
L 276.36221 64.149156 
L 277.219917 64.126071 
L 278.077625 64.091641 
L 278.935332 64.05721 
L 279.79304 64.006312 
L 280.650747 63.943063 
L 281.508455 63.879814 
L 282.366162 63.841903 
L 283.22387 63.837775 
L 284.081577 63.833648 
L 284.939285 63.827311 
L 285.796992 63.81545 
L 286.6547 63.803589 
L 287.512407 63.797831 
L 288.370115 63.828683 
L 289.227822 63.859535 
L 290.08553 63.890387 
L 290.943237 63.939661 
L 291.800945 63.988934 
L 292.658652 64.038208 
L 293.51636 64.040476 
L 294.374067 64.03491 
L 295.231775 64.029344 
L 296.089482 64.031748 
L 296.94719 64.037339 
L 297.804897 64.04293 
L 298.662605 64.040503 
L 299.520313 64.032063 
L 300.37802 64.023623 
L 301.235728 64.007273 
L 302.093435 63.980377 
L 302.951143 63.953481 
L 303.80885 63.937251 
L 304.666558 63.947687 
L 305.524265 63.958124 
L 306.381973 63.96568 
L 307.23968 63.955954 
L 308.097388 63.946227 
L 308.955095 63.936501 
L 309.812803 63.926605 
L 310.67051 63.916709 
L 311.528218 63.906814 
L 312.385925 63.900917 
L 313.243633 63.895687 
L 314.10134 63.890457 
L 314.959048 63.884702 
L 315.816755 63.878735 
L 316.674463 63.872769 
L 317.53217 63.881256 
L 318.389878 63.900582 
L 319.247585 63.919908 
L 320.105293 63.939786 
L 320.963 63.960399 
L 321.820708 63.981012 
L 322.678415 64.003653 
L 323.536123 64.031363 
L 324.39383 64.059074 
L 325.251538 64.084478 
L 326.109245 64.096039 
L 326.966953 64.1076 
L 327.82466 64.119161 
" clip-path="url(#p41cfea0e98)" style="fill: none; stroke: #d62728; stroke-width: 1.5; stroke-linecap: square"/>
   </g>
   <g id="patch_13">
    <path d="M 242.911617 105.478125 
L 242.911617 22.318125 
" style="fill: none; stroke: #000000; stroke-width: 0.8; stroke-linejoin: miter; stroke-linecap: square"/>
   </g>
   <g id="patch_14">
    <path d="M 327.82466 105.478125 
L 327.82466 22.318125 
" style="fill: none; stroke: #000000; stroke-width: 0.8; stroke-linejoin: miter; stroke-linecap: square"/>
   </g>
   <g id="patch_15">
    <path d="M 242.911617 105.478125 
L 327.82466 105.478125 
" style="fill: none; stroke: #000000; stroke-width: 0.8; stroke-linejoin: miter; stroke-linecap: square"/>
   </g>
   <g id="patch_16">
    <path d="M 242.911617 22.318125 
L 327.82466 22.318125 
" style="fill: none; stroke: #000000; stroke-width: 0.8; stroke-linejoin: miter; stroke-linecap: square"/>
   </g>
   <g id="text_16">
    <!-- $\kappa^{BA}$ -->
    <g transform="translate(275.588139 16.318125)scale(0.12 -0.12)">
     <use xlink:href="#DejaVuSans-Oblique-3ba" transform="translate(0 0.684375)"/>
     <use xlink:href="#DejaVuSans-Oblique-42" transform="translate(63.401693 38.965625)scale(0.7)"/>
     <use xlink:href="#DejaVuSans-Oblique-41" transform="translate(111.424154 38.965625)scale(0.7)"/>
    </g>
   </g>
  </g>
  <g id="axes_4">
   <g id="patch_17">
    <path d="M 344.807269 105.478125 
L 429.720313 105.478125 
L 429.720313 22.318125 
L 344.807269 22.318125 
z
" style="fill: #ffffff"/>
   </g>
   <g id="matplotlib.axis_7">
    <g id="xtick_7">
     <g id="line2d_28">
      <g>
       <use xlink:href="#m99132c570e" x="344.807269" y="105.478125" style="stroke: #000000; stroke-width: 0.8"/>
      </g>
     </g>
     <g id="text_17">
      <!-- 0.0 -->
      <g transform="translate(336.855707 116.576563)scale(0.1 -0.1)">
       <use xlink:href="#DejaVuSans-30"/>
       <use xlink:href="#DejaVuSans-2e" x="63.623047"/>
       <use xlink:href="#DejaVuSans-30" x="95.410156"/>
      </g>
     </g>
    </g>
    <g id="xtick_8">
     <g id="line2d_29">
      <g>
       <use xlink:href="#m99132c570e" x="429.720313" y="105.478125" style="stroke: #000000; stroke-width: 0.8"/>
      </g>
     </g>
     <g id="text_18">
      <!-- 0.5 -->
      <g transform="translate(421.76875 116.576563)scale(0.1 -0.1)">
       <use xlink:href="#DejaVuSans-30"/>
       <use xlink:href="#DejaVuSans-2e" x="63.623047"/>
       <use xlink:href="#DejaVuSans-35" x="95.410156"/>
      </g>
     </g>
    </g>
    <g id="text_19">
     <!-- $x$ -->
     <g transform="translate(384.263791 130.254688)scale(0.1 -0.1)">
      <use xlink:href="#DejaVuSans-Oblique-78" transform="translate(0 0.3125)"/>
     </g>
    </g>
   </g>
   <g id="matplotlib.axis_8">
    <g id="ytick_10">
     <g id="line2d_30">
      <g>
       <use xlink:href="#ma4f7697a64" x="344.807269" y="98.548125" style="stroke: #000000; stroke-width: 0.8"/>
      </g>
     </g>
    </g>
    <g id="ytick_11">
     <g id="line2d_31">
      <g>
       <use xlink:href="#ma4f7697a64" x="344.807269" y="63.898125" style="stroke: #000000; stroke-width: 0.8"/>
      </g>
     </g>
    </g>
    <g id="ytick_12">
     <g id="line2d_32">
      <g>
       <use xlink:href="#ma4f7697a64" x="344.807269" y="29.248125" style="stroke: #000000; stroke-width: 0.8"/>
      </g>
     </g>
    </g>
   </g>
   <g id="line2d_33">
    <path d="M 344.807269 56.818513 
L 345.664977 56.818513 
L 346.522684 53.657087 
L 347.380392 46.280424 
L 348.238099 38.903762 
L 349.095807 34.239612 
L 349.953514 36.356746 
L 350.811222 38.473881 
L 351.668929 41.425005 
L 352.526637 49.380068 
L 353.384344 57.335132 
L 354.242052 65.290196 
L 355.099759 71.412441 
L 355.957467 77.534687 
L 356.815174 83.656932 
L 357.672882 84.665272 
L 358.530589 84.821295 
L 359.388297 84.977317 
L 360.246004 82.807332 
L 361.103712 79.706944 
L 361.961419 76.606555 
L 362.819127 73.181269 
L 363.676834 69.512308 
L 364.534542 65.843347 
L 365.392249 63.388492 
L 366.249957 62.552445 
L 367.107664 61.716398 
L 367.965372 61.309746 
L 368.823079 61.976582 
L 369.680787 62.643419 
L 370.538494 63.323511 
L 371.396202 64.083141 
L 372.253909 64.842771 
L 373.111617 65.602401 
L 373.969324 65.733528 
L 374.827032 65.864655 
L 375.684739 65.995781 
L 376.542447 66.066858 
L 377.400154 66.127927 
L 378.257862 66.188995 
L 379.115569 66.20875 
L 379.973277 66.21198 
L 380.830984 66.21521 
L 381.688692 66.105572 
L 382.546399 65.911283 
L 383.404107 65.716994 
L 384.261814 65.520444 
L 385.119522 65.320878 
L 385.977229 65.121311 
L 386.834937 64.920878 
L 387.692645 64.718275 
L 388.550352 64.515671 
L 389.40806 64.319546 
L 390.265767 64.162289 
L 391.123475 64.005032 
L 391.981182 63.847775 
L 392.83889 63.819043 
L 393.696597 63.790311 
L 394.554305 63.761579 
L 395.412012 63.806922 
L 396.26972 63.864611 
L 397.127427 63.9223 
L 397.985135 63.994109 
L 398.842842 64.071566 
L 399.70055 64.149023 
L 400.558257 64.23423 
L 401.415965 64.325249 
L 402.273672 64.416268 
L 403.13138 64.472464 
L 403.989087 64.482229 
L 404.846795 64.491994 
L 405.704502 64.489054 
L 406.56221 64.45435 
L 407.419917 64.419647 
L 408.277625 64.380939 
L 409.135332 64.318204 
L 409.99304 64.255469 
L 410.850747 64.192734 
L 411.708455 64.173279 
L 412.566162 64.153823 
L 413.42387 64.134367 
L 414.281577 64.15852 
L 415.139285 64.18994 
L 415.996992 64.22136 
L 416.8547 64.245346 
L 417.712407 64.266358 
L 418.570115 64.28737 
L 419.427822 64.292585 
L 420.28553 64.285952 
L 421.143237 64.27932 
L 422.000945 64.255637 
L 422.858652 64.209222 
L 423.71636 64.162806 
L 424.574067 64.119146 
L 425.431775 64.082375 
L 426.289482 64.045605 
L 427.14719 64.012034 
L 428.004897 63.99766 
L 428.862605 63.983287 
L 429.720313 63.968914 
" clip-path="url(#p68346efcd4)" style="fill: none; stroke: #1f77b4; stroke-width: 1.5; stroke-linecap: square"/>
   </g>
   <g id="line2d_34">
    <path d="M 344.807269 45.584304 
L 345.664977 45.584304 
L 346.522684 43.747949 
L 347.380392 39.463118 
L 348.238099 35.178288 
L 349.095807 33.822406 
L 349.953514 39.788891 
L 350.811222 45.755376 
L 351.668929 51.722846 
L 352.526637 57.696221 
L 353.384344 63.669597 
L 354.242052 69.642972 
L 355.099759 73.612694 
L 355.957467 77.582416 
L 356.815174 81.552137 
L 357.672882 81.107009 
L 358.530589 79.926072 
L 359.388297 78.745136 
L 360.246004 77.24854 
L 361.103712 75.625682 
L 361.961419 74.002823 
L 362.819127 72.40881 
L 363.676834 70.83643 
L 364.534542 69.264051 
L 365.392249 67.613081 
L 366.249957 65.857321 
L 367.107664 64.101561 
L 367.965372 62.75558 
L 368.823079 62.434045 
L 369.680787 62.11251 
L 370.538494 61.936638 
L 371.396202 62.634746 
L 372.253909 63.332854 
L 373.111617 64.030962 
L 373.969324 64.724569 
L 374.827032 65.418177 
L 375.684739 66.111784 
L 376.542447 66.392154 
L 377.400154 66.60365 
L 378.257862 66.815146 
L 379.115569 66.763768 
L 379.973277 66.607239 
L 380.830984 66.450711 
L 381.688692 66.195447 
L 382.546399 65.866131 
L 383.404107 65.536815 
L 384.261814 65.203968 
L 385.119522 64.866414 
L 385.977229 64.528861 
L 386.834937 64.239483 
L 387.692645 64.070544 
L 388.550352 63.901605 
L 389.40806 63.755512 
L 390.265767 63.746494 
L 391.123475 63.737476 
L 391.981182 63.728458 
L 392.83889 63.828994 
L 393.696597 63.929531 
L 394.554305 64.030068 
L 395.412012 64.101195 
L 396.26972 64.167421 
L 397.127427 64.233647 
L 397.985135 64.270679 
L 398.842842 64.296033 
L 399.70055 64.321388 
L 400.558257 64.322236 
L 401.415965 64.304704 
L 402.273672 64.287172 
L 403.13138 64.245246 
L 403.989087 64.170794 
L 404.846795 64.096343 
L 405.704502 64.020839 
L 406.56221 63.942706 
L 407.419917 63.864572 
L 408.277625 63.787819 
L 409.135332 63.719347 
L 409.99304 63.650876 
L 410.850747 63.582404 
L 411.708455 63.571166 
L 412.566162 63.559929 
L 413.42387 63.548691 
L 414.281577 63.576641 
L 415.139285 63.611123 
L 415.996992 63.645604 
L 416.8547 63.690513 
L 417.712407 63.739593 
L 418.570115 63.788673 
L 419.427822 63.834324 
L 420.28553 63.877403 
L 421.143237 63.920482 
L 422.000945 63.957313 
L 422.858652 63.985813 
L 423.71636 64.014312 
L 424.574067 64.038058 
L 425.431775 64.049918 
L 426.289482 64.061778 
L 427.14719 64.073106 
L 428.004897 64.08124 
L 428.862605 64.089375 
L 429.720313 64.097509 
" clip-path="url(#p68346efcd4)" style="fill: none; stroke: #ff7f0e; stroke-width: 1.5; stroke-linecap: square"/>
   </g>
   <g id="line2d_35">
    <path d="M 344.807269 48.772594 
L 345.664977 48.772594 
L 346.522684 47.071166 
L 347.380392 43.101166 
L 348.238099 39.131166 
L 349.095807 37.862485 
L 349.953514 43.3471 
L 350.811222 48.831714 
L 351.668929 53.973059 
L 352.526637 57.054784 
L 353.384344 60.13651 
L 354.242052 63.218235 
L 355.099759 64.871284 
L 355.957467 66.524333 
L 356.815174 68.177382 
L 357.672882 68.944245 
L 358.530589 69.56341 
L 359.388297 70.182576 
L 360.246004 69.933712 
L 361.103712 69.337637 
L 361.961419 68.741562 
L 362.819127 68.19238 
L 363.676834 67.678367 
L 364.534542 67.164353 
L 365.392249 66.875944 
L 366.249957 66.888339 
L 367.107664 66.900734 
L 367.965372 66.903543 
L 368.823079 66.882384 
L 369.680787 66.861226 
L 370.538494 66.86275 
L 371.396202 67.000368 
L 372.253909 67.137987 
L 373.111617 67.275605 
L 373.969324 67.196772 
L 374.827032 67.117939 
L 375.684739 67.039106 
L 376.542447 66.964329 
L 377.400154 66.890229 
L 378.257862 66.816129 
L 379.115569 66.753205 
L 379.973277 66.694751 
L 380.830984 66.636297 
L 381.688692 66.616077 
L 382.546399 66.624534 
L 383.404107 66.63299 
L 384.261814 66.64482 
L 385.119522 66.66115 
L 385.977229 66.677479 
L 386.834937 66.701885 
L 387.692645 66.746482 
L 388.550352 66.791079 
L 389.40806 66.834212 
L 390.265767 66.868561 
L 391.123475 66.90291 
L 391.981182 66.93726 
L 392.83889 66.945338 
L 393.696597 66.953415 
L 394.554305 66.961493 
L 395.412012 66.961159 
L 396.26972 66.959423 
L 397.127427 66.957687 
L 397.985135 66.953971 
L 398.842842 66.949462 
L 399.70055 66.944954 
L 400.558257 66.928718 
L 401.415965 66.903688 
L 402.273672 66.878658 
L 403.13138 66.862933 
L 403.989087 66.859617 
L 404.846795 66.8563 
L 405.704502 66.850556 
L 406.56221 66.838741 
L 407.419917 66.826927 
L 408.277625 66.818607 
L 409.135332 66.831254 
L 409.99304 66.843901 
L 410.850747 66.856549 
L 411.708455 66.876278 
L 412.566162 66.896007 
L 413.42387 66.915736 
L 414.281577 66.908439 
L 415.139285 66.896639 
L 415.996992 66.884838 
L 416.8547 66.88323 
L 417.712407 66.885698 
L 418.570115 66.888166 
L 419.427822 66.880012 
L 420.28553 66.863892 
L 421.143237 66.847773 
L 422.000945 66.840222 
L 422.858652 66.844095 
L 423.71636 66.847969 
L 424.574067 66.860443 
L 425.431775 66.894417 
L 426.289482 66.92839 
L 427.14719 66.95962 
L 428.004897 66.974387 
L 428.862605 66.989153 
L 429.720313 67.00392 
" clip-path="url(#p68346efcd4)" style="fill: none; stroke: #2ca02c; stroke-width: 1.5; stroke-linecap: square"/>
   </g>
   <g id="line2d_36">
    <path d="M 344.807269 51.194837 
L 345.664977 51.194837 
L 346.522684 49.001477 
L 347.380392 43.883639 
L 348.238099 38.7658 
L 349.095807 36.284029 
L 349.953514 40.392428 
L 350.811222 44.500827 
L 351.668929 48.713776 
L 352.526637 53.554028 
L 353.384344 58.39428 
L 354.242052 63.234532 
L 355.099759 65.341396 
L 355.957467 67.448259 
L 356.815174 69.555123 
L 357.672882 70.064718 
L 358.530589 70.308101 
L 359.388297 70.551485 
L 360.246004 70.247244 
L 361.103712 69.723953 
L 361.961419 69.200662 
L 362.819127 68.60543 
L 363.676834 67.95624 
L 364.534542 67.307051 
L 365.392249 66.719285 
L 366.249957 66.213417 
L 367.107664 65.707548 
L 367.965372 65.384466 
L 368.823079 65.518347 
L 369.680787 65.652229 
L 370.538494 65.784682 
L 371.396202 65.908564 
L 372.253909 66.032447 
L 373.111617 66.156329 
L 373.969324 66.330906 
L 374.827032 66.505483 
L 375.684739 66.680059 
L 376.542447 66.737569 
L 377.400154 66.775567 
L 378.257862 66.813565 
L 379.115569 66.782035 
L 379.973277 66.722692 
L 380.830984 66.66335 
L 381.688692 66.596779 
L 382.546399 66.524788 
L 383.404107 66.452797 
L 384.261814 66.411022 
L 385.119522 66.409537 
L 385.977229 66.408052 
L 386.834937 66.431675 
L 387.692645 66.518071 
L 388.550352 66.604466 
L 389.40806 66.685795 
L 390.265767 66.736722 
L 391.123475 66.787649 
L 391.981182 66.838576 
L 392.83889 66.808207 
L 393.696597 66.777838 
L 394.554305 66.747469 
L 395.412012 66.657307 
L 396.26972 66.557179 
L 397.127427 66.45705 
L 397.985135 66.370956 
L 398.842842 66.290476 
L 399.70055 66.209996 
L 400.558257 66.176397 
L 401.415965 66.17796 
L 402.273672 66.179523 
L 403.13138 66.202486 
L 403.989087 66.253983 
L 404.846795 66.30548 
L 405.704502 66.364287 
L 406.56221 66.441365 
L 407.419917 66.518444 
L 408.277625 66.589858 
L 409.135332 66.627285 
L 409.99304 66.664712 
L 410.850747 66.702139 
L 411.708455 66.70404 
L 412.566162 66.705942 
L 413.42387 66.707843 
L 414.281577 66.689333 
L 415.139285 66.667421 
L 415.996992 66.645509 
L 416.8547 66.622217 
L 417.712407 66.598373 
L 418.570115 66.574528 
L 419.427822 66.556314 
L 420.28553 66.542323 
L 421.143237 66.528331 
L 422.000945 66.517357 
L 422.858652 66.510404 
L 423.71636 66.503451 
L 424.574067 66.501536 
L 425.431775 66.512215 
L 426.289482 66.522894 
L 427.14719 66.532896 
L 428.004897 66.538838 
L 428.862605 66.544779 
L 429.720313 66.550721 
" clip-path="url(#p68346efcd4)" style="fill: none; stroke: #d62728; stroke-width: 1.5; stroke-linecap: square"/>
   </g>
   <g id="patch_18">
    <path d="M 344.807269 105.478125 
L 344.807269 22.318125 
" style="fill: none; stroke: #000000; stroke-width: 0.8; stroke-linejoin: miter; stroke-linecap: square"/>
   </g>
   <g id="patch_19">
    <path d="M 429.720313 105.478125 
L 429.720313 22.318125 
" style="fill: none; stroke: #000000; stroke-width: 0.8; stroke-linejoin: miter; stroke-linecap: square"/>
   </g>
   <g id="patch_20">
    <path d="M 344.807269 105.478125 
L 429.720313 105.478125 
" style="fill: none; stroke: #000000; stroke-width: 0.8; stroke-linejoin: miter; stroke-linecap: square"/>
   </g>
   <g id="patch_21">
    <path d="M 344.807269 22.318125 
L 429.720313 22.318125 
" style="fill: none; stroke: #000000; stroke-width: 0.8; stroke-linejoin: miter; stroke-linecap: square"/>
   </g>
   <g id="text_20">
    <!-- $\kappa^{BB}$ -->
    <g transform="translate(377.483791 16.318125)scale(0.12 -0.12)">
     <use xlink:href="#DejaVuSans-Oblique-3ba" transform="translate(0 0.684375)"/>
     <use xlink:href="#DejaVuSans-Oblique-42" transform="translate(63.401693 38.965625)scale(0.7)"/>
     <use xlink:href="#DejaVuSans-Oblique-42" transform="translate(111.424154 38.965625)scale(0.7)"/>
    </g>
   </g>
   <g id="legend_1">
    <g id="patch_22">
     <path d="M 435.320313 94.454375 
L 507.150313 94.454375 
Q 508.750313 94.454375 508.750313 92.854375 
L 508.750313 34.941875 
Q 508.750313 33.341875 507.150313 33.341875 
L 435.320313 33.341875 
Q 433.720313 33.341875 433.720313 34.941875 
L 433.720313 92.854375 
Q 433.720313 94.454375 435.320313 94.454375 
L 435.320313 94.454375 
z
" style="fill: none; opacity: 0"/>
    </g>
    <g id="text_21">
     <!-- Phase -->
     <g transform="translate(459.292188 42.620625)scale(0.08 -0.08)">
      <defs>
       <path id="DejaVuSans-50" d="M 1259 4147 
L 1259 2394 
L 2053 2394 
Q 2494 2394 2734 2622 
Q 2975 2850 2975 3272 
Q 2975 3691 2734 3919 
Q 2494 4147 2053 4147 
L 1259 4147 
z
M 628 4666 
L 2053 4666 
Q 2838 4666 3239 4311 
Q 3641 3956 3641 3272 
Q 3641 2581 3239 2228 
Q 2838 1875 2053 1875 
L 1259 1875 
L 1259 0 
L 628 0 
L 628 4666 
z
" transform="scale(0.015625)"/>
       <path id="DejaVuSans-68" d="M 3513 2113 
L 3513 0 
L 2938 0 
L 2938 2094 
Q 2938 2591 2744 2837 
Q 2550 3084 2163 3084 
Q 1697 3084 1428 2787 
Q 1159 2491 1159 1978 
L 1159 0 
L 581 0 
L 581 4863 
L 1159 4863 
L 1159 2956 
Q 1366 3272 1645 3428 
Q 1925 3584 2291 3584 
Q 2894 3584 3203 3211 
Q 3513 2838 3513 2113 
z
" transform="scale(0.015625)"/>
       <path id="DejaVuSans-61" d="M 2194 1759 
Q 1497 1759 1228 1600 
Q 959 1441 959 1056 
Q 959 750 1161 570 
Q 1363 391 1709 391 
Q 2188 391 2477 730 
Q 2766 1069 2766 1631 
L 2766 1759 
L 2194 1759 
z
M 3341 1997 
L 3341 0 
L 2766 0 
L 2766 531 
Q 2569 213 2275 61 
Q 1981 -91 1556 -91 
Q 1019 -91 701 211 
Q 384 513 384 1019 
Q 384 1609 779 1909 
Q 1175 2209 1959 2209 
L 2766 2209 
L 2766 2266 
Q 2766 2663 2505 2880 
Q 2244 3097 1772 3097 
Q 1472 3097 1187 3025 
Q 903 2953 641 2809 
L 641 3341 
Q 956 3463 1253 3523 
Q 1550 3584 1831 3584 
Q 2591 3584 2966 3190 
Q 3341 2797 3341 1997 
z
" transform="scale(0.015625)"/>
       <path id="DejaVuSans-73" d="M 2834 3397 
L 2834 2853 
Q 2591 2978 2328 3040 
Q 2066 3103 1784 3103 
Q 1356 3103 1142 2972 
Q 928 2841 928 2578 
Q 928 2378 1081 2264 
Q 1234 2150 1697 2047 
L 1894 2003 
Q 2506 1872 2764 1633 
Q 3022 1394 3022 966 
Q 3022 478 2636 193 
Q 2250 -91 1575 -91 
Q 1294 -91 989 -36 
Q 684 19 347 128 
L 347 722 
Q 666 556 975 473 
Q 1284 391 1588 391 
Q 1994 391 2212 530 
Q 2431 669 2431 922 
Q 2431 1156 2273 1281 
Q 2116 1406 1581 1522 
L 1381 1569 
Q 847 1681 609 1914 
Q 372 2147 372 2553 
Q 372 3047 722 3315 
Q 1072 3584 1716 3584 
Q 2034 3584 2315 3537 
Q 2597 3491 2834 3397 
z
" transform="scale(0.015625)"/>
       <path id="DejaVuSans-65" d="M 3597 1894 
L 3597 1613 
L 953 1613 
Q 991 1019 1311 708 
Q 1631 397 2203 397 
Q 2534 397 2845 478 
Q 3156 559 3463 722 
L 3463 178 
Q 3153 47 2828 -22 
Q 2503 -91 2169 -91 
Q 1331 -91 842 396 
Q 353 884 353 1716 
Q 353 2575 817 3079 
Q 1281 3584 2069 3584 
Q 2775 3584 3186 3129 
Q 3597 2675 3597 1894 
z
M 3022 2063 
Q 3016 2534 2758 2815 
Q 2500 3097 2075 3097 
Q 1594 3097 1305 2825 
Q 1016 2553 972 2059 
L 3022 2063 
z
" transform="scale(0.015625)"/>
      </defs>
      <use xlink:href="#DejaVuSans-50"/>
      <use xlink:href="#DejaVuSans-68" x="60.302734"/>
      <use xlink:href="#DejaVuSans-61" x="123.681641"/>
      <use xlink:href="#DejaVuSans-73" x="184.960938"/>
      <use xlink:href="#DejaVuSans-65" x="237.060547"/>
     </g>
    </g>
    <g id="line2d_37">
     <path d="M 436.920313 51.563125 
L 444.920313 51.563125 
L 452.920313 51.563125 
" style="fill: none; stroke: #1f77b4; stroke-width: 1.5; stroke-linecap: square"/>
    </g>
    <g id="text_22">
     <!-- Segregated -->
     <g transform="translate(459.320313 54.363125)scale(0.08 -0.08)">
      <defs>
       <path id="DejaVuSans-53" d="M 3425 4513 
L 3425 3897 
Q 3066 4069 2747 4153 
Q 2428 4238 2131 4238 
Q 1616 4238 1336 4038 
Q 1056 3838 1056 3469 
Q 1056 3159 1242 3001 
Q 1428 2844 1947 2747 
L 2328 2669 
Q 3034 2534 3370 2195 
Q 3706 1856 3706 1288 
Q 3706 609 3251 259 
Q 2797 -91 1919 -91 
Q 1588 -91 1214 -16 
Q 841 59 441 206 
L 441 856 
Q 825 641 1194 531 
Q 1563 422 1919 422 
Q 2459 422 2753 634 
Q 3047 847 3047 1241 
Q 3047 1584 2836 1778 
Q 2625 1972 2144 2069 
L 1759 2144 
Q 1053 2284 737 2584 
Q 422 2884 422 3419 
Q 422 4038 858 4394 
Q 1294 4750 2059 4750 
Q 2388 4750 2728 4690 
Q 3069 4631 3425 4513 
z
" transform="scale(0.015625)"/>
       <path id="DejaVuSans-67" d="M 2906 1791 
Q 2906 2416 2648 2759 
Q 2391 3103 1925 3103 
Q 1463 3103 1205 2759 
Q 947 2416 947 1791 
Q 947 1169 1205 825 
Q 1463 481 1925 481 
Q 2391 481 2648 825 
Q 2906 1169 2906 1791 
z
M 3481 434 
Q 3481 -459 3084 -895 
Q 2688 -1331 1869 -1331 
Q 1566 -1331 1297 -1286 
Q 1028 -1241 775 -1147 
L 775 -588 
Q 1028 -725 1275 -790 
Q 1522 -856 1778 -856 
Q 2344 -856 2625 -561 
Q 2906 -266 2906 331 
L 2906 616 
Q 2728 306 2450 153 
Q 2172 0 1784 0 
Q 1141 0 747 490 
Q 353 981 353 1791 
Q 353 2603 747 3093 
Q 1141 3584 1784 3584 
Q 2172 3584 2450 3431 
Q 2728 3278 2906 2969 
L 2906 3500 
L 3481 3500 
L 3481 434 
z
" transform="scale(0.015625)"/>
       <path id="DejaVuSans-72" d="M 2631 2963 
Q 2534 3019 2420 3045 
Q 2306 3072 2169 3072 
Q 1681 3072 1420 2755 
Q 1159 2438 1159 1844 
L 1159 0 
L 581 0 
L 581 3500 
L 1159 3500 
L 1159 2956 
Q 1341 3275 1631 3429 
Q 1922 3584 2338 3584 
Q 2397 3584 2469 3576 
Q 2541 3569 2628 3553 
L 2631 2963 
z
" transform="scale(0.015625)"/>
       <path id="DejaVuSans-74" d="M 1172 4494 
L 1172 3500 
L 2356 3500 
L 2356 3053 
L 1172 3053 
L 1172 1153 
Q 1172 725 1289 603 
Q 1406 481 1766 481 
L 2356 481 
L 2356 0 
L 1766 0 
Q 1100 0 847 248 
Q 594 497 594 1153 
L 594 3053 
L 172 3053 
L 172 3500 
L 594 3500 
L 594 4494 
L 1172 4494 
z
" transform="scale(0.015625)"/>
       <path id="DejaVuSans-64" d="M 2906 2969 
L 2906 4863 
L 3481 4863 
L 3481 0 
L 2906 0 
L 2906 525 
Q 2725 213 2448 61 
Q 2172 -91 1784 -91 
Q 1150 -91 751 415 
Q 353 922 353 1747 
Q 353 2572 751 3078 
Q 1150 3584 1784 3584 
Q 2172 3584 2448 3432 
Q 2725 3281 2906 2969 
z
M 947 1747 
Q 947 1113 1208 752 
Q 1469 391 1925 391 
Q 2381 391 2643 752 
Q 2906 1113 2906 1747 
Q 2906 2381 2643 2742 
Q 2381 3103 1925 3103 
Q 1469 3103 1208 2742 
Q 947 2381 947 1747 
z
" transform="scale(0.015625)"/>
      </defs>
      <use xlink:href="#DejaVuSans-53"/>
      <use xlink:href="#DejaVuSans-65" x="63.476562"/>
      <use xlink:href="#DejaVuSans-67" x="125"/>
      <use xlink:href="#DejaVuSans-72" x="188.476562"/>
      <use xlink:href="#DejaVuSans-65" x="227.339844"/>
      <use xlink:href="#DejaVuSans-67" x="288.863281"/>
      <use xlink:href="#DejaVuSans-61" x="352.339844"/>
      <use xlink:href="#DejaVuSans-74" x="413.619141"/>
      <use xlink:href="#DejaVuSans-65" x="452.828125"/>
      <use xlink:href="#DejaVuSans-64" x="514.351562"/>
     </g>
    </g>
    <g id="line2d_38">
     <path d="M 436.920313 63.305625 
L 444.920313 63.305625 
L 452.920313 63.305625 
" style="fill: none; stroke: #ff7f0e; stroke-width: 1.5; stroke-linecap: square"/>
    </g>
    <g id="text_23">
     <!-- Integrated -->
     <g transform="translate(459.320313 66.105625)scale(0.08 -0.08)">
      <defs>
       <path id="DejaVuSans-49" d="M 628 4666 
L 1259 4666 
L 1259 0 
L 628 0 
L 628 4666 
z
" transform="scale(0.015625)"/>
       <path id="DejaVuSans-6e" d="M 3513 2113 
L 3513 0 
L 2938 0 
L 2938 2094 
Q 2938 2591 2744 2837 
Q 2550 3084 2163 3084 
Q 1697 3084 1428 2787 
Q 1159 2491 1159 1978 
L 1159 0 
L 581 0 
L 581 3500 
L 1159 3500 
L 1159 2956 
Q 1366 3272 1645 3428 
Q 1925 3584 2291 3584 
Q 2894 3584 3203 3211 
Q 3513 2838 3513 2113 
z
" transform="scale(0.015625)"/>
      </defs>
      <use xlink:href="#DejaVuSans-49"/>
      <use xlink:href="#DejaVuSans-6e" x="29.492188"/>
      <use xlink:href="#DejaVuSans-74" x="92.871094"/>
      <use xlink:href="#DejaVuSans-65" x="132.080078"/>
      <use xlink:href="#DejaVuSans-67" x="193.603516"/>
      <use xlink:href="#DejaVuSans-72" x="257.080078"/>
      <use xlink:href="#DejaVuSans-61" x="298.193359"/>
      <use xlink:href="#DejaVuSans-74" x="359.472656"/>
      <use xlink:href="#DejaVuSans-65" x="398.681641"/>
      <use xlink:href="#DejaVuSans-64" x="460.205078"/>
     </g>
    </g>
    <g id="line2d_39">
     <path d="M 436.920313 75.048125 
L 444.920313 75.048125 
L 452.920313 75.048125 
" style="fill: none; stroke: #2ca02c; stroke-width: 1.5; stroke-linecap: square"/>
    </g>
    <g id="text_24">
     <!-- Migration 1 -->
     <g transform="translate(459.320313 77.848125)scale(0.08 -0.08)">
      <defs>
       <path id="DejaVuSans-4d" d="M 628 4666 
L 1569 4666 
L 2759 1491 
L 3956 4666 
L 4897 4666 
L 4897 0 
L 4281 0 
L 4281 4097 
L 3078 897 
L 2444 897 
L 1241 4097 
L 1241 0 
L 628 0 
L 628 4666 
z
" transform="scale(0.015625)"/>
       <path id="DejaVuSans-69" d="M 603 3500 
L 1178 3500 
L 1178 0 
L 603 0 
L 603 3500 
z
M 603 4863 
L 1178 4863 
L 1178 4134 
L 603 4134 
L 603 4863 
z
" transform="scale(0.015625)"/>
       <path id="DejaVuSans-6f" d="M 1959 3097 
Q 1497 3097 1228 2736 
Q 959 2375 959 1747 
Q 959 1119 1226 758 
Q 1494 397 1959 397 
Q 2419 397 2687 759 
Q 2956 1122 2956 1747 
Q 2956 2369 2687 2733 
Q 2419 3097 1959 3097 
z
M 1959 3584 
Q 2709 3584 3137 3096 
Q 3566 2609 3566 1747 
Q 3566 888 3137 398 
Q 2709 -91 1959 -91 
Q 1206 -91 779 398 
Q 353 888 353 1747 
Q 353 2609 779 3096 
Q 1206 3584 1959 3584 
z
" transform="scale(0.015625)"/>
       <path id="DejaVuSans-20" transform="scale(0.015625)"/>
      </defs>
      <use xlink:href="#DejaVuSans-4d"/>
      <use xlink:href="#DejaVuSans-69" x="86.279297"/>
      <use xlink:href="#DejaVuSans-67" x="114.0625"/>
      <use xlink:href="#DejaVuSans-72" x="177.539062"/>
      <use xlink:href="#DejaVuSans-61" x="218.652344"/>
      <use xlink:href="#DejaVuSans-74" x="279.931641"/>
      <use xlink:href="#DejaVuSans-69" x="319.140625"/>
      <use xlink:href="#DejaVuSans-6f" x="346.923828"/>
      <use xlink:href="#DejaVuSans-6e" x="408.105469"/>
      <use xlink:href="#DejaVuSans-20" x="471.484375"/>
      <use xlink:href="#DejaVuSans-31" x="503.271484"/>
     </g>
    </g>
    <g id="line2d_40">
     <path d="M 436.920313 86.790625 
L 444.920313 86.790625 
L 452.920313 86.790625 
" style="fill: none; stroke: #d62728; stroke-width: 1.5; stroke-linecap: square"/>
    </g>
    <g id="text_25">
     <!-- Migration 2 -->
     <g transform="translate(459.320313 89.590625)scale(0.08 -0.08)">
      <defs>
       <path id="DejaVuSans-32" d="M 1228 531 
L 3431 531 
L 3431 0 
L 469 0 
L 469 531 
Q 828 903 1448 1529 
Q 2069 2156 2228 2338 
Q 2531 2678 2651 2914 
Q 2772 3150 2772 3378 
Q 2772 3750 2511 3984 
Q 2250 4219 1831 4219 
Q 1534 4219 1204 4116 
Q 875 4013 500 3803 
L 500 4441 
Q 881 4594 1212 4672 
Q 1544 4750 1819 4750 
Q 2544 4750 2975 4387 
Q 3406 4025 3406 3419 
Q 3406 3131 3298 2873 
Q 3191 2616 2906 2266 
Q 2828 2175 2409 1742 
Q 1991 1309 1228 531 
z
" transform="scale(0.015625)"/>
      </defs>
      <use xlink:href="#DejaVuSans-4d"/>
      <use xlink:href="#DejaVuSans-69" x="86.279297"/>
      <use xlink:href="#DejaVuSans-67" x="114.0625"/>
      <use xlink:href="#DejaVuSans-72" x="177.539062"/>
      <use xlink:href="#DejaVuSans-61" x="218.652344"/>
      <use xlink:href="#DejaVuSans-74" x="279.931641"/>
      <use xlink:href="#DejaVuSans-69" x="319.140625"/>
      <use xlink:href="#DejaVuSans-6f" x="346.923828"/>
      <use xlink:href="#DejaVuSans-6e" x="408.105469"/>
      <use xlink:href="#DejaVuSans-20" x="471.484375"/>
      <use xlink:href="#DejaVuSans-32" x="503.271484"/>
     </g>
    </g>
   </g>
  </g>
 </g>
 <defs>
  <clipPath id="p7d1c63d11b">
   <rect x="39.120313" y="22.318125" width="84.913043" height="83.16"/>
  </clipPath>
  <clipPath id="p75f69f342c">
   <rect x="141.015965" y="22.318125" width="84.913043" height="83.16"/>
  </clipPath>
  <clipPath id="p41cfea0e98">
   <rect x="242.911617" y="22.318125" width="84.913043" height="83.16"/>
  </clipPath>
  <clipPath id="p68346efcd4">
   <rect x="344.807269" y="22.318125" width="84.913043" height="83.16"/>
  </clipPath>
 </defs>
</svg>
