<?xml version="1.0" encoding="utf-8" standalone="no"?>
<!DOCTYPE svg PUBLIC "-//W3C//DTD SVG 1.1//EN"
  "http://www.w3.org/Graphics/SVG/1.1/DTD/svg11.dtd">
<svg xmlns:xlink="http://www.w3.org/1999/xlink" width="416.052813pt" height="331.750125pt" viewBox="0 0 416.052813 331.750125" xmlns="http://www.w3.org/2000/svg" version="1.1">
 <metadata>
  <rdf:RDF xmlns:dc="http://purl.org/dc/elements/1.1/" xmlns:cc="http://creativecommons.org/ns#" xmlns:rdf="http://www.w3.org/1999/02/22-rdf-syntax-ns#">
   <cc:Work>
    <dc:type rdf:resource="http://purl.org/dc/dcmitype/StillImage"/>
    <dc:date>2024-04-02T15:24:41.601360</dc:date>
    <dc:format>image/svg+xml</dc:format>
    <dc:creator>
     <cc:Agent>
      <dc:title>Matplotlib v3.5.2, https://matplotlib.org/</dc:title>
     </cc:Agent>
    </dc:creator>
   </cc:Work>
  </rdf:RDF>
 </metadata>
 <defs>
  <style type="text/css">*{stroke-linejoin: round; stroke-linecap: butt}</style>
 </defs>
 <g id="figure_1">
  <g id="patch_1">
   <path d="M 0 331.750125 
L 416.052813 331.750125 
L 416.052813 0 
L 0 0 
z
" style="fill: #ffffff"/>
  </g>
  <g id="axes_1">
   <g id="patch_2">
    <path d="M 43.78125 120.028235 
L 400.90125 120.028235 
L 400.90125 41.76 
L 43.78125 41.76 
z
" style="fill: #ffffff"/>
   </g>
   <g id="matplotlib.axis_1">
    <g id="xtick_1">
     <g id="line2d_1">
      <defs>
       <path id="macd3805cbd" d="M 0 0 
L 0 3.5 
" style="stroke: #000000; stroke-width: 0.8"/>
      </defs>
      <g>
       <use xlink:href="#macd3805cbd" x="43.78125" y="120.028235" style="stroke: #000000; stroke-width: 0.8"/>
      </g>
     </g>
    </g>
    <g id="xtick_2">
     <g id="line2d_2">
      <g>
       <use xlink:href="#macd3805cbd" x="115.20525" y="120.028235" style="stroke: #000000; stroke-width: 0.8"/>
      </g>
     </g>
    </g>
    <g id="xtick_3">
     <g id="line2d_3">
      <g>
       <use xlink:href="#macd3805cbd" x="186.62925" y="120.028235" style="stroke: #000000; stroke-width: 0.8"/>
      </g>
     </g>
    </g>
    <g id="xtick_4">
     <g id="line2d_4">
      <g>
       <use xlink:href="#macd3805cbd" x="258.05325" y="120.028235" style="stroke: #000000; stroke-width: 0.8"/>
      </g>
     </g>
    </g>
    <g id="xtick_5">
     <g id="line2d_5">
      <g>
       <use xlink:href="#macd3805cbd" x="329.47725" y="120.028235" style="stroke: #000000; stroke-width: 0.8"/>
      </g>
     </g>
    </g>
    <g id="xtick_6">
     <g id="line2d_6">
      <g>
       <use xlink:href="#macd3805cbd" x="400.90125" y="120.028235" style="stroke: #000000; stroke-width: 0.8"/>
      </g>
     </g>
    </g>
   </g>
   <g id="matplotlib.axis_2">
    <g id="ytick_1">
     <g id="line2d_7">
      <defs>
       <path id="mf09ca56c2d" d="M 0 0 
L -3.5 0 
" style="stroke: #000000; stroke-width: 0.8"/>
      </defs>
      <g>
       <use xlink:href="#mf09ca56c2d" x="43.78125" y="120.028235" style="stroke: #000000; stroke-width: 0.8"/>
      </g>
     </g>
     <g id="text_1">
      <!-- 0.0 -->
      <g transform="translate(20.878125 123.827454)scale(0.1 -0.1)">
       <defs>
        <path id="DejaVuSans-30" d="M 2034 4250 
Q 1547 4250 1301 3770 
Q 1056 3291 1056 2328 
Q 1056 1369 1301 889 
Q 1547 409 2034 409 
Q 2525 409 2770 889 
Q 3016 1369 3016 2328 
Q 3016 3291 2770 3770 
Q 2525 4250 2034 4250 
z
M 2034 4750 
Q 2819 4750 3233 4129 
Q 3647 3509 3647 2328 
Q 3647 1150 3233 529 
Q 2819 -91 2034 -91 
Q 1250 -91 836 529 
Q 422 1150 422 2328 
Q 422 3509 836 4129 
Q 1250 4750 2034 4750 
z
" transform="scale(0.015625)"/>
        <path id="DejaVuSans-2e" d="M 684 794 
L 1344 794 
L 1344 0 
L 684 0 
L 684 794 
z
" transform="scale(0.015625)"/>
       </defs>
       <use xlink:href="#DejaVuSans-30"/>
       <use xlink:href="#DejaVuSans-2e" x="63.623047"/>
       <use xlink:href="#DejaVuSans-30" x="95.410156"/>
      </g>
     </g>
    </g>
    <g id="ytick_2">
     <g id="line2d_8">
      <g>
       <use xlink:href="#mf09ca56c2d" x="43.78125" y="80.894118" style="stroke: #000000; stroke-width: 0.8"/>
      </g>
     </g>
     <g id="text_2">
      <!-- 0.5 -->
      <g transform="translate(20.878125 84.693336)scale(0.1 -0.1)">
       <defs>
        <path id="DejaVuSans-35" d="M 691 4666 
L 3169 4666 
L 3169 4134 
L 1269 4134 
L 1269 2991 
Q 1406 3038 1543 3061 
Q 1681 3084 1819 3084 
Q 2600 3084 3056 2656 
Q 3513 2228 3513 1497 
Q 3513 744 3044 326 
Q 2575 -91 1722 -91 
Q 1428 -91 1123 -41 
Q 819 9 494 109 
L 494 744 
Q 775 591 1075 516 
Q 1375 441 1709 441 
Q 2250 441 2565 725 
Q 2881 1009 2881 1497 
Q 2881 1984 2565 2268 
Q 2250 2553 1709 2553 
Q 1456 2553 1204 2497 
Q 953 2441 691 2322 
L 691 4666 
z
" transform="scale(0.015625)"/>
       </defs>
       <use xlink:href="#DejaVuSans-30"/>
       <use xlink:href="#DejaVuSans-2e" x="63.623047"/>
       <use xlink:href="#DejaVuSans-35" x="95.410156"/>
      </g>
     </g>
    </g>
    <g id="ytick_3">
     <g id="line2d_9">
      <g>
       <use xlink:href="#mf09ca56c2d" x="43.78125" y="41.76" style="stroke: #000000; stroke-width: 0.8"/>
      </g>
     </g>
     <g id="text_3">
      <!-- 1.0 -->
      <g transform="translate(20.878125 45.559219)scale(0.1 -0.1)">
       <defs>
        <path id="DejaVuSans-31" d="M 794 531 
L 1825 531 
L 1825 4091 
L 703 3866 
L 703 4441 
L 1819 4666 
L 2450 4666 
L 2450 531 
L 3481 531 
L 3481 0 
L 794 0 
L 794 531 
z
" transform="scale(0.015625)"/>
       </defs>
       <use xlink:href="#DejaVuSans-31"/>
       <use xlink:href="#DejaVuSans-2e" x="63.623047"/>
       <use xlink:href="#DejaVuSans-30" x="95.410156"/>
      </g>
     </g>
    </g>
    <g id="text_4">
     <!-- IC -->
     <g transform="translate(14.798438 85.860524)rotate(-90)scale(0.1 -0.1)">
      <defs>
       <path id="DejaVuSans-49" d="M 628 4666 
L 1259 4666 
L 1259 0 
L 628 0 
L 628 4666 
z
" transform="scale(0.015625)"/>
       <path id="DejaVuSans-43" d="M 4122 4306 
L 4122 3641 
Q 3803 3938 3442 4084 
Q 3081 4231 2675 4231 
Q 1875 4231 1450 3742 
Q 1025 3253 1025 2328 
Q 1025 1406 1450 917 
Q 1875 428 2675 428 
Q 3081 428 3442 575 
Q 3803 722 4122 1019 
L 4122 359 
Q 3791 134 3420 21 
Q 3050 -91 2638 -91 
Q 1578 -91 968 557 
Q 359 1206 359 2328 
Q 359 3453 968 4101 
Q 1578 4750 2638 4750 
Q 3056 4750 3426 4639 
Q 3797 4528 4122 4306 
z
" transform="scale(0.015625)"/>
      </defs>
      <use xlink:href="#DejaVuSans-49"/>
      <use xlink:href="#DejaVuSans-43" x="29.492188"/>
     </g>
    </g>
   </g>
   <g id="line2d_10">
    <path d="M 43.78125 99.365421 
L 49.449821 101.556932 
L 55.118393 103.278833 
L 60.786964 102.652687 
L 66.455536 101.243859 
L 72.124107 100.30464 
L 77.792679 98.739274 
L 83.46125 98.269666 
L 89.129821 100.148103 
L 94.798393 100.930786 
L 100.466964 102.339614 
L 106.135536 101.713468 
L 111.804107 102.026541 
L 117.472679 102.809224 
L 123.14125 99.365421 
L 128.809821 97.956593 
L 134.478393 96.860837 
L 140.146964 97.017374 
L 145.815536 98.739274 
L 151.484107 100.930786 
L 157.152679 101.713468 
L 162.82125 101.400395 
L 168.489821 101.400395 
L 174.158393 100.148103 
L 179.826964 99.678495 
L 185.495536 98.58274 
L 191.164107 99.678495 
L 196.832679 100.461176 
L 202.50125 101.243859 
L 208.169821 99.521958 
L 213.838393 102.026541 
L 219.506964 101.087322 
L 225.175536 99.521958 
L 230.844107 100.30464 
L 236.512679 102.49615 
L 242.18125 102.809224 
L 247.849821 101.400395 
L 253.518393 99.835032 
L 259.186964 99.208885 
L 264.855536 98.58274 
L 270.524107 96.860837 
L 276.192679 98.895811 
L 281.86125 101.400395 
L 287.529821 103.43537 
L 293.198393 102.339614 
L 298.866964 101.556932 
L 304.535536 100.930786 
L 310.204107 98.895811 
L 315.872679 99.052348 
L 321.54125 97.486984 
L 327.209821 98.895811 
L 332.878393 99.835032 
L 338.546964 100.774249 
L 344.215536 102.026541 
L 349.884107 102.49615 
L 355.552679 101.087322 
L 361.22125 102.026541 
L 366.889821 103.122296 
L 372.558393 102.183078 
L 378.226964 99.208885 
L 383.895536 98.739274 
L 389.564107 100.617713 
L 395.232679 100.148103 
L 400.90125 100.148103 
" clip-path="url(#p07f3320f9a)" style="fill: none; stroke: #0000ff; stroke-width: 1.5; stroke-linecap: square"/>
   </g>
   <g id="line2d_11">
    <path d="M 43.78125 102.026541 
L 49.449821 101.087322 
L 55.118393 99.678495 
L 60.786964 99.521958 
L 66.455536 99.208885 
L 72.124107 100.148103 
L 77.792679 101.087322 
L 83.46125 100.774249 
L 89.129821 99.521958 
L 94.798393 99.521958 
L 100.466964 99.521958 
L 106.135536 100.148103 
L 111.804107 99.678495 
L 117.472679 99.835032 
L 123.14125 100.930786 
L 128.809821 102.652687 
L 134.478393 102.183078 
L 140.146964 102.652687 
L 145.815536 102.026541 
L 151.484107 99.835032 
L 157.152679 99.052348 
L 162.82125 100.148103 
L 168.489821 100.930786 
L 174.158393 100.617713 
L 179.826964 101.087322 
L 185.495536 101.243859 
L 191.164107 99.991566 
L 196.832679 99.991566 
L 202.50125 99.991566 
L 208.169821 100.148103 
L 213.838393 100.617713 
L 219.506964 102.026541 
L 225.175536 100.617713 
L 230.844107 99.521958 
L 236.512679 98.269666 
L 242.18125 98.58274 
L 247.849821 99.208885 
L 253.518393 100.30464 
L 259.186964 101.087322 
L 264.855536 102.652687 
L 270.524107 101.713468 
L 276.192679 100.930786 
L 281.86125 101.556932 
L 287.529821 100.774249 
L 293.198393 100.30464 
L 298.866964 101.087322 
L 304.535536 101.087322 
L 310.204107 100.461176 
L 315.872679 100.461176 
L 321.54125 100.30464 
L 327.209821 100.148103 
L 332.878393 100.774249 
L 338.546964 101.556932 
L 344.215536 99.052348 
L 349.884107 97.643519 
L 355.552679 99.521958 
L 361.22125 101.243859 
L 366.889821 99.835032 
L 372.558393 99.365421 
L 378.226964 99.678495 
L 383.895536 100.774249 
L 389.564107 100.461176 
L 395.232679 101.243859 
L 400.90125 101.400395 
" clip-path="url(#p07f3320f9a)" style="fill: none; stroke: #ff0000; stroke-width: 1.5; stroke-linecap: square"/>
   </g>
   <g id="patch_3">
    <path d="M 43.78125 120.028235 
L 43.78125 41.76 
" style="fill: none; stroke: #000000; stroke-width: 0.8; stroke-linejoin: miter; stroke-linecap: square"/>
   </g>
   <g id="patch_4">
    <path d="M 400.90125 120.028235 
L 400.90125 41.76 
" style="fill: none; stroke: #000000; stroke-width: 0.8; stroke-linejoin: miter; stroke-linecap: square"/>
   </g>
   <g id="patch_5">
    <path d="M 43.78125 120.028235 
L 400.90125 120.028235 
" style="fill: none; stroke: #000000; stroke-width: 0.8; stroke-linejoin: miter; stroke-linecap: square"/>
   </g>
   <g id="patch_6">
    <path d="M 43.78125 41.76 
L 400.90125 41.76 
" style="fill: none; stroke: #000000; stroke-width: 0.8; stroke-linejoin: miter; stroke-linecap: square"/>
   </g>
  </g>
  <g id="axes_2">
   <g id="patch_7">
    <path d="M 43.78125 213.950118 
L 400.90125 213.950118 
L 400.90125 135.681882 
L 43.78125 135.681882 
z
" style="fill: #ffffff"/>
   </g>
   <g id="matplotlib.axis_3">
    <g id="xtick_7">
     <g id="line2d_12">
      <g>
       <use xlink:href="#macd3805cbd" x="43.78125" y="213.950118" style="stroke: #000000; stroke-width: 0.8"/>
      </g>
     </g>
    </g>
    <g id="xtick_8">
     <g id="line2d_13">
      <g>
       <use xlink:href="#macd3805cbd" x="115.20525" y="213.950118" style="stroke: #000000; stroke-width: 0.8"/>
      </g>
     </g>
    </g>
    <g id="xtick_9">
     <g id="line2d_14">
      <g>
       <use xlink:href="#macd3805cbd" x="186.62925" y="213.950118" style="stroke: #000000; stroke-width: 0.8"/>
      </g>
     </g>
    </g>
    <g id="xtick_10">
     <g id="line2d_15">
      <g>
       <use xlink:href="#macd3805cbd" x="258.05325" y="213.950118" style="stroke: #000000; stroke-width: 0.8"/>
      </g>
     </g>
    </g>
    <g id="xtick_11">
     <g id="line2d_16">
      <g>
       <use xlink:href="#macd3805cbd" x="329.47725" y="213.950118" style="stroke: #000000; stroke-width: 0.8"/>
      </g>
     </g>
    </g>
    <g id="xtick_12">
     <g id="line2d_17">
      <g>
       <use xlink:href="#macd3805cbd" x="400.90125" y="213.950118" style="stroke: #000000; stroke-width: 0.8"/>
      </g>
     </g>
    </g>
   </g>
   <g id="matplotlib.axis_4">
    <g id="ytick_4">
     <g id="line2d_18">
      <g>
       <use xlink:href="#mf09ca56c2d" x="43.78125" y="213.950118" style="stroke: #000000; stroke-width: 0.8"/>
      </g>
     </g>
     <g id="text_5">
      <!-- 0.0 -->
      <g transform="translate(20.878125 217.749336)scale(0.1 -0.1)">
       <use xlink:href="#DejaVuSans-30"/>
       <use xlink:href="#DejaVuSans-2e" x="63.623047"/>
       <use xlink:href="#DejaVuSans-30" x="95.410156"/>
      </g>
     </g>
    </g>
    <g id="ytick_5">
     <g id="line2d_19">
      <g>
       <use xlink:href="#mf09ca56c2d" x="43.78125" y="174.816" style="stroke: #000000; stroke-width: 0.8"/>
      </g>
     </g>
     <g id="text_6">
      <!-- 0.5 -->
      <g transform="translate(20.878125 178.615219)scale(0.1 -0.1)">
       <use xlink:href="#DejaVuSans-30"/>
       <use xlink:href="#DejaVuSans-2e" x="63.623047"/>
       <use xlink:href="#DejaVuSans-35" x="95.410156"/>
      </g>
     </g>
    </g>
    <g id="ytick_6">
     <g id="line2d_20">
      <g>
       <use xlink:href="#mf09ca56c2d" x="43.78125" y="135.681882" style="stroke: #000000; stroke-width: 0.8"/>
      </g>
     </g>
     <g id="text_7">
      <!-- 1.0 -->
      <g transform="translate(20.878125 139.481101)scale(0.1 -0.1)">
       <use xlink:href="#DejaVuSans-31"/>
       <use xlink:href="#DejaVuSans-2e" x="63.623047"/>
       <use xlink:href="#DejaVuSans-30" x="95.410156"/>
      </g>
     </g>
    </g>
    <g id="text_8">
     <!-- Target -->
     <g transform="translate(14.798438 190.287875)rotate(-90)scale(0.1 -0.1)">
      <defs>
       <path id="DejaVuSans-54" d="M -19 4666 
L 3928 4666 
L 3928 4134 
L 2272 4134 
L 2272 0 
L 1638 0 
L 1638 4134 
L -19 4134 
L -19 4666 
z
" transform="scale(0.015625)"/>
       <path id="DejaVuSans-61" d="M 2194 1759 
Q 1497 1759 1228 1600 
Q 959 1441 959 1056 
Q 959 750 1161 570 
Q 1363 391 1709 391 
Q 2188 391 2477 730 
Q 2766 1069 2766 1631 
L 2766 1759 
L 2194 1759 
z
M 3341 1997 
L 3341 0 
L 2766 0 
L 2766 531 
Q 2569 213 2275 61 
Q 1981 -91 1556 -91 
Q 1019 -91 701 211 
Q 384 513 384 1019 
Q 384 1609 779 1909 
Q 1175 2209 1959 2209 
L 2766 2209 
L 2766 2266 
Q 2766 2663 2505 2880 
Q 2244 3097 1772 3097 
Q 1472 3097 1187 3025 
Q 903 2953 641 2809 
L 641 3341 
Q 956 3463 1253 3523 
Q 1550 3584 1831 3584 
Q 2591 3584 2966 3190 
Q 3341 2797 3341 1997 
z
" transform="scale(0.015625)"/>
       <path id="DejaVuSans-72" d="M 2631 2963 
Q 2534 3019 2420 3045 
Q 2306 3072 2169 3072 
Q 1681 3072 1420 2755 
Q 1159 2438 1159 1844 
L 1159 0 
L 581 0 
L 581 3500 
L 1159 3500 
L 1159 2956 
Q 1341 3275 1631 3429 
Q 1922 3584 2338 3584 
Q 2397 3584 2469 3576 
Q 2541 3569 2628 3553 
L 2631 2963 
z
" transform="scale(0.015625)"/>
       <path id="DejaVuSans-67" d="M 2906 1791 
Q 2906 2416 2648 2759 
Q 2391 3103 1925 3103 
Q 1463 3103 1205 2759 
Q 947 2416 947 1791 
Q 947 1169 1205 825 
Q 1463 481 1925 481 
Q 2391 481 2648 825 
Q 2906 1169 2906 1791 
z
M 3481 434 
Q 3481 -459 3084 -895 
Q 2688 -1331 1869 -1331 
Q 1566 -1331 1297 -1286 
Q 1028 -1241 775 -1147 
L 775 -588 
Q 1028 -725 1275 -790 
Q 1522 -856 1778 -856 
Q 2344 -856 2625 -561 
Q 2906 -266 2906 331 
L 2906 616 
Q 2728 306 2450 153 
Q 2172 0 1784 0 
Q 1141 0 747 490 
Q 353 981 353 1791 
Q 353 2603 747 3093 
Q 1141 3584 1784 3584 
Q 2172 3584 2450 3431 
Q 2728 3278 2906 2969 
L 2906 3500 
L 3481 3500 
L 3481 434 
z
" transform="scale(0.015625)"/>
       <path id="DejaVuSans-65" d="M 3597 1894 
L 3597 1613 
L 953 1613 
Q 991 1019 1311 708 
Q 1631 397 2203 397 
Q 2534 397 2845 478 
Q 3156 559 3463 722 
L 3463 178 
Q 3153 47 2828 -22 
Q 2503 -91 2169 -91 
Q 1331 -91 842 396 
Q 353 884 353 1716 
Q 353 2575 817 3079 
Q 1281 3584 2069 3584 
Q 2775 3584 3186 3129 
Q 3597 2675 3597 1894 
z
M 3022 2063 
Q 3016 2534 2758 2815 
Q 2500 3097 2075 3097 
Q 1594 3097 1305 2825 
Q 1016 2553 972 2059 
L 3022 2063 
z
" transform="scale(0.015625)"/>
       <path id="DejaVuSans-74" d="M 1172 4494 
L 1172 3500 
L 2356 3500 
L 2356 3053 
L 1172 3053 
L 1172 1153 
Q 1172 725 1289 603 
Q 1406 481 1766 481 
L 2356 481 
L 2356 0 
L 1766 0 
Q 1100 0 847 248 
Q 594 497 594 1153 
L 594 3053 
L 172 3053 
L 172 3500 
L 594 3500 
L 594 4494 
L 1172 4494 
z
" transform="scale(0.015625)"/>
      </defs>
      <use xlink:href="#DejaVuSans-54"/>
      <use xlink:href="#DejaVuSans-61" x="44.583984"/>
      <use xlink:href="#DejaVuSans-72" x="105.863281"/>
      <use xlink:href="#DejaVuSans-67" x="145.226562"/>
      <use xlink:href="#DejaVuSans-65" x="208.703125"/>
      <use xlink:href="#DejaVuSans-74" x="270.226562"/>
     </g>
    </g>
   </g>
   <g id="line2d_21">
    <path d="M 43.78125 197.826861 
L 49.449821 197.357252 
L 55.118393 197.983398 
L 60.786964 196.887643 
L 66.455536 194.852668 
L 72.124107 193.287304 
L 77.792679 190.626183 
L 83.46125 190.156575 
L 89.129821 190.469646 
L 94.798393 193.913448 
L 100.466964 198.29647 
L 106.135536 199.861835 
L 111.804107 198.922616 
L 117.472679 196.418032 
L 123.14125 194.069985 
L 128.809821 191.408867 
L 134.478393 189.06082 
L 140.146964 191.095793 
L 145.815536 190.000038 
L 151.484107 192.191548 
L 157.152679 195.322277 
L 162.82125 197.357252 
L 168.489821 197.357252 
L 174.158393 195.948423 
L 179.826964 195.009205 
L 185.495536 191.25233 
L 191.164107 191.25233 
L 196.832679 193.130767 
L 202.50125 194.696131 
L 208.169821 193.44384 
L 213.838393 193.600377 
L 219.506964 194.383059 
L 225.175536 194.696131 
L 230.844107 197.044178 
L 236.512679 198.609544 
L 242.18125 199.23569 
L 247.849821 196.731106 
L 253.518393 193.913448 
L 259.186964 190.313112 
L 264.855536 188.747746 
L 270.524107 190.626183 
L 276.192679 192.817693 
L 281.86125 195.165742 
L 287.529821 196.574569 
L 293.198393 198.76608 
L 298.866964 198.453007 
L 304.535536 195.009205 
L 310.204107 190.78272 
L 315.872679 190.156575 
L 321.54125 190.626183 
L 327.209821 190.78272 
L 332.878393 192.504622 
L 338.546964 194.069985 
L 344.215536 195.948423 
L 349.884107 198.29647 
L 355.552679 199.23569 
L 361.22125 197.513789 
L 366.889821 195.322277 
L 372.558393 194.069985 
L 378.226964 192.661156 
L 383.895536 191.408867 
L 389.564107 191.565401 
L 395.232679 195.165742 
L 400.90125 196.261497 
" clip-path="url(#p4f60850f39)" style="fill: none; stroke: #0000ff; stroke-opacity: 0.3; stroke-width: 1.5; stroke-linecap: square"/>
   </g>
   <g id="line2d_22">
    <path d="M 43.78125 195.322277 
L 49.449821 194.539596 
L 55.118393 192.97423 
L 60.786964 193.600377 
L 66.455536 193.600377 
L 72.124107 195.322277 
L 77.792679 194.696131 
L 83.46125 195.165742 
L 89.129821 194.539596 
L 94.798393 192.97423 
L 100.466964 190.939256 
L 106.135536 190.626183 
L 111.804107 192.504622 
L 117.472679 194.852668 
L 123.14125 195.791888 
L 128.809821 196.887643 
L 134.478393 197.826861 
L 140.146964 197.670324 
L 145.815536 196.574569 
L 151.484107 193.600377 
L 157.152679 193.44384 
L 162.82125 193.287304 
L 168.489821 193.130767 
L 174.158393 193.130767 
L 179.826964 195.635351 
L 185.495536 196.261497 
L 191.164107 197.200715 
L 196.832679 195.948423 
L 202.50125 194.383059 
L 208.169821 193.913448 
L 213.838393 193.130767 
L 219.506964 193.130767 
L 225.175536 193.44384 
L 230.844107 193.130767 
L 236.512679 190.313112 
L 242.18125 190.469646 
L 247.849821 193.130767 
L 253.518393 195.165742 
L 259.186964 197.044178 
L 264.855536 199.861835 
L 270.524107 197.044178 
L 276.192679 196.261497 
L 281.86125 194.696131 
L 287.529821 194.539596 
L 293.198393 192.035012 
L 298.866964 193.130767 
L 304.535536 194.226522 
L 310.204107 196.887643 
L 315.872679 195.322277 
L 321.54125 194.696131 
L 327.209821 194.539596 
L 332.878393 193.287304 
L 338.546964 194.383059 
L 344.215536 193.287304 
L 349.884107 191.25233 
L 355.552679 192.035012 
L 361.22125 192.504622 
L 366.889821 193.130767 
L 372.558393 193.600377 
L 378.226964 194.696131 
L 383.895536 196.418032 
L 389.564107 197.826861 
L 395.232679 195.948423 
L 400.90125 193.600377 
" clip-path="url(#p4f60850f39)" style="fill: none; stroke: #ff0000; stroke-opacity: 0.3; stroke-width: 1.5; stroke-linecap: square"/>
   </g>
   <g id="line2d_23">
    <path d="M 43.78125 212.228216 
L 49.449821 213.793581 
L 55.118393 213.167435 
L 60.786964 207.845195 
L 66.455536 190.469646 
L 72.124107 171.215661 
L 77.792679 164.484591 
L 83.46125 171.685269 
L 89.129821 193.913448 
L 94.798393 208.627877 
L 100.466964 213.167435 
L 106.135536 213.637045 
L 111.804107 213.793581 
L 117.472679 212.384753 
L 123.14125 201.583736 
L 128.809821 176.381366 
L 134.478393 159.945035 
L 140.146964 159.162354 
L 145.815536 173.876779 
L 151.484107 198.139934 
L 157.152679 212.07168 
L 162.82125 213.323972 
L 168.489821 213.793581 
L 174.158393 213.950118 
L 179.826964 211.758607 
L 185.495536 196.418032 
L 191.164107 173.250637 
L 196.832679 155.405476 
L 202.50125 157.91006 
L 208.169821 177.790192 
L 213.838393 200.644518 
L 219.506964 213.010899 
L 225.175536 213.793581 
L 230.844107 213.793581 
L 236.512679 213.480508 
L 242.18125 213.480508 
L 247.849821 206.905976 
L 253.518393 190.313112 
L 259.186964 168.867616 
L 264.855536 158.84928 
L 270.524107 166.83264 
L 276.192679 187.651991 
L 281.86125 207.375586 
L 287.529821 213.167435 
L 293.198393 213.480508 
L 298.866964 213.480508 
L 304.535536 211.132461 
L 310.204107 192.191548 
L 315.872679 169.963371 
L 321.54125 157.91006 
L 327.209821 164.954203 
L 332.878393 187.025844 
L 338.546964 206.436367 
L 344.215536 213.167435 
L 349.884107 213.637045 
L 355.552679 213.637045 
L 361.22125 213.010899 
L 366.889821 210.349779 
L 372.558393 195.791888 
L 378.226964 173.407171 
L 383.895536 162.29308 
L 389.564107 168.554542 
L 395.232679 189.530428 
L 400.90125 207.219049 
" clip-path="url(#p4f60850f39)" style="fill: none; stroke: #0000ff; stroke-width: 1.5; stroke-linecap: square"/>
   </g>
   <g id="line2d_24">
    <path d="M 43.78125 180.294776 
L 49.449821 176.068292 
L 55.118393 180.607849 
L 60.786964 188.278136 
L 66.455536 200.018372 
L 72.124107 211.288998 
L 77.792679 213.010899 
L 83.46125 210.036706 
L 89.129821 200.331445 
L 94.798393 187.025844 
L 100.466964 177.633658 
L 106.135536 174.346392 
L 111.804107 177.164047 
L 117.472679 183.582041 
L 123.14125 197.044178 
L 128.809821 210.349779 
L 134.478393 213.323972 
L 140.146964 213.323972 
L 145.815536 209.41056 
L 151.484107 197.200715 
L 157.152679 183.26897 
L 162.82125 175.598682 
L 168.489821 174.659466 
L 174.158393 179.199021 
L 179.826964 187.182381 
L 185.495536 200.331445 
L 191.164107 211.288998 
L 196.832679 213.637045 
L 202.50125 213.480508 
L 208.169821 208.94095 
L 213.838393 195.791888 
L 219.506964 184.364725 
L 225.175536 177.00751 
L 230.844107 173.56371 
L 236.512679 174.346392 
L 242.18125 181.233994 
L 247.849821 191.878475 
L 253.518393 203.931783 
L 259.186964 211.758607 
L 264.855536 213.637045 
L 270.524107 212.228216 
L 276.192679 203.462174 
L 281.86125 189.373891 
L 287.529821 180.920923 
L 293.198393 177.790192 
L 298.866964 179.668631 
L 304.535536 188.278136 
L 310.204107 200.487981 
L 315.872679 210.193242 
L 321.54125 213.167435 
L 327.209821 212.228216 
L 332.878393 204.871003 
L 338.546964 191.721938 
L 344.215536 179.981705 
L 349.884107 173.720245 
L 355.552679 174.346392 
L 361.22125 178.885947 
L 366.889821 187.025844 
L 372.558393 200.331445 
L 378.226964 210.036706 
L 383.895536 212.854362 
L 389.564107 212.228216 
L 395.232679 201.583736 
L 400.90125 189.686965 
" clip-path="url(#p4f60850f39)" style="fill: none; stroke: #ff0000; stroke-width: 1.5; stroke-linecap: square"/>
   </g>
   <g id="patch_8">
    <path d="M 43.78125 213.950118 
L 43.78125 135.681882 
" style="fill: none; stroke: #000000; stroke-width: 0.8; stroke-linejoin: miter; stroke-linecap: square"/>
   </g>
   <g id="patch_9">
    <path d="M 400.90125 213.950118 
L 400.90125 135.681882 
" style="fill: none; stroke: #000000; stroke-width: 0.8; stroke-linejoin: miter; stroke-linecap: square"/>
   </g>
   <g id="patch_10">
    <path d="M 43.78125 213.950118 
L 400.90125 213.950118 
" style="fill: none; stroke: #000000; stroke-width: 0.8; stroke-linejoin: miter; stroke-linecap: square"/>
   </g>
   <g id="patch_11">
    <path d="M 43.78125 135.681882 
L 400.90125 135.681882 
" style="fill: none; stroke: #000000; stroke-width: 0.8; stroke-linejoin: miter; stroke-linecap: square"/>
   </g>
  </g>
  <g id="axes_3">
   <g id="patch_12">
    <path d="M 43.78125 307.872 
L 400.90125 307.872 
L 400.90125 229.603765 
L 43.78125 229.603765 
z
" style="fill: #ffffff"/>
   </g>
   <g id="matplotlib.axis_5">
    <g id="xtick_13">
     <g id="line2d_25">
      <g>
       <use xlink:href="#macd3805cbd" x="43.78125" y="307.872" style="stroke: #000000; stroke-width: 0.8"/>
      </g>
     </g>
     <g id="text_9">
      <!-- 0.0 -->
      <g transform="translate(35.829688 322.470437)scale(0.1 -0.1)">
       <use xlink:href="#DejaVuSans-30"/>
       <use xlink:href="#DejaVuSans-2e" x="63.623047"/>
       <use xlink:href="#DejaVuSans-30" x="95.410156"/>
      </g>
     </g>
    </g>
    <g id="xtick_14">
     <g id="line2d_26">
      <g>
       <use xlink:href="#macd3805cbd" x="115.20525" y="307.872" style="stroke: #000000; stroke-width: 0.8"/>
      </g>
     </g>
     <g id="text_10">
      <!-- 0.2 -->
      <g transform="translate(107.253688 322.470437)scale(0.1 -0.1)">
       <defs>
        <path id="DejaVuSans-32" d="M 1228 531 
L 3431 531 
L 3431 0 
L 469 0 
L 469 531 
Q 828 903 1448 1529 
Q 2069 2156 2228 2338 
Q 2531 2678 2651 2914 
Q 2772 3150 2772 3378 
Q 2772 3750 2511 3984 
Q 2250 4219 1831 4219 
Q 1534 4219 1204 4116 
Q 875 4013 500 3803 
L 500 4441 
Q 881 4594 1212 4672 
Q 1544 4750 1819 4750 
Q 2544 4750 2975 4387 
Q 3406 4025 3406 3419 
Q 3406 3131 3298 2873 
Q 3191 2616 2906 2266 
Q 2828 2175 2409 1742 
Q 1991 1309 1228 531 
z
" transform="scale(0.015625)"/>
       </defs>
       <use xlink:href="#DejaVuSans-30"/>
       <use xlink:href="#DejaVuSans-2e" x="63.623047"/>
       <use xlink:href="#DejaVuSans-32" x="95.410156"/>
      </g>
     </g>
    </g>
    <g id="xtick_15">
     <g id="line2d_27">
      <g>
       <use xlink:href="#macd3805cbd" x="186.62925" y="307.872" style="stroke: #000000; stroke-width: 0.8"/>
      </g>
     </g>
     <g id="text_11">
      <!-- 0.4 -->
      <g transform="translate(178.677688 322.470437)scale(0.1 -0.1)">
       <defs>
        <path id="DejaVuSans-34" d="M 2419 4116 
L 825 1625 
L 2419 1625 
L 2419 4116 
z
M 2253 4666 
L 3047 4666 
L 3047 1625 
L 3713 1625 
L 3713 1100 
L 3047 1100 
L 3047 0 
L 2419 0 
L 2419 1100 
L 313 1100 
L 313 1709 
L 2253 4666 
z
" transform="scale(0.015625)"/>
       </defs>
       <use xlink:href="#DejaVuSans-30"/>
       <use xlink:href="#DejaVuSans-2e" x="63.623047"/>
       <use xlink:href="#DejaVuSans-34" x="95.410156"/>
      </g>
     </g>
    </g>
    <g id="xtick_16">
     <g id="line2d_28">
      <g>
       <use xlink:href="#macd3805cbd" x="258.05325" y="307.872" style="stroke: #000000; stroke-width: 0.8"/>
      </g>
     </g>
     <g id="text_12">
      <!-- 0.6 -->
      <g transform="translate(250.101688 322.470437)scale(0.1 -0.1)">
       <defs>
        <path id="DejaVuSans-36" d="M 2113 2584 
Q 1688 2584 1439 2293 
Q 1191 2003 1191 1497 
Q 1191 994 1439 701 
Q 1688 409 2113 409 
Q 2538 409 2786 701 
Q 3034 994 3034 1497 
Q 3034 2003 2786 2293 
Q 2538 2584 2113 2584 
z
M 3366 4563 
L 3366 3988 
Q 3128 4100 2886 4159 
Q 2644 4219 2406 4219 
Q 1781 4219 1451 3797 
Q 1122 3375 1075 2522 
Q 1259 2794 1537 2939 
Q 1816 3084 2150 3084 
Q 2853 3084 3261 2657 
Q 3669 2231 3669 1497 
Q 3669 778 3244 343 
Q 2819 -91 2113 -91 
Q 1303 -91 875 529 
Q 447 1150 447 2328 
Q 447 3434 972 4092 
Q 1497 4750 2381 4750 
Q 2619 4750 2861 4703 
Q 3103 4656 3366 4563 
z
" transform="scale(0.015625)"/>
       </defs>
       <use xlink:href="#DejaVuSans-30"/>
       <use xlink:href="#DejaVuSans-2e" x="63.623047"/>
       <use xlink:href="#DejaVuSans-36" x="95.410156"/>
      </g>
     </g>
    </g>
    <g id="xtick_17">
     <g id="line2d_29">
      <g>
       <use xlink:href="#macd3805cbd" x="329.47725" y="307.872" style="stroke: #000000; stroke-width: 0.8"/>
      </g>
     </g>
     <g id="text_13">
      <!-- 0.8 -->
      <g transform="translate(321.525688 322.470437)scale(0.1 -0.1)">
       <defs>
        <path id="DejaVuSans-38" d="M 2034 2216 
Q 1584 2216 1326 1975 
Q 1069 1734 1069 1313 
Q 1069 891 1326 650 
Q 1584 409 2034 409 
Q 2484 409 2743 651 
Q 3003 894 3003 1313 
Q 3003 1734 2745 1975 
Q 2488 2216 2034 2216 
z
M 1403 2484 
Q 997 2584 770 2862 
Q 544 3141 544 3541 
Q 544 4100 942 4425 
Q 1341 4750 2034 4750 
Q 2731 4750 3128 4425 
Q 3525 4100 3525 3541 
Q 3525 3141 3298 2862 
Q 3072 2584 2669 2484 
Q 3125 2378 3379 2068 
Q 3634 1759 3634 1313 
Q 3634 634 3220 271 
Q 2806 -91 2034 -91 
Q 1263 -91 848 271 
Q 434 634 434 1313 
Q 434 1759 690 2068 
Q 947 2378 1403 2484 
z
M 1172 3481 
Q 1172 3119 1398 2916 
Q 1625 2713 2034 2713 
Q 2441 2713 2670 2916 
Q 2900 3119 2900 3481 
Q 2900 3844 2670 4047 
Q 2441 4250 2034 4250 
Q 1625 4250 1398 4047 
Q 1172 3844 1172 3481 
z
" transform="scale(0.015625)"/>
       </defs>
       <use xlink:href="#DejaVuSans-30"/>
       <use xlink:href="#DejaVuSans-2e" x="63.623047"/>
       <use xlink:href="#DejaVuSans-38" x="95.410156"/>
      </g>
     </g>
    </g>
    <g id="xtick_18">
     <g id="line2d_30">
      <g>
       <use xlink:href="#macd3805cbd" x="400.90125" y="307.872" style="stroke: #000000; stroke-width: 0.8"/>
      </g>
     </g>
     <g id="text_14">
      <!-- 1.0 -->
      <g transform="translate(392.949687 322.470437)scale(0.1 -0.1)">
       <use xlink:href="#DejaVuSans-31"/>
       <use xlink:href="#DejaVuSans-2e" x="63.623047"/>
       <use xlink:href="#DejaVuSans-30" x="95.410156"/>
      </g>
     </g>
    </g>
   </g>
   <g id="matplotlib.axis_6">
    <g id="ytick_7">
     <g id="line2d_31">
      <g>
       <use xlink:href="#mf09ca56c2d" x="43.78125" y="307.872" style="stroke: #000000; stroke-width: 0.8"/>
      </g>
     </g>
     <g id="text_15">
      <!-- 0.0 -->
      <g transform="translate(20.878125 311.671219)scale(0.1 -0.1)">
       <use xlink:href="#DejaVuSans-30"/>
       <use xlink:href="#DejaVuSans-2e" x="63.623047"/>
       <use xlink:href="#DejaVuSans-30" x="95.410156"/>
      </g>
     </g>
    </g>
    <g id="ytick_8">
     <g id="line2d_32">
      <g>
       <use xlink:href="#mf09ca56c2d" x="43.78125" y="268.737882" style="stroke: #000000; stroke-width: 0.8"/>
      </g>
     </g>
     <g id="text_16">
      <!-- 0.5 -->
      <g transform="translate(20.878125 272.537101)scale(0.1 -0.1)">
       <use xlink:href="#DejaVuSans-30"/>
       <use xlink:href="#DejaVuSans-2e" x="63.623047"/>
       <use xlink:href="#DejaVuSans-35" x="95.410156"/>
      </g>
     </g>
    </g>
    <g id="ytick_9">
     <g id="line2d_33">
      <g>
       <use xlink:href="#mf09ca56c2d" x="43.78125" y="229.603765" style="stroke: #000000; stroke-width: 0.8"/>
      </g>
     </g>
     <g id="text_17">
      <!-- 1.0 -->
      <g transform="translate(20.878125 233.402983)scale(0.1 -0.1)">
       <use xlink:href="#DejaVuSans-31"/>
       <use xlink:href="#DejaVuSans-2e" x="63.623047"/>
       <use xlink:href="#DejaVuSans-30" x="95.410156"/>
      </g>
     </g>
    </g>
    <g id="text_18">
     <!-- Prediction -->
     <g transform="translate(14.798438 293.574601)rotate(-90)scale(0.1 -0.1)">
      <defs>
       <path id="DejaVuSans-50" d="M 1259 4147 
L 1259 2394 
L 2053 2394 
Q 2494 2394 2734 2622 
Q 2975 2850 2975 3272 
Q 2975 3691 2734 3919 
Q 2494 4147 2053 4147 
L 1259 4147 
z
M 628 4666 
L 2053 4666 
Q 2838 4666 3239 4311 
Q 3641 3956 3641 3272 
Q 3641 2581 3239 2228 
Q 2838 1875 2053 1875 
L 1259 1875 
L 1259 0 
L 628 0 
L 628 4666 
z
" transform="scale(0.015625)"/>
       <path id="DejaVuSans-64" d="M 2906 2969 
L 2906 4863 
L 3481 4863 
L 3481 0 
L 2906 0 
L 2906 525 
Q 2725 213 2448 61 
Q 2172 -91 1784 -91 
Q 1150 -91 751 415 
Q 353 922 353 1747 
Q 353 2572 751 3078 
Q 1150 3584 1784 3584 
Q 2172 3584 2448 3432 
Q 2725 3281 2906 2969 
z
M 947 1747 
Q 947 1113 1208 752 
Q 1469 391 1925 391 
Q 2381 391 2643 752 
Q 2906 1113 2906 1747 
Q 2906 2381 2643 2742 
Q 2381 3103 1925 3103 
Q 1469 3103 1208 2742 
Q 947 2381 947 1747 
z
" transform="scale(0.015625)"/>
       <path id="DejaVuSans-69" d="M 603 3500 
L 1178 3500 
L 1178 0 
L 603 0 
L 603 3500 
z
M 603 4863 
L 1178 4863 
L 1178 4134 
L 603 4134 
L 603 4863 
z
" transform="scale(0.015625)"/>
       <path id="DejaVuSans-63" d="M 3122 3366 
L 3122 2828 
Q 2878 2963 2633 3030 
Q 2388 3097 2138 3097 
Q 1578 3097 1268 2742 
Q 959 2388 959 1747 
Q 959 1106 1268 751 
Q 1578 397 2138 397 
Q 2388 397 2633 464 
Q 2878 531 3122 666 
L 3122 134 
Q 2881 22 2623 -34 
Q 2366 -91 2075 -91 
Q 1284 -91 818 406 
Q 353 903 353 1747 
Q 353 2603 823 3093 
Q 1294 3584 2113 3584 
Q 2378 3584 2631 3529 
Q 2884 3475 3122 3366 
z
" transform="scale(0.015625)"/>
       <path id="DejaVuSans-6f" d="M 1959 3097 
Q 1497 3097 1228 2736 
Q 959 2375 959 1747 
Q 959 1119 1226 758 
Q 1494 397 1959 397 
Q 2419 397 2687 759 
Q 2956 1122 2956 1747 
Q 2956 2369 2687 2733 
Q 2419 3097 1959 3097 
z
M 1959 3584 
Q 2709 3584 3137 3096 
Q 3566 2609 3566 1747 
Q 3566 888 3137 398 
Q 2709 -91 1959 -91 
Q 1206 -91 779 398 
Q 353 888 353 1747 
Q 353 2609 779 3096 
Q 1206 3584 1959 3584 
z
" transform="scale(0.015625)"/>
       <path id="DejaVuSans-6e" d="M 3513 2113 
L 3513 0 
L 2938 0 
L 2938 2094 
Q 2938 2591 2744 2837 
Q 2550 3084 2163 3084 
Q 1697 3084 1428 2787 
Q 1159 2491 1159 1978 
L 1159 0 
L 581 0 
L 581 3500 
L 1159 3500 
L 1159 2956 
Q 1366 3272 1645 3428 
Q 1925 3584 2291 3584 
Q 2894 3584 3203 3211 
Q 3513 2838 3513 2113 
z
" transform="scale(0.015625)"/>
      </defs>
      <use xlink:href="#DejaVuSans-50"/>
      <use xlink:href="#DejaVuSans-72" x="58.552734"/>
      <use xlink:href="#DejaVuSans-65" x="97.416016"/>
      <use xlink:href="#DejaVuSans-64" x="158.939453"/>
      <use xlink:href="#DejaVuSans-69" x="222.416016"/>
      <use xlink:href="#DejaVuSans-63" x="250.199219"/>
      <use xlink:href="#DejaVuSans-74" x="305.179688"/>
      <use xlink:href="#DejaVuSans-69" x="344.388672"/>
      <use xlink:href="#DejaVuSans-6f" x="372.171875"/>
      <use xlink:href="#DejaVuSans-6e" x="433.353516"/>
     </g>
    </g>
   </g>
   <g id="line2d_34">
    <path d="M 43.78125 287.112655 
L 49.449821 289.613133 
L 55.118393 291.646654 
L 60.786964 292.218279 
L 66.455536 290.657782 
L 72.124107 288.166421 
L 77.792679 285.660533 
L 83.46125 284.734142 
L 89.129821 285.952856 
L 94.798393 288.954629 
L 100.466964 292.064486 
L 106.135536 293.920224 
L 111.804107 294.277612 
L 117.472679 291.644526 
L 123.14125 286.966059 
L 128.809821 282.235308 
L 134.478393 281.637522 
L 140.146964 284.161434 
L 145.815536 288.377878 
L 151.484107 291.727046 
L 157.152679 291.949109 
L 162.82125 291.613515 
L 168.489821 290.017369 
L 174.158393 288.109761 
L 179.826964 287.078165 
L 185.495536 286.892371 
L 191.164107 287.789745 
L 196.832679 288.742637 
L 202.50125 289.222345 
L 208.169821 288.860922 
L 213.838393 288.056289 
L 219.506964 287.586914 
L 225.175536 287.763271 
L 230.844107 289.895666 
L 236.512679 292.406651 
L 242.18125 293.784445 
L 247.849821 293.416381 
L 253.518393 290.177899 
L 259.186964 285.521031 
L 264.855536 281.95729 
L 270.524107 282.576076 
L 276.192679 285.89735 
L 281.86125 289.987346 
L 287.529821 292.686488 
L 293.198393 292.746864 
L 298.866964 291.521737 
L 304.535536 288.97209 
L 310.204107 286.20915 
L 315.872679 285.126938 
L 321.54125 285.058307 
L 327.209821 286.287469 
L 332.878393 287.938869 
L 338.546964 288.714539 
L 344.215536 290.113709 
L 349.884107 291.072607 
L 355.552679 291.625488 
L 361.22125 291.504873 
L 366.889821 290.927288 
L 372.558393 289.889781 
L 378.226964 288.479889 
L 383.895536 287.959186 
L 389.564107 286.694667 
L 395.232679 285.808661 
L 400.90125 285.867589 
" clip-path="url(#peeea6a50c5)" style="fill: none; stroke: #0000ff; stroke-opacity: 0.3; stroke-width: 1.5; stroke-linecap: square"/>
   </g>
   <g id="line2d_35">
    <path d="M 43.78125 290.097178 
L 49.449821 288.732206 
L 55.118393 287.115095 
L 60.786964 286.0867 
L 66.455536 286.423925 
L 72.124107 287.476966 
L 77.792679 288.824219 
L 83.46125 289.575549 
L 89.129821 289.507617 
L 94.798393 288.227633 
L 100.466964 286.712021 
L 106.135536 285.672651 
L 111.804107 285.726466 
L 117.472679 287.34511 
L 123.14125 289.804416 
L 128.809821 291.823188 
L 134.478393 291.884712 
L 140.146964 290.772652 
L 145.815536 288.626547 
L 151.484107 286.700535 
L 157.152679 286.638265 
L 162.82125 286.975303 
L 168.489821 288.071147 
L 174.158393 289.1598 
L 179.826964 288.977462 
L 185.495536 288.71278 
L 191.164107 287.892719 
L 196.832679 287.192744 
L 202.50125 287.381857 
L 208.169821 288.171558 
L 213.838393 289.231253 
L 219.506964 289.834891 
L 225.175536 289.72084 
L 230.844107 288.0771 
L 236.512679 285.993443 
L 242.18125 284.512109 
L 247.849821 285.119467 
L 253.518393 287.064515 
L 259.186964 289.855423 
L 264.855536 291.949534 
L 270.524107 291.494262 
L 276.192679 290.38299 
L 281.86125 288.440475 
L 287.529821 286.709894 
L 293.198393 286.731472 
L 298.866964 287.175368 
L 304.535536 288.378508 
L 310.204107 289.619837 
L 315.872679 289.496906 
L 321.54125 289.313201 
L 327.209821 288.672781 
L 332.878393 288.070993 
L 338.546964 288.298508 
L 344.215536 287.937673 
L 349.884107 287.675307 
L 355.552679 287.444128 
L 361.22125 287.383149 
L 366.889821 287.122678 
L 372.558393 287.136354 
L 378.226964 287.592227 
L 383.895536 287.976193 
L 389.564107 289.202434 
L 395.232679 290.238217 
L 400.90125 290.660511 
" clip-path="url(#peeea6a50c5)" style="fill: none; stroke: #ff0000; stroke-opacity: 0.3; stroke-width: 1.5; stroke-linecap: square"/>
   </g>
   <g id="line2d_36">
    <path d="M 43.78125 291.794338 
L 49.449821 304.013662 
L 55.118393 306.616065 
L 60.786964 307.005124 
L 66.455536 305.186506 
L 72.124107 297.77222 
L 77.792679 274.752085 
L 83.46125 260.255645 
L 89.129821 273.216774 
L 94.798393 292.365474 
L 100.466964 301.699843 
L 106.135536 304.191147 
L 111.804107 303.70892 
L 117.472679 299.25316 
L 123.14125 280.742732 
L 128.809821 256.475311 
L 134.478393 254.621762 
L 140.146964 271.436348 
L 145.815536 292.011445 
L 151.484107 297.98086 
L 157.152679 295.273183 
L 162.82125 291.685862 
L 168.489821 288.355794 
L 174.158393 287.448788 
L 179.826964 292.333849 
L 185.495536 301.263425 
L 191.164107 305.272497 
L 196.832679 305.503554 
L 202.50125 300.844611 
L 208.169821 285.654844 
L 213.838393 272.848003 
L 219.506964 273.940855 
L 225.175536 291.535063 
L 230.844107 301.642032 
L 236.512679 305.779603 
L 242.18125 306.662121 
L 247.849821 305.724494 
L 253.518393 298.539236 
L 259.186964 273.482755 
L 264.855536 251.26863 
L 270.524107 248.570101 
L 276.192679 266.167426 
L 281.86125 295.252738 
L 287.529821 305.201883 
L 293.198393 307.287839 
L 298.866964 307.359132 
L 304.535536 307.208392 
L 310.204107 305.850133 
L 315.872679 289.683766 
L 321.54125 259.13691 
L 327.209821 245.604708 
L 332.878393 250.320335 
L 338.546964 272.695752 
L 344.215536 296.747515 
L 349.884107 305.143158 
L 355.552679 306.653344 
L 361.22125 307.119241 
L 366.889821 307.174735 
L 372.558393 306.735105 
L 378.226964 303.132259 
L 383.895536 278.360117 
L 389.564107 253.696985 
L 395.232679 249.894337 
L 400.90125 264.533308 
" clip-path="url(#peeea6a50c5)" style="fill: none; stroke: #0000ff; stroke-width: 1.5; stroke-linecap: square"/>
   </g>
   <g id="line2d_37">
    <path d="M 43.78125 298.558844 
L 49.449821 283.711476 
L 55.118393 270.49241 
L 60.786964 263.960008 
L 66.455536 265.291041 
L 72.124107 277.008804 
L 77.792679 295.542838 
L 83.46125 302.590742 
L 89.129821 300.245438 
L 94.798393 296.621257 
L 100.466964 290.407667 
L 106.135536 282.967076 
L 111.804107 285.832528 
L 117.472679 284.737372 
L 123.14125 291.967686 
L 128.809821 298.662923 
L 134.478393 296.925337 
L 140.146964 292.6339 
L 145.815536 287.534977 
L 151.484107 289.974643 
L 157.152679 296.084322 
L 162.82125 300.281632 
L 168.489821 301.240783 
L 174.158393 298.130863 
L 179.826964 291.600772 
L 185.495536 272.832711 
L 191.164107 260.509728 
L 196.832679 260.17429 
L 202.50125 273.409265 
L 208.169821 294.02543 
L 213.838393 303.065309 
L 219.506964 304.483473 
L 225.175536 298.924769 
L 230.844107 288.416907 
L 236.512679 273.261177 
L 242.18125 262.926663 
L 247.849821 272.839112 
L 253.518393 283.466285 
L 259.186964 299.820403 
L 264.855536 305.223405 
L 270.524107 304.985944 
L 276.192679 302.064501 
L 281.86125 290.049372 
L 287.529821 274.735652 
L 293.198393 271.38605 
L 298.866964 269.967875 
L 304.535536 273.201594 
L 310.204107 280.810172 
L 315.872679 296.793007 
L 321.54125 304.434736 
L 327.209821 306.124675 
L 332.878393 305.861679 
L 338.546964 302.380866 
L 344.215536 293.079811 
L 349.884107 281.641177 
L 355.552679 272.397376 
L 361.22125 267.933895 
L 366.889821 267.293939 
L 372.558393 271.162872 
L 378.226964 282.897715 
L 383.895536 302.555686 
L 389.564107 306.351035 
L 395.232679 306.922269 
L 400.90125 306.186572 
" clip-path="url(#peeea6a50c5)" style="fill: none; stroke: #ff0000; stroke-width: 1.5; stroke-linecap: square"/>
   </g>
   <g id="patch_13">
    <path d="M 43.78125 307.872 
L 43.78125 229.603765 
" style="fill: none; stroke: #000000; stroke-width: 0.8; stroke-linejoin: miter; stroke-linecap: square"/>
   </g>
   <g id="patch_14">
    <path d="M 400.90125 307.872 
L 400.90125 229.603765 
" style="fill: none; stroke: #000000; stroke-width: 0.8; stroke-linejoin: miter; stroke-linecap: square"/>
   </g>
   <g id="patch_15">
    <path d="M 43.78125 307.872 
L 400.90125 307.872 
" style="fill: none; stroke: #000000; stroke-width: 0.8; stroke-linejoin: miter; stroke-linecap: square"/>
   </g>
   <g id="patch_16">
    <path d="M 43.78125 229.603765 
L 400.90125 229.603765 
" style="fill: none; stroke: #000000; stroke-width: 0.8; stroke-linejoin: miter; stroke-linecap: square"/>
   </g>
  </g>
  <g id="text_19">
   <!-- Segregated Phase -->
   <g transform="translate(162.087188 16.318125)scale(0.12 -0.12)">
    <defs>
     <path id="DejaVuSans-53" d="M 3425 4513 
L 3425 3897 
Q 3066 4069 2747 4153 
Q 2428 4238 2131 4238 
Q 1616 4238 1336 4038 
Q 1056 3838 1056 3469 
Q 1056 3159 1242 3001 
Q 1428 2844 1947 2747 
L 2328 2669 
Q 3034 2534 3370 2195 
Q 3706 1856 3706 1288 
Q 3706 609 3251 259 
Q 2797 -91 1919 -91 
Q 1588 -91 1214 -16 
Q 841 59 441 206 
L 441 856 
Q 825 641 1194 531 
Q 1563 422 1919 422 
Q 2459 422 2753 634 
Q 3047 847 3047 1241 
Q 3047 1584 2836 1778 
Q 2625 1972 2144 2069 
L 1759 2144 
Q 1053 2284 737 2584 
Q 422 2884 422 3419 
Q 422 4038 858 4394 
Q 1294 4750 2059 4750 
Q 2388 4750 2728 4690 
Q 3069 4631 3425 4513 
z
" transform="scale(0.015625)"/>
     <path id="DejaVuSans-20" transform="scale(0.015625)"/>
     <path id="DejaVuSans-68" d="M 3513 2113 
L 3513 0 
L 2938 0 
L 2938 2094 
Q 2938 2591 2744 2837 
Q 2550 3084 2163 3084 
Q 1697 3084 1428 2787 
Q 1159 2491 1159 1978 
L 1159 0 
L 581 0 
L 581 4863 
L 1159 4863 
L 1159 2956 
Q 1366 3272 1645 3428 
Q 1925 3584 2291 3584 
Q 2894 3584 3203 3211 
Q 3513 2838 3513 2113 
z
" transform="scale(0.015625)"/>
     <path id="DejaVuSans-73" d="M 2834 3397 
L 2834 2853 
Q 2591 2978 2328 3040 
Q 2066 3103 1784 3103 
Q 1356 3103 1142 2972 
Q 928 2841 928 2578 
Q 928 2378 1081 2264 
Q 1234 2150 1697 2047 
L 1894 2003 
Q 2506 1872 2764 1633 
Q 3022 1394 3022 966 
Q 3022 478 2636 193 
Q 2250 -91 1575 -91 
Q 1294 -91 989 -36 
Q 684 19 347 128 
L 347 722 
Q 666 556 975 473 
Q 1284 391 1588 391 
Q 1994 391 2212 530 
Q 2431 669 2431 922 
Q 2431 1156 2273 1281 
Q 2116 1406 1581 1522 
L 1381 1569 
Q 847 1681 609 1914 
Q 372 2147 372 2553 
Q 372 3047 722 3315 
Q 1072 3584 1716 3584 
Q 2034 3584 2315 3537 
Q 2597 3491 2834 3397 
z
" transform="scale(0.015625)"/>
    </defs>
    <use xlink:href="#DejaVuSans-53"/>
    <use xlink:href="#DejaVuSans-65" x="63.476562"/>
    <use xlink:href="#DejaVuSans-67" x="125"/>
    <use xlink:href="#DejaVuSans-72" x="188.476562"/>
    <use xlink:href="#DejaVuSans-65" x="227.339844"/>
    <use xlink:href="#DejaVuSans-67" x="288.863281"/>
    <use xlink:href="#DejaVuSans-61" x="352.339844"/>
    <use xlink:href="#DejaVuSans-74" x="413.619141"/>
    <use xlink:href="#DejaVuSans-65" x="452.828125"/>
    <use xlink:href="#DejaVuSans-64" x="514.351562"/>
    <use xlink:href="#DejaVuSans-20" x="577.828125"/>
    <use xlink:href="#DejaVuSans-50" x="609.615234"/>
    <use xlink:href="#DejaVuSans-68" x="669.917969"/>
    <use xlink:href="#DejaVuSans-61" x="733.296875"/>
    <use xlink:href="#DejaVuSans-73" x="794.576172"/>
    <use xlink:href="#DejaVuSans-65" x="846.675781"/>
   </g>
  </g>
 </g>
 <defs>
  <clipPath id="p07f3320f9a">
   <rect x="43.78125" y="41.76" width="357.12" height="78.268235"/>
  </clipPath>
  <clipPath id="p4f60850f39">
   <rect x="43.78125" y="135.681882" width="357.12" height="78.268235"/>
  </clipPath>
  <clipPath id="peeea6a50c5">
   <rect x="43.78125" y="229.603765" width="357.12" height="78.268235"/>
  </clipPath>
 </defs>
</svg>
