<?xml version="1.0" encoding="utf-8" standalone="no"?>
<!DOCTYPE svg PUBLIC "-//W3C//DTD SVG 1.1//EN"
  "http://www.w3.org/Graphics/SVG/1.1/DTD/svg11.dtd">
<svg xmlns:xlink="http://www.w3.org/1999/xlink" width="416.052813pt" height="331.750125pt" viewBox="0 0 416.052813 331.750125" xmlns="http://www.w3.org/2000/svg" version="1.1">
 <metadata>
  <rdf:RDF xmlns:dc="http://purl.org/dc/elements/1.1/" xmlns:cc="http://creativecommons.org/ns#" xmlns:rdf="http://www.w3.org/1999/02/22-rdf-syntax-ns#">
   <cc:Work>
    <dc:type rdf:resource="http://purl.org/dc/dcmitype/StillImage"/>
    <dc:date>2024-03-22T10:27:53.004356</dc:date>
    <dc:format>image/svg+xml</dc:format>
    <dc:creator>
     <cc:Agent>
      <dc:title>Matplotlib v3.5.2, https://matplotlib.org/</dc:title>
     </cc:Agent>
    </dc:creator>
   </cc:Work>
  </rdf:RDF>
 </metadata>
 <defs>
  <style type="text/css">*{stroke-linejoin: round; stroke-linecap: butt}</style>
 </defs>
 <g id="figure_1">
  <g id="patch_1">
   <path d="M 0 331.750125 
L 416.052813 331.750125 
L 416.052813 0 
L 0 0 
z
" style="fill: #ffffff"/>
  </g>
  <g id="axes_1">
   <g id="patch_2">
    <path d="M 43.78125 120.028235 
L 400.90125 120.028235 
L 400.90125 41.76 
L 43.78125 41.76 
z
" style="fill: #ffffff"/>
   </g>
   <g id="matplotlib.axis_1">
    <g id="xtick_1">
     <g id="line2d_1">
      <defs>
       <path id="m3045e798c1" d="M 0 0 
L 0 3.5 
" style="stroke: #000000; stroke-width: 0.8"/>
      </defs>
      <g>
       <use xlink:href="#m3045e798c1" x="43.78125" y="120.028235" style="stroke: #000000; stroke-width: 0.8"/>
      </g>
     </g>
    </g>
    <g id="xtick_2">
     <g id="line2d_2">
      <g>
       <use xlink:href="#m3045e798c1" x="115.20525" y="120.028235" style="stroke: #000000; stroke-width: 0.8"/>
      </g>
     </g>
    </g>
    <g id="xtick_3">
     <g id="line2d_3">
      <g>
       <use xlink:href="#m3045e798c1" x="186.62925" y="120.028235" style="stroke: #000000; stroke-width: 0.8"/>
      </g>
     </g>
    </g>
    <g id="xtick_4">
     <g id="line2d_4">
      <g>
       <use xlink:href="#m3045e798c1" x="258.05325" y="120.028235" style="stroke: #000000; stroke-width: 0.8"/>
      </g>
     </g>
    </g>
    <g id="xtick_5">
     <g id="line2d_5">
      <g>
       <use xlink:href="#m3045e798c1" x="329.47725" y="120.028235" style="stroke: #000000; stroke-width: 0.8"/>
      </g>
     </g>
    </g>
    <g id="xtick_6">
     <g id="line2d_6">
      <g>
       <use xlink:href="#m3045e798c1" x="400.90125" y="120.028235" style="stroke: #000000; stroke-width: 0.8"/>
      </g>
     </g>
    </g>
   </g>
   <g id="matplotlib.axis_2">
    <g id="ytick_1">
     <g id="line2d_7">
      <defs>
       <path id="mc18ddc9448" d="M 0 0 
L -3.5 0 
" style="stroke: #000000; stroke-width: 0.8"/>
      </defs>
      <g>
       <use xlink:href="#mc18ddc9448" x="43.78125" y="120.028235" style="stroke: #000000; stroke-width: 0.8"/>
      </g>
     </g>
     <g id="text_1">
      <!-- 0.0 -->
      <g transform="translate(20.878125 123.827454)scale(0.1 -0.1)">
       <defs>
        <path id="DejaVuSans-30" d="M 2034 4250 
Q 1547 4250 1301 3770 
Q 1056 3291 1056 2328 
Q 1056 1369 1301 889 
Q 1547 409 2034 409 
Q 2525 409 2770 889 
Q 3016 1369 3016 2328 
Q 3016 3291 2770 3770 
Q 2525 4250 2034 4250 
z
M 2034 4750 
Q 2819 4750 3233 4129 
Q 3647 3509 3647 2328 
Q 3647 1150 3233 529 
Q 2819 -91 2034 -91 
Q 1250 -91 836 529 
Q 422 1150 422 2328 
Q 422 3509 836 4129 
Q 1250 4750 2034 4750 
z
" transform="scale(0.015625)"/>
        <path id="DejaVuSans-2e" d="M 684 794 
L 1344 794 
L 1344 0 
L 684 0 
L 684 794 
z
" transform="scale(0.015625)"/>
       </defs>
       <use xlink:href="#DejaVuSans-30"/>
       <use xlink:href="#DejaVuSans-2e" x="63.623047"/>
       <use xlink:href="#DejaVuSans-30" x="95.410156"/>
      </g>
     </g>
    </g>
    <g id="ytick_2">
     <g id="line2d_8">
      <g>
       <use xlink:href="#mc18ddc9448" x="43.78125" y="80.894118" style="stroke: #000000; stroke-width: 0.8"/>
      </g>
     </g>
     <g id="text_2">
      <!-- 0.5 -->
      <g transform="translate(20.878125 84.693336)scale(0.1 -0.1)">
       <defs>
        <path id="DejaVuSans-35" d="M 691 4666 
L 3169 4666 
L 3169 4134 
L 1269 4134 
L 1269 2991 
Q 1406 3038 1543 3061 
Q 1681 3084 1819 3084 
Q 2600 3084 3056 2656 
Q 3513 2228 3513 1497 
Q 3513 744 3044 326 
Q 2575 -91 1722 -91 
Q 1428 -91 1123 -41 
Q 819 9 494 109 
L 494 744 
Q 775 591 1075 516 
Q 1375 441 1709 441 
Q 2250 441 2565 725 
Q 2881 1009 2881 1497 
Q 2881 1984 2565 2268 
Q 2250 2553 1709 2553 
Q 1456 2553 1204 2497 
Q 953 2441 691 2322 
L 691 4666 
z
" transform="scale(0.015625)"/>
       </defs>
       <use xlink:href="#DejaVuSans-30"/>
       <use xlink:href="#DejaVuSans-2e" x="63.623047"/>
       <use xlink:href="#DejaVuSans-35" x="95.410156"/>
      </g>
     </g>
    </g>
    <g id="ytick_3">
     <g id="line2d_9">
      <g>
       <use xlink:href="#mc18ddc9448" x="43.78125" y="41.76" style="stroke: #000000; stroke-width: 0.8"/>
      </g>
     </g>
     <g id="text_3">
      <!-- 1.0 -->
      <g transform="translate(20.878125 45.559219)scale(0.1 -0.1)">
       <defs>
        <path id="DejaVuSans-31" d="M 794 531 
L 1825 531 
L 1825 4091 
L 703 3866 
L 703 4441 
L 1819 4666 
L 2450 4666 
L 2450 531 
L 3481 531 
L 3481 0 
L 794 0 
L 794 531 
z
" transform="scale(0.015625)"/>
       </defs>
       <use xlink:href="#DejaVuSans-31"/>
       <use xlink:href="#DejaVuSans-2e" x="63.623047"/>
       <use xlink:href="#DejaVuSans-30" x="95.410156"/>
      </g>
     </g>
    </g>
    <g id="text_4">
     <!-- IC -->
     <g transform="translate(14.798438 85.860524)rotate(-90)scale(0.1 -0.1)">
      <defs>
       <path id="DejaVuSans-49" d="M 628 4666 
L 1259 4666 
L 1259 0 
L 628 0 
L 628 4666 
z
" transform="scale(0.015625)"/>
       <path id="DejaVuSans-43" d="M 4122 4306 
L 4122 3641 
Q 3803 3938 3442 4084 
Q 3081 4231 2675 4231 
Q 1875 4231 1450 3742 
Q 1025 3253 1025 2328 
Q 1025 1406 1450 917 
Q 1875 428 2675 428 
Q 3081 428 3442 575 
Q 3803 722 4122 1019 
L 4122 359 
Q 3791 134 3420 21 
Q 3050 -91 2638 -91 
Q 1578 -91 968 557 
Q 359 1206 359 2328 
Q 359 3453 968 4101 
Q 1578 4750 2638 4750 
Q 3056 4750 3426 4639 
Q 3797 4528 4122 4306 
z
" transform="scale(0.015625)"/>
      </defs>
      <use xlink:href="#DejaVuSans-49"/>
      <use xlink:href="#DejaVuSans-43" x="29.492188"/>
     </g>
    </g>
   </g>
   <g id="line2d_10">
    <path d="M 43.78125 101.087322 
L 49.449821 99.678495 
L 55.118393 99.052348 
L 60.786964 100.148103 
L 66.455536 101.243859 
L 72.124107 102.96576 
L 77.792679 103.122296 
L 83.46125 101.243859 
L 89.129821 100.148103 
L 94.798393 99.521958 
L 100.466964 100.617713 
L 106.135536 101.087322 
L 111.804107 102.49615 
L 117.472679 102.809224 
L 123.14125 102.49615 
L 128.809821 101.556932 
L 134.478393 101.556932 
L 140.146964 100.461176 
L 145.815536 99.052348 
L 151.484107 98.739274 
L 157.152679 99.991566 
L 162.82125 102.026541 
L 168.489821 101.556932 
L 174.158393 101.713468 
L 179.826964 100.148103 
L 185.495536 99.835032 
L 191.164107 98.739274 
L 196.832679 99.052348 
L 202.50125 100.461176 
L 208.169821 100.617713 
L 213.838393 102.339614 
L 219.506964 102.96576 
L 225.175536 102.339614 
L 230.844107 101.087322 
L 236.512679 100.930786 
L 242.18125 98.895811 
L 247.849821 100.461176 
L 253.518393 101.087322 
L 259.186964 99.835032 
L 264.855536 101.870005 
L 270.524107 99.991566 
L 276.192679 100.148103 
L 281.86125 99.835032 
L 287.529821 98.895811 
L 293.198393 99.052348 
L 298.866964 98.269666 
L 304.535536 98.113129 
L 310.204107 99.835032 
L 315.872679 100.774249 
L 321.54125 102.026541 
L 327.209821 101.400395 
L 332.878393 99.365421 
L 338.546964 97.173911 
L 344.215536 98.426203 
L 349.884107 100.774249 
L 355.552679 100.617713 
L 361.22125 99.991566 
L 366.889821 99.678495 
L 372.558393 100.30464 
L 378.226964 100.148103 
L 383.895536 100.148103 
L 389.564107 97.800056 
L 395.232679 99.835032 
L 400.90125 101.870005 
" clip-path="url(#p138ce15cf7)" style="fill: none; stroke: #0000ff; stroke-width: 1.5; stroke-linecap: square"/>
   </g>
   <g id="line2d_11">
    <path d="M 43.78125 101.556932 
L 49.449821 100.148103 
L 55.118393 98.58274 
L 60.786964 98.113129 
L 66.455536 99.365421 
L 72.124107 102.026541 
L 77.792679 101.400395 
L 83.46125 101.087322 
L 89.129821 100.774249 
L 94.798393 99.835032 
L 100.466964 100.617713 
L 106.135536 102.026541 
L 111.804107 100.774249 
L 117.472679 102.026541 
L 123.14125 102.49615 
L 128.809821 101.713468 
L 134.478393 101.087322 
L 140.146964 99.678495 
L 145.815536 97.643519 
L 151.484107 99.052348 
L 157.152679 101.087322 
L 162.82125 101.087322 
L 168.489821 103.43537 
L 174.158393 102.96576 
L 179.826964 102.49615 
L 185.495536 101.713468 
L 191.164107 100.461176 
L 196.832679 99.678495 
L 202.50125 99.052348 
L 208.169821 99.208885 
L 213.838393 100.30464 
L 219.506964 100.461176 
L 225.175536 101.870005 
L 230.844107 99.678495 
L 236.512679 98.895811 
L 242.18125 97.956593 
L 247.849821 100.148103 
L 253.518393 101.243859 
L 259.186964 102.49615 
L 264.855536 100.930786 
L 270.524107 102.809224 
L 276.192679 103.748442 
L 281.86125 102.49615 
L 287.529821 100.148103 
L 293.198393 99.052348 
L 298.866964 98.269666 
L 304.535536 97.330448 
L 310.204107 97.800056 
L 315.872679 97.486984 
L 321.54125 98.739274 
L 327.209821 99.365421 
L 332.878393 98.739274 
L 338.546964 101.556932 
L 344.215536 101.713468 
L 349.884107 102.026541 
L 355.552679 100.30464 
L 361.22125 100.461176 
L 366.889821 100.930786 
L 372.558393 101.087322 
L 378.226964 101.870005 
L 383.895536 100.617713 
L 389.564107 99.208885 
L 395.232679 98.895811 
L 400.90125 99.678495 
" clip-path="url(#p138ce15cf7)" style="fill: none; stroke: #ff0000; stroke-width: 1.5; stroke-linecap: square"/>
   </g>
   <g id="patch_3">
    <path d="M 43.78125 120.028235 
L 43.78125 41.76 
" style="fill: none; stroke: #000000; stroke-width: 0.8; stroke-linejoin: miter; stroke-linecap: square"/>
   </g>
   <g id="patch_4">
    <path d="M 400.90125 120.028235 
L 400.90125 41.76 
" style="fill: none; stroke: #000000; stroke-width: 0.8; stroke-linejoin: miter; stroke-linecap: square"/>
   </g>
   <g id="patch_5">
    <path d="M 43.78125 120.028235 
L 400.90125 120.028235 
" style="fill: none; stroke: #000000; stroke-width: 0.8; stroke-linejoin: miter; stroke-linecap: square"/>
   </g>
   <g id="patch_6">
    <path d="M 43.78125 41.76 
L 400.90125 41.76 
" style="fill: none; stroke: #000000; stroke-width: 0.8; stroke-linejoin: miter; stroke-linecap: square"/>
   </g>
  </g>
  <g id="axes_2">
   <g id="patch_7">
    <path d="M 43.78125 213.950118 
L 400.90125 213.950118 
L 400.90125 135.681882 
L 43.78125 135.681882 
z
" style="fill: #ffffff"/>
   </g>
   <g id="matplotlib.axis_3">
    <g id="xtick_7">
     <g id="line2d_12">
      <g>
       <use xlink:href="#m3045e798c1" x="43.78125" y="213.950118" style="stroke: #000000; stroke-width: 0.8"/>
      </g>
     </g>
    </g>
    <g id="xtick_8">
     <g id="line2d_13">
      <g>
       <use xlink:href="#m3045e798c1" x="115.20525" y="213.950118" style="stroke: #000000; stroke-width: 0.8"/>
      </g>
     </g>
    </g>
    <g id="xtick_9">
     <g id="line2d_14">
      <g>
       <use xlink:href="#m3045e798c1" x="186.62925" y="213.950118" style="stroke: #000000; stroke-width: 0.8"/>
      </g>
     </g>
    </g>
    <g id="xtick_10">
     <g id="line2d_15">
      <g>
       <use xlink:href="#m3045e798c1" x="258.05325" y="213.950118" style="stroke: #000000; stroke-width: 0.8"/>
      </g>
     </g>
    </g>
    <g id="xtick_11">
     <g id="line2d_16">
      <g>
       <use xlink:href="#m3045e798c1" x="329.47725" y="213.950118" style="stroke: #000000; stroke-width: 0.8"/>
      </g>
     </g>
    </g>
    <g id="xtick_12">
     <g id="line2d_17">
      <g>
       <use xlink:href="#m3045e798c1" x="400.90125" y="213.950118" style="stroke: #000000; stroke-width: 0.8"/>
      </g>
     </g>
    </g>
   </g>
   <g id="matplotlib.axis_4">
    <g id="ytick_4">
     <g id="line2d_18">
      <g>
       <use xlink:href="#mc18ddc9448" x="43.78125" y="213.950118" style="stroke: #000000; stroke-width: 0.8"/>
      </g>
     </g>
     <g id="text_5">
      <!-- 0.0 -->
      <g transform="translate(20.878125 217.749336)scale(0.1 -0.1)">
       <use xlink:href="#DejaVuSans-30"/>
       <use xlink:href="#DejaVuSans-2e" x="63.623047"/>
       <use xlink:href="#DejaVuSans-30" x="95.410156"/>
      </g>
     </g>
    </g>
    <g id="ytick_5">
     <g id="line2d_19">
      <g>
       <use xlink:href="#mc18ddc9448" x="43.78125" y="174.816" style="stroke: #000000; stroke-width: 0.8"/>
      </g>
     </g>
     <g id="text_6">
      <!-- 0.5 -->
      <g transform="translate(20.878125 178.615219)scale(0.1 -0.1)">
       <use xlink:href="#DejaVuSans-30"/>
       <use xlink:href="#DejaVuSans-2e" x="63.623047"/>
       <use xlink:href="#DejaVuSans-35" x="95.410156"/>
      </g>
     </g>
    </g>
    <g id="ytick_6">
     <g id="line2d_20">
      <g>
       <use xlink:href="#mc18ddc9448" x="43.78125" y="135.681882" style="stroke: #000000; stroke-width: 0.8"/>
      </g>
     </g>
     <g id="text_7">
      <!-- 1.0 -->
      <g transform="translate(20.878125 139.481101)scale(0.1 -0.1)">
       <use xlink:href="#DejaVuSans-31"/>
       <use xlink:href="#DejaVuSans-2e" x="63.623047"/>
       <use xlink:href="#DejaVuSans-30" x="95.410156"/>
      </g>
     </g>
    </g>
    <g id="text_8">
     <!-- Target -->
     <g transform="translate(14.798438 190.287875)rotate(-90)scale(0.1 -0.1)">
      <defs>
       <path id="DejaVuSans-54" d="M -19 4666 
L 3928 4666 
L 3928 4134 
L 2272 4134 
L 2272 0 
L 1638 0 
L 1638 4134 
L -19 4134 
L -19 4666 
z
" transform="scale(0.015625)"/>
       <path id="DejaVuSans-61" d="M 2194 1759 
Q 1497 1759 1228 1600 
Q 959 1441 959 1056 
Q 959 750 1161 570 
Q 1363 391 1709 391 
Q 2188 391 2477 730 
Q 2766 1069 2766 1631 
L 2766 1759 
L 2194 1759 
z
M 3341 1997 
L 3341 0 
L 2766 0 
L 2766 531 
Q 2569 213 2275 61 
Q 1981 -91 1556 -91 
Q 1019 -91 701 211 
Q 384 513 384 1019 
Q 384 1609 779 1909 
Q 1175 2209 1959 2209 
L 2766 2209 
L 2766 2266 
Q 2766 2663 2505 2880 
Q 2244 3097 1772 3097 
Q 1472 3097 1187 3025 
Q 903 2953 641 2809 
L 641 3341 
Q 956 3463 1253 3523 
Q 1550 3584 1831 3584 
Q 2591 3584 2966 3190 
Q 3341 2797 3341 1997 
z
" transform="scale(0.015625)"/>
       <path id="DejaVuSans-72" d="M 2631 2963 
Q 2534 3019 2420 3045 
Q 2306 3072 2169 3072 
Q 1681 3072 1420 2755 
Q 1159 2438 1159 1844 
L 1159 0 
L 581 0 
L 581 3500 
L 1159 3500 
L 1159 2956 
Q 1341 3275 1631 3429 
Q 1922 3584 2338 3584 
Q 2397 3584 2469 3576 
Q 2541 3569 2628 3553 
L 2631 2963 
z
" transform="scale(0.015625)"/>
       <path id="DejaVuSans-67" d="M 2906 1791 
Q 2906 2416 2648 2759 
Q 2391 3103 1925 3103 
Q 1463 3103 1205 2759 
Q 947 2416 947 1791 
Q 947 1169 1205 825 
Q 1463 481 1925 481 
Q 2391 481 2648 825 
Q 2906 1169 2906 1791 
z
M 3481 434 
Q 3481 -459 3084 -895 
Q 2688 -1331 1869 -1331 
Q 1566 -1331 1297 -1286 
Q 1028 -1241 775 -1147 
L 775 -588 
Q 1028 -725 1275 -790 
Q 1522 -856 1778 -856 
Q 2344 -856 2625 -561 
Q 2906 -266 2906 331 
L 2906 616 
Q 2728 306 2450 153 
Q 2172 0 1784 0 
Q 1141 0 747 490 
Q 353 981 353 1791 
Q 353 2603 747 3093 
Q 1141 3584 1784 3584 
Q 2172 3584 2450 3431 
Q 2728 3278 2906 2969 
L 2906 3500 
L 3481 3500 
L 3481 434 
z
" transform="scale(0.015625)"/>
       <path id="DejaVuSans-65" d="M 3597 1894 
L 3597 1613 
L 953 1613 
Q 991 1019 1311 708 
Q 1631 397 2203 397 
Q 2534 397 2845 478 
Q 3156 559 3463 722 
L 3463 178 
Q 3153 47 2828 -22 
Q 2503 -91 2169 -91 
Q 1331 -91 842 396 
Q 353 884 353 1716 
Q 353 2575 817 3079 
Q 1281 3584 2069 3584 
Q 2775 3584 3186 3129 
Q 3597 2675 3597 1894 
z
M 3022 2063 
Q 3016 2534 2758 2815 
Q 2500 3097 2075 3097 
Q 1594 3097 1305 2825 
Q 1016 2553 972 2059 
L 3022 2063 
z
" transform="scale(0.015625)"/>
       <path id="DejaVuSans-74" d="M 1172 4494 
L 1172 3500 
L 2356 3500 
L 2356 3053 
L 1172 3053 
L 1172 1153 
Q 1172 725 1289 603 
Q 1406 481 1766 481 
L 2356 481 
L 2356 0 
L 1766 0 
Q 1100 0 847 248 
Q 594 497 594 1153 
L 594 3053 
L 172 3053 
L 172 3500 
L 594 3500 
L 594 4494 
L 1172 4494 
z
" transform="scale(0.015625)"/>
      </defs>
      <use xlink:href="#DejaVuSans-54"/>
      <use xlink:href="#DejaVuSans-61" x="44.583984"/>
      <use xlink:href="#DejaVuSans-72" x="105.863281"/>
      <use xlink:href="#DejaVuSans-67" x="145.226562"/>
      <use xlink:href="#DejaVuSans-65" x="208.703125"/>
      <use xlink:href="#DejaVuSans-74" x="270.226562"/>
     </g>
    </g>
   </g>
   <g id="line2d_21">
    <path d="M 43.78125 179.355558 
L 49.449821 181.07746 
L 55.118393 185.773552 
L 60.786964 193.600377 
L 66.455536 199.23569 
L 72.124107 205.027539 
L 77.792679 205.027539 
L 83.46125 202.053346 
L 89.129821 197.983398 
L 94.798393 195.322277 
L 100.466964 193.130767 
L 106.135536 192.348085 
L 111.804107 195.478814 
L 117.472679 200.174908 
L 123.14125 199.392226 
L 128.809821 198.139934 
L 134.478393 190.626183 
L 140.146964 185.930089 
L 145.815536 183.582041 
L 151.484107 185.930089 
L 157.152679 190.469646 
L 162.82125 194.852668 
L 168.489821 202.522955 
L 174.158393 205.966758 
L 179.826964 207.219049 
L 185.495536 205.810221 
L 191.164107 200.331445 
L 196.832679 191.565401 
L 202.50125 186.086625 
L 208.169821 184.051652 
L 213.838393 184.208189 
L 219.506964 186.712773 
L 225.175536 191.721938 
L 230.844107 195.009205 
L 236.512679 195.478814 
L 242.18125 194.696131 
L 247.849821 194.069985 
L 253.518393 195.009205 
L 259.186964 197.826861 
L 264.855536 201.114127 
L 270.524107 204.244857 
L 276.192679 205.497148 
L 281.86125 205.184075 
L 287.529821 201.114127 
L 293.198393 194.696131 
L 298.866964 187.025844 
L 304.535536 185.617017 
L 310.204107 183.895115 
L 315.872679 184.99087 
L 321.54125 186.556236 
L 327.209821 187.338917 
L 332.878393 186.086625 
L 338.546964 187.651991 
L 344.215536 187.182381 
L 349.884107 192.348085 
L 355.552679 197.826861 
L 361.22125 202.679492 
L 366.889821 205.810221 
L 372.558393 208.627877 
L 378.226964 208.314805 
L 383.895536 202.053346 
L 389.564107 195.478814 
L 395.232679 186.086625 
L 400.90125 180.294776 
" clip-path="url(#p00d32bbf6d)" style="fill: none; stroke: #0000ff; stroke-opacity: 0.3; stroke-width: 1.5; stroke-linecap: square"/>
   </g>
   <g id="line2d_22">
    <path d="M 43.78125 179.981705 
L 49.449821 179.512094 
L 55.118393 184.051652 
L 60.786964 189.843501 
L 66.455536 198.139934 
L 72.124107 202.992565 
L 77.792679 202.522955 
L 83.46125 197.357252 
L 89.129821 194.539596 
L 94.798393 192.661156 
L 100.466964 194.069985 
L 106.135536 197.357252 
L 111.804107 200.331445 
L 117.472679 202.053346 
L 123.14125 200.174908 
L 128.809821 197.826861 
L 134.478393 191.408867 
L 140.146964 184.834333 
L 145.815536 180.451313 
L 151.484107 181.547068 
L 157.152679 188.904283 
L 162.82125 197.044178 
L 168.489821 202.679492 
L 174.158393 206.905976 
L 179.826964 207.845195 
L 185.495536 205.184075 
L 191.164107 201.740273 
L 196.832679 195.948423 
L 202.50125 189.217354 
L 208.169821 183.425507 
L 213.838393 182.016678 
L 219.506964 181.547068 
L 225.175536 185.147407 
L 230.844107 190.313112 
L 236.512679 193.44384 
L 242.18125 195.322277 
L 247.849821 198.453007 
L 253.518393 201.114127 
L 259.186964 202.679492 
L 264.855536 204.871003 
L 270.524107 205.966758 
L 276.192679 207.375586 
L 281.86125 203.931783 
L 287.529821 199.079153 
L 293.198393 190.469646 
L 298.866964 185.303944 
L 304.535536 182.329749 
L 310.204107 182.79936 
L 315.872679 181.233994 
L 321.54125 179.981705 
L 327.209821 183.895115 
L 332.878393 188.591209 
L 338.546964 191.408867 
L 344.215536 193.287304 
L 349.884107 194.696131 
L 355.552679 198.139934 
L 361.22125 204.714466 
L 366.889821 207.532122 
L 372.558393 209.097487 
L 378.226964 208.94095 
L 383.895536 205.810221 
L 389.564107 197.826861 
L 395.232679 189.217354 
L 400.90125 183.425507 
" clip-path="url(#p00d32bbf6d)" style="fill: none; stroke: #ff0000; stroke-opacity: 0.3; stroke-width: 1.5; stroke-linecap: square"/>
   </g>
   <g id="line2d_23">
    <path d="M 43.78125 174.972537 
L 49.449821 177.164047 
L 55.118393 178.416339 
L 60.786964 182.79936 
L 66.455536 190.000038 
L 72.124107 200.331445 
L 77.792679 207.845195 
L 83.46125 211.288998 
L 89.129821 211.288998 
L 94.798393 210.975925 
L 100.466964 212.384753 
L 106.135536 210.193242 
L 111.804107 205.810221 
L 117.472679 195.635351 
L 123.14125 184.521262 
L 128.809821 177.477121 
L 134.478393 175.911755 
L 140.146964 175.911755 
L 145.815536 177.790192 
L 151.484107 182.016678 
L 157.152679 191.408867 
L 162.82125 202.679492 
L 168.489821 209.723633 
L 174.158393 211.288998 
L 179.826964 211.445534 
L 185.495536 210.819388 
L 191.164107 206.74944 
L 196.832679 197.513789 
L 202.50125 186.086625 
L 208.169821 178.259802 
L 213.838393 176.381366 
L 219.506964 175.755218 
L 225.175536 177.164047 
L 230.844107 179.042484 
L 236.512679 184.99087 
L 242.18125 193.600377 
L 247.849821 203.775247 
L 253.518393 210.506315 
L 259.186964 212.384753 
L 264.855536 212.07168 
L 270.524107 212.07168 
L 276.192679 211.132461 
L 281.86125 209.254024 
L 287.529821 203.305637 
L 293.198393 194.539596 
L 298.866964 184.834333 
L 304.535536 180.607849 
L 310.204107 179.668631 
L 315.872679 180.920923 
L 321.54125 178.103266 
L 327.209821 175.755218 
L 332.878393 174.659466 
L 338.546964 177.946729 
L 344.215536 186.399699 
L 349.884107 199.079153 
L 355.552679 208.314805 
L 361.22125 211.758607 
L 366.889821 212.541289 
L 372.558393 211.758607 
L 378.226964 211.132461 
L 383.895536 205.966758 
L 389.564107 196.10496 
L 395.232679 183.425507 
L 400.90125 176.850974 
" clip-path="url(#p00d32bbf6d)" style="fill: none; stroke: #0000ff; stroke-width: 1.5; stroke-linecap: square"/>
   </g>
   <g id="line2d_24">
    <path d="M 43.78125 177.946729 
L 49.449821 176.068292 
L 55.118393 174.972537 
L 60.786964 176.537902 
L 66.455536 184.051652 
L 72.124107 196.574569 
L 77.792679 205.966758 
L 83.46125 210.506315 
L 89.129821 212.854362 
L 94.798393 212.854362 
L 100.466964 212.697826 
L 106.135536 210.193242 
L 111.804107 204.714466 
L 117.472679 196.261497 
L 123.14125 186.086625 
L 128.809821 179.512094 
L 134.478393 179.825168 
L 140.146964 178.885947 
L 145.815536 178.103266 
L 151.484107 180.138239 
L 157.152679 188.747746 
L 162.82125 199.079153 
L 168.489821 207.845195 
L 174.158393 210.662852 
L 179.826964 210.349779 
L 185.495536 211.445534 
L 191.164107 207.219049 
L 196.832679 197.357252 
L 202.50125 186.712773 
L 208.169821 179.825168 
L 213.838393 177.320584 
L 219.506964 177.790192 
L 225.175536 177.00751 
L 230.844107 177.946729 
L 236.512679 182.642823 
L 242.18125 194.226522 
L 247.849821 205.184075 
L 253.518393 210.506315 
L 259.186964 211.288998 
L 264.855536 212.228216 
L 270.524107 211.758607 
L 276.192679 212.541289 
L 281.86125 210.819388 
L 287.529821 206.436367 
L 293.198393 194.852668 
L 298.866964 183.738578 
L 304.535536 176.850974 
L 310.204107 173.56371 
L 315.872679 172.781024 
L 321.54125 174.502926 
L 327.209821 176.694437 
L 332.878393 180.138239 
L 338.546964 184.834333 
L 344.215536 193.130767 
L 349.884107 203.462174 
L 355.552679 210.349779 
L 361.22125 212.384753 
L 366.889821 211.602071 
L 372.558393 211.758607 
L 378.226964 210.506315 
L 383.895536 205.966758 
L 389.564107 195.322277 
L 395.232679 185.773552 
L 400.90125 180.607849 
" clip-path="url(#p00d32bbf6d)" style="fill: none; stroke: #ff0000; stroke-width: 1.5; stroke-linecap: square"/>
   </g>
   <g id="patch_8">
    <path d="M 43.78125 213.950118 
L 43.78125 135.681882 
" style="fill: none; stroke: #000000; stroke-width: 0.8; stroke-linejoin: miter; stroke-linecap: square"/>
   </g>
   <g id="patch_9">
    <path d="M 400.90125 213.950118 
L 400.90125 135.681882 
" style="fill: none; stroke: #000000; stroke-width: 0.8; stroke-linejoin: miter; stroke-linecap: square"/>
   </g>
   <g id="patch_10">
    <path d="M 43.78125 213.950118 
L 400.90125 213.950118 
" style="fill: none; stroke: #000000; stroke-width: 0.8; stroke-linejoin: miter; stroke-linecap: square"/>
   </g>
   <g id="patch_11">
    <path d="M 43.78125 135.681882 
L 400.90125 135.681882 
" style="fill: none; stroke: #000000; stroke-width: 0.8; stroke-linejoin: miter; stroke-linecap: square"/>
   </g>
  </g>
  <g id="axes_3">
   <g id="patch_12">
    <path d="M 43.78125 307.872 
L 400.90125 307.872 
L 400.90125 229.603765 
L 43.78125 229.603765 
z
" style="fill: #ffffff"/>
   </g>
   <g id="matplotlib.axis_5">
    <g id="xtick_13">
     <g id="line2d_25">
      <g>
       <use xlink:href="#m3045e798c1" x="43.78125" y="307.872" style="stroke: #000000; stroke-width: 0.8"/>
      </g>
     </g>
     <g id="text_9">
      <!-- 0.0 -->
      <g transform="translate(35.829688 322.470437)scale(0.1 -0.1)">
       <use xlink:href="#DejaVuSans-30"/>
       <use xlink:href="#DejaVuSans-2e" x="63.623047"/>
       <use xlink:href="#DejaVuSans-30" x="95.410156"/>
      </g>
     </g>
    </g>
    <g id="xtick_14">
     <g id="line2d_26">
      <g>
       <use xlink:href="#m3045e798c1" x="115.20525" y="307.872" style="stroke: #000000; stroke-width: 0.8"/>
      </g>
     </g>
     <g id="text_10">
      <!-- 0.2 -->
      <g transform="translate(107.253688 322.470437)scale(0.1 -0.1)">
       <defs>
        <path id="DejaVuSans-32" d="M 1228 531 
L 3431 531 
L 3431 0 
L 469 0 
L 469 531 
Q 828 903 1448 1529 
Q 2069 2156 2228 2338 
Q 2531 2678 2651 2914 
Q 2772 3150 2772 3378 
Q 2772 3750 2511 3984 
Q 2250 4219 1831 4219 
Q 1534 4219 1204 4116 
Q 875 4013 500 3803 
L 500 4441 
Q 881 4594 1212 4672 
Q 1544 4750 1819 4750 
Q 2544 4750 2975 4387 
Q 3406 4025 3406 3419 
Q 3406 3131 3298 2873 
Q 3191 2616 2906 2266 
Q 2828 2175 2409 1742 
Q 1991 1309 1228 531 
z
" transform="scale(0.015625)"/>
       </defs>
       <use xlink:href="#DejaVuSans-30"/>
       <use xlink:href="#DejaVuSans-2e" x="63.623047"/>
       <use xlink:href="#DejaVuSans-32" x="95.410156"/>
      </g>
     </g>
    </g>
    <g id="xtick_15">
     <g id="line2d_27">
      <g>
       <use xlink:href="#m3045e798c1" x="186.62925" y="307.872" style="stroke: #000000; stroke-width: 0.8"/>
      </g>
     </g>
     <g id="text_11">
      <!-- 0.4 -->
      <g transform="translate(178.677688 322.470437)scale(0.1 -0.1)">
       <defs>
        <path id="DejaVuSans-34" d="M 2419 4116 
L 825 1625 
L 2419 1625 
L 2419 4116 
z
M 2253 4666 
L 3047 4666 
L 3047 1625 
L 3713 1625 
L 3713 1100 
L 3047 1100 
L 3047 0 
L 2419 0 
L 2419 1100 
L 313 1100 
L 313 1709 
L 2253 4666 
z
" transform="scale(0.015625)"/>
       </defs>
       <use xlink:href="#DejaVuSans-30"/>
       <use xlink:href="#DejaVuSans-2e" x="63.623047"/>
       <use xlink:href="#DejaVuSans-34" x="95.410156"/>
      </g>
     </g>
    </g>
    <g id="xtick_16">
     <g id="line2d_28">
      <g>
       <use xlink:href="#m3045e798c1" x="258.05325" y="307.872" style="stroke: #000000; stroke-width: 0.8"/>
      </g>
     </g>
     <g id="text_12">
      <!-- 0.6 -->
      <g transform="translate(250.101688 322.470437)scale(0.1 -0.1)">
       <defs>
        <path id="DejaVuSans-36" d="M 2113 2584 
Q 1688 2584 1439 2293 
Q 1191 2003 1191 1497 
Q 1191 994 1439 701 
Q 1688 409 2113 409 
Q 2538 409 2786 701 
Q 3034 994 3034 1497 
Q 3034 2003 2786 2293 
Q 2538 2584 2113 2584 
z
M 3366 4563 
L 3366 3988 
Q 3128 4100 2886 4159 
Q 2644 4219 2406 4219 
Q 1781 4219 1451 3797 
Q 1122 3375 1075 2522 
Q 1259 2794 1537 2939 
Q 1816 3084 2150 3084 
Q 2853 3084 3261 2657 
Q 3669 2231 3669 1497 
Q 3669 778 3244 343 
Q 2819 -91 2113 -91 
Q 1303 -91 875 529 
Q 447 1150 447 2328 
Q 447 3434 972 4092 
Q 1497 4750 2381 4750 
Q 2619 4750 2861 4703 
Q 3103 4656 3366 4563 
z
" transform="scale(0.015625)"/>
       </defs>
       <use xlink:href="#DejaVuSans-30"/>
       <use xlink:href="#DejaVuSans-2e" x="63.623047"/>
       <use xlink:href="#DejaVuSans-36" x="95.410156"/>
      </g>
     </g>
    </g>
    <g id="xtick_17">
     <g id="line2d_29">
      <g>
       <use xlink:href="#m3045e798c1" x="329.47725" y="307.872" style="stroke: #000000; stroke-width: 0.8"/>
      </g>
     </g>
     <g id="text_13">
      <!-- 0.8 -->
      <g transform="translate(321.525688 322.470437)scale(0.1 -0.1)">
       <defs>
        <path id="DejaVuSans-38" d="M 2034 2216 
Q 1584 2216 1326 1975 
Q 1069 1734 1069 1313 
Q 1069 891 1326 650 
Q 1584 409 2034 409 
Q 2484 409 2743 651 
Q 3003 894 3003 1313 
Q 3003 1734 2745 1975 
Q 2488 2216 2034 2216 
z
M 1403 2484 
Q 997 2584 770 2862 
Q 544 3141 544 3541 
Q 544 4100 942 4425 
Q 1341 4750 2034 4750 
Q 2731 4750 3128 4425 
Q 3525 4100 3525 3541 
Q 3525 3141 3298 2862 
Q 3072 2584 2669 2484 
Q 3125 2378 3379 2068 
Q 3634 1759 3634 1313 
Q 3634 634 3220 271 
Q 2806 -91 2034 -91 
Q 1263 -91 848 271 
Q 434 634 434 1313 
Q 434 1759 690 2068 
Q 947 2378 1403 2484 
z
M 1172 3481 
Q 1172 3119 1398 2916 
Q 1625 2713 2034 2713 
Q 2441 2713 2670 2916 
Q 2900 3119 2900 3481 
Q 2900 3844 2670 4047 
Q 2441 4250 2034 4250 
Q 1625 4250 1398 4047 
Q 1172 3844 1172 3481 
z
" transform="scale(0.015625)"/>
       </defs>
       <use xlink:href="#DejaVuSans-30"/>
       <use xlink:href="#DejaVuSans-2e" x="63.623047"/>
       <use xlink:href="#DejaVuSans-38" x="95.410156"/>
      </g>
     </g>
    </g>
    <g id="xtick_18">
     <g id="line2d_30">
      <g>
       <use xlink:href="#m3045e798c1" x="400.90125" y="307.872" style="stroke: #000000; stroke-width: 0.8"/>
      </g>
     </g>
     <g id="text_14">
      <!-- 1.0 -->
      <g transform="translate(392.949687 322.470437)scale(0.1 -0.1)">
       <use xlink:href="#DejaVuSans-31"/>
       <use xlink:href="#DejaVuSans-2e" x="63.623047"/>
       <use xlink:href="#DejaVuSans-30" x="95.410156"/>
      </g>
     </g>
    </g>
   </g>
   <g id="matplotlib.axis_6">
    <g id="ytick_7">
     <g id="line2d_31">
      <g>
       <use xlink:href="#mc18ddc9448" x="43.78125" y="307.872" style="stroke: #000000; stroke-width: 0.8"/>
      </g>
     </g>
     <g id="text_15">
      <!-- 0.0 -->
      <g transform="translate(20.878125 311.671219)scale(0.1 -0.1)">
       <use xlink:href="#DejaVuSans-30"/>
       <use xlink:href="#DejaVuSans-2e" x="63.623047"/>
       <use xlink:href="#DejaVuSans-30" x="95.410156"/>
      </g>
     </g>
    </g>
    <g id="ytick_8">
     <g id="line2d_32">
      <g>
       <use xlink:href="#mc18ddc9448" x="43.78125" y="268.737882" style="stroke: #000000; stroke-width: 0.8"/>
      </g>
     </g>
     <g id="text_16">
      <!-- 0.5 -->
      <g transform="translate(20.878125 272.537101)scale(0.1 -0.1)">
       <use xlink:href="#DejaVuSans-30"/>
       <use xlink:href="#DejaVuSans-2e" x="63.623047"/>
       <use xlink:href="#DejaVuSans-35" x="95.410156"/>
      </g>
     </g>
    </g>
    <g id="ytick_9">
     <g id="line2d_33">
      <g>
       <use xlink:href="#mc18ddc9448" x="43.78125" y="229.603765" style="stroke: #000000; stroke-width: 0.8"/>
      </g>
     </g>
     <g id="text_17">
      <!-- 1.0 -->
      <g transform="translate(20.878125 233.402983)scale(0.1 -0.1)">
       <use xlink:href="#DejaVuSans-31"/>
       <use xlink:href="#DejaVuSans-2e" x="63.623047"/>
       <use xlink:href="#DejaVuSans-30" x="95.410156"/>
      </g>
     </g>
    </g>
    <g id="text_18">
     <!-- Prediction -->
     <g transform="translate(14.798438 293.574601)rotate(-90)scale(0.1 -0.1)">
      <defs>
       <path id="DejaVuSans-50" d="M 1259 4147 
L 1259 2394 
L 2053 2394 
Q 2494 2394 2734 2622 
Q 2975 2850 2975 3272 
Q 2975 3691 2734 3919 
Q 2494 4147 2053 4147 
L 1259 4147 
z
M 628 4666 
L 2053 4666 
Q 2838 4666 3239 4311 
Q 3641 3956 3641 3272 
Q 3641 2581 3239 2228 
Q 2838 1875 2053 1875 
L 1259 1875 
L 1259 0 
L 628 0 
L 628 4666 
z
" transform="scale(0.015625)"/>
       <path id="DejaVuSans-64" d="M 2906 2969 
L 2906 4863 
L 3481 4863 
L 3481 0 
L 2906 0 
L 2906 525 
Q 2725 213 2448 61 
Q 2172 -91 1784 -91 
Q 1150 -91 751 415 
Q 353 922 353 1747 
Q 353 2572 751 3078 
Q 1150 3584 1784 3584 
Q 2172 3584 2448 3432 
Q 2725 3281 2906 2969 
z
M 947 1747 
Q 947 1113 1208 752 
Q 1469 391 1925 391 
Q 2381 391 2643 752 
Q 2906 1113 2906 1747 
Q 2906 2381 2643 2742 
Q 2381 3103 1925 3103 
Q 1469 3103 1208 2742 
Q 947 2381 947 1747 
z
" transform="scale(0.015625)"/>
       <path id="DejaVuSans-69" d="M 603 3500 
L 1178 3500 
L 1178 0 
L 603 0 
L 603 3500 
z
M 603 4863 
L 1178 4863 
L 1178 4134 
L 603 4134 
L 603 4863 
z
" transform="scale(0.015625)"/>
       <path id="DejaVuSans-63" d="M 3122 3366 
L 3122 2828 
Q 2878 2963 2633 3030 
Q 2388 3097 2138 3097 
Q 1578 3097 1268 2742 
Q 959 2388 959 1747 
Q 959 1106 1268 751 
Q 1578 397 2138 397 
Q 2388 397 2633 464 
Q 2878 531 3122 666 
L 3122 134 
Q 2881 22 2623 -34 
Q 2366 -91 2075 -91 
Q 1284 -91 818 406 
Q 353 903 353 1747 
Q 353 2603 823 3093 
Q 1294 3584 2113 3584 
Q 2378 3584 2631 3529 
Q 2884 3475 3122 3366 
z
" transform="scale(0.015625)"/>
       <path id="DejaVuSans-6f" d="M 1959 3097 
Q 1497 3097 1228 2736 
Q 959 2375 959 1747 
Q 959 1119 1226 758 
Q 1494 397 1959 397 
Q 2419 397 2687 759 
Q 2956 1122 2956 1747 
Q 2956 2369 2687 2733 
Q 2419 3097 1959 3097 
z
M 1959 3584 
Q 2709 3584 3137 3096 
Q 3566 2609 3566 1747 
Q 3566 888 3137 398 
Q 2709 -91 1959 -91 
Q 1206 -91 779 398 
Q 353 888 353 1747 
Q 353 2609 779 3096 
Q 1206 3584 1959 3584 
z
" transform="scale(0.015625)"/>
       <path id="DejaVuSans-6e" d="M 3513 2113 
L 3513 0 
L 2938 0 
L 2938 2094 
Q 2938 2591 2744 2837 
Q 2550 3084 2163 3084 
Q 1697 3084 1428 2787 
Q 1159 2491 1159 1978 
L 1159 0 
L 581 0 
L 581 3500 
L 1159 3500 
L 1159 2956 
Q 1366 3272 1645 3428 
Q 1925 3584 2291 3584 
Q 2894 3584 3203 3211 
Q 3513 2838 3513 2113 
z
" transform="scale(0.015625)"/>
      </defs>
      <use xlink:href="#DejaVuSans-50"/>
      <use xlink:href="#DejaVuSans-72" x="58.552734"/>
      <use xlink:href="#DejaVuSans-65" x="97.416016"/>
      <use xlink:href="#DejaVuSans-64" x="158.939453"/>
      <use xlink:href="#DejaVuSans-69" x="222.416016"/>
      <use xlink:href="#DejaVuSans-63" x="250.199219"/>
      <use xlink:href="#DejaVuSans-74" x="305.179688"/>
      <use xlink:href="#DejaVuSans-69" x="344.388672"/>
      <use xlink:href="#DejaVuSans-6f" x="372.171875"/>
      <use xlink:href="#DejaVuSans-6e" x="433.353516"/>
     </g>
    </g>
   </g>
   <g id="line2d_34">
    <path d="M 43.78125 268.794118 
L 49.449821 270.900506 
L 55.118393 277.662313 
L 60.786964 292.471242 
L 66.455536 303.323511 
L 72.124107 305.961353 
L 77.792679 305.149749 
L 83.46125 297.616033 
L 89.129821 278.449697 
L 94.798393 267.951417 
L 100.466964 268.451358 
L 106.135536 276.042904 
L 111.804107 293.544022 
L 117.472679 304.215646 
L 123.14125 306.166083 
L 128.809821 304.68005 
L 134.478393 295.415839 
L 140.146964 277.949831 
L 145.815536 269.320998 
L 151.484107 268.341755 
L 157.152679 274.676092 
L 162.82125 293.389848 
L 168.489821 303.726736 
L 174.158393 305.543222 
L 179.826964 303.35056 
L 185.495536 292.814877 
L 191.164107 276.633425 
L 196.832679 270.895295 
L 202.50125 271.980418 
L 208.169821 279.557094 
L 213.838393 295.632759 
L 219.506964 303.910881 
L 225.175536 304.900045 
L 230.844107 299.898642 
L 236.512679 283.919914 
L 242.18125 271.8782 
L 247.849821 269.904408 
L 253.518393 272.071461 
L 259.186964 284.225032 
L 264.855536 299.245024 
L 270.524107 305.761131 
L 276.192679 306.694096 
L 281.86125 306.092331 
L 287.529821 302.160981 
L 293.198393 286.635102 
L 298.866964 272.047573 
L 304.535536 268.110037 
L 310.204107 268.364069 
L 315.872679 270.272509 
L 321.54125 276.994331 
L 327.209821 291.796498 
L 332.878393 302.739164 
L 338.546964 306.011498 
L 344.215536 306.275 
L 349.884107 303.995568 
L 355.552679 294.749982 
L 361.22125 276.780779 
L 366.889821 273.355719 
L 372.558393 278.845318 
L 378.226964 291.840411 
L 383.895536 300.862558 
L 389.564107 300.253401 
L 395.232679 289.182594 
L 400.90125 271.664483 
" clip-path="url(#pb907c692b5)" style="fill: none; stroke: #0000ff; stroke-opacity: 0.3; stroke-width: 1.5; stroke-linecap: square"/>
   </g>
   <g id="line2d_35">
    <path d="M 43.78125 271.522016 
L 49.449821 270.401323 
L 55.118393 273.826677 
L 60.786964 288.181021 
L 66.455536 302.121922 
L 72.124107 305.563233 
L 77.792679 305.135836 
L 83.46125 300.209892 
L 89.129821 284.397428 
L 94.798393 274.405639 
L 100.466964 271.465666 
L 106.135536 274.456608 
L 111.804107 289.814281 
L 117.472679 301.789971 
L 123.14125 304.502971 
L 128.809821 301.863387 
L 134.478393 290.114003 
L 140.146964 275.347894 
L 145.815536 271.729095 
L 151.484107 274.143555 
L 157.152679 282.781273 
L 162.82125 296.229716 
L 168.489821 303.85995 
L 174.158393 305.271745 
L 179.826964 302.785785 
L 185.495536 292.211869 
L 191.164107 277.044756 
L 196.832679 271.443128 
L 202.50125 269.641928 
L 208.169821 276.782379 
L 213.838393 293.395105 
L 219.506964 302.720151 
L 225.175536 303.805449 
L 230.844107 297.924045 
L 236.512679 282.060595 
L 242.18125 271.154633 
L 247.849821 271.173749 
L 253.518393 273.699515 
L 259.186964 284.685727 
L 264.855536 298.497684 
L 270.524107 304.977533 
L 276.192679 306.157287 
L 281.86125 305.468062 
L 287.529821 301.411159 
L 293.198393 288.216905 
L 298.866964 274.670151 
L 304.535536 269.688689 
L 310.204107 268.604688 
L 315.872679 269.592564 
L 321.54125 274.607178 
L 327.209821 289.83965 
L 332.878393 301.856636 
L 338.546964 305.574427 
L 344.215536 305.943508 
L 349.884107 303.798129 
L 355.552679 295.891642 
L 361.22125 277.698223 
L 366.889821 270.378182 
L 372.558393 274.658149 
L 378.226964 290.326579 
L 383.895536 300.124585 
L 389.564107 299.766101 
L 395.232679 289.672528 
L 400.90125 273.870359 
" clip-path="url(#pb907c692b5)" style="fill: none; stroke: #ff0000; stroke-opacity: 0.3; stroke-width: 1.5; stroke-linecap: square"/>
   </g>
   <g id="line2d_36">
    <path d="M 43.78125 265.083614 
L 49.449821 274.242394 
L 55.118393 292.063704 
L 60.786964 303.322212 
L 66.455536 306.651338 
L 72.124107 307.057556 
L 77.792679 306.581144 
L 83.46125 303.967736 
L 89.129821 289.050903 
L 94.798393 273.496912 
L 100.466964 269.39004 
L 106.135536 278.100298 
L 111.804107 292.698209 
L 117.472679 303.000468 
L 123.14125 304.403374 
L 128.809821 300.457777 
L 134.478393 289.440427 
L 140.146964 275.486097 
L 145.815536 269.654601 
L 151.484107 276.663581 
L 157.152679 292.721691 
L 162.82125 303.455976 
L 168.489821 304.993691 
L 174.158393 301.730574 
L 179.826964 291.080701 
L 185.495536 275.961317 
L 191.164107 270.360907 
L 196.832679 269.512615 
L 202.50125 271.027095 
L 208.169821 279.631501 
L 213.838393 296.034041 
L 219.506964 304.183611 
L 225.175536 305.235852 
L 230.844107 301.545244 
L 236.512679 288.338899 
L 242.18125 275.261038 
L 247.849821 271.283347 
L 253.518393 272.438457 
L 259.186964 283.389704 
L 264.855536 298.403606 
L 270.524107 305.464162 
L 276.192679 306.597845 
L 281.86125 306.28102 
L 287.529821 303.631381 
L 293.198393 292.070613 
L 298.866964 276.5676 
L 304.535536 270.20685 
L 310.204107 270.760943 
L 315.872679 271.44837 
L 321.54125 273.505435 
L 327.209821 282.311315 
L 332.878393 296.383165 
L 338.546964 304.543168 
L 344.215536 306.199754 
L 349.884107 306.483241 
L 355.552679 306.203511 
L 361.22125 302.697124 
L 366.889821 295.147397 
L 372.558393 283.225045 
L 378.226964 274.621094 
L 383.895536 277.56131 
L 389.564107 269.178182 
L 395.232679 262.687486 
L 400.90125 261.127114 
" clip-path="url(#pb907c692b5)" style="fill: none; stroke: #0000ff; stroke-width: 1.5; stroke-linecap: square"/>
   </g>
   <g id="line2d_37">
    <path d="M 43.78125 274.730385 
L 49.449821 278.517241 
L 55.118393 288.829904 
L 60.786964 299.300925 
L 66.455536 303.643475 
L 72.124107 304.923121 
L 77.792679 304.310939 
L 83.46125 301.007726 
L 89.129821 291.920862 
L 94.798393 283.748559 
L 100.466964 279.884405 
L 106.135536 281.993888 
L 111.804107 293.189204 
L 117.472679 300.381441 
L 123.14125 300.623644 
L 128.809821 292.295273 
L 134.478393 277.9861 
L 140.146964 271.829307 
L 145.815536 277.104487 
L 151.484107 289.086146 
L 157.152679 302.434357 
L 162.82125 305.882521 
L 168.489821 306.21401 
L 174.158393 303.641313 
L 179.826964 289.045737 
L 185.495536 271.242252 
L 191.164107 266.793322 
L 196.832679 268.629002 
L 202.50125 269.090484 
L 208.169821 278.167164 
L 213.838393 295.105522 
L 219.506964 303.494958 
L 225.175536 304.434652 
L 230.844107 299.95287 
L 236.512679 286.371978 
L 242.18125 274.099353 
L 247.849821 272.077764 
L 253.518393 274.140896 
L 259.186964 284.922537 
L 264.855536 298.440743 
L 270.524107 305.1528 
L 276.192679 306.357788 
L 281.86125 306.083748 
L 287.529821 303.66437 
L 293.198393 293.475024 
L 298.866964 277.605183 
L 304.535536 268.715438 
L 310.204107 267.26571 
L 315.872679 267.777403 
L 321.54125 268.832116 
L 327.209821 280.175996 
L 332.878393 296.846622 
L 338.546964 304.537826 
L 344.215536 306.224747 
L 349.884107 306.518561 
L 355.552679 306.149431 
L 361.22125 303.513359 
L 366.889821 293.911024 
L 372.558393 275.762097 
L 378.226964 266.592781 
L 383.895536 263.958604 
L 389.564107 267.614584 
L 395.232679 271.401832 
L 400.90125 274.447569 
" clip-path="url(#pb907c692b5)" style="fill: none; stroke: #ff0000; stroke-width: 1.5; stroke-linecap: square"/>
   </g>
   <g id="patch_13">
    <path d="M 43.78125 307.872 
L 43.78125 229.603765 
" style="fill: none; stroke: #000000; stroke-width: 0.8; stroke-linejoin: miter; stroke-linecap: square"/>
   </g>
   <g id="patch_14">
    <path d="M 400.90125 307.872 
L 400.90125 229.603765 
" style="fill: none; stroke: #000000; stroke-width: 0.8; stroke-linejoin: miter; stroke-linecap: square"/>
   </g>
   <g id="patch_15">
    <path d="M 43.78125 307.872 
L 400.90125 307.872 
" style="fill: none; stroke: #000000; stroke-width: 0.8; stroke-linejoin: miter; stroke-linecap: square"/>
   </g>
   <g id="patch_16">
    <path d="M 43.78125 229.603765 
L 400.90125 229.603765 
" style="fill: none; stroke: #000000; stroke-width: 0.8; stroke-linejoin: miter; stroke-linecap: square"/>
   </g>
  </g>
  <g id="text_19">
   <!-- Integrated Phase -->
   <g transform="translate(165.3375 16.318125)scale(0.12 -0.12)">
    <defs>
     <path id="DejaVuSans-20" transform="scale(0.015625)"/>
     <path id="DejaVuSans-68" d="M 3513 2113 
L 3513 0 
L 2938 0 
L 2938 2094 
Q 2938 2591 2744 2837 
Q 2550 3084 2163 3084 
Q 1697 3084 1428 2787 
Q 1159 2491 1159 1978 
L 1159 0 
L 581 0 
L 581 4863 
L 1159 4863 
L 1159 2956 
Q 1366 3272 1645 3428 
Q 1925 3584 2291 3584 
Q 2894 3584 3203 3211 
Q 3513 2838 3513 2113 
z
" transform="scale(0.015625)"/>
     <path id="DejaVuSans-73" d="M 2834 3397 
L 2834 2853 
Q 2591 2978 2328 3040 
Q 2066 3103 1784 3103 
Q 1356 3103 1142 2972 
Q 928 2841 928 2578 
Q 928 2378 1081 2264 
Q 1234 2150 1697 2047 
L 1894 2003 
Q 2506 1872 2764 1633 
Q 3022 1394 3022 966 
Q 3022 478 2636 193 
Q 2250 -91 1575 -91 
Q 1294 -91 989 -36 
Q 684 19 347 128 
L 347 722 
Q 666 556 975 473 
Q 1284 391 1588 391 
Q 1994 391 2212 530 
Q 2431 669 2431 922 
Q 2431 1156 2273 1281 
Q 2116 1406 1581 1522 
L 1381 1569 
Q 847 1681 609 1914 
Q 372 2147 372 2553 
Q 372 3047 722 3315 
Q 1072 3584 1716 3584 
Q 2034 3584 2315 3537 
Q 2597 3491 2834 3397 
z
" transform="scale(0.015625)"/>
    </defs>
    <use xlink:href="#DejaVuSans-49"/>
    <use xlink:href="#DejaVuSans-6e" x="29.492188"/>
    <use xlink:href="#DejaVuSans-74" x="92.871094"/>
    <use xlink:href="#DejaVuSans-65" x="132.080078"/>
    <use xlink:href="#DejaVuSans-67" x="193.603516"/>
    <use xlink:href="#DejaVuSans-72" x="257.080078"/>
    <use xlink:href="#DejaVuSans-61" x="298.193359"/>
    <use xlink:href="#DejaVuSans-74" x="359.472656"/>
    <use xlink:href="#DejaVuSans-65" x="398.681641"/>
    <use xlink:href="#DejaVuSans-64" x="460.205078"/>
    <use xlink:href="#DejaVuSans-20" x="523.681641"/>
    <use xlink:href="#DejaVuSans-50" x="555.46875"/>
    <use xlink:href="#DejaVuSans-68" x="615.771484"/>
    <use xlink:href="#DejaVuSans-61" x="679.150391"/>
    <use xlink:href="#DejaVuSans-73" x="740.429688"/>
    <use xlink:href="#DejaVuSans-65" x="792.529297"/>
   </g>
  </g>
 </g>
 <defs>
  <clipPath id="p138ce15cf7">
   <rect x="43.78125" y="41.76" width="357.12" height="78.268235"/>
  </clipPath>
  <clipPath id="p00d32bbf6d">
   <rect x="43.78125" y="135.681882" width="357.12" height="78.268235"/>
  </clipPath>
  <clipPath id="pb907c692b5">
   <rect x="43.78125" y="229.603765" width="357.12" height="78.268235"/>
  </clipPath>
 </defs>
</svg>
