<?xml version="1.0" encoding="utf-8" standalone="no"?>
<!DOCTYPE svg PUBLIC "-//W3C//DTD SVG 1.1//EN"
  "http://www.w3.org/Graphics/SVG/1.1/DTD/svg11.dtd">
<svg xmlns:xlink="http://www.w3.org/1999/xlink" width="416.052813pt" height="331.750125pt" viewBox="0 0 416.052813 331.750125" xmlns="http://www.w3.org/2000/svg" version="1.1">
 <metadata>
  <rdf:RDF xmlns:dc="http://purl.org/dc/elements/1.1/" xmlns:cc="http://creativecommons.org/ns#" xmlns:rdf="http://www.w3.org/1999/02/22-rdf-syntax-ns#">
   <cc:Work>
    <dc:type rdf:resource="http://purl.org/dc/dcmitype/StillImage"/>
    <dc:date>2024-03-22T10:28:32.012327</dc:date>
    <dc:format>image/svg+xml</dc:format>
    <dc:creator>
     <cc:Agent>
      <dc:title>Matplotlib v3.5.2, https://matplotlib.org/</dc:title>
     </cc:Agent>
    </dc:creator>
   </cc:Work>
  </rdf:RDF>
 </metadata>
 <defs>
  <style type="text/css">*{stroke-linejoin: round; stroke-linecap: butt}</style>
 </defs>
 <g id="figure_1">
  <g id="patch_1">
   <path d="M 0 331.750125 
L 416.052813 331.750125 
L 416.052813 0 
L 0 0 
z
" style="fill: #ffffff"/>
  </g>
  <g id="axes_1">
   <g id="patch_2">
    <path d="M 43.78125 120.028235 
L 400.90125 120.028235 
L 400.90125 41.76 
L 43.78125 41.76 
z
" style="fill: #ffffff"/>
   </g>
   <g id="matplotlib.axis_1">
    <g id="xtick_1">
     <g id="line2d_1">
      <defs>
       <path id="mc8f077a9bc" d="M 0 0 
L 0 3.5 
" style="stroke: #000000; stroke-width: 0.8"/>
      </defs>
      <g>
       <use xlink:href="#mc8f077a9bc" x="43.78125" y="120.028235" style="stroke: #000000; stroke-width: 0.8"/>
      </g>
     </g>
    </g>
    <g id="xtick_2">
     <g id="line2d_2">
      <g>
       <use xlink:href="#mc8f077a9bc" x="115.20525" y="120.028235" style="stroke: #000000; stroke-width: 0.8"/>
      </g>
     </g>
    </g>
    <g id="xtick_3">
     <g id="line2d_3">
      <g>
       <use xlink:href="#mc8f077a9bc" x="186.62925" y="120.028235" style="stroke: #000000; stroke-width: 0.8"/>
      </g>
     </g>
    </g>
    <g id="xtick_4">
     <g id="line2d_4">
      <g>
       <use xlink:href="#mc8f077a9bc" x="258.05325" y="120.028235" style="stroke: #000000; stroke-width: 0.8"/>
      </g>
     </g>
    </g>
    <g id="xtick_5">
     <g id="line2d_5">
      <g>
       <use xlink:href="#mc8f077a9bc" x="329.47725" y="120.028235" style="stroke: #000000; stroke-width: 0.8"/>
      </g>
     </g>
    </g>
    <g id="xtick_6">
     <g id="line2d_6">
      <g>
       <use xlink:href="#mc8f077a9bc" x="400.90125" y="120.028235" style="stroke: #000000; stroke-width: 0.8"/>
      </g>
     </g>
    </g>
   </g>
   <g id="matplotlib.axis_2">
    <g id="ytick_1">
     <g id="line2d_7">
      <defs>
       <path id="md12d9df184" d="M 0 0 
L -3.5 0 
" style="stroke: #000000; stroke-width: 0.8"/>
      </defs>
      <g>
       <use xlink:href="#md12d9df184" x="43.78125" y="120.028235" style="stroke: #000000; stroke-width: 0.8"/>
      </g>
     </g>
     <g id="text_1">
      <!-- 0.0 -->
      <g transform="translate(20.878125 123.827454)scale(0.1 -0.1)">
       <defs>
        <path id="DejaVuSans-30" d="M 2034 4250 
Q 1547 4250 1301 3770 
Q 1056 3291 1056 2328 
Q 1056 1369 1301 889 
Q 1547 409 2034 409 
Q 2525 409 2770 889 
Q 3016 1369 3016 2328 
Q 3016 3291 2770 3770 
Q 2525 4250 2034 4250 
z
M 2034 4750 
Q 2819 4750 3233 4129 
Q 3647 3509 3647 2328 
Q 3647 1150 3233 529 
Q 2819 -91 2034 -91 
Q 1250 -91 836 529 
Q 422 1150 422 2328 
Q 422 3509 836 4129 
Q 1250 4750 2034 4750 
z
" transform="scale(0.015625)"/>
        <path id="DejaVuSans-2e" d="M 684 794 
L 1344 794 
L 1344 0 
L 684 0 
L 684 794 
z
" transform="scale(0.015625)"/>
       </defs>
       <use xlink:href="#DejaVuSans-30"/>
       <use xlink:href="#DejaVuSans-2e" x="63.623047"/>
       <use xlink:href="#DejaVuSans-30" x="95.410156"/>
      </g>
     </g>
    </g>
    <g id="ytick_2">
     <g id="line2d_8">
      <g>
       <use xlink:href="#md12d9df184" x="43.78125" y="80.894118" style="stroke: #000000; stroke-width: 0.8"/>
      </g>
     </g>
     <g id="text_2">
      <!-- 0.5 -->
      <g transform="translate(20.878125 84.693336)scale(0.1 -0.1)">
       <defs>
        <path id="DejaVuSans-35" d="M 691 4666 
L 3169 4666 
L 3169 4134 
L 1269 4134 
L 1269 2991 
Q 1406 3038 1543 3061 
Q 1681 3084 1819 3084 
Q 2600 3084 3056 2656 
Q 3513 2228 3513 1497 
Q 3513 744 3044 326 
Q 2575 -91 1722 -91 
Q 1428 -91 1123 -41 
Q 819 9 494 109 
L 494 744 
Q 775 591 1075 516 
Q 1375 441 1709 441 
Q 2250 441 2565 725 
Q 2881 1009 2881 1497 
Q 2881 1984 2565 2268 
Q 2250 2553 1709 2553 
Q 1456 2553 1204 2497 
Q 953 2441 691 2322 
L 691 4666 
z
" transform="scale(0.015625)"/>
       </defs>
       <use xlink:href="#DejaVuSans-30"/>
       <use xlink:href="#DejaVuSans-2e" x="63.623047"/>
       <use xlink:href="#DejaVuSans-35" x="95.410156"/>
      </g>
     </g>
    </g>
    <g id="ytick_3">
     <g id="line2d_9">
      <g>
       <use xlink:href="#md12d9df184" x="43.78125" y="41.76" style="stroke: #000000; stroke-width: 0.8"/>
      </g>
     </g>
     <g id="text_3">
      <!-- 1.0 -->
      <g transform="translate(20.878125 45.559219)scale(0.1 -0.1)">
       <defs>
        <path id="DejaVuSans-31" d="M 794 531 
L 1825 531 
L 1825 4091 
L 703 3866 
L 703 4441 
L 1819 4666 
L 2450 4666 
L 2450 531 
L 3481 531 
L 3481 0 
L 794 0 
L 794 531 
z
" transform="scale(0.015625)"/>
       </defs>
       <use xlink:href="#DejaVuSans-31"/>
       <use xlink:href="#DejaVuSans-2e" x="63.623047"/>
       <use xlink:href="#DejaVuSans-30" x="95.410156"/>
      </g>
     </g>
    </g>
    <g id="text_4">
     <!-- IC -->
     <g transform="translate(14.798438 85.860524)rotate(-90)scale(0.1 -0.1)">
      <defs>
       <path id="DejaVuSans-49" d="M 628 4666 
L 1259 4666 
L 1259 0 
L 628 0 
L 628 4666 
z
" transform="scale(0.015625)"/>
       <path id="DejaVuSans-43" d="M 4122 4306 
L 4122 3641 
Q 3803 3938 3442 4084 
Q 3081 4231 2675 4231 
Q 1875 4231 1450 3742 
Q 1025 3253 1025 2328 
Q 1025 1406 1450 917 
Q 1875 428 2675 428 
Q 3081 428 3442 575 
Q 3803 722 4122 1019 
L 4122 359 
Q 3791 134 3420 21 
Q 3050 -91 2638 -91 
Q 1578 -91 968 557 
Q 359 1206 359 2328 
Q 359 3453 968 4101 
Q 1578 4750 2638 4750 
Q 3056 4750 3426 4639 
Q 3797 4528 4122 4306 
z
" transform="scale(0.015625)"/>
      </defs>
      <use xlink:href="#DejaVuSans-49"/>
      <use xlink:href="#DejaVuSans-43" x="29.492188"/>
     </g>
    </g>
   </g>
   <g id="line2d_10">
    <path d="M 43.78125 99.835032 
L 49.449821 102.96576 
L 55.118393 101.243859 
L 60.786964 102.49615 
L 66.455536 101.556932 
L 72.124107 100.930786 
L 77.792679 99.835032 
L 83.46125 98.895811 
L 89.129821 99.521958 
L 94.798393 100.930786 
L 100.466964 99.991566 
L 106.135536 101.556932 
L 111.804107 102.026541 
L 117.472679 102.49615 
L 123.14125 102.652687 
L 128.809821 104.218051 
L 134.478393 101.400395 
L 140.146964 100.461176 
L 145.815536 99.678495 
L 151.484107 99.678495 
L 157.152679 98.739274 
L 162.82125 95.295472 
L 168.489821 94.199717 
L 174.158393 96.547764 
L 179.826964 98.739274 
L 185.495536 99.991566 
L 191.164107 101.087322 
L 196.832679 98.426203 
L 202.50125 100.930786 
L 208.169821 102.339614 
L 213.838393 102.652687 
L 219.506964 103.278833 
L 225.175536 103.43537 
L 230.844107 102.96576 
L 236.512679 101.870005 
L 242.18125 100.461176 
L 247.849821 99.365421 
L 253.518393 99.678495 
L 259.186964 99.991566 
L 264.855536 101.243859 
L 270.524107 102.183078 
L 276.192679 101.870005 
L 281.86125 100.30464 
L 287.529821 101.713468 
L 293.198393 101.870005 
L 298.866964 99.678495 
L 304.535536 98.739274 
L 310.204107 101.556932 
L 315.872679 102.652687 
L 321.54125 103.122296 
L 327.209821 100.617713 
L 332.878393 97.486984 
L 338.546964 96.704301 
L 344.215536 98.895811 
L 349.884107 98.113129 
L 355.552679 97.173911 
L 361.22125 99.835032 
L 366.889821 100.461176 
L 372.558393 100.930786 
L 378.226964 102.026541 
L 383.895536 100.930786 
L 389.564107 98.58274 
L 395.232679 99.991566 
L 400.90125 100.461176 
" clip-path="url(#pf952e69358)" style="fill: none; stroke: #0000ff; stroke-width: 1.5; stroke-linecap: square"/>
   </g>
   <g id="line2d_11">
    <path d="M 43.78125 104.374588 
L 49.449821 101.243859 
L 55.118393 100.148103 
L 60.786964 99.521958 
L 66.455536 100.617713 
L 72.124107 99.521958 
L 77.792679 101.243859 
L 83.46125 101.087322 
L 89.129821 99.991566 
L 94.798393 100.774249 
L 100.466964 97.643519 
L 106.135536 97.800056 
L 111.804107 99.991566 
L 117.472679 103.122296 
L 123.14125 104.061516 
L 128.809821 102.96576 
L 134.478393 103.748442 
L 140.146964 100.461176 
L 145.815536 98.739274 
L 151.484107 96.547764 
L 157.152679 98.269666 
L 162.82125 99.991566 
L 168.489821 101.713468 
L 174.158393 102.809224 
L 179.826964 103.591906 
L 185.495536 103.278833 
L 191.164107 101.087322 
L 196.832679 97.643519 
L 202.50125 95.608545 
L 208.169821 95.138937 
L 213.838393 98.58274 
L 219.506964 99.678495 
L 225.175536 102.809224 
L 230.844107 105.000734 
L 236.512679 106.879172 
L 242.18125 105.470343 
L 247.849821 102.339614 
L 253.518393 98.58274 
L 259.186964 94.825864 
L 264.855536 92.477817 
L 270.524107 94.199717 
L 276.192679 98.269666 
L 281.86125 99.521958 
L 287.529821 102.339614 
L 293.198393 104.061516 
L 298.866964 104.061516 
L 304.535536 102.339614 
L 310.204107 101.713468 
L 315.872679 102.026541 
L 321.54125 102.652687 
L 327.209821 101.243859 
L 332.878393 102.026541 
L 338.546964 101.556932 
L 344.215536 99.365421 
L 349.884107 97.486984 
L 355.552679 96.078156 
L 361.22125 94.669327 
L 366.889821 95.608545 
L 372.558393 97.486984 
L 378.226964 99.521958 
L 383.895536 103.591906 
L 389.564107 103.43537 
L 395.232679 102.96576 
L 400.90125 103.904979 
" clip-path="url(#pf952e69358)" style="fill: none; stroke: #ff0000; stroke-width: 1.5; stroke-linecap: square"/>
   </g>
   <g id="patch_3">
    <path d="M 43.78125 120.028235 
L 43.78125 41.76 
" style="fill: none; stroke: #000000; stroke-width: 0.8; stroke-linejoin: miter; stroke-linecap: square"/>
   </g>
   <g id="patch_4">
    <path d="M 400.90125 120.028235 
L 400.90125 41.76 
" style="fill: none; stroke: #000000; stroke-width: 0.8; stroke-linejoin: miter; stroke-linecap: square"/>
   </g>
   <g id="patch_5">
    <path d="M 43.78125 120.028235 
L 400.90125 120.028235 
" style="fill: none; stroke: #000000; stroke-width: 0.8; stroke-linejoin: miter; stroke-linecap: square"/>
   </g>
   <g id="patch_6">
    <path d="M 43.78125 41.76 
L 400.90125 41.76 
" style="fill: none; stroke: #000000; stroke-width: 0.8; stroke-linejoin: miter; stroke-linecap: square"/>
   </g>
  </g>
  <g id="axes_2">
   <g id="patch_7">
    <path d="M 43.78125 213.950118 
L 400.90125 213.950118 
L 400.90125 135.681882 
L 43.78125 135.681882 
z
" style="fill: #ffffff"/>
   </g>
   <g id="matplotlib.axis_3">
    <g id="xtick_7">
     <g id="line2d_12">
      <g>
       <use xlink:href="#mc8f077a9bc" x="43.78125" y="213.950118" style="stroke: #000000; stroke-width: 0.8"/>
      </g>
     </g>
    </g>
    <g id="xtick_8">
     <g id="line2d_13">
      <g>
       <use xlink:href="#mc8f077a9bc" x="115.20525" y="213.950118" style="stroke: #000000; stroke-width: 0.8"/>
      </g>
     </g>
    </g>
    <g id="xtick_9">
     <g id="line2d_14">
      <g>
       <use xlink:href="#mc8f077a9bc" x="186.62925" y="213.950118" style="stroke: #000000; stroke-width: 0.8"/>
      </g>
     </g>
    </g>
    <g id="xtick_10">
     <g id="line2d_15">
      <g>
       <use xlink:href="#mc8f077a9bc" x="258.05325" y="213.950118" style="stroke: #000000; stroke-width: 0.8"/>
      </g>
     </g>
    </g>
    <g id="xtick_11">
     <g id="line2d_16">
      <g>
       <use xlink:href="#mc8f077a9bc" x="329.47725" y="213.950118" style="stroke: #000000; stroke-width: 0.8"/>
      </g>
     </g>
    </g>
    <g id="xtick_12">
     <g id="line2d_17">
      <g>
       <use xlink:href="#mc8f077a9bc" x="400.90125" y="213.950118" style="stroke: #000000; stroke-width: 0.8"/>
      </g>
     </g>
    </g>
   </g>
   <g id="matplotlib.axis_4">
    <g id="ytick_4">
     <g id="line2d_18">
      <g>
       <use xlink:href="#md12d9df184" x="43.78125" y="213.950118" style="stroke: #000000; stroke-width: 0.8"/>
      </g>
     </g>
     <g id="text_5">
      <!-- 0.0 -->
      <g transform="translate(20.878125 217.749336)scale(0.1 -0.1)">
       <use xlink:href="#DejaVuSans-30"/>
       <use xlink:href="#DejaVuSans-2e" x="63.623047"/>
       <use xlink:href="#DejaVuSans-30" x="95.410156"/>
      </g>
     </g>
    </g>
    <g id="ytick_5">
     <g id="line2d_19">
      <g>
       <use xlink:href="#md12d9df184" x="43.78125" y="174.816" style="stroke: #000000; stroke-width: 0.8"/>
      </g>
     </g>
     <g id="text_6">
      <!-- 0.5 -->
      <g transform="translate(20.878125 178.615219)scale(0.1 -0.1)">
       <use xlink:href="#DejaVuSans-30"/>
       <use xlink:href="#DejaVuSans-2e" x="63.623047"/>
       <use xlink:href="#DejaVuSans-35" x="95.410156"/>
      </g>
     </g>
    </g>
    <g id="ytick_6">
     <g id="line2d_20">
      <g>
       <use xlink:href="#md12d9df184" x="43.78125" y="135.681882" style="stroke: #000000; stroke-width: 0.8"/>
      </g>
     </g>
     <g id="text_7">
      <!-- 1.0 -->
      <g transform="translate(20.878125 139.481101)scale(0.1 -0.1)">
       <use xlink:href="#DejaVuSans-31"/>
       <use xlink:href="#DejaVuSans-2e" x="63.623047"/>
       <use xlink:href="#DejaVuSans-30" x="95.410156"/>
      </g>
     </g>
    </g>
    <g id="text_8">
     <!-- Target -->
     <g transform="translate(14.798438 190.287875)rotate(-90)scale(0.1 -0.1)">
      <defs>
       <path id="DejaVuSans-54" d="M -19 4666 
L 3928 4666 
L 3928 4134 
L 2272 4134 
L 2272 0 
L 1638 0 
L 1638 4134 
L -19 4134 
L -19 4666 
z
" transform="scale(0.015625)"/>
       <path id="DejaVuSans-61" d="M 2194 1759 
Q 1497 1759 1228 1600 
Q 959 1441 959 1056 
Q 959 750 1161 570 
Q 1363 391 1709 391 
Q 2188 391 2477 730 
Q 2766 1069 2766 1631 
L 2766 1759 
L 2194 1759 
z
M 3341 1997 
L 3341 0 
L 2766 0 
L 2766 531 
Q 2569 213 2275 61 
Q 1981 -91 1556 -91 
Q 1019 -91 701 211 
Q 384 513 384 1019 
Q 384 1609 779 1909 
Q 1175 2209 1959 2209 
L 2766 2209 
L 2766 2266 
Q 2766 2663 2505 2880 
Q 2244 3097 1772 3097 
Q 1472 3097 1187 3025 
Q 903 2953 641 2809 
L 641 3341 
Q 956 3463 1253 3523 
Q 1550 3584 1831 3584 
Q 2591 3584 2966 3190 
Q 3341 2797 3341 1997 
z
" transform="scale(0.015625)"/>
       <path id="DejaVuSans-72" d="M 2631 2963 
Q 2534 3019 2420 3045 
Q 2306 3072 2169 3072 
Q 1681 3072 1420 2755 
Q 1159 2438 1159 1844 
L 1159 0 
L 581 0 
L 581 3500 
L 1159 3500 
L 1159 2956 
Q 1341 3275 1631 3429 
Q 1922 3584 2338 3584 
Q 2397 3584 2469 3576 
Q 2541 3569 2628 3553 
L 2631 2963 
z
" transform="scale(0.015625)"/>
       <path id="DejaVuSans-67" d="M 2906 1791 
Q 2906 2416 2648 2759 
Q 2391 3103 1925 3103 
Q 1463 3103 1205 2759 
Q 947 2416 947 1791 
Q 947 1169 1205 825 
Q 1463 481 1925 481 
Q 2391 481 2648 825 
Q 2906 1169 2906 1791 
z
M 3481 434 
Q 3481 -459 3084 -895 
Q 2688 -1331 1869 -1331 
Q 1566 -1331 1297 -1286 
Q 1028 -1241 775 -1147 
L 775 -588 
Q 1028 -725 1275 -790 
Q 1522 -856 1778 -856 
Q 2344 -856 2625 -561 
Q 2906 -266 2906 331 
L 2906 616 
Q 2728 306 2450 153 
Q 2172 0 1784 0 
Q 1141 0 747 490 
Q 353 981 353 1791 
Q 353 2603 747 3093 
Q 1141 3584 1784 3584 
Q 2172 3584 2450 3431 
Q 2728 3278 2906 2969 
L 2906 3500 
L 3481 3500 
L 3481 434 
z
" transform="scale(0.015625)"/>
       <path id="DejaVuSans-65" d="M 3597 1894 
L 3597 1613 
L 953 1613 
Q 991 1019 1311 708 
Q 1631 397 2203 397 
Q 2534 397 2845 478 
Q 3156 559 3463 722 
L 3463 178 
Q 3153 47 2828 -22 
Q 2503 -91 2169 -91 
Q 1331 -91 842 396 
Q 353 884 353 1716 
Q 353 2575 817 3079 
Q 1281 3584 2069 3584 
Q 2775 3584 3186 3129 
Q 3597 2675 3597 1894 
z
M 3022 2063 
Q 3016 2534 2758 2815 
Q 2500 3097 2075 3097 
Q 1594 3097 1305 2825 
Q 1016 2553 972 2059 
L 3022 2063 
z
" transform="scale(0.015625)"/>
       <path id="DejaVuSans-74" d="M 1172 4494 
L 1172 3500 
L 2356 3500 
L 2356 3053 
L 1172 3053 
L 1172 1153 
Q 1172 725 1289 603 
Q 1406 481 1766 481 
L 2356 481 
L 2356 0 
L 1766 0 
Q 1100 0 847 248 
Q 594 497 594 1153 
L 594 3053 
L 172 3053 
L 172 3500 
L 594 3500 
L 594 4494 
L 1172 4494 
z
" transform="scale(0.015625)"/>
      </defs>
      <use xlink:href="#DejaVuSans-54"/>
      <use xlink:href="#DejaVuSans-61" x="44.583984"/>
      <use xlink:href="#DejaVuSans-72" x="105.863281"/>
      <use xlink:href="#DejaVuSans-67" x="145.226562"/>
      <use xlink:href="#DejaVuSans-65" x="208.703125"/>
      <use xlink:href="#DejaVuSans-74" x="270.226562"/>
     </g>
    </g>
   </g>
   <g id="line2d_21">
    <path d="M 43.78125 182.016678 
L 49.449821 182.642823 
L 55.118393 185.773552 
L 60.786964 189.530428 
L 66.455536 195.478814 
L 72.124107 202.053346 
L 77.792679 205.340612 
L 83.46125 206.279831 
L 89.129821 207.375586 
L 94.798393 205.966758 
L 100.466964 201.583736 
L 106.135536 197.826861 
L 111.804107 190.156575 
L 117.472679 184.834333 
L 123.14125 182.173215 
L 128.809821 182.955897 
L 134.478393 185.773552 
L 140.146964 190.313112 
L 145.815536 194.696131 
L 151.484107 197.357252 
L 157.152679 199.23569 
L 162.82125 198.29647 
L 168.489821 200.174908 
L 174.158393 200.957591 
L 179.826964 198.609544 
L 185.495536 196.731106 
L 191.164107 192.191548 
L 196.832679 187.495454 
L 202.50125 184.677797 
L 208.169821 183.425507 
L 213.838393 184.208189 
L 219.506964 186.086625 
L 225.175536 190.78272 
L 230.844107 195.322277 
L 236.512679 200.801054 
L 242.18125 205.810221 
L 247.849821 207.219049 
L 253.518393 207.062513 
L 259.186964 203.462174 
L 264.855536 201.114127 
L 270.524107 198.453007 
L 276.192679 194.696131 
L 281.86125 189.373891 
L 287.529821 189.06082 
L 293.198393 188.904283 
L 298.866964 190.626183 
L 304.535536 192.661156 
L 310.204107 192.191548 
L 315.872679 192.348085 
L 321.54125 190.469646 
L 327.209821 192.661156 
L 332.878393 192.191548 
L 338.546964 191.721938 
L 344.215536 193.130767 
L 349.884107 197.200715 
L 355.552679 196.887643 
L 361.22125 198.76608 
L 366.889821 200.957591 
L 372.558393 201.114127 
L 378.226964 198.922616 
L 383.895536 196.574569 
L 389.564107 193.600377 
L 395.232679 188.904283 
L 400.90125 185.303944 
" clip-path="url(#p7c0a1db06b)" style="fill: none; stroke: #0000ff; stroke-opacity: 0.3; stroke-width: 1.5; stroke-linecap: square"/>
   </g>
   <g id="line2d_22">
    <path d="M 43.78125 184.521262 
L 49.449821 185.460481 
L 55.118393 184.208189 
L 60.786964 186.869309 
L 66.455536 190.469646 
L 72.124107 193.913448 
L 77.792679 201.114127 
L 83.46125 202.836028 
L 89.129821 205.497148 
L 94.798393 206.74944 
L 100.466964 207.845195 
L 106.135536 206.905976 
L 111.804107 203.305637 
L 117.472679 199.079153 
L 123.14125 191.095793 
L 128.809821 183.738578 
L 134.478393 179.512094 
L 140.146964 176.537902 
L 145.815536 177.00751 
L 151.484107 183.26897 
L 157.152679 190.313112 
L 162.82125 196.887643 
L 168.489821 204.871003 
L 174.158393 208.471341 
L 179.826964 206.905976 
L 185.495536 204.714466 
L 191.164107 200.644518 
L 196.832679 192.817693 
L 202.50125 187.182381 
L 208.169821 182.79936 
L 213.838393 180.138239 
L 219.506964 181.07746 
L 225.175536 186.243162 
L 230.844107 191.25233 
L 236.512679 200.018372 
L 242.18125 205.184075 
L 247.849821 207.532122 
L 253.518393 208.158268 
L 259.186964 207.688659 
L 264.855536 206.592904 
L 270.524107 201.583736 
L 276.192679 198.76608 
L 281.86125 192.97423 
L 287.529821 189.530428 
L 293.198393 187.965065 
L 298.866964 187.651991 
L 304.535536 187.808528 
L 310.204107 189.217354 
L 315.872679 188.278136 
L 321.54125 185.303944 
L 327.209821 184.364725 
L 332.878393 185.303944 
L 338.546964 189.06082 
L 344.215536 196.10496 
L 349.884107 201.270663 
L 355.552679 205.810221 
L 361.22125 208.314805 
L 366.889821 207.062513 
L 372.558393 204.871003 
L 378.226964 200.174908 
L 383.895536 194.383059 
L 389.564107 187.025844 
L 395.232679 185.303944 
L 400.90125 182.955897 
" clip-path="url(#p7c0a1db06b)" style="fill: none; stroke: #ff0000; stroke-opacity: 0.3; stroke-width: 1.5; stroke-linecap: square"/>
   </g>
   <g id="line2d_23">
    <path d="M 43.78125 212.541289 
L 49.449821 213.167435 
L 55.118393 212.07168 
L 60.786964 210.506315 
L 66.455536 202.366419 
L 72.124107 190.78272 
L 77.792679 174.816 
L 83.46125 166.83264 
L 89.129821 165.736885 
L 94.798393 172.311416 
L 100.466964 186.086625 
L 106.135536 196.731106 
L 111.804107 204.244857 
L 117.472679 206.905976 
L 123.14125 208.471341 
L 128.809821 209.567096 
L 134.478393 209.097487 
L 140.146964 206.279831 
L 145.815536 198.453007 
L 151.484107 186.869309 
L 157.152679 178.885947 
L 162.82125 175.129074 
L 168.489821 178.103266 
L 174.158393 184.364725 
L 179.826964 190.313112 
L 185.495536 197.044178 
L 191.164107 200.331445 
L 196.832679 201.270663 
L 202.50125 202.366419 
L 208.169821 201.740273 
L 213.838393 203.775247 
L 219.506964 205.027539 
L 225.175536 207.062513 
L 230.844107 206.905976 
L 236.512679 206.123294 
L 242.18125 198.139934 
L 247.849821 187.808528 
L 253.518393 179.355558 
L 259.186964 171.841808 
L 264.855536 171.372195 
L 270.524107 173.56371 
L 276.192679 180.451313 
L 281.86125 192.191548 
L 287.529821 199.861835 
L 293.198393 208.627877 
L 298.866964 211.758607 
L 304.535536 213.167435 
L 310.204107 212.854362 
L 315.872679 212.228216 
L 321.54125 212.384753 
L 327.209821 211.915143 
L 332.878393 206.905976 
L 338.546964 197.044178 
L 344.215536 183.26897 
L 349.884107 171.059126 
L 355.552679 162.29308 
L 361.22125 161.353864 
L 366.889821 163.232301 
L 372.558393 169.650298 
L 378.226964 185.930089 
L 383.895536 198.609544 
L 389.564107 208.158268 
L 395.232679 210.975925 
L 400.90125 212.228216 
" clip-path="url(#p7c0a1db06b)" style="fill: none; stroke: #0000ff; stroke-width: 1.5; stroke-linecap: square"/>
   </g>
   <g id="line2d_24">
    <path d="M 43.78125 196.10496 
L 49.449821 201.583736 
L 55.118393 205.966758 
L 60.786964 208.471341 
L 66.455536 208.627877 
L 72.124107 205.810221 
L 77.792679 199.861835 
L 83.46125 194.383059 
L 89.129821 188.904283 
L 94.798393 180.920923 
L 100.466964 170.119906 
L 106.135536 169.024151 
L 111.804107 178.103266 
L 117.472679 191.878475 
L 123.14125 204.714466 
L 128.809821 210.975925 
L 134.478393 212.384753 
L 140.146964 213.167435 
L 145.815536 212.07168 
L 151.484107 209.567096 
L 157.152679 202.366419 
L 162.82125 192.97423 
L 168.489821 183.582041 
L 174.158393 174.816 
L 179.826964 169.806832 
L 185.495536 167.928395 
L 191.164107 171.841808 
L 196.832679 184.051652 
L 202.50125 195.322277 
L 208.169821 205.184075 
L 213.838393 209.41056 
L 219.506964 211.132461 
L 225.175536 212.384753 
L 230.844107 212.07168 
L 236.512679 212.854362 
L 242.18125 211.288998 
L 247.849821 206.905976 
L 253.518393 200.801054 
L 259.186964 195.165742 
L 264.855536 190.156575 
L 270.524107 186.556236 
L 276.192679 186.869309 
L 281.86125 188.278136 
L 287.529821 187.651991 
L 293.198393 186.869309 
L 298.866964 184.364725 
L 304.535536 179.668631 
L 310.204107 181.390531 
L 315.872679 189.373891 
L 321.54125 199.861835 
L 327.209821 205.810221 
L 332.878393 210.036706 
L 338.546964 209.097487 
L 344.215536 202.836028 
L 349.884107 195.791888 
L 355.552679 193.600377 
L 361.22125 192.817693 
L 366.889821 190.469646 
L 372.558393 185.147407 
L 378.226964 177.477121 
L 383.895536 177.633658 
L 389.564107 179.825168 
L 395.232679 185.460481 
L 400.90125 190.939256 
" clip-path="url(#p7c0a1db06b)" style="fill: none; stroke: #ff0000; stroke-width: 1.5; stroke-linecap: square"/>
   </g>
   <g id="patch_8">
    <path d="M 43.78125 213.950118 
L 43.78125 135.681882 
" style="fill: none; stroke: #000000; stroke-width: 0.8; stroke-linejoin: miter; stroke-linecap: square"/>
   </g>
   <g id="patch_9">
    <path d="M 400.90125 213.950118 
L 400.90125 135.681882 
" style="fill: none; stroke: #000000; stroke-width: 0.8; stroke-linejoin: miter; stroke-linecap: square"/>
   </g>
   <g id="patch_10">
    <path d="M 43.78125 213.950118 
L 400.90125 213.950118 
" style="fill: none; stroke: #000000; stroke-width: 0.8; stroke-linejoin: miter; stroke-linecap: square"/>
   </g>
   <g id="patch_11">
    <path d="M 43.78125 135.681882 
L 400.90125 135.681882 
" style="fill: none; stroke: #000000; stroke-width: 0.8; stroke-linejoin: miter; stroke-linecap: square"/>
   </g>
  </g>
  <g id="axes_3">
   <g id="patch_12">
    <path d="M 43.78125 307.872 
L 400.90125 307.872 
L 400.90125 229.603765 
L 43.78125 229.603765 
z
" style="fill: #ffffff"/>
   </g>
   <g id="matplotlib.axis_5">
    <g id="xtick_13">
     <g id="line2d_25">
      <g>
       <use xlink:href="#mc8f077a9bc" x="43.78125" y="307.872" style="stroke: #000000; stroke-width: 0.8"/>
      </g>
     </g>
     <g id="text_9">
      <!-- 0.0 -->
      <g transform="translate(35.829688 322.470437)scale(0.1 -0.1)">
       <use xlink:href="#DejaVuSans-30"/>
       <use xlink:href="#DejaVuSans-2e" x="63.623047"/>
       <use xlink:href="#DejaVuSans-30" x="95.410156"/>
      </g>
     </g>
    </g>
    <g id="xtick_14">
     <g id="line2d_26">
      <g>
       <use xlink:href="#mc8f077a9bc" x="115.20525" y="307.872" style="stroke: #000000; stroke-width: 0.8"/>
      </g>
     </g>
     <g id="text_10">
      <!-- 0.2 -->
      <g transform="translate(107.253688 322.470437)scale(0.1 -0.1)">
       <defs>
        <path id="DejaVuSans-32" d="M 1228 531 
L 3431 531 
L 3431 0 
L 469 0 
L 469 531 
Q 828 903 1448 1529 
Q 2069 2156 2228 2338 
Q 2531 2678 2651 2914 
Q 2772 3150 2772 3378 
Q 2772 3750 2511 3984 
Q 2250 4219 1831 4219 
Q 1534 4219 1204 4116 
Q 875 4013 500 3803 
L 500 4441 
Q 881 4594 1212 4672 
Q 1544 4750 1819 4750 
Q 2544 4750 2975 4387 
Q 3406 4025 3406 3419 
Q 3406 3131 3298 2873 
Q 3191 2616 2906 2266 
Q 2828 2175 2409 1742 
Q 1991 1309 1228 531 
z
" transform="scale(0.015625)"/>
       </defs>
       <use xlink:href="#DejaVuSans-30"/>
       <use xlink:href="#DejaVuSans-2e" x="63.623047"/>
       <use xlink:href="#DejaVuSans-32" x="95.410156"/>
      </g>
     </g>
    </g>
    <g id="xtick_15">
     <g id="line2d_27">
      <g>
       <use xlink:href="#mc8f077a9bc" x="186.62925" y="307.872" style="stroke: #000000; stroke-width: 0.8"/>
      </g>
     </g>
     <g id="text_11">
      <!-- 0.4 -->
      <g transform="translate(178.677688 322.470437)scale(0.1 -0.1)">
       <defs>
        <path id="DejaVuSans-34" d="M 2419 4116 
L 825 1625 
L 2419 1625 
L 2419 4116 
z
M 2253 4666 
L 3047 4666 
L 3047 1625 
L 3713 1625 
L 3713 1100 
L 3047 1100 
L 3047 0 
L 2419 0 
L 2419 1100 
L 313 1100 
L 313 1709 
L 2253 4666 
z
" transform="scale(0.015625)"/>
       </defs>
       <use xlink:href="#DejaVuSans-30"/>
       <use xlink:href="#DejaVuSans-2e" x="63.623047"/>
       <use xlink:href="#DejaVuSans-34" x="95.410156"/>
      </g>
     </g>
    </g>
    <g id="xtick_16">
     <g id="line2d_28">
      <g>
       <use xlink:href="#mc8f077a9bc" x="258.05325" y="307.872" style="stroke: #000000; stroke-width: 0.8"/>
      </g>
     </g>
     <g id="text_12">
      <!-- 0.6 -->
      <g transform="translate(250.101688 322.470437)scale(0.1 -0.1)">
       <defs>
        <path id="DejaVuSans-36" d="M 2113 2584 
Q 1688 2584 1439 2293 
Q 1191 2003 1191 1497 
Q 1191 994 1439 701 
Q 1688 409 2113 409 
Q 2538 409 2786 701 
Q 3034 994 3034 1497 
Q 3034 2003 2786 2293 
Q 2538 2584 2113 2584 
z
M 3366 4563 
L 3366 3988 
Q 3128 4100 2886 4159 
Q 2644 4219 2406 4219 
Q 1781 4219 1451 3797 
Q 1122 3375 1075 2522 
Q 1259 2794 1537 2939 
Q 1816 3084 2150 3084 
Q 2853 3084 3261 2657 
Q 3669 2231 3669 1497 
Q 3669 778 3244 343 
Q 2819 -91 2113 -91 
Q 1303 -91 875 529 
Q 447 1150 447 2328 
Q 447 3434 972 4092 
Q 1497 4750 2381 4750 
Q 2619 4750 2861 4703 
Q 3103 4656 3366 4563 
z
" transform="scale(0.015625)"/>
       </defs>
       <use xlink:href="#DejaVuSans-30"/>
       <use xlink:href="#DejaVuSans-2e" x="63.623047"/>
       <use xlink:href="#DejaVuSans-36" x="95.410156"/>
      </g>
     </g>
    </g>
    <g id="xtick_17">
     <g id="line2d_29">
      <g>
       <use xlink:href="#mc8f077a9bc" x="329.47725" y="307.872" style="stroke: #000000; stroke-width: 0.8"/>
      </g>
     </g>
     <g id="text_13">
      <!-- 0.8 -->
      <g transform="translate(321.525688 322.470437)scale(0.1 -0.1)">
       <defs>
        <path id="DejaVuSans-38" d="M 2034 2216 
Q 1584 2216 1326 1975 
Q 1069 1734 1069 1313 
Q 1069 891 1326 650 
Q 1584 409 2034 409 
Q 2484 409 2743 651 
Q 3003 894 3003 1313 
Q 3003 1734 2745 1975 
Q 2488 2216 2034 2216 
z
M 1403 2484 
Q 997 2584 770 2862 
Q 544 3141 544 3541 
Q 544 4100 942 4425 
Q 1341 4750 2034 4750 
Q 2731 4750 3128 4425 
Q 3525 4100 3525 3541 
Q 3525 3141 3298 2862 
Q 3072 2584 2669 2484 
Q 3125 2378 3379 2068 
Q 3634 1759 3634 1313 
Q 3634 634 3220 271 
Q 2806 -91 2034 -91 
Q 1263 -91 848 271 
Q 434 634 434 1313 
Q 434 1759 690 2068 
Q 947 2378 1403 2484 
z
M 1172 3481 
Q 1172 3119 1398 2916 
Q 1625 2713 2034 2713 
Q 2441 2713 2670 2916 
Q 2900 3119 2900 3481 
Q 2900 3844 2670 4047 
Q 2441 4250 2034 4250 
Q 1625 4250 1398 4047 
Q 1172 3844 1172 3481 
z
" transform="scale(0.015625)"/>
       </defs>
       <use xlink:href="#DejaVuSans-30"/>
       <use xlink:href="#DejaVuSans-2e" x="63.623047"/>
       <use xlink:href="#DejaVuSans-38" x="95.410156"/>
      </g>
     </g>
    </g>
    <g id="xtick_18">
     <g id="line2d_30">
      <g>
       <use xlink:href="#mc8f077a9bc" x="400.90125" y="307.872" style="stroke: #000000; stroke-width: 0.8"/>
      </g>
     </g>
     <g id="text_14">
      <!-- 1.0 -->
      <g transform="translate(392.949687 322.470437)scale(0.1 -0.1)">
       <use xlink:href="#DejaVuSans-31"/>
       <use xlink:href="#DejaVuSans-2e" x="63.623047"/>
       <use xlink:href="#DejaVuSans-30" x="95.410156"/>
      </g>
     </g>
    </g>
   </g>
   <g id="matplotlib.axis_6">
    <g id="ytick_7">
     <g id="line2d_31">
      <g>
       <use xlink:href="#md12d9df184" x="43.78125" y="307.872" style="stroke: #000000; stroke-width: 0.8"/>
      </g>
     </g>
     <g id="text_15">
      <!-- 0.0 -->
      <g transform="translate(20.878125 311.671219)scale(0.1 -0.1)">
       <use xlink:href="#DejaVuSans-30"/>
       <use xlink:href="#DejaVuSans-2e" x="63.623047"/>
       <use xlink:href="#DejaVuSans-30" x="95.410156"/>
      </g>
     </g>
    </g>
    <g id="ytick_8">
     <g id="line2d_32">
      <g>
       <use xlink:href="#md12d9df184" x="43.78125" y="268.737882" style="stroke: #000000; stroke-width: 0.8"/>
      </g>
     </g>
     <g id="text_16">
      <!-- 0.5 -->
      <g transform="translate(20.878125 272.537101)scale(0.1 -0.1)">
       <use xlink:href="#DejaVuSans-30"/>
       <use xlink:href="#DejaVuSans-2e" x="63.623047"/>
       <use xlink:href="#DejaVuSans-35" x="95.410156"/>
      </g>
     </g>
    </g>
    <g id="ytick_9">
     <g id="line2d_33">
      <g>
       <use xlink:href="#md12d9df184" x="43.78125" y="229.603765" style="stroke: #000000; stroke-width: 0.8"/>
      </g>
     </g>
     <g id="text_17">
      <!-- 1.0 -->
      <g transform="translate(20.878125 233.402983)scale(0.1 -0.1)">
       <use xlink:href="#DejaVuSans-31"/>
       <use xlink:href="#DejaVuSans-2e" x="63.623047"/>
       <use xlink:href="#DejaVuSans-30" x="95.410156"/>
      </g>
     </g>
    </g>
    <g id="text_18">
     <!-- Prediction -->
     <g transform="translate(14.798438 293.574601)rotate(-90)scale(0.1 -0.1)">
      <defs>
       <path id="DejaVuSans-50" d="M 1259 4147 
L 1259 2394 
L 2053 2394 
Q 2494 2394 2734 2622 
Q 2975 2850 2975 3272 
Q 2975 3691 2734 3919 
Q 2494 4147 2053 4147 
L 1259 4147 
z
M 628 4666 
L 2053 4666 
Q 2838 4666 3239 4311 
Q 3641 3956 3641 3272 
Q 3641 2581 3239 2228 
Q 2838 1875 2053 1875 
L 1259 1875 
L 1259 0 
L 628 0 
L 628 4666 
z
" transform="scale(0.015625)"/>
       <path id="DejaVuSans-64" d="M 2906 2969 
L 2906 4863 
L 3481 4863 
L 3481 0 
L 2906 0 
L 2906 525 
Q 2725 213 2448 61 
Q 2172 -91 1784 -91 
Q 1150 -91 751 415 
Q 353 922 353 1747 
Q 353 2572 751 3078 
Q 1150 3584 1784 3584 
Q 2172 3584 2448 3432 
Q 2725 3281 2906 2969 
z
M 947 1747 
Q 947 1113 1208 752 
Q 1469 391 1925 391 
Q 2381 391 2643 752 
Q 2906 1113 2906 1747 
Q 2906 2381 2643 2742 
Q 2381 3103 1925 3103 
Q 1469 3103 1208 2742 
Q 947 2381 947 1747 
z
" transform="scale(0.015625)"/>
       <path id="DejaVuSans-69" d="M 603 3500 
L 1178 3500 
L 1178 0 
L 603 0 
L 603 3500 
z
M 603 4863 
L 1178 4863 
L 1178 4134 
L 603 4134 
L 603 4863 
z
" transform="scale(0.015625)"/>
       <path id="DejaVuSans-63" d="M 3122 3366 
L 3122 2828 
Q 2878 2963 2633 3030 
Q 2388 3097 2138 3097 
Q 1578 3097 1268 2742 
Q 959 2388 959 1747 
Q 959 1106 1268 751 
Q 1578 397 2138 397 
Q 2388 397 2633 464 
Q 2878 531 3122 666 
L 3122 134 
Q 2881 22 2623 -34 
Q 2366 -91 2075 -91 
Q 1284 -91 818 406 
Q 353 903 353 1747 
Q 353 2603 823 3093 
Q 1294 3584 2113 3584 
Q 2378 3584 2631 3529 
Q 2884 3475 3122 3366 
z
" transform="scale(0.015625)"/>
       <path id="DejaVuSans-6f" d="M 1959 3097 
Q 1497 3097 1228 2736 
Q 959 2375 959 1747 
Q 959 1119 1226 758 
Q 1494 397 1959 397 
Q 2419 397 2687 759 
Q 2956 1122 2956 1747 
Q 2956 2369 2687 2733 
Q 2419 3097 1959 3097 
z
M 1959 3584 
Q 2709 3584 3137 3096 
Q 3566 2609 3566 1747 
Q 3566 888 3137 398 
Q 2709 -91 1959 -91 
Q 1206 -91 779 398 
Q 353 888 353 1747 
Q 353 2609 779 3096 
Q 1206 3584 1959 3584 
z
" transform="scale(0.015625)"/>
       <path id="DejaVuSans-6e" d="M 3513 2113 
L 3513 0 
L 2938 0 
L 2938 2094 
Q 2938 2591 2744 2837 
Q 2550 3084 2163 3084 
Q 1697 3084 1428 2787 
Q 1159 2491 1159 1978 
L 1159 0 
L 581 0 
L 581 3500 
L 1159 3500 
L 1159 2956 
Q 1366 3272 1645 3428 
Q 1925 3584 2291 3584 
Q 2894 3584 3203 3211 
Q 3513 2838 3513 2113 
z
" transform="scale(0.015625)"/>
      </defs>
      <use xlink:href="#DejaVuSans-50"/>
      <use xlink:href="#DejaVuSans-72" x="58.552734"/>
      <use xlink:href="#DejaVuSans-65" x="97.416016"/>
      <use xlink:href="#DejaVuSans-64" x="158.939453"/>
      <use xlink:href="#DejaVuSans-69" x="222.416016"/>
      <use xlink:href="#DejaVuSans-63" x="250.199219"/>
      <use xlink:href="#DejaVuSans-74" x="305.179688"/>
      <use xlink:href="#DejaVuSans-69" x="344.388672"/>
      <use xlink:href="#DejaVuSans-6f" x="372.171875"/>
      <use xlink:href="#DejaVuSans-6e" x="433.353516"/>
     </g>
    </g>
   </g>
   <g id="line2d_34">
    <path d="M 43.78125 286.985511 
L 49.449821 283.104124 
L 55.118393 280.216354 
L 60.786964 279.589451 
L 66.455536 279.557082 
L 72.124107 283.643304 
L 77.792679 288.351094 
L 83.46125 292.398023 
L 89.129821 294.69449 
L 94.798393 296.067499 
L 100.466964 296.106822 
L 106.135536 294.820577 
L 111.804107 293.549284 
L 117.472679 289.945605 
L 123.14125 285.572381 
L 128.809821 281.58931 
L 134.478393 279.513643 
L 140.146964 280.27298 
L 145.815536 283.723677 
L 151.484107 288.545068 
L 157.152679 291.315402 
L 162.82125 294.7475 
L 168.489821 296.445514 
L 174.158393 296.52426 
L 179.826964 295.918912 
L 185.495536 292.772364 
L 191.164107 287.944589 
L 196.832679 282.15851 
L 202.50125 279.792385 
L 208.169821 278.197818 
L 213.838393 280.131882 
L 219.506964 284.747342 
L 225.175536 287.924391 
L 230.844107 292.709799 
L 236.512679 295.84398 
L 242.18125 297.475544 
L 247.849821 298.058544 
L 253.518393 297.299876 
L 259.186964 295.319447 
L 264.855536 292.062071 
L 270.524107 287.859732 
L 276.192679 283.580427 
L 281.86125 280.869433 
L 287.529821 280.901945 
L 293.198393 282.740746 
L 298.866964 286.558038 
L 304.535536 289.95939 
L 310.204107 292.009843 
L 315.872679 291.531595 
L 321.54125 290.300011 
L 327.209821 287.655188 
L 332.878393 284.262696 
L 338.546964 282.705408 
L 344.215536 281.378877 
L 349.884107 282.00704 
L 355.552679 284.281482 
L 361.22125 286.576176 
L 366.889821 289.547436 
L 372.558393 291.800086 
L 378.226964 293.131902 
L 383.895536 293.049441 
L 389.564107 292.497181 
L 395.232679 290.870368 
L 400.90125 287.936653 
" clip-path="url(#pa653c3b427)" style="fill: none; stroke: #0000ff; stroke-opacity: 0.3; stroke-width: 1.5; stroke-linecap: square"/>
   </g>
   <g id="line2d_35">
    <path d="M 43.78125 278.815319 
L 49.449821 278.048867 
L 55.118393 279.295101 
L 60.786964 282.025402 
L 66.455536 285.983845 
L 72.124107 289.896145 
L 77.792679 293.526782 
L 83.46125 296.303402 
L 89.129821 299.521199 
L 94.798393 300.018826 
L 100.466964 299.452614 
L 106.135536 297.822072 
L 111.804107 291.378645 
L 117.472679 285.959854 
L 123.14125 279.772761 
L 128.809821 274.106785 
L 134.478393 274.017048 
L 140.146964 273.854251 
L 145.815536 276.844873 
L 151.484107 281.871225 
L 157.152679 286.80239 
L 162.82125 291.326219 
L 168.489821 294.468104 
L 174.158393 296.446424 
L 179.826964 297.065865 
L 185.495536 296.933468 
L 191.164107 295.588601 
L 196.832679 292.998022 
L 202.50125 287.84248 
L 208.169821 283.355744 
L 213.838393 279.873909 
L 219.506964 278.164199 
L 225.175536 281.179239 
L 230.844107 283.531277 
L 236.512679 286.808571 
L 242.18125 290.065336 
L 247.849821 293.481084 
L 253.518393 295.253351 
L 259.186964 296.262722 
L 264.855536 296.700712 
L 270.524107 295.021797 
L 276.192679 294.016648 
L 281.86125 292.225072 
L 287.529821 289.808533 
L 293.198393 287.377001 
L 298.866964 285.005108 
L 304.535536 283.412318 
L 310.204107 282.646296 
L 315.872679 283.416629 
L 321.54125 284.171277 
L 327.209821 285.458831 
L 332.878393 287.256092 
L 338.546964 288.810891 
L 344.215536 290.890228 
L 349.884107 292.802524 
L 355.552679 294.35559 
L 361.22125 295.793044 
L 366.889821 296.193123 
L 372.558393 295.819106 
L 378.226964 294.525607 
L 383.895536 291.924487 
L 389.564107 288.635997 
L 395.232679 284.742229 
L 400.90125 281.087921 
" clip-path="url(#pa653c3b427)" style="fill: none; stroke: #ff0000; stroke-opacity: 0.3; stroke-width: 1.5; stroke-linecap: square"/>
   </g>
   <g id="line2d_36">
    <path d="M 43.78125 303.106633 
L 49.449821 304.457905 
L 55.118393 305.044102 
L 60.786964 304.823863 
L 66.455536 302.980807 
L 72.124107 298.001939 
L 77.792679 285.024482 
L 83.46125 264.196918 
L 89.129821 249.565551 
L 94.798393 249.300669 
L 100.466964 259.964974 
L 106.135536 282.778359 
L 111.804107 298.592694 
L 117.472679 303.54282 
L 123.14125 304.914369 
L 128.809821 304.895356 
L 134.478393 303.097237 
L 140.146964 300.712165 
L 145.815536 297.040654 
L 151.484107 292.101039 
L 157.152679 284.618511 
L 162.82125 279.878345 
L 168.489821 279.612838 
L 174.158393 285.144017 
L 179.826964 288.636547 
L 185.495536 294.690837 
L 191.164107 297.472629 
L 196.832679 297.854765 
L 202.50125 295.758937 
L 208.169821 292.227101 
L 213.838393 287.793515 
L 219.506964 284.272101 
L 225.175536 283.955332 
L 230.844107 286.402819 
L 236.512679 290.591551 
L 242.18125 294.739343 
L 247.849821 300.008994 
L 253.518393 301.306333 
L 259.186964 301.36941 
L 264.855536 299.734352 
L 270.524107 295.859329 
L 276.192679 286.782292 
L 281.86125 273.345451 
L 287.529821 263.007725 
L 293.198393 257.335737 
L 298.866964 263.319749 
L 304.535536 276.343934 
L 310.204107 289.64428 
L 315.872679 298.833096 
L 321.54125 302.057053 
L 327.209821 303.243068 
L 332.878393 303.285485 
L 338.546964 301.941754 
L 344.215536 299.638952 
L 349.884107 295.037439 
L 355.552679 286.503507 
L 361.22125 278.916564 
L 366.889821 268.970328 
L 372.558393 265.021815 
L 378.226964 268.535867 
L 383.895536 265.69264 
L 389.564107 277.825626 
L 395.232679 288.09514 
L 400.90125 294.710459 
" clip-path="url(#pa653c3b427)" style="fill: none; stroke: #0000ff; stroke-width: 1.5; stroke-linecap: square"/>
   </g>
   <g id="line2d_37">
    <path d="M 43.78125 297.354964 
L 49.449821 301.588763 
L 55.118393 303.550093 
L 60.786964 304.544346 
L 66.455536 304.644875 
L 72.124107 304.918421 
L 77.792679 304.907232 
L 83.46125 304.343563 
L 89.129821 301.464887 
L 94.798393 295.626874 
L 100.466964 282.700281 
L 106.135536 267.674639 
L 111.804107 252.955105 
L 117.472679 254.714118 
L 123.14125 262.846017 
L 128.809821 274.612879 
L 134.478393 297.409738 
L 140.146964 302.071987 
L 145.815536 304.469559 
L 151.484107 305.414364 
L 157.152679 304.393113 
L 162.82125 302.924309 
L 168.489821 298.894305 
L 174.158393 291.64981 
L 179.826964 273.859373 
L 185.495536 267.519252 
L 191.164107 267.978298 
L 196.832679 273.480393 
L 202.50125 282.431459 
L 208.169821 289.67508 
L 213.838393 294.253178 
L 219.506964 296.385625 
L 225.175536 295.709892 
L 230.844107 295.446899 
L 236.512679 294.992593 
L 242.18125 294.884567 
L 247.849821 298.522796 
L 253.518393 299.347168 
L 259.186964 300.080317 
L 264.855536 300.423068 
L 270.524107 295.413672 
L 276.192679 292.836178 
L 281.86125 287.769979 
L 287.529821 279.015372 
L 293.198393 277.16954 
L 298.866964 268.794916 
L 304.535536 264.973055 
L 310.204107 267.237439 
L 315.872679 272.997454 
L 321.54125 282.153637 
L 327.209821 290.374332 
L 332.878393 296.36836 
L 338.546964 304.241251 
L 344.215536 305.325502 
L 349.884107 305.649114 
L 355.552679 305.267799 
L 361.22125 299.899249 
L 366.889821 291.073913 
L 372.558393 273.609538 
L 378.226964 256.848275 
L 383.895536 252.512088 
L 389.564107 254.164121 
L 395.232679 263.713879 
L 400.90125 278.790164 
" clip-path="url(#pa653c3b427)" style="fill: none; stroke: #ff0000; stroke-width: 1.5; stroke-linecap: square"/>
   </g>
   <g id="patch_13">
    <path d="M 43.78125 307.872 
L 43.78125 229.603765 
" style="fill: none; stroke: #000000; stroke-width: 0.8; stroke-linejoin: miter; stroke-linecap: square"/>
   </g>
   <g id="patch_14">
    <path d="M 400.90125 307.872 
L 400.90125 229.603765 
" style="fill: none; stroke: #000000; stroke-width: 0.8; stroke-linejoin: miter; stroke-linecap: square"/>
   </g>
   <g id="patch_15">
    <path d="M 43.78125 307.872 
L 400.90125 307.872 
" style="fill: none; stroke: #000000; stroke-width: 0.8; stroke-linejoin: miter; stroke-linecap: square"/>
   </g>
   <g id="patch_16">
    <path d="M 43.78125 229.603765 
L 400.90125 229.603765 
" style="fill: none; stroke: #000000; stroke-width: 0.8; stroke-linejoin: miter; stroke-linecap: square"/>
   </g>
  </g>
  <g id="text_19">
   <!-- Migration 2 Phase -->
   <g transform="translate(162.74625 16.318125)scale(0.12 -0.12)">
    <defs>
     <path id="DejaVuSans-4d" d="M 628 4666 
L 1569 4666 
L 2759 1491 
L 3956 4666 
L 4897 4666 
L 4897 0 
L 4281 0 
L 4281 4097 
L 3078 897 
L 2444 897 
L 1241 4097 
L 1241 0 
L 628 0 
L 628 4666 
z
" transform="scale(0.015625)"/>
     <path id="DejaVuSans-20" transform="scale(0.015625)"/>
     <path id="DejaVuSans-68" d="M 3513 2113 
L 3513 0 
L 2938 0 
L 2938 2094 
Q 2938 2591 2744 2837 
Q 2550 3084 2163 3084 
Q 1697 3084 1428 2787 
Q 1159 2491 1159 1978 
L 1159 0 
L 581 0 
L 581 4863 
L 1159 4863 
L 1159 2956 
Q 1366 3272 1645 3428 
Q 1925 3584 2291 3584 
Q 2894 3584 3203 3211 
Q 3513 2838 3513 2113 
z
" transform="scale(0.015625)"/>
     <path id="DejaVuSans-73" d="M 2834 3397 
L 2834 2853 
Q 2591 2978 2328 3040 
Q 2066 3103 1784 3103 
Q 1356 3103 1142 2972 
Q 928 2841 928 2578 
Q 928 2378 1081 2264 
Q 1234 2150 1697 2047 
L 1894 2003 
Q 2506 1872 2764 1633 
Q 3022 1394 3022 966 
Q 3022 478 2636 193 
Q 2250 -91 1575 -91 
Q 1294 -91 989 -36 
Q 684 19 347 128 
L 347 722 
Q 666 556 975 473 
Q 1284 391 1588 391 
Q 1994 391 2212 530 
Q 2431 669 2431 922 
Q 2431 1156 2273 1281 
Q 2116 1406 1581 1522 
L 1381 1569 
Q 847 1681 609 1914 
Q 372 2147 372 2553 
Q 372 3047 722 3315 
Q 1072 3584 1716 3584 
Q 2034 3584 2315 3537 
Q 2597 3491 2834 3397 
z
" transform="scale(0.015625)"/>
    </defs>
    <use xlink:href="#DejaVuSans-4d"/>
    <use xlink:href="#DejaVuSans-69" x="86.279297"/>
    <use xlink:href="#DejaVuSans-67" x="114.0625"/>
    <use xlink:href="#DejaVuSans-72" x="177.539062"/>
    <use xlink:href="#DejaVuSans-61" x="218.652344"/>
    <use xlink:href="#DejaVuSans-74" x="279.931641"/>
    <use xlink:href="#DejaVuSans-69" x="319.140625"/>
    <use xlink:href="#DejaVuSans-6f" x="346.923828"/>
    <use xlink:href="#DejaVuSans-6e" x="408.105469"/>
    <use xlink:href="#DejaVuSans-20" x="471.484375"/>
    <use xlink:href="#DejaVuSans-32" x="503.271484"/>
    <use xlink:href="#DejaVuSans-20" x="566.894531"/>
    <use xlink:href="#DejaVuSans-50" x="598.681641"/>
    <use xlink:href="#DejaVuSans-68" x="658.984375"/>
    <use xlink:href="#DejaVuSans-61" x="722.363281"/>
    <use xlink:href="#DejaVuSans-73" x="783.642578"/>
    <use xlink:href="#DejaVuSans-65" x="835.742188"/>
   </g>
  </g>
 </g>
 <defs>
  <clipPath id="pf952e69358">
   <rect x="43.78125" y="41.76" width="357.12" height="78.268235"/>
  </clipPath>
  <clipPath id="p7c0a1db06b">
   <rect x="43.78125" y="135.681882" width="357.12" height="78.268235"/>
  </clipPath>
  <clipPath id="pa653c3b427">
   <rect x="43.78125" y="229.603765" width="357.12" height="78.268235"/>
  </clipPath>
 </defs>
</svg>
