<?xml version="1.0" encoding="utf-8" standalone="no"?>
<!DOCTYPE svg PUBLIC "-//W3C//DTD SVG 1.1//EN"
  "http://www.w3.org/Graphics/SVG/1.1/DTD/svg11.dtd">
<svg xmlns:xlink="http://www.w3.org/1999/xlink" width="416.052813pt" height="331.750125pt" viewBox="0 0 416.052813 331.750125" xmlns="http://www.w3.org/2000/svg" version="1.1">
 <metadata>
  <rdf:RDF xmlns:dc="http://purl.org/dc/elements/1.1/" xmlns:cc="http://creativecommons.org/ns#" xmlns:rdf="http://www.w3.org/1999/02/22-rdf-syntax-ns#">
   <cc:Work>
    <dc:type rdf:resource="http://purl.org/dc/dcmitype/StillImage"/>
    <dc:date>2024-03-22T10:28:15.891229</dc:date>
    <dc:format>image/svg+xml</dc:format>
    <dc:creator>
     <cc:Agent>
      <dc:title>Matplotlib v3.5.2, https://matplotlib.org/</dc:title>
     </cc:Agent>
    </dc:creator>
   </cc:Work>
  </rdf:RDF>
 </metadata>
 <defs>
  <style type="text/css">*{stroke-linejoin: round; stroke-linecap: butt}</style>
 </defs>
 <g id="figure_1">
  <g id="patch_1">
   <path d="M 0 331.750125 
L 416.052813 331.750125 
L 416.052813 0 
L 0 0 
z
" style="fill: #ffffff"/>
  </g>
  <g id="axes_1">
   <g id="patch_2">
    <path d="M 43.78125 120.028235 
L 400.90125 120.028235 
L 400.90125 41.76 
L 43.78125 41.76 
z
" style="fill: #ffffff"/>
   </g>
   <g id="matplotlib.axis_1">
    <g id="xtick_1">
     <g id="line2d_1">
      <defs>
       <path id="mde31d80491" d="M 0 0 
L 0 3.5 
" style="stroke: #000000; stroke-width: 0.8"/>
      </defs>
      <g>
       <use xlink:href="#mde31d80491" x="43.78125" y="120.028235" style="stroke: #000000; stroke-width: 0.8"/>
      </g>
     </g>
    </g>
    <g id="xtick_2">
     <g id="line2d_2">
      <g>
       <use xlink:href="#mde31d80491" x="115.20525" y="120.028235" style="stroke: #000000; stroke-width: 0.8"/>
      </g>
     </g>
    </g>
    <g id="xtick_3">
     <g id="line2d_3">
      <g>
       <use xlink:href="#mde31d80491" x="186.62925" y="120.028235" style="stroke: #000000; stroke-width: 0.8"/>
      </g>
     </g>
    </g>
    <g id="xtick_4">
     <g id="line2d_4">
      <g>
       <use xlink:href="#mde31d80491" x="258.05325" y="120.028235" style="stroke: #000000; stroke-width: 0.8"/>
      </g>
     </g>
    </g>
    <g id="xtick_5">
     <g id="line2d_5">
      <g>
       <use xlink:href="#mde31d80491" x="329.47725" y="120.028235" style="stroke: #000000; stroke-width: 0.8"/>
      </g>
     </g>
    </g>
    <g id="xtick_6">
     <g id="line2d_6">
      <g>
       <use xlink:href="#mde31d80491" x="400.90125" y="120.028235" style="stroke: #000000; stroke-width: 0.8"/>
      </g>
     </g>
    </g>
   </g>
   <g id="matplotlib.axis_2">
    <g id="ytick_1">
     <g id="line2d_7">
      <defs>
       <path id="meccab99a57" d="M 0 0 
L -3.5 0 
" style="stroke: #000000; stroke-width: 0.8"/>
      </defs>
      <g>
       <use xlink:href="#meccab99a57" x="43.78125" y="120.028235" style="stroke: #000000; stroke-width: 0.8"/>
      </g>
     </g>
     <g id="text_1">
      <!-- 0.0 -->
      <g transform="translate(20.878125 123.827454)scale(0.1 -0.1)">
       <defs>
        <path id="DejaVuSans-30" d="M 2034 4250 
Q 1547 4250 1301 3770 
Q 1056 3291 1056 2328 
Q 1056 1369 1301 889 
Q 1547 409 2034 409 
Q 2525 409 2770 889 
Q 3016 1369 3016 2328 
Q 3016 3291 2770 3770 
Q 2525 4250 2034 4250 
z
M 2034 4750 
Q 2819 4750 3233 4129 
Q 3647 3509 3647 2328 
Q 3647 1150 3233 529 
Q 2819 -91 2034 -91 
Q 1250 -91 836 529 
Q 422 1150 422 2328 
Q 422 3509 836 4129 
Q 1250 4750 2034 4750 
z
" transform="scale(0.015625)"/>
        <path id="DejaVuSans-2e" d="M 684 794 
L 1344 794 
L 1344 0 
L 684 0 
L 684 794 
z
" transform="scale(0.015625)"/>
       </defs>
       <use xlink:href="#DejaVuSans-30"/>
       <use xlink:href="#DejaVuSans-2e" x="63.623047"/>
       <use xlink:href="#DejaVuSans-30" x="95.410156"/>
      </g>
     </g>
    </g>
    <g id="ytick_2">
     <g id="line2d_8">
      <g>
       <use xlink:href="#meccab99a57" x="43.78125" y="80.894118" style="stroke: #000000; stroke-width: 0.8"/>
      </g>
     </g>
     <g id="text_2">
      <!-- 0.5 -->
      <g transform="translate(20.878125 84.693336)scale(0.1 -0.1)">
       <defs>
        <path id="DejaVuSans-35" d="M 691 4666 
L 3169 4666 
L 3169 4134 
L 1269 4134 
L 1269 2991 
Q 1406 3038 1543 3061 
Q 1681 3084 1819 3084 
Q 2600 3084 3056 2656 
Q 3513 2228 3513 1497 
Q 3513 744 3044 326 
Q 2575 -91 1722 -91 
Q 1428 -91 1123 -41 
Q 819 9 494 109 
L 494 744 
Q 775 591 1075 516 
Q 1375 441 1709 441 
Q 2250 441 2565 725 
Q 2881 1009 2881 1497 
Q 2881 1984 2565 2268 
Q 2250 2553 1709 2553 
Q 1456 2553 1204 2497 
Q 953 2441 691 2322 
L 691 4666 
z
" transform="scale(0.015625)"/>
       </defs>
       <use xlink:href="#DejaVuSans-30"/>
       <use xlink:href="#DejaVuSans-2e" x="63.623047"/>
       <use xlink:href="#DejaVuSans-35" x="95.410156"/>
      </g>
     </g>
    </g>
    <g id="ytick_3">
     <g id="line2d_9">
      <g>
       <use xlink:href="#meccab99a57" x="43.78125" y="41.76" style="stroke: #000000; stroke-width: 0.8"/>
      </g>
     </g>
     <g id="text_3">
      <!-- 1.0 -->
      <g transform="translate(20.878125 45.559219)scale(0.1 -0.1)">
       <defs>
        <path id="DejaVuSans-31" d="M 794 531 
L 1825 531 
L 1825 4091 
L 703 3866 
L 703 4441 
L 1819 4666 
L 2450 4666 
L 2450 531 
L 3481 531 
L 3481 0 
L 794 0 
L 794 531 
z
" transform="scale(0.015625)"/>
       </defs>
       <use xlink:href="#DejaVuSans-31"/>
       <use xlink:href="#DejaVuSans-2e" x="63.623047"/>
       <use xlink:href="#DejaVuSans-30" x="95.410156"/>
      </g>
     </g>
    </g>
    <g id="text_4">
     <!-- IC -->
     <g transform="translate(14.798438 85.860524)rotate(-90)scale(0.1 -0.1)">
      <defs>
       <path id="DejaVuSans-49" d="M 628 4666 
L 1259 4666 
L 1259 0 
L 628 0 
L 628 4666 
z
" transform="scale(0.015625)"/>
       <path id="DejaVuSans-43" d="M 4122 4306 
L 4122 3641 
Q 3803 3938 3442 4084 
Q 3081 4231 2675 4231 
Q 1875 4231 1450 3742 
Q 1025 3253 1025 2328 
Q 1025 1406 1450 917 
Q 1875 428 2675 428 
Q 3081 428 3442 575 
Q 3803 722 4122 1019 
L 4122 359 
Q 3791 134 3420 21 
Q 3050 -91 2638 -91 
Q 1578 -91 968 557 
Q 359 1206 359 2328 
Q 359 3453 968 4101 
Q 1578 4750 2638 4750 
Q 3056 4750 3426 4639 
Q 3797 4528 4122 4306 
z
" transform="scale(0.015625)"/>
      </defs>
      <use xlink:href="#DejaVuSans-49"/>
      <use xlink:href="#DejaVuSans-43" x="29.492188"/>
     </g>
    </g>
   </g>
   <g id="line2d_10">
    <path d="M 43.78125 99.365421 
L 49.449821 97.800056 
L 55.118393 96.547764 
L 60.786964 97.486984 
L 66.455536 98.739274 
L 72.124107 99.835032 
L 77.792679 103.904979 
L 83.46125 104.218051 
L 89.129821 104.374588 
L 94.798393 101.870005 
L 100.466964 101.400395 
L 106.135536 101.870005 
L 111.804107 99.835032 
L 117.472679 100.617713 
L 123.14125 99.365421 
L 128.809821 98.895811 
L 134.478393 98.895811 
L 140.146964 100.148103 
L 145.815536 100.930786 
L 151.484107 103.278833 
L 157.152679 103.43537 
L 162.82125 100.148103 
L 168.489821 100.148103 
L 174.158393 100.774249 
L 179.826964 99.365421 
L 185.495536 99.208885 
L 191.164107 100.148103 
L 196.832679 100.774249 
L 202.50125 101.087322 
L 208.169821 100.617713 
L 213.838393 99.991566 
L 219.506964 98.895811 
L 225.175536 98.269666 
L 230.844107 97.956593 
L 236.512679 98.895811 
L 242.18125 99.991566 
L 247.849821 99.991566 
L 253.518393 100.30464 
L 259.186964 101.087322 
L 264.855536 101.713468 
L 270.524107 101.713468 
L 276.192679 100.774249 
L 281.86125 99.365421 
L 287.529821 99.678495 
L 293.198393 101.556932 
L 298.866964 98.895811 
L 304.535536 101.243859 
L 310.204107 101.713468 
L 315.872679 100.148103 
L 321.54125 100.617713 
L 327.209821 102.96576 
L 332.878393 104.374588 
L 338.546964 101.243859 
L 344.215536 99.991566 
L 349.884107 99.991566 
L 355.552679 97.643519 
L 361.22125 97.956593 
L 366.889821 99.521958 
L 372.558393 99.835032 
L 378.226964 101.087322 
L 383.895536 101.400395 
L 389.564107 102.652687 
L 395.232679 102.183078 
L 400.90125 100.774249 
" clip-path="url(#p3a475ae076)" style="fill: none; stroke: #0000ff; stroke-width: 1.5; stroke-linecap: square"/>
   </g>
   <g id="line2d_11">
    <path d="M 43.78125 101.087322 
L 49.449821 103.591906 
L 55.118393 103.122296 
L 60.786964 104.374588 
L 66.455536 104.218051 
L 72.124107 101.713468 
L 77.792679 101.870005 
L 83.46125 100.774249 
L 89.129821 100.461176 
L 94.798393 98.895811 
L 100.466964 97.330448 
L 106.135536 97.486984 
L 111.804107 98.895811 
L 117.472679 101.556932 
L 123.14125 101.400395 
L 128.809821 102.339614 
L 134.478393 102.183078 
L 140.146964 101.556932 
L 145.815536 100.461176 
L 151.484107 97.800056 
L 157.152679 98.739274 
L 162.82125 98.895811 
L 168.489821 100.617713 
L 174.158393 102.96576 
L 179.826964 104.061516 
L 185.495536 101.713468 
L 191.164107 101.556932 
L 196.832679 99.208885 
L 202.50125 95.921619 
L 208.169821 96.860837 
L 213.838393 98.58274 
L 219.506964 97.486984 
L 225.175536 101.243859 
L 230.844107 101.556932 
L 236.512679 102.49615 
L 242.18125 100.930786 
L 247.849821 101.087322 
L 253.518393 101.087322 
L 259.186964 100.148103 
L 264.855536 101.400395 
L 270.524107 103.591906 
L 276.192679 101.556932 
L 281.86125 99.835032 
L 287.529821 98.58274 
L 293.198393 99.052348 
L 298.866964 97.643519 
L 304.535536 99.521958 
L 310.204107 98.895811 
L 315.872679 99.835032 
L 321.54125 101.870005 
L 327.209821 101.713468 
L 332.878393 102.809224 
L 338.546964 101.556932 
L 344.215536 101.087322 
L 349.884107 99.835032 
L 355.552679 101.400395 
L 361.22125 100.30464 
L 366.889821 99.521958 
L 372.558393 97.800056 
L 378.226964 98.426203 
L 383.895536 98.113129 
L 389.564107 98.269666 
L 395.232679 100.930786 
L 400.90125 99.678495 
" clip-path="url(#p3a475ae076)" style="fill: none; stroke: #ff0000; stroke-width: 1.5; stroke-linecap: square"/>
   </g>
   <g id="patch_3">
    <path d="M 43.78125 120.028235 
L 43.78125 41.76 
" style="fill: none; stroke: #000000; stroke-width: 0.8; stroke-linejoin: miter; stroke-linecap: square"/>
   </g>
   <g id="patch_4">
    <path d="M 400.90125 120.028235 
L 400.90125 41.76 
" style="fill: none; stroke: #000000; stroke-width: 0.8; stroke-linejoin: miter; stroke-linecap: square"/>
   </g>
   <g id="patch_5">
    <path d="M 43.78125 120.028235 
L 400.90125 120.028235 
" style="fill: none; stroke: #000000; stroke-width: 0.8; stroke-linejoin: miter; stroke-linecap: square"/>
   </g>
   <g id="patch_6">
    <path d="M 43.78125 41.76 
L 400.90125 41.76 
" style="fill: none; stroke: #000000; stroke-width: 0.8; stroke-linejoin: miter; stroke-linecap: square"/>
   </g>
  </g>
  <g id="axes_2">
   <g id="patch_7">
    <path d="M 43.78125 213.950118 
L 400.90125 213.950118 
L 400.90125 135.681882 
L 43.78125 135.681882 
z
" style="fill: #ffffff"/>
   </g>
   <g id="matplotlib.axis_3">
    <g id="xtick_7">
     <g id="line2d_12">
      <g>
       <use xlink:href="#mde31d80491" x="43.78125" y="213.950118" style="stroke: #000000; stroke-width: 0.8"/>
      </g>
     </g>
    </g>
    <g id="xtick_8">
     <g id="line2d_13">
      <g>
       <use xlink:href="#mde31d80491" x="115.20525" y="213.950118" style="stroke: #000000; stroke-width: 0.8"/>
      </g>
     </g>
    </g>
    <g id="xtick_9">
     <g id="line2d_14">
      <g>
       <use xlink:href="#mde31d80491" x="186.62925" y="213.950118" style="stroke: #000000; stroke-width: 0.8"/>
      </g>
     </g>
    </g>
    <g id="xtick_10">
     <g id="line2d_15">
      <g>
       <use xlink:href="#mde31d80491" x="258.05325" y="213.950118" style="stroke: #000000; stroke-width: 0.8"/>
      </g>
     </g>
    </g>
    <g id="xtick_11">
     <g id="line2d_16">
      <g>
       <use xlink:href="#mde31d80491" x="329.47725" y="213.950118" style="stroke: #000000; stroke-width: 0.8"/>
      </g>
     </g>
    </g>
    <g id="xtick_12">
     <g id="line2d_17">
      <g>
       <use xlink:href="#mde31d80491" x="400.90125" y="213.950118" style="stroke: #000000; stroke-width: 0.8"/>
      </g>
     </g>
    </g>
   </g>
   <g id="matplotlib.axis_4">
    <g id="ytick_4">
     <g id="line2d_18">
      <g>
       <use xlink:href="#meccab99a57" x="43.78125" y="213.950118" style="stroke: #000000; stroke-width: 0.8"/>
      </g>
     </g>
     <g id="text_5">
      <!-- 0.0 -->
      <g transform="translate(20.878125 217.749336)scale(0.1 -0.1)">
       <use xlink:href="#DejaVuSans-30"/>
       <use xlink:href="#DejaVuSans-2e" x="63.623047"/>
       <use xlink:href="#DejaVuSans-30" x="95.410156"/>
      </g>
     </g>
    </g>
    <g id="ytick_5">
     <g id="line2d_19">
      <g>
       <use xlink:href="#meccab99a57" x="43.78125" y="174.816" style="stroke: #000000; stroke-width: 0.8"/>
      </g>
     </g>
     <g id="text_6">
      <!-- 0.5 -->
      <g transform="translate(20.878125 178.615219)scale(0.1 -0.1)">
       <use xlink:href="#DejaVuSans-30"/>
       <use xlink:href="#DejaVuSans-2e" x="63.623047"/>
       <use xlink:href="#DejaVuSans-35" x="95.410156"/>
      </g>
     </g>
    </g>
    <g id="ytick_6">
     <g id="line2d_20">
      <g>
       <use xlink:href="#meccab99a57" x="43.78125" y="135.681882" style="stroke: #000000; stroke-width: 0.8"/>
      </g>
     </g>
     <g id="text_7">
      <!-- 1.0 -->
      <g transform="translate(20.878125 139.481101)scale(0.1 -0.1)">
       <use xlink:href="#DejaVuSans-31"/>
       <use xlink:href="#DejaVuSans-2e" x="63.623047"/>
       <use xlink:href="#DejaVuSans-30" x="95.410156"/>
      </g>
     </g>
    </g>
    <g id="text_8">
     <!-- Target -->
     <g transform="translate(14.798438 190.287875)rotate(-90)scale(0.1 -0.1)">
      <defs>
       <path id="DejaVuSans-54" d="M -19 4666 
L 3928 4666 
L 3928 4134 
L 2272 4134 
L 2272 0 
L 1638 0 
L 1638 4134 
L -19 4134 
L -19 4666 
z
" transform="scale(0.015625)"/>
       <path id="DejaVuSans-61" d="M 2194 1759 
Q 1497 1759 1228 1600 
Q 959 1441 959 1056 
Q 959 750 1161 570 
Q 1363 391 1709 391 
Q 2188 391 2477 730 
Q 2766 1069 2766 1631 
L 2766 1759 
L 2194 1759 
z
M 3341 1997 
L 3341 0 
L 2766 0 
L 2766 531 
Q 2569 213 2275 61 
Q 1981 -91 1556 -91 
Q 1019 -91 701 211 
Q 384 513 384 1019 
Q 384 1609 779 1909 
Q 1175 2209 1959 2209 
L 2766 2209 
L 2766 2266 
Q 2766 2663 2505 2880 
Q 2244 3097 1772 3097 
Q 1472 3097 1187 3025 
Q 903 2953 641 2809 
L 641 3341 
Q 956 3463 1253 3523 
Q 1550 3584 1831 3584 
Q 2591 3584 2966 3190 
Q 3341 2797 3341 1997 
z
" transform="scale(0.015625)"/>
       <path id="DejaVuSans-72" d="M 2631 2963 
Q 2534 3019 2420 3045 
Q 2306 3072 2169 3072 
Q 1681 3072 1420 2755 
Q 1159 2438 1159 1844 
L 1159 0 
L 581 0 
L 581 3500 
L 1159 3500 
L 1159 2956 
Q 1341 3275 1631 3429 
Q 1922 3584 2338 3584 
Q 2397 3584 2469 3576 
Q 2541 3569 2628 3553 
L 2631 2963 
z
" transform="scale(0.015625)"/>
       <path id="DejaVuSans-67" d="M 2906 1791 
Q 2906 2416 2648 2759 
Q 2391 3103 1925 3103 
Q 1463 3103 1205 2759 
Q 947 2416 947 1791 
Q 947 1169 1205 825 
Q 1463 481 1925 481 
Q 2391 481 2648 825 
Q 2906 1169 2906 1791 
z
M 3481 434 
Q 3481 -459 3084 -895 
Q 2688 -1331 1869 -1331 
Q 1566 -1331 1297 -1286 
Q 1028 -1241 775 -1147 
L 775 -588 
Q 1028 -725 1275 -790 
Q 1522 -856 1778 -856 
Q 2344 -856 2625 -561 
Q 2906 -266 2906 331 
L 2906 616 
Q 2728 306 2450 153 
Q 2172 0 1784 0 
Q 1141 0 747 490 
Q 353 981 353 1791 
Q 353 2603 747 3093 
Q 1141 3584 1784 3584 
Q 2172 3584 2450 3431 
Q 2728 3278 2906 2969 
L 2906 3500 
L 3481 3500 
L 3481 434 
z
" transform="scale(0.015625)"/>
       <path id="DejaVuSans-65" d="M 3597 1894 
L 3597 1613 
L 953 1613 
Q 991 1019 1311 708 
Q 1631 397 2203 397 
Q 2534 397 2845 478 
Q 3156 559 3463 722 
L 3463 178 
Q 3153 47 2828 -22 
Q 2503 -91 2169 -91 
Q 1331 -91 842 396 
Q 353 884 353 1716 
Q 353 2575 817 3079 
Q 1281 3584 2069 3584 
Q 2775 3584 3186 3129 
Q 3597 2675 3597 1894 
z
M 3022 2063 
Q 3016 2534 2758 2815 
Q 2500 3097 2075 3097 
Q 1594 3097 1305 2825 
Q 1016 2553 972 2059 
L 3022 2063 
z
" transform="scale(0.015625)"/>
       <path id="DejaVuSans-74" d="M 1172 4494 
L 1172 3500 
L 2356 3500 
L 2356 3053 
L 1172 3053 
L 1172 1153 
Q 1172 725 1289 603 
Q 1406 481 1766 481 
L 2356 481 
L 2356 0 
L 1766 0 
Q 1100 0 847 248 
Q 594 497 594 1153 
L 594 3053 
L 172 3053 
L 172 3500 
L 594 3500 
L 594 4494 
L 1172 4494 
z
" transform="scale(0.015625)"/>
      </defs>
      <use xlink:href="#DejaVuSans-54"/>
      <use xlink:href="#DejaVuSans-61" x="44.583984"/>
      <use xlink:href="#DejaVuSans-72" x="105.863281"/>
      <use xlink:href="#DejaVuSans-67" x="145.226562"/>
      <use xlink:href="#DejaVuSans-65" x="208.703125"/>
      <use xlink:href="#DejaVuSans-74" x="270.226562"/>
     </g>
    </g>
   </g>
   <g id="line2d_21">
    <path d="M 43.78125 199.079153 
L 49.449821 198.609544 
L 55.118393 198.29647 
L 60.786964 198.609544 
L 66.455536 196.418032 
L 72.124107 194.539596 
L 77.792679 192.97423 
L 83.46125 193.600377 
L 89.129821 191.408867 
L 94.798393 190.626183 
L 100.466964 191.408867 
L 106.135536 192.661156 
L 111.804107 194.383059 
L 117.472679 195.635351 
L 123.14125 194.539596 
L 128.809821 194.069985 
L 134.478393 195.009205 
L 140.146964 196.10496 
L 145.815536 197.670324 
L 151.484107 198.609544 
L 157.152679 199.548762 
L 162.82125 197.513789 
L 168.489821 196.10496 
L 174.158393 192.97423 
L 179.826964 193.130767 
L 185.495536 192.035012 
L 191.164107 192.504622 
L 196.832679 190.469646 
L 202.50125 191.408867 
L 208.169821 192.661156 
L 213.838393 191.721938 
L 219.506964 191.878475 
L 225.175536 193.287304 
L 230.844107 195.478814 
L 236.512679 195.165742 
L 242.18125 194.226522 
L 247.849821 193.130767 
L 253.518393 193.44384 
L 259.186964 196.418032 
L 264.855536 196.887643 
L 270.524107 198.922616 
L 276.192679 196.574569 
L 281.86125 194.852668 
L 287.529821 192.97423 
L 293.198393 192.97423 
L 298.866964 194.696131 
L 304.535536 194.696131 
L 310.204107 194.226522 
L 315.872679 194.226522 
L 321.54125 195.948423 
L 327.209821 197.357252 
L 332.878393 196.10496 
L 338.546964 196.10496 
L 344.215536 197.044178 
L 349.884107 197.670324 
L 355.552679 195.791888 
L 361.22125 192.661156 
L 366.889821 189.373891 
L 372.558393 186.243162 
L 378.226964 187.338917 
L 383.895536 189.373891 
L 389.564107 190.156575 
L 395.232679 194.069985 
L 400.90125 196.887643 
" clip-path="url(#p7564f808dc)" style="fill: none; stroke: #0000ff; stroke-opacity: 0.3; stroke-width: 1.5; stroke-linecap: square"/>
   </g>
   <g id="line2d_22">
    <path d="M 43.78125 197.200715 
L 49.449821 191.095793 
L 55.118393 187.495454 
L 60.786964 183.425507 
L 66.455536 186.243162 
L 72.124107 192.504622 
L 77.792679 198.453007 
L 83.46125 202.679492 
L 89.129821 203.931783 
L 94.798393 204.55793 
L 100.466964 200.644518 
L 106.135536 192.817693 
L 111.804107 186.556236 
L 117.472679 182.173215 
L 123.14125 182.642823 
L 128.809821 185.147407 
L 134.478393 191.408867 
L 140.146964 197.357252 
L 145.815536 201.4272 
L 151.484107 202.366419 
L 157.152679 202.679492 
L 162.82125 200.487981 
L 168.489821 198.922616 
L 174.158393 196.731106 
L 179.826964 190.626183 
L 185.495536 188.591209 
L 191.164107 185.303944 
L 196.832679 187.338917 
L 202.50125 192.191548 
L 208.169821 193.44384 
L 213.838393 195.009205 
L 219.506964 196.731106 
L 225.175536 195.165742 
L 230.844107 192.817693 
L 236.512679 193.130767 
L 242.18125 194.383059 
L 247.849821 194.852668 
L 253.518393 196.418032 
L 259.186964 197.044178 
L 264.855536 197.513789 
L 270.524107 197.044178 
L 276.192679 196.887643 
L 281.86125 194.069985 
L 287.529821 192.191548 
L 293.198393 191.721938 
L 298.866964 192.191548 
L 304.535536 193.600377 
L 310.204107 196.418032 
L 315.872679 199.548762 
L 321.54125 200.801054 
L 327.209821 199.23569 
L 332.878393 196.887643 
L 338.546964 191.565401 
L 344.215536 182.79936 
L 349.884107 177.164047 
L 355.552679 177.477121 
L 361.22125 183.112433 
L 366.889821 190.156575 
L 372.558393 199.079153 
L 378.226964 205.184075 
L 383.895536 208.627877 
L 389.564107 207.845195 
L 395.232679 205.027539 
L 400.90125 202.366419 
" clip-path="url(#p7564f808dc)" style="fill: none; stroke: #ff0000; stroke-opacity: 0.3; stroke-width: 1.5; stroke-linecap: square"/>
   </g>
   <g id="line2d_23">
    <path d="M 43.78125 197.044178 
L 49.449821 195.009205 
L 55.118393 194.226522 
L 60.786964 193.913448 
L 66.455536 192.504622 
L 72.124107 193.130767 
L 77.792679 194.852668 
L 83.46125 197.044178 
L 89.129821 197.044178 
L 94.798393 198.139934 
L 100.466964 197.513789 
L 106.135536 194.383059 
L 111.804107 190.469646 
L 117.472679 186.712773 
L 123.14125 186.086625 
L 128.809821 189.06082 
L 134.478393 190.156575 
L 140.146964 191.878475 
L 145.815536 197.044178 
L 151.484107 198.609544 
L 157.152679 203.149101 
L 162.82125 205.340612 
L 168.489821 207.062513 
L 174.158393 208.627877 
L 179.826964 208.158268 
L 185.495536 200.487981 
L 191.164107 186.399699 
L 196.832679 169.493759 
L 202.50125 159.945035 
L 208.169821 163.858448 
L 213.838393 180.294776 
L 219.506964 196.261497 
L 225.175536 205.027539 
L 230.844107 206.74944 
L 236.512679 205.497148 
L 242.18125 204.401393 
L 247.849821 202.366419 
L 253.518393 195.478814 
L 259.186964 187.808528 
L 264.855536 183.112433 
L 270.524107 181.703605 
L 276.192679 183.26897 
L 281.86125 190.469646 
L 287.529821 198.29647 
L 293.198393 203.462174 
L 298.866964 205.653685 
L 304.535536 206.436367 
L 310.204107 205.810221 
L 315.872679 202.209882 
L 321.54125 197.983398 
L 327.209821 196.574569 
L 332.878393 195.948423 
L 338.546964 190.626183 
L 344.215536 182.642823 
L 349.884107 177.477121 
L 355.552679 179.042484 
L 361.22125 184.521262 
L 366.889821 193.600377 
L 372.558393 200.018372 
L 378.226964 204.08832 
L 383.895536 204.08832 
L 389.564107 201.896809 
L 395.232679 201.114127 
L 400.90125 199.23569 
" clip-path="url(#p7564f808dc)" style="fill: none; stroke: #0000ff; stroke-width: 1.5; stroke-linecap: square"/>
   </g>
   <g id="line2d_24">
    <path d="M 43.78125 202.053346 
L 49.449821 205.653685 
L 55.118393 207.532122 
L 60.786964 207.845195 
L 66.455536 203.775247 
L 72.124107 192.661156 
L 77.792679 181.390531 
L 83.46125 173.720245 
L 89.129821 175.442145 
L 94.798393 183.738578 
L 100.466964 197.983398 
L 106.135536 206.905976 
L 111.804107 210.506315 
L 117.472679 212.384753 
L 123.14125 212.228216 
L 128.809821 209.880169 
L 134.478393 206.279831 
L 140.146964 195.948423 
L 145.815536 179.512094 
L 151.484107 164.171522 
L 157.152679 156.970844 
L 162.82125 159.005815 
L 168.489821 173.250637 
L 174.158393 191.25233 
L 179.826964 205.966758 
L 185.495536 212.07168 
L 191.164107 213.167435 
L 196.832679 213.480508 
L 202.50125 213.323972 
L 208.169821 213.010899 
L 213.838393 213.167435 
L 219.506964 212.07168 
L 225.175536 205.810221 
L 230.844107 190.469646 
L 236.512679 170.902587 
L 242.18125 158.379672 
L 247.849821 154.46626 
L 253.518393 163.232301 
L 259.186964 180.138239 
L 264.855536 197.357252 
L 270.524107 207.219049 
L 276.192679 209.097487 
L 281.86125 210.506315 
L 287.529821 209.723633 
L 293.198393 210.662852 
L 298.866964 210.349779 
L 304.535536 209.567096 
L 310.204107 204.244857 
L 315.872679 194.696131 
L 321.54125 179.355558 
L 327.209821 165.893419 
L 332.878393 161.510399 
L 338.546964 166.049959 
L 344.215536 178.572876 
L 349.884107 194.069985 
L 355.552679 203.618711 
L 361.22125 209.097487 
L 366.889821 208.471341 
L 372.558393 204.244857 
L 378.226964 198.453007 
L 383.895536 195.322277 
L 389.564107 191.095793 
L 395.232679 193.44384 
L 400.90125 198.139934 
" clip-path="url(#p7564f808dc)" style="fill: none; stroke: #ff0000; stroke-width: 1.5; stroke-linecap: square"/>
   </g>
   <g id="patch_8">
    <path d="M 43.78125 213.950118 
L 43.78125 135.681882 
" style="fill: none; stroke: #000000; stroke-width: 0.8; stroke-linejoin: miter; stroke-linecap: square"/>
   </g>
   <g id="patch_9">
    <path d="M 400.90125 213.950118 
L 400.90125 135.681882 
" style="fill: none; stroke: #000000; stroke-width: 0.8; stroke-linejoin: miter; stroke-linecap: square"/>
   </g>
   <g id="patch_10">
    <path d="M 43.78125 213.950118 
L 400.90125 213.950118 
" style="fill: none; stroke: #000000; stroke-width: 0.8; stroke-linejoin: miter; stroke-linecap: square"/>
   </g>
   <g id="patch_11">
    <path d="M 43.78125 135.681882 
L 400.90125 135.681882 
" style="fill: none; stroke: #000000; stroke-width: 0.8; stroke-linejoin: miter; stroke-linecap: square"/>
   </g>
  </g>
  <g id="axes_3">
   <g id="patch_12">
    <path d="M 43.78125 307.872 
L 400.90125 307.872 
L 400.90125 229.603765 
L 43.78125 229.603765 
z
" style="fill: #ffffff"/>
   </g>
   <g id="matplotlib.axis_5">
    <g id="xtick_13">
     <g id="line2d_25">
      <g>
       <use xlink:href="#mde31d80491" x="43.78125" y="307.872" style="stroke: #000000; stroke-width: 0.8"/>
      </g>
     </g>
     <g id="text_9">
      <!-- 0.0 -->
      <g transform="translate(35.829688 322.470437)scale(0.1 -0.1)">
       <use xlink:href="#DejaVuSans-30"/>
       <use xlink:href="#DejaVuSans-2e" x="63.623047"/>
       <use xlink:href="#DejaVuSans-30" x="95.410156"/>
      </g>
     </g>
    </g>
    <g id="xtick_14">
     <g id="line2d_26">
      <g>
       <use xlink:href="#mde31d80491" x="115.20525" y="307.872" style="stroke: #000000; stroke-width: 0.8"/>
      </g>
     </g>
     <g id="text_10">
      <!-- 0.2 -->
      <g transform="translate(107.253688 322.470437)scale(0.1 -0.1)">
       <defs>
        <path id="DejaVuSans-32" d="M 1228 531 
L 3431 531 
L 3431 0 
L 469 0 
L 469 531 
Q 828 903 1448 1529 
Q 2069 2156 2228 2338 
Q 2531 2678 2651 2914 
Q 2772 3150 2772 3378 
Q 2772 3750 2511 3984 
Q 2250 4219 1831 4219 
Q 1534 4219 1204 4116 
Q 875 4013 500 3803 
L 500 4441 
Q 881 4594 1212 4672 
Q 1544 4750 1819 4750 
Q 2544 4750 2975 4387 
Q 3406 4025 3406 3419 
Q 3406 3131 3298 2873 
Q 3191 2616 2906 2266 
Q 2828 2175 2409 1742 
Q 1991 1309 1228 531 
z
" transform="scale(0.015625)"/>
       </defs>
       <use xlink:href="#DejaVuSans-30"/>
       <use xlink:href="#DejaVuSans-2e" x="63.623047"/>
       <use xlink:href="#DejaVuSans-32" x="95.410156"/>
      </g>
     </g>
    </g>
    <g id="xtick_15">
     <g id="line2d_27">
      <g>
       <use xlink:href="#mde31d80491" x="186.62925" y="307.872" style="stroke: #000000; stroke-width: 0.8"/>
      </g>
     </g>
     <g id="text_11">
      <!-- 0.4 -->
      <g transform="translate(178.677688 322.470437)scale(0.1 -0.1)">
       <defs>
        <path id="DejaVuSans-34" d="M 2419 4116 
L 825 1625 
L 2419 1625 
L 2419 4116 
z
M 2253 4666 
L 3047 4666 
L 3047 1625 
L 3713 1625 
L 3713 1100 
L 3047 1100 
L 3047 0 
L 2419 0 
L 2419 1100 
L 313 1100 
L 313 1709 
L 2253 4666 
z
" transform="scale(0.015625)"/>
       </defs>
       <use xlink:href="#DejaVuSans-30"/>
       <use xlink:href="#DejaVuSans-2e" x="63.623047"/>
       <use xlink:href="#DejaVuSans-34" x="95.410156"/>
      </g>
     </g>
    </g>
    <g id="xtick_16">
     <g id="line2d_28">
      <g>
       <use xlink:href="#mde31d80491" x="258.05325" y="307.872" style="stroke: #000000; stroke-width: 0.8"/>
      </g>
     </g>
     <g id="text_12">
      <!-- 0.6 -->
      <g transform="translate(250.101688 322.470437)scale(0.1 -0.1)">
       <defs>
        <path id="DejaVuSans-36" d="M 2113 2584 
Q 1688 2584 1439 2293 
Q 1191 2003 1191 1497 
Q 1191 994 1439 701 
Q 1688 409 2113 409 
Q 2538 409 2786 701 
Q 3034 994 3034 1497 
Q 3034 2003 2786 2293 
Q 2538 2584 2113 2584 
z
M 3366 4563 
L 3366 3988 
Q 3128 4100 2886 4159 
Q 2644 4219 2406 4219 
Q 1781 4219 1451 3797 
Q 1122 3375 1075 2522 
Q 1259 2794 1537 2939 
Q 1816 3084 2150 3084 
Q 2853 3084 3261 2657 
Q 3669 2231 3669 1497 
Q 3669 778 3244 343 
Q 2819 -91 2113 -91 
Q 1303 -91 875 529 
Q 447 1150 447 2328 
Q 447 3434 972 4092 
Q 1497 4750 2381 4750 
Q 2619 4750 2861 4703 
Q 3103 4656 3366 4563 
z
" transform="scale(0.015625)"/>
       </defs>
       <use xlink:href="#DejaVuSans-30"/>
       <use xlink:href="#DejaVuSans-2e" x="63.623047"/>
       <use xlink:href="#DejaVuSans-36" x="95.410156"/>
      </g>
     </g>
    </g>
    <g id="xtick_17">
     <g id="line2d_29">
      <g>
       <use xlink:href="#mde31d80491" x="329.47725" y="307.872" style="stroke: #000000; stroke-width: 0.8"/>
      </g>
     </g>
     <g id="text_13">
      <!-- 0.8 -->
      <g transform="translate(321.525688 322.470437)scale(0.1 -0.1)">
       <defs>
        <path id="DejaVuSans-38" d="M 2034 2216 
Q 1584 2216 1326 1975 
Q 1069 1734 1069 1313 
Q 1069 891 1326 650 
Q 1584 409 2034 409 
Q 2484 409 2743 651 
Q 3003 894 3003 1313 
Q 3003 1734 2745 1975 
Q 2488 2216 2034 2216 
z
M 1403 2484 
Q 997 2584 770 2862 
Q 544 3141 544 3541 
Q 544 4100 942 4425 
Q 1341 4750 2034 4750 
Q 2731 4750 3128 4425 
Q 3525 4100 3525 3541 
Q 3525 3141 3298 2862 
Q 3072 2584 2669 2484 
Q 3125 2378 3379 2068 
Q 3634 1759 3634 1313 
Q 3634 634 3220 271 
Q 2806 -91 2034 -91 
Q 1263 -91 848 271 
Q 434 634 434 1313 
Q 434 1759 690 2068 
Q 947 2378 1403 2484 
z
M 1172 3481 
Q 1172 3119 1398 2916 
Q 1625 2713 2034 2713 
Q 2441 2713 2670 2916 
Q 2900 3119 2900 3481 
Q 2900 3844 2670 4047 
Q 2441 4250 2034 4250 
Q 1625 4250 1398 4047 
Q 1172 3844 1172 3481 
z
" transform="scale(0.015625)"/>
       </defs>
       <use xlink:href="#DejaVuSans-30"/>
       <use xlink:href="#DejaVuSans-2e" x="63.623047"/>
       <use xlink:href="#DejaVuSans-38" x="95.410156"/>
      </g>
     </g>
    </g>
    <g id="xtick_18">
     <g id="line2d_30">
      <g>
       <use xlink:href="#mde31d80491" x="400.90125" y="307.872" style="stroke: #000000; stroke-width: 0.8"/>
      </g>
     </g>
     <g id="text_14">
      <!-- 1.0 -->
      <g transform="translate(392.949687 322.470437)scale(0.1 -0.1)">
       <use xlink:href="#DejaVuSans-31"/>
       <use xlink:href="#DejaVuSans-2e" x="63.623047"/>
       <use xlink:href="#DejaVuSans-30" x="95.410156"/>
      </g>
     </g>
    </g>
   </g>
   <g id="matplotlib.axis_6">
    <g id="ytick_7">
     <g id="line2d_31">
      <g>
       <use xlink:href="#meccab99a57" x="43.78125" y="307.872" style="stroke: #000000; stroke-width: 0.8"/>
      </g>
     </g>
     <g id="text_15">
      <!-- 0.0 -->
      <g transform="translate(20.878125 311.671219)scale(0.1 -0.1)">
       <use xlink:href="#DejaVuSans-30"/>
       <use xlink:href="#DejaVuSans-2e" x="63.623047"/>
       <use xlink:href="#DejaVuSans-30" x="95.410156"/>
      </g>
     </g>
    </g>
    <g id="ytick_8">
     <g id="line2d_32">
      <g>
       <use xlink:href="#meccab99a57" x="43.78125" y="268.737882" style="stroke: #000000; stroke-width: 0.8"/>
      </g>
     </g>
     <g id="text_16">
      <!-- 0.5 -->
      <g transform="translate(20.878125 272.537101)scale(0.1 -0.1)">
       <use xlink:href="#DejaVuSans-30"/>
       <use xlink:href="#DejaVuSans-2e" x="63.623047"/>
       <use xlink:href="#DejaVuSans-35" x="95.410156"/>
      </g>
     </g>
    </g>
    <g id="ytick_9">
     <g id="line2d_33">
      <g>
       <use xlink:href="#meccab99a57" x="43.78125" y="229.603765" style="stroke: #000000; stroke-width: 0.8"/>
      </g>
     </g>
     <g id="text_17">
      <!-- 1.0 -->
      <g transform="translate(20.878125 233.402983)scale(0.1 -0.1)">
       <use xlink:href="#DejaVuSans-31"/>
       <use xlink:href="#DejaVuSans-2e" x="63.623047"/>
       <use xlink:href="#DejaVuSans-30" x="95.410156"/>
      </g>
     </g>
    </g>
    <g id="text_18">
     <!-- Prediction -->
     <g transform="translate(14.798438 293.574601)rotate(-90)scale(0.1 -0.1)">
      <defs>
       <path id="DejaVuSans-50" d="M 1259 4147 
L 1259 2394 
L 2053 2394 
Q 2494 2394 2734 2622 
Q 2975 2850 2975 3272 
Q 2975 3691 2734 3919 
Q 2494 4147 2053 4147 
L 1259 4147 
z
M 628 4666 
L 2053 4666 
Q 2838 4666 3239 4311 
Q 3641 3956 3641 3272 
Q 3641 2581 3239 2228 
Q 2838 1875 2053 1875 
L 1259 1875 
L 1259 0 
L 628 0 
L 628 4666 
z
" transform="scale(0.015625)"/>
       <path id="DejaVuSans-64" d="M 2906 2969 
L 2906 4863 
L 3481 4863 
L 3481 0 
L 2906 0 
L 2906 525 
Q 2725 213 2448 61 
Q 2172 -91 1784 -91 
Q 1150 -91 751 415 
Q 353 922 353 1747 
Q 353 2572 751 3078 
Q 1150 3584 1784 3584 
Q 2172 3584 2448 3432 
Q 2725 3281 2906 2969 
z
M 947 1747 
Q 947 1113 1208 752 
Q 1469 391 1925 391 
Q 2381 391 2643 752 
Q 2906 1113 2906 1747 
Q 2906 2381 2643 2742 
Q 2381 3103 1925 3103 
Q 1469 3103 1208 2742 
Q 947 2381 947 1747 
z
" transform="scale(0.015625)"/>
       <path id="DejaVuSans-69" d="M 603 3500 
L 1178 3500 
L 1178 0 
L 603 0 
L 603 3500 
z
M 603 4863 
L 1178 4863 
L 1178 4134 
L 603 4134 
L 603 4863 
z
" transform="scale(0.015625)"/>
       <path id="DejaVuSans-63" d="M 3122 3366 
L 3122 2828 
Q 2878 2963 2633 3030 
Q 2388 3097 2138 3097 
Q 1578 3097 1268 2742 
Q 959 2388 959 1747 
Q 959 1106 1268 751 
Q 1578 397 2138 397 
Q 2388 397 2633 464 
Q 2878 531 3122 666 
L 3122 134 
Q 2881 22 2623 -34 
Q 2366 -91 2075 -91 
Q 1284 -91 818 406 
Q 353 903 353 1747 
Q 353 2603 823 3093 
Q 1294 3584 2113 3584 
Q 2378 3584 2631 3529 
Q 2884 3475 3122 3366 
z
" transform="scale(0.015625)"/>
       <path id="DejaVuSans-6f" d="M 1959 3097 
Q 1497 3097 1228 2736 
Q 959 2375 959 1747 
Q 959 1119 1226 758 
Q 1494 397 1959 397 
Q 2419 397 2687 759 
Q 2956 1122 2956 1747 
Q 2956 2369 2687 2733 
Q 2419 3097 1959 3097 
z
M 1959 3584 
Q 2709 3584 3137 3096 
Q 3566 2609 3566 1747 
Q 3566 888 3137 398 
Q 2709 -91 1959 -91 
Q 1206 -91 779 398 
Q 353 888 353 1747 
Q 353 2609 779 3096 
Q 1206 3584 1959 3584 
z
" transform="scale(0.015625)"/>
       <path id="DejaVuSans-6e" d="M 3513 2113 
L 3513 0 
L 2938 0 
L 2938 2094 
Q 2938 2591 2744 2837 
Q 2550 3084 2163 3084 
Q 1697 3084 1428 2787 
Q 1159 2491 1159 1978 
L 1159 0 
L 581 0 
L 581 3500 
L 1159 3500 
L 1159 2956 
Q 1366 3272 1645 3428 
Q 1925 3584 2291 3584 
Q 2894 3584 3203 3211 
Q 3513 2838 3513 2113 
z
" transform="scale(0.015625)"/>
      </defs>
      <use xlink:href="#DejaVuSans-50"/>
      <use xlink:href="#DejaVuSans-72" x="58.552734"/>
      <use xlink:href="#DejaVuSans-65" x="97.416016"/>
      <use xlink:href="#DejaVuSans-64" x="158.939453"/>
      <use xlink:href="#DejaVuSans-69" x="222.416016"/>
      <use xlink:href="#DejaVuSans-63" x="250.199219"/>
      <use xlink:href="#DejaVuSans-74" x="305.179688"/>
      <use xlink:href="#DejaVuSans-69" x="344.388672"/>
      <use xlink:href="#DejaVuSans-6f" x="372.171875"/>
      <use xlink:href="#DejaVuSans-6e" x="433.353516"/>
     </g>
    </g>
   </g>
   <g id="line2d_34">
    <path d="M 43.78125 293.682269 
L 49.449821 289.957459 
L 55.118393 285.702398 
L 60.786964 281.835849 
L 66.455536 279.302078 
L 72.124107 279.005976 
L 77.792679 281.12485 
L 83.46125 285.061761 
L 89.129821 287.566058 
L 94.798393 291.398276 
L 100.466964 293.774466 
L 106.135536 294.673935 
L 111.804107 295.066535 
L 117.472679 293.713413 
L 123.14125 291.54549 
L 128.809821 288.890952 
L 134.478393 285.361642 
L 140.146964 283.427837 
L 145.815536 282.828544 
L 151.484107 283.563464 
L 157.152679 284.535724 
L 162.82125 286.24931 
L 168.489821 287.381129 
L 174.158393 287.716418 
L 179.826964 287.884854 
L 185.495536 287.196061 
L 191.164107 286.633045 
L 196.832679 286.614232 
L 202.50125 287.698472 
L 208.169821 289.015903 
L 213.838393 290.614284 
L 219.506964 292.017829 
L 225.175536 291.532698 
L 230.844107 291.476688 
L 236.512679 290.252362 
L 242.18125 287.818114 
L 247.849821 287.670469 
L 253.518393 284.611196 
L 259.186964 282.162702 
L 264.855536 281.11677 
L 270.524107 281.764657 
L 276.192679 284.24104 
L 281.86125 288.019532 
L 287.529821 292.018534 
L 293.198393 295.290019 
L 298.866964 297.272181 
L 304.535536 298.025538 
L 310.204107 297.621608 
L 315.872679 295.441751 
L 321.54125 292.539172 
L 327.209821 288.372381 
L 332.878393 283.396848 
L 338.546964 281.281567 
L 344.215536 278.48504 
L 349.884107 278.208399 
L 355.552679 280.540386 
L 361.22125 283.395759 
L 366.889821 288.158145 
L 372.558393 292.376638 
L 378.226964 295.488851 
L 383.895536 297.779299 
L 389.564107 298.496832 
L 395.232679 298.167176 
L 400.90125 296.744149 
" clip-path="url(#p3ae3042111)" style="fill: none; stroke: #0000ff; stroke-opacity: 0.3; stroke-width: 1.5; stroke-linecap: square"/>
   </g>
   <g id="line2d_35">
    <path d="M 43.78125 288.355418 
L 49.449821 288.305079 
L 55.118393 288.371072 
L 60.786964 288.147357 
L 66.455536 288.348343 
L 72.124107 287.126396 
L 77.792679 285.80697 
L 83.46125 285.202786 
L 89.129821 284.28409 
L 94.798393 285.366713 
L 100.466964 286.956162 
L 106.135536 288.767435 
L 111.804107 290.006937 
L 117.472679 291.43459 
L 123.14125 292.212065 
L 128.809821 292.068061 
L 134.478393 291.694292 
L 140.146964 289.616091 
L 145.815536 286.801471 
L 151.484107 283.743264 
L 157.152679 282.831316 
L 162.82125 281.759801 
L 168.489821 282.367044 
L 174.158393 284.761452 
L 179.826964 286.26858 
L 185.495536 289.56936 
L 191.164107 292.121468 
L 196.832679 293.593454 
L 202.50125 293.91778 
L 208.169821 293.353525 
L 213.838393 291.792043 
L 219.506964 289.304167 
L 225.175536 287.190106 
L 230.844107 284.437009 
L 236.512679 282.622592 
L 242.18125 282.276205 
L 247.849821 284.030926 
L 253.518393 286.309306 
L 259.186964 288.886725 
L 264.855536 291.061805 
L 270.524107 291.08542 
L 276.192679 291.52954 
L 281.86125 291.200231 
L 287.529821 290.232796 
L 293.198393 289.455281 
L 298.866964 288.024381 
L 304.535536 286.505576 
L 310.204107 285.00285 
L 315.872679 284.682965 
L 321.54125 284.272362 
L 327.209821 284.755835 
L 332.878393 286.087089 
L 338.546964 287.309121 
L 344.215536 289.180856 
L 349.884107 290.808653 
L 355.552679 291.90104 
L 361.22125 292.514894 
L 366.889821 292.484396 
L 372.558393 292.00999 
L 378.226964 291.39858 
L 383.895536 289.514085 
L 389.564107 288.84959 
L 395.232679 288.258821 
L 400.90125 287.67422 
" clip-path="url(#p3ae3042111)" style="fill: none; stroke: #ff0000; stroke-opacity: 0.3; stroke-width: 1.5; stroke-linecap: square"/>
   </g>
   <g id="line2d_36">
    <path d="M 43.78125 285.810453 
L 49.449821 286.505621 
L 55.118393 287.553148 
L 60.786964 289.190755 
L 66.455536 293.822312 
L 72.124107 295.971276 
L 77.792679 297.751598 
L 83.46125 298.864763 
L 89.129821 297.573508 
L 94.798393 296.575992 
L 100.466964 293.800241 
L 106.135536 288.465287 
L 111.804107 285.711174 
L 117.472679 277.57608 
L 123.14125 270.622596 
L 128.809821 267.378453 
L 134.478393 268.196758 
L 140.146964 274.171933 
L 145.815536 283.468239 
L 151.484107 292.432736 
L 157.152679 300.843265 
L 162.82125 303.291191 
L 168.489821 304.315518 
L 174.158393 304.372381 
L 179.826964 301.965169 
L 185.495536 299.040017 
L 191.164107 293.47648 
L 196.832679 284.54379 
L 202.50125 276.578423 
L 208.169821 268.091381 
L 213.838393 264.127893 
L 219.506964 265.412843 
L 225.175536 272.169439 
L 230.844107 282.124417 
L 236.512679 292.084165 
L 242.18125 298.887944 
L 247.849821 303.703441 
L 253.518393 304.906877 
L 259.186964 305.127408 
L 264.855536 304.503621 
L 270.524107 302.048703 
L 276.192679 297.742209 
L 281.86125 290.243125 
L 287.529821 280.16368 
L 293.198393 263.047775 
L 298.866964 258.385736 
L 304.535536 259.089465 
L 310.204107 265.646306 
L 315.872679 281.2679 
L 321.54125 292.796035 
L 327.209821 299.295137 
L 332.878393 302.00862 
L 338.546964 302.706382 
L 344.215536 301.878075 
L 349.884107 299.913965 
L 355.552679 297.132096 
L 361.22125 290.119694 
L 366.889821 286.92526 
L 372.558393 284.723155 
L 378.226964 283.697298 
L 383.895536 285.946939 
L 389.564107 286.655552 
L 395.232679 287.543099 
L 400.90125 288.339372 
" clip-path="url(#p3ae3042111)" style="fill: none; stroke: #0000ff; stroke-width: 1.5; stroke-linecap: square"/>
   </g>
   <g id="line2d_37">
    <path d="M 43.78125 286.42001 
L 49.449821 285.829272 
L 55.118393 285.567398 
L 60.786964 285.606777 
L 66.455536 287.942216 
L 72.124107 288.677703 
L 77.792679 289.279608 
L 83.46125 289.639435 
L 89.129821 288.228101 
L 94.798393 287.673606 
L 100.466964 287.011873 
L 106.135536 286.283333 
L 111.804107 287.421924 
L 117.472679 287.572482 
L 123.14125 287.727246 
L 128.809821 287.564922 
L 134.478393 285.760158 
L 140.146964 285.151251 
L 145.815536 285.562575 
L 151.484107 287.398845 
L 157.152679 291.406186 
L 162.82125 294.223739 
L 168.489821 295.796592 
L 174.158393 295.444128 
L 179.826964 292.890835 
L 185.495536 287.831228 
L 191.164107 281.580584 
L 196.832679 276.595516 
L 202.50125 276.358457 
L 208.169821 278.812645 
L 213.838393 283.533614 
L 219.506964 288.47886 
L 225.175536 292.49565 
L 230.844107 295.368081 
L 236.512679 297.653935 
L 242.18125 299.305893 
L 247.849821 300.665145 
L 253.518393 299.835446 
L 259.186964 296.416898 
L 264.855536 288.175828 
L 270.524107 276.341567 
L 276.192679 265.058222 
L 281.86125 262.56615 
L 287.529821 268.930455 
L 293.198393 280.734615 
L 298.866964 291.576266 
L 304.535536 297.590797 
L 310.204107 300.285267 
L 315.872679 301.349812 
L 321.54125 301.072221 
L 327.209821 299.961039 
L 332.878393 298.124677 
L 338.546964 291.205079 
L 344.215536 286.645211 
L 349.884107 282.445207 
L 355.552679 279.749615 
L 361.22125 282.058921 
L 366.889821 283.910661 
L 372.558393 286.43263 
L 378.226964 288.796935 
L 383.895536 290.151023 
L 389.564107 290.516456 
L 395.232679 290.075375 
L 400.90125 289.364581 
" clip-path="url(#p3ae3042111)" style="fill: none; stroke: #ff0000; stroke-width: 1.5; stroke-linecap: square"/>
   </g>
   <g id="patch_13">
    <path d="M 43.78125 307.872 
L 43.78125 229.603765 
" style="fill: none; stroke: #000000; stroke-width: 0.8; stroke-linejoin: miter; stroke-linecap: square"/>
   </g>
   <g id="patch_14">
    <path d="M 400.90125 307.872 
L 400.90125 229.603765 
" style="fill: none; stroke: #000000; stroke-width: 0.8; stroke-linejoin: miter; stroke-linecap: square"/>
   </g>
   <g id="patch_15">
    <path d="M 43.78125 307.872 
L 400.90125 307.872 
" style="fill: none; stroke: #000000; stroke-width: 0.8; stroke-linejoin: miter; stroke-linecap: square"/>
   </g>
   <g id="patch_16">
    <path d="M 43.78125 229.603765 
L 400.90125 229.603765 
" style="fill: none; stroke: #000000; stroke-width: 0.8; stroke-linejoin: miter; stroke-linecap: square"/>
   </g>
  </g>
  <g id="text_19">
   <!-- Migration 1 Phase -->
   <g transform="translate(162.74625 16.318125)scale(0.12 -0.12)">
    <defs>
     <path id="DejaVuSans-4d" d="M 628 4666 
L 1569 4666 
L 2759 1491 
L 3956 4666 
L 4897 4666 
L 4897 0 
L 4281 0 
L 4281 4097 
L 3078 897 
L 2444 897 
L 1241 4097 
L 1241 0 
L 628 0 
L 628 4666 
z
" transform="scale(0.015625)"/>
     <path id="DejaVuSans-20" transform="scale(0.015625)"/>
     <path id="DejaVuSans-68" d="M 3513 2113 
L 3513 0 
L 2938 0 
L 2938 2094 
Q 2938 2591 2744 2837 
Q 2550 3084 2163 3084 
Q 1697 3084 1428 2787 
Q 1159 2491 1159 1978 
L 1159 0 
L 581 0 
L 581 4863 
L 1159 4863 
L 1159 2956 
Q 1366 3272 1645 3428 
Q 1925 3584 2291 3584 
Q 2894 3584 3203 3211 
Q 3513 2838 3513 2113 
z
" transform="scale(0.015625)"/>
     <path id="DejaVuSans-73" d="M 2834 3397 
L 2834 2853 
Q 2591 2978 2328 3040 
Q 2066 3103 1784 3103 
Q 1356 3103 1142 2972 
Q 928 2841 928 2578 
Q 928 2378 1081 2264 
Q 1234 2150 1697 2047 
L 1894 2003 
Q 2506 1872 2764 1633 
Q 3022 1394 3022 966 
Q 3022 478 2636 193 
Q 2250 -91 1575 -91 
Q 1294 -91 989 -36 
Q 684 19 347 128 
L 347 722 
Q 666 556 975 473 
Q 1284 391 1588 391 
Q 1994 391 2212 530 
Q 2431 669 2431 922 
Q 2431 1156 2273 1281 
Q 2116 1406 1581 1522 
L 1381 1569 
Q 847 1681 609 1914 
Q 372 2147 372 2553 
Q 372 3047 722 3315 
Q 1072 3584 1716 3584 
Q 2034 3584 2315 3537 
Q 2597 3491 2834 3397 
z
" transform="scale(0.015625)"/>
    </defs>
    <use xlink:href="#DejaVuSans-4d"/>
    <use xlink:href="#DejaVuSans-69" x="86.279297"/>
    <use xlink:href="#DejaVuSans-67" x="114.0625"/>
    <use xlink:href="#DejaVuSans-72" x="177.539062"/>
    <use xlink:href="#DejaVuSans-61" x="218.652344"/>
    <use xlink:href="#DejaVuSans-74" x="279.931641"/>
    <use xlink:href="#DejaVuSans-69" x="319.140625"/>
    <use xlink:href="#DejaVuSans-6f" x="346.923828"/>
    <use xlink:href="#DejaVuSans-6e" x="408.105469"/>
    <use xlink:href="#DejaVuSans-20" x="471.484375"/>
    <use xlink:href="#DejaVuSans-31" x="503.271484"/>
    <use xlink:href="#DejaVuSans-20" x="566.894531"/>
    <use xlink:href="#DejaVuSans-50" x="598.681641"/>
    <use xlink:href="#DejaVuSans-68" x="658.984375"/>
    <use xlink:href="#DejaVuSans-61" x="722.363281"/>
    <use xlink:href="#DejaVuSans-73" x="783.642578"/>
    <use xlink:href="#DejaVuSans-65" x="835.742188"/>
   </g>
  </g>
 </g>
 <defs>
  <clipPath id="p3a475ae076">
   <rect x="43.78125" y="41.76" width="357.12" height="78.268235"/>
  </clipPath>
  <clipPath id="p7564f808dc">
   <rect x="43.78125" y="135.681882" width="357.12" height="78.268235"/>
  </clipPath>
  <clipPath id="p3ae3042111">
   <rect x="43.78125" y="229.603765" width="357.12" height="78.268235"/>
  </clipPath>
 </defs>
</svg>
