<?xml version="1.0" encoding="utf-8" standalone="no"?>
<!DOCTYPE svg PUBLIC "-//W3C//DTD SVG 1.1//EN"
  "http://www.w3.org/Graphics/SVG/1.1/DTD/svg11.dtd">
<svg xmlns:xlink="http://www.w3.org/1999/xlink" width="582.26875pt" height="139.534375pt" viewBox="0 0 582.26875 139.534375" xmlns="http://www.w3.org/2000/svg" version="1.1">
 <metadata>
  <rdf:RDF xmlns:dc="http://purl.org/dc/elements/1.1/" xmlns:cc="http://creativecommons.org/ns#" xmlns:rdf="http://www.w3.org/1999/02/22-rdf-syntax-ns#">
   <cc:Work>
    <dc:type rdf:resource="http://purl.org/dc/dcmitype/StillImage"/>
    <dc:date>2024-03-22T10:29:25.615139</dc:date>
    <dc:format>image/svg+xml</dc:format>
    <dc:creator>
     <cc:Agent>
      <dc:title>Matplotlib v3.5.2, https://matplotlib.org/</dc:title>
     </cc:Agent>
    </dc:creator>
   </cc:Work>
  </rdf:RDF>
 </metadata>
 <defs>
  <style type="text/css">*{stroke-linejoin: round; stroke-linecap: butt}</style>
 </defs>
 <g id="figure_1">
  <g id="patch_1">
   <path d="M 0 139.534375 
L 582.26875 139.534375 
L 582.26875 0 
L 0 0 
z
" style="fill: #ffffff"/>
  </g>
  <g id="axes_1">
   <g id="patch_2">
    <path d="M 30.740625 105.478125 
L 115.653668 105.478125 
L 115.653668 22.318125 
L 30.740625 22.318125 
z
" style="fill: #ffffff"/>
   </g>
   <g id="matplotlib.axis_1">
    <g id="xtick_1">
     <g id="line2d_1">
      <defs>
       <path id="m0b00ad5517" d="M 0 0 
L 0 -3.5 
" style="stroke: #000000; stroke-width: 0.8"/>
      </defs>
      <g>
       <use xlink:href="#m0b00ad5517" x="30.740625" y="105.478125" style="stroke: #000000; stroke-width: 0.8"/>
      </g>
     </g>
     <g id="text_1">
      <!-- 0.0 -->
      <g transform="translate(22.789062 116.576563)scale(0.1 -0.1)">
       <defs>
        <path id="DejaVuSans-30" d="M 2034 4250 
Q 1547 4250 1301 3770 
Q 1056 3291 1056 2328 
Q 1056 1369 1301 889 
Q 1547 409 2034 409 
Q 2525 409 2770 889 
Q 3016 1369 3016 2328 
Q 3016 3291 2770 3770 
Q 2525 4250 2034 4250 
z
M 2034 4750 
Q 2819 4750 3233 4129 
Q 3647 3509 3647 2328 
Q 3647 1150 3233 529 
Q 2819 -91 2034 -91 
Q 1250 -91 836 529 
Q 422 1150 422 2328 
Q 422 3509 836 4129 
Q 1250 4750 2034 4750 
z
" transform="scale(0.015625)"/>
        <path id="DejaVuSans-2e" d="M 684 794 
L 1344 794 
L 1344 0 
L 684 0 
L 684 794 
z
" transform="scale(0.015625)"/>
       </defs>
       <use xlink:href="#DejaVuSans-30"/>
       <use xlink:href="#DejaVuSans-2e" x="63.623047"/>
       <use xlink:href="#DejaVuSans-30" x="95.410156"/>
      </g>
     </g>
    </g>
    <g id="xtick_2">
     <g id="line2d_2">
      <g>
       <use xlink:href="#m0b00ad5517" x="115.653668" y="105.478125" style="stroke: #000000; stroke-width: 0.8"/>
      </g>
     </g>
     <g id="text_2">
      <!-- 0.5 -->
      <g transform="translate(107.702106 116.576563)scale(0.1 -0.1)">
       <defs>
        <path id="DejaVuSans-35" d="M 691 4666 
L 3169 4666 
L 3169 4134 
L 1269 4134 
L 1269 2991 
Q 1406 3038 1543 3061 
Q 1681 3084 1819 3084 
Q 2600 3084 3056 2656 
Q 3513 2228 3513 1497 
Q 3513 744 3044 326 
Q 2575 -91 1722 -91 
Q 1428 -91 1123 -41 
Q 819 9 494 109 
L 494 744 
Q 775 591 1075 516 
Q 1375 441 1709 441 
Q 2250 441 2565 725 
Q 2881 1009 2881 1497 
Q 2881 1984 2565 2268 
Q 2250 2553 1709 2553 
Q 1456 2553 1204 2497 
Q 953 2441 691 2322 
L 691 4666 
z
" transform="scale(0.015625)"/>
       </defs>
       <use xlink:href="#DejaVuSans-30"/>
       <use xlink:href="#DejaVuSans-2e" x="63.623047"/>
       <use xlink:href="#DejaVuSans-35" x="95.410156"/>
      </g>
     </g>
    </g>
    <g id="text_3">
     <!-- $x$ -->
     <g transform="translate(70.197147 130.254688)scale(0.1 -0.1)">
      <defs>
       <path id="DejaVuSans-Oblique-78" d="M 3841 3500 
L 2234 1784 
L 3219 0 
L 2559 0 
L 1819 1388 
L 531 0 
L -166 0 
L 1556 1844 
L 641 3500 
L 1300 3500 
L 1972 2234 
L 3144 3500 
L 3841 3500 
z
" transform="scale(0.015625)"/>
      </defs>
      <use xlink:href="#DejaVuSans-Oblique-78" transform="translate(0 0.3125)"/>
     </g>
    </g>
   </g>
   <g id="matplotlib.axis_2">
    <g id="ytick_1">
     <g id="line2d_3">
      <defs>
       <path id="mde2247556c" d="M 0 0 
L 3.5 0 
" style="stroke: #000000; stroke-width: 0.8"/>
      </defs>
      <g>
       <use xlink:href="#mde2247556c" x="30.740625" y="101.518125" style="stroke: #000000; stroke-width: 0.8"/>
      </g>
     </g>
     <g id="text_4">
      <!-- 0 -->
      <g transform="translate(20.878125 105.317344)scale(0.1 -0.1)">
       <use xlink:href="#DejaVuSans-30"/>
      </g>
     </g>
    </g>
    <g id="ytick_2">
     <g id="line2d_4">
      <g>
       <use xlink:href="#mde2247556c" x="30.740625" y="22.318125" style="stroke: #000000; stroke-width: 0.8"/>
      </g>
     </g>
     <g id="text_5">
      <!-- 1 -->
      <g transform="translate(20.878125 26.117344)scale(0.1 -0.1)">
       <defs>
        <path id="DejaVuSans-31" d="M 794 531 
L 1825 531 
L 1825 4091 
L 703 3866 
L 703 4441 
L 1819 4666 
L 2450 4666 
L 2450 531 
L 3481 531 
L 3481 0 
L 794 0 
L 794 531 
z
" transform="scale(0.015625)"/>
       </defs>
       <use xlink:href="#DejaVuSans-31"/>
      </g>
     </g>
    </g>
    <g id="text_6">
     <!-- $\kappa(x)$ -->
     <g transform="translate(14.798437 73.748125)rotate(-90)scale(0.1 -0.1)">
      <defs>
       <path id="DejaVuSans-Oblique-3ba" d="M 938 3500 
L 1531 3500 
L 1247 2047 
L 3041 3500 
L 3741 3500 
L 2106 2181 
L 3275 0 
L 2572 0 
L 1628 1806 
L 1122 1403 
L 850 0 
L 256 0 
L 938 3500 
z
" transform="scale(0.015625)"/>
       <path id="DejaVuSans-28" d="M 1984 4856 
Q 1566 4138 1362 3434 
Q 1159 2731 1159 2009 
Q 1159 1288 1364 580 
Q 1569 -128 1984 -844 
L 1484 -844 
Q 1016 -109 783 600 
Q 550 1309 550 2009 
Q 550 2706 781 3412 
Q 1013 4119 1484 4856 
L 1984 4856 
z
" transform="scale(0.015625)"/>
       <path id="DejaVuSans-29" d="M 513 4856 
L 1013 4856 
Q 1481 4119 1714 3412 
Q 1947 2706 1947 2009 
Q 1947 1309 1714 600 
Q 1481 -109 1013 -844 
L 513 -844 
Q 928 -128 1133 580 
Q 1338 1288 1338 2009 
Q 1338 2731 1133 3434 
Q 928 4138 513 4856 
z
" transform="scale(0.015625)"/>
      </defs>
      <use xlink:href="#DejaVuSans-Oblique-3ba" transform="translate(0 0.125)"/>
      <use xlink:href="#DejaVuSans-28" transform="translate(58.935547 0.125)"/>
      <use xlink:href="#DejaVuSans-Oblique-78" transform="translate(97.949219 0.125)"/>
      <use xlink:href="#DejaVuSans-29" transform="translate(157.128906 0.125)"/>
     </g>
    </g>
   </g>
   <g id="line2d_5">
    <path d="M 30.740625 64.156911 
L 31.598333 64.156911 
L 32.45604 65.440673 
L 33.313748 68.436118 
L 34.171455 71.431563 
L 35.029163 75.313492 
L 35.88687 81.41163 
L 36.744578 87.509768 
L 37.602285 93.092212 
L 38.459993 95.580491 
L 39.3177 98.06877 
L 40.175408 100.557048 
L 41.033115 100.851498 
L 41.890823 101.145948 
L 42.74853 101.440398 
L 43.606238 101.492067 
L 44.463945 101.503272 
L 45.321653 101.514476 
L 46.17936 101.517779 
L 47.037068 101.517921 
L 47.894775 101.518062 
L 48.752483 101.518123 
L 49.61019 101.518124 
L 50.467898 101.518125 
L 51.325605 101.518125 
L 52.183313 101.518125 
L 53.04102 101.518125 
L 53.898728 101.518125 
L 54.756435 101.518125 
L 55.614143 101.518125 
L 56.47185 101.518125 
L 57.329558 101.518125 
L 58.187265 101.518125 
L 59.044973 101.518125 
L 59.90268 101.518125 
L 60.760388 101.518125 
L 61.618095 101.518125 
L 62.475803 101.518125 
L 63.33351 101.518125 
L 64.191218 101.518125 
L 65.048925 101.518125 
L 65.906633 101.518125 
L 66.76434 101.518125 
L 67.622048 101.518125 
L 68.479755 101.518125 
L 69.337463 101.518125 
L 70.19517 101.518125 
L 71.052878 101.518125 
L 71.910585 101.518125 
L 72.768293 101.518125 
L 73.626 101.518125 
L 74.483708 101.518125 
L 75.341416 101.518125 
L 76.199123 101.518125 
L 77.056831 101.518125 
L 77.914538 101.518125 
L 78.772246 101.518125 
L 79.629953 101.518125 
L 80.487661 101.518125 
L 81.345368 101.518125 
L 82.203076 101.518125 
L 83.060783 101.518125 
L 83.918491 101.518125 
L 84.776198 101.518125 
L 85.633906 101.518125 
L 86.491613 101.518125 
L 87.349321 101.518125 
L 88.207028 101.518125 
L 89.064736 101.518125 
L 89.922443 101.518125 
L 90.780151 101.518125 
L 91.637858 101.518125 
L 92.495566 101.518125 
L 93.353273 101.518125 
L 94.210981 101.518125 
L 95.068688 101.518125 
L 95.926396 101.518125 
L 96.784103 101.518125 
L 97.641811 101.518125 
L 98.499518 101.518125 
L 99.357226 101.518125 
L 100.214933 101.518125 
L 101.072641 101.518125 
L 101.930348 101.518125 
L 102.788056 101.518125 
L 103.645763 101.518125 
L 104.503471 101.518125 
L 105.361178 101.518125 
L 106.218886 101.518125 
L 107.076593 101.518125 
L 107.934301 101.518125 
L 108.792008 101.518125 
L 109.649716 101.518125 
L 110.507423 101.518125 
L 111.365131 101.518125 
L 112.222838 101.518125 
L 113.080546 101.518125 
L 113.938253 101.518125 
L 114.795961 101.518125 
L 115.653668 101.518125 
" clip-path="url(#p2d0276a193)" style="fill: none; stroke: #1f77b4; stroke-width: 1.5; stroke-linecap: square"/>
   </g>
   <g id="line2d_6">
    <path d="M 30.740625 91.250844 
L 31.598333 91.250844 
L 32.45604 91.310944 
L 33.313748 91.451177 
L 34.171455 91.591411 
L 35.029163 91.753927 
L 35.88687 91.972152 
L 36.744578 92.190376 
L 37.602285 92.417282 
L 38.459993 92.696275 
L 39.3177 92.975269 
L 40.175408 93.254263 
L 41.033115 93.573291 
L 41.890823 93.892319 
L 42.74853 94.211347 
L 43.606238 94.546117 
L 44.463945 94.88351 
L 45.321653 95.220903 
L 46.17936 95.556955 
L 47.037068 95.89247 
L 47.894775 96.227986 
L 48.752483 96.55277 
L 49.61019 96.869506 
L 50.467898 97.186242 
L 51.325605 97.489573 
L 52.183313 97.775031 
L 53.04102 98.060488 
L 53.898728 98.334858 
L 54.756435 98.581507 
L 55.614143 98.828155 
L 56.47185 99.06883 
L 57.329558 99.27366 
L 58.187265 99.47849 
L 59.044973 99.68332 
L 59.90268 99.847153 
L 60.760388 100.010987 
L 61.618095 100.174821 
L 62.475803 100.306562 
L 63.33351 100.432955 
L 64.191218 100.559347 
L 65.048925 100.662718 
L 65.906633 100.756881 
L 66.76434 100.851043 
L 67.622048 100.930138 
L 68.479755 100.997933 
L 69.337463 101.065728 
L 70.19517 101.1247 
L 71.052878 101.171909 
L 71.910585 101.219119 
L 72.768293 101.261929 
L 73.626 101.293741 
L 74.483708 101.325554 
L 75.341416 101.355786 
L 76.199123 101.376541 
L 77.056831 101.397295 
L 77.914538 101.418049 
L 78.772246 101.431162 
L 79.629953 101.444275 
L 80.487661 101.457388 
L 81.345368 101.466142 
L 82.203076 101.474169 
L 83.060783 101.482195 
L 83.918491 101.48789 
L 84.776198 101.492651 
L 85.633906 101.497412 
L 86.491613 101.501017 
L 87.349321 101.503754 
L 88.207028 101.506491 
L 89.064736 101.508861 
L 89.922443 101.510741 
L 90.780151 101.512622 
L 91.637858 101.514343 
L 92.495566 101.515667 
L 93.353273 101.51699 
L 94.210981 101.518125 
L 95.068688 101.518125 
L 95.926396 101.518125 
L 96.784103 101.518125 
L 97.641811 101.518125 
L 98.499518 101.518125 
L 99.357226 101.518125 
L 100.214933 101.518125 
L 101.072641 101.518125 
L 101.930348 101.518125 
L 102.788056 101.518125 
L 103.645763 101.518125 
L 104.503471 101.518125 
L 105.361178 101.518125 
L 106.218886 101.518125 
L 107.076593 101.518125 
L 107.934301 101.518125 
L 108.792008 101.518125 
L 109.649716 101.518125 
L 110.507423 101.518125 
L 111.365131 101.518125 
L 112.222838 101.518125 
L 113.080546 101.518125 
L 113.938253 101.518125 
L 114.795961 101.518125 
L 115.653668 101.518125 
" clip-path="url(#p2d0276a193)" style="fill: none; stroke: #ff7f0e; stroke-width: 1.5; stroke-linecap: square"/>
   </g>
   <g id="line2d_7">
    <path d="M 30.740625 76.768125 
L 31.598333 76.768125 
L 32.45604 76.768125 
L 33.313748 76.768125 
L 34.171455 76.768125 
L 35.029163 76.768125 
L 35.88687 76.768125 
L 36.744578 76.768125 
L 37.602285 76.768125 
L 38.459993 76.768125 
L 39.3177 76.768125 
L 40.175408 76.768125 
L 41.033115 76.768125 
L 41.890823 76.768125 
L 42.74853 76.768125 
L 43.606238 76.768125 
L 44.463945 76.768125 
L 45.321653 76.768125 
L 46.17936 76.768125 
L 47.037068 76.768125 
L 47.894775 76.768125 
L 48.752483 76.768125 
L 49.61019 76.768125 
L 50.467898 76.768125 
L 51.325605 76.768125 
L 52.183313 76.768125 
L 53.04102 76.768125 
L 53.898728 76.768125 
L 54.756435 76.768125 
L 55.614143 76.768125 
L 56.47185 76.768125 
L 57.329558 76.768125 
L 58.187265 76.768125 
L 59.044973 76.768125 
L 59.90268 76.768125 
L 60.760388 76.768125 
L 61.618095 76.768125 
L 62.475803 76.768125 
L 63.33351 76.768125 
L 64.191218 76.768125 
L 65.048925 76.768125 
L 65.906633 76.768125 
L 66.76434 76.768125 
L 67.622048 76.768125 
L 68.479755 76.768125 
L 69.337463 76.768125 
L 70.19517 76.768125 
L 71.052878 76.768125 
L 71.910585 76.768125 
L 72.768293 76.768125 
L 73.626 76.768125 
L 74.483708 76.768125 
L 75.341416 76.768125 
L 76.199123 76.768125 
L 77.056831 76.768125 
L 77.914538 76.768125 
L 78.772246 76.768125 
L 79.629953 76.768125 
L 80.487661 76.768125 
L 81.345368 76.768125 
L 82.203076 76.768125 
L 83.060783 76.768125 
L 83.918491 76.768125 
L 84.776198 76.768125 
L 85.633906 76.768125 
L 86.491613 76.768125 
L 87.349321 76.768125 
L 88.207028 76.768125 
L 89.064736 76.768125 
L 89.922443 76.768125 
L 90.780151 76.768125 
L 91.637858 76.768125 
L 92.495566 76.768125 
L 93.353273 76.768125 
L 94.210981 76.768125 
L 95.068688 76.768125 
L 95.926396 76.768125 
L 96.784103 76.768125 
L 97.641811 76.768125 
L 98.499518 76.768125 
L 99.357226 76.768125 
L 100.214933 76.768125 
L 101.072641 76.768125 
L 101.930348 76.768125 
L 102.788056 76.768125 
L 103.645763 76.768125 
L 104.503471 76.768125 
L 105.361178 76.768125 
L 106.218886 76.768125 
L 107.076593 76.768125 
L 107.934301 76.768125 
L 108.792008 76.768125 
L 109.649716 76.768125 
L 110.507423 76.768125 
L 111.365131 76.768125 
L 112.222838 76.768125 
L 113.080546 76.768125 
L 113.938253 76.768125 
L 114.795961 76.768125 
L 115.653668 76.768125 
" clip-path="url(#p2d0276a193)" style="fill: none; stroke: #2ca02c; stroke-width: 1.5; stroke-linecap: square"/>
   </g>
   <g id="patch_3">
    <path d="M 30.740625 105.478125 
L 30.740625 22.318125 
" style="fill: none; stroke: #000000; stroke-width: 0.8; stroke-linejoin: miter; stroke-linecap: square"/>
   </g>
   <g id="patch_4">
    <path d="M 115.653668 105.478125 
L 115.653668 22.318125 
" style="fill: none; stroke: #000000; stroke-width: 0.8; stroke-linejoin: miter; stroke-linecap: square"/>
   </g>
   <g id="patch_5">
    <path d="M 30.740625 105.478125 
L 115.653668 105.478125 
" style="fill: none; stroke: #000000; stroke-width: 0.8; stroke-linejoin: miter; stroke-linecap: square"/>
   </g>
   <g id="patch_6">
    <path d="M 30.740625 22.318125 
L 115.653668 22.318125 
" style="fill: none; stroke: #000000; stroke-width: 0.8; stroke-linejoin: miter; stroke-linecap: square"/>
   </g>
   <g id="text_7">
    <!-- $\kappa^{AA}$ -->
    <g transform="translate(63.477147 16.318125)scale(0.12 -0.12)">
     <defs>
      <path id="DejaVuSans-Oblique-41" d="M 2356 4666 
L 3072 4666 
L 3938 0 
L 3278 0 
L 3084 1197 
L 984 1197 
L 325 0 
L -341 0 
L 2356 4666 
z
M 2584 4044 
L 1275 1722 
L 2988 1722 
L 2584 4044 
z
" transform="scale(0.015625)"/>
     </defs>
     <use xlink:href="#DejaVuSans-Oblique-3ba" transform="translate(0 0.684375)"/>
     <use xlink:href="#DejaVuSans-Oblique-41" transform="translate(63.401693 38.965625)scale(0.7)"/>
     <use xlink:href="#DejaVuSans-Oblique-41" transform="translate(111.287435 38.965625)scale(0.7)"/>
    </g>
   </g>
  </g>
  <g id="axes_2">
   <g id="patch_7">
    <path d="M 132.636277 105.478125 
L 217.549321 105.478125 
L 217.549321 22.318125 
L 132.636277 22.318125 
z
" style="fill: #ffffff"/>
   </g>
   <g id="matplotlib.axis_3">
    <g id="xtick_3">
     <g id="line2d_8">
      <g>
       <use xlink:href="#m0b00ad5517" x="132.636277" y="105.478125" style="stroke: #000000; stroke-width: 0.8"/>
      </g>
     </g>
     <g id="text_8">
      <!-- 0.0 -->
      <g transform="translate(124.684715 116.576563)scale(0.1 -0.1)">
       <use xlink:href="#DejaVuSans-30"/>
       <use xlink:href="#DejaVuSans-2e" x="63.623047"/>
       <use xlink:href="#DejaVuSans-30" x="95.410156"/>
      </g>
     </g>
    </g>
    <g id="xtick_4">
     <g id="line2d_9">
      <g>
       <use xlink:href="#m0b00ad5517" x="217.549321" y="105.478125" style="stroke: #000000; stroke-width: 0.8"/>
      </g>
     </g>
     <g id="text_9">
      <!-- 0.5 -->
      <g transform="translate(209.597758 116.576563)scale(0.1 -0.1)">
       <use xlink:href="#DejaVuSans-30"/>
       <use xlink:href="#DejaVuSans-2e" x="63.623047"/>
       <use xlink:href="#DejaVuSans-35" x="95.410156"/>
      </g>
     </g>
    </g>
    <g id="text_10">
     <!-- $x$ -->
     <g transform="translate(172.092799 130.254688)scale(0.1 -0.1)">
      <use xlink:href="#DejaVuSans-Oblique-78" transform="translate(0 0.3125)"/>
     </g>
    </g>
   </g>
   <g id="matplotlib.axis_4">
    <g id="ytick_3">
     <g id="line2d_10">
      <g>
       <use xlink:href="#mde2247556c" x="132.636277" y="101.518125" style="stroke: #000000; stroke-width: 0.8"/>
      </g>
     </g>
    </g>
    <g id="ytick_4">
     <g id="line2d_11">
      <g>
       <use xlink:href="#mde2247556c" x="132.636277" y="22.318125" style="stroke: #000000; stroke-width: 0.8"/>
      </g>
     </g>
    </g>
   </g>
   <g id="line2d_12">
    <path d="M 132.636277 101.518125 
L 133.493985 101.518125 
L 134.351692 101.518125 
L 135.2094 101.518125 
L 136.067107 101.518125 
L 136.924815 101.518125 
L 137.782522 101.518125 
L 138.64023 101.518125 
L 139.497937 101.518125 
L 140.355645 101.518125 
L 141.213352 101.518125 
L 142.07106 101.518125 
L 142.928767 101.518125 
L 143.786475 101.518125 
L 144.644182 101.518125 
L 145.50189 101.518125 
L 146.359597 101.518125 
L 147.217305 101.518125 
L 148.075012 101.518125 
L 148.93272 101.518125 
L 149.790427 101.518125 
L 150.648135 101.518125 
L 151.505842 101.518125 
L 152.36355 101.518125 
L 153.221257 101.518125 
L 154.078965 101.518125 
L 154.936672 101.518125 
L 155.79438 101.518125 
L 156.652087 101.518125 
L 157.509795 101.518125 
L 158.367502 101.518125 
L 159.22521 101.518125 
L 160.082917 101.518125 
L 160.940625 101.518125 
L 161.798333 101.518125 
L 162.65604 101.518125 
L 163.513748 101.518125 
L 164.371455 101.518125 
L 165.229163 101.518125 
L 166.08687 101.518125 
L 166.944578 101.518125 
L 167.802285 101.518125 
L 168.659993 101.518125 
L 169.5177 101.518125 
L 170.375408 101.518125 
L 171.233115 101.518125 
L 172.090823 101.518125 
L 172.94853 101.518125 
L 173.806238 101.518125 
L 174.663945 101.518125 
L 175.521653 101.518125 
L 176.37936 101.518125 
L 177.237068 101.518125 
L 178.094775 101.518125 
L 178.952483 101.518125 
L 179.81019 101.518125 
L 180.667898 101.518125 
L 181.525605 101.518125 
L 182.383313 101.518125 
L 183.24102 101.518125 
L 184.098728 101.518125 
L 184.956435 101.518125 
L 185.814143 101.518125 
L 186.67185 101.518125 
L 187.529558 101.518125 
L 188.387265 101.518125 
L 189.244973 101.518125 
L 190.10268 101.518125 
L 190.960388 101.518125 
L 191.818095 101.518125 
L 192.675803 101.518125 
L 193.53351 101.518125 
L 194.391218 101.518125 
L 195.248925 101.518125 
L 196.106633 101.518125 
L 196.96434 101.518125 
L 197.822048 101.518125 
L 198.679755 101.518125 
L 199.537463 101.518125 
L 200.39517 101.518125 
L 201.252878 101.518125 
L 202.110585 101.518125 
L 202.968293 101.518125 
L 203.826 101.518125 
L 204.683708 101.518125 
L 205.541416 101.518125 
L 206.399123 101.518125 
L 207.256831 101.518125 
L 208.114538 101.518125 
L 208.972246 101.518125 
L 209.829953 101.518125 
L 210.687661 101.518125 
L 211.545368 101.518125 
L 212.403076 101.518125 
L 213.260783 101.518125 
L 214.118491 101.518125 
L 214.976198 101.518125 
L 215.833906 101.518125 
L 216.691613 101.518125 
L 217.549321 101.518125 
" clip-path="url(#pf4b812cc0e)" style="fill: none; stroke: #1f77b4; stroke-width: 1.5; stroke-linecap: square"/>
   </g>
   <g id="line2d_13">
    <path d="M 132.636277 101.518125 
L 133.493985 101.518125 
L 134.351692 101.518125 
L 135.2094 101.518125 
L 136.067107 101.518125 
L 136.924815 101.518125 
L 137.782522 101.518125 
L 138.64023 101.518125 
L 139.497937 101.518125 
L 140.355645 101.518125 
L 141.213352 101.518125 
L 142.07106 101.518125 
L 142.928767 101.518125 
L 143.786475 101.518125 
L 144.644182 101.518125 
L 145.50189 101.518125 
L 146.359597 101.518125 
L 147.217305 101.518125 
L 148.075012 101.518125 
L 148.93272 101.518125 
L 149.790427 101.518125 
L 150.648135 101.518125 
L 151.505842 101.518125 
L 152.36355 101.518125 
L 153.221257 101.518125 
L 154.078965 101.518125 
L 154.936672 101.518125 
L 155.79438 101.518125 
L 156.652087 101.518125 
L 157.509795 101.518125 
L 158.367502 101.518125 
L 159.22521 101.518125 
L 160.082917 101.518125 
L 160.940625 101.518125 
L 161.798333 101.518125 
L 162.65604 101.518125 
L 163.513748 101.518125 
L 164.371455 101.518125 
L 165.229163 101.518125 
L 166.08687 101.518125 
L 166.944578 101.518125 
L 167.802285 101.518125 
L 168.659993 101.518125 
L 169.5177 101.518125 
L 170.375408 101.518125 
L 171.233115 101.518125 
L 172.090823 101.518125 
L 172.94853 101.518125 
L 173.806238 101.518125 
L 174.663945 101.518125 
L 175.521653 101.518125 
L 176.37936 101.518125 
L 177.237068 101.518125 
L 178.094775 101.518125 
L 178.952483 101.518125 
L 179.81019 101.518125 
L 180.667898 101.518125 
L 181.525605 101.518125 
L 182.383313 101.518125 
L 183.24102 101.518125 
L 184.098728 101.518125 
L 184.956435 101.518125 
L 185.814143 101.518125 
L 186.67185 101.518125 
L 187.529558 101.518125 
L 188.387265 101.518125 
L 189.244973 101.518125 
L 190.10268 101.518125 
L 190.960388 101.518125 
L 191.818095 101.518125 
L 192.675803 101.518125 
L 193.53351 101.518125 
L 194.391218 101.518125 
L 195.248925 101.518125 
L 196.106633 101.518125 
L 196.96434 101.518125 
L 197.822048 101.518125 
L 198.679755 101.518125 
L 199.537463 101.518125 
L 200.39517 101.518125 
L 201.252878 101.518125 
L 202.110585 101.518125 
L 202.968293 101.518125 
L 203.826 101.518125 
L 204.683708 101.518125 
L 205.541416 101.518125 
L 206.399123 101.518125 
L 207.256831 101.518125 
L 208.114538 101.518125 
L 208.972246 101.518125 
L 209.829953 101.518125 
L 210.687661 101.518125 
L 211.545368 101.518125 
L 212.403076 101.518125 
L 213.260783 101.518125 
L 214.118491 101.518125 
L 214.976198 101.518125 
L 215.833906 101.518125 
L 216.691613 101.518125 
L 217.549321 101.518125 
" clip-path="url(#pf4b812cc0e)" style="fill: none; stroke: #ff7f0e; stroke-width: 1.5; stroke-linecap: square"/>
   </g>
   <g id="line2d_14">
    <path d="M 132.636277 101.518125 
L 133.493985 101.518125 
L 134.351692 101.518125 
L 135.2094 101.518125 
L 136.067107 101.518125 
L 136.924815 101.518125 
L 137.782522 101.518125 
L 138.64023 101.518125 
L 139.497937 101.518125 
L 140.355645 101.518125 
L 141.213352 101.518125 
L 142.07106 101.518125 
L 142.928767 101.518125 
L 143.786475 101.518125 
L 144.644182 101.518125 
L 145.50189 101.518125 
L 146.359597 101.518125 
L 147.217305 101.518125 
L 148.075012 101.518125 
L 148.93272 101.518125 
L 149.790427 101.518125 
L 150.648135 101.518125 
L 151.505842 101.518125 
L 152.36355 101.518125 
L 153.221257 101.518125 
L 154.078965 101.518125 
L 154.936672 101.518125 
L 155.79438 101.518125 
L 156.652087 101.518125 
L 157.509795 101.518125 
L 158.367502 101.518125 
L 159.22521 101.518125 
L 160.082917 101.518125 
L 160.940625 101.518125 
L 161.798333 101.518125 
L 162.65604 101.518125 
L 163.513748 101.518125 
L 164.371455 101.518125 
L 165.229163 101.518125 
L 166.08687 101.518125 
L 166.944578 101.518125 
L 167.802285 101.518125 
L 168.659993 101.518125 
L 169.5177 101.518125 
L 170.375408 101.518125 
L 171.233115 101.518125 
L 172.090823 101.518125 
L 172.94853 101.518125 
L 173.806238 101.518125 
L 174.663945 101.518125 
L 175.521653 101.518125 
L 176.37936 101.518125 
L 177.237068 101.518125 
L 178.094775 101.518125 
L 178.952483 101.518125 
L 179.81019 101.518125 
L 180.667898 101.518125 
L 181.525605 101.518125 
L 182.383313 101.518125 
L 183.24102 101.518125 
L 184.098728 101.518125 
L 184.956435 101.518125 
L 185.814143 101.518125 
L 186.67185 101.518125 
L 187.529558 101.518125 
L 188.387265 101.518125 
L 189.244973 101.518125 
L 190.10268 101.518125 
L 190.960388 101.518125 
L 191.818095 101.518125 
L 192.675803 101.518125 
L 193.53351 101.518125 
L 194.391218 101.518125 
L 195.248925 101.518125 
L 196.106633 101.518125 
L 196.96434 101.518125 
L 197.822048 101.518125 
L 198.679755 101.518125 
L 199.537463 101.518125 
L 200.39517 101.518125 
L 201.252878 101.518125 
L 202.110585 101.518125 
L 202.968293 101.518125 
L 203.826 101.518125 
L 204.683708 101.518125 
L 205.541416 101.518125 
L 206.399123 101.518125 
L 207.256831 101.518125 
L 208.114538 101.518125 
L 208.972246 101.518125 
L 209.829953 101.518125 
L 210.687661 101.518125 
L 211.545368 101.518125 
L 212.403076 101.518125 
L 213.260783 101.518125 
L 214.118491 101.518125 
L 214.976198 101.518125 
L 215.833906 101.518125 
L 216.691613 101.518125 
L 217.549321 101.518125 
" clip-path="url(#pf4b812cc0e)" style="fill: none; stroke: #2ca02c; stroke-width: 1.5; stroke-linecap: square"/>
   </g>
   <g id="patch_8">
    <path d="M 132.636277 105.478125 
L 132.636277 22.318125 
" style="fill: none; stroke: #000000; stroke-width: 0.8; stroke-linejoin: miter; stroke-linecap: square"/>
   </g>
   <g id="patch_9">
    <path d="M 217.549321 105.478125 
L 217.549321 22.318125 
" style="fill: none; stroke: #000000; stroke-width: 0.8; stroke-linejoin: miter; stroke-linecap: square"/>
   </g>
   <g id="patch_10">
    <path d="M 132.636277 105.478125 
L 217.549321 105.478125 
" style="fill: none; stroke: #000000; stroke-width: 0.8; stroke-linejoin: miter; stroke-linecap: square"/>
   </g>
   <g id="patch_11">
    <path d="M 132.636277 22.318125 
L 217.549321 22.318125 
" style="fill: none; stroke: #000000; stroke-width: 0.8; stroke-linejoin: miter; stroke-linecap: square"/>
   </g>
   <g id="text_11">
    <!-- $\kappa^{AB}$ -->
    <g transform="translate(165.312799 16.318125)scale(0.12 -0.12)">
     <defs>
      <path id="DejaVuSans-Oblique-42" d="M 1081 4666 
L 2694 4666 
Q 3350 4666 3675 4422 
Q 4000 4178 4000 3688 
Q 4000 3238 3720 2911 
Q 3441 2584 2988 2516 
Q 3375 2428 3569 2181 
Q 3763 1934 3763 1522 
Q 3763 819 3242 409 
Q 2722 0 1819 0 
L 172 0 
L 1081 4666 
z
M 1234 2228 
L 903 519 
L 1919 519 
Q 2491 519 2800 781 
Q 3109 1044 3109 1522 
Q 3109 1891 2904 2059 
Q 2700 2228 2247 2228 
L 1234 2228 
z
M 1606 4147 
L 1331 2741 
L 2272 2741 
Q 2775 2741 3058 2959 
Q 3341 3178 3341 3566 
Q 3341 3869 3150 4008 
Q 2959 4147 2541 4147 
L 1606 4147 
z
" transform="scale(0.015625)"/>
     </defs>
     <use xlink:href="#DejaVuSans-Oblique-3ba" transform="translate(0 0.684375)"/>
     <use xlink:href="#DejaVuSans-Oblique-41" transform="translate(63.401693 38.965625)scale(0.7)"/>
     <use xlink:href="#DejaVuSans-Oblique-42" transform="translate(111.287435 38.965625)scale(0.7)"/>
    </g>
   </g>
  </g>
  <g id="axes_3">
   <g id="patch_12">
    <path d="M 234.531929 105.478125 
L 319.444973 105.478125 
L 319.444973 22.318125 
L 234.531929 22.318125 
z
" style="fill: #ffffff"/>
   </g>
   <g id="matplotlib.axis_5">
    <g id="xtick_5">
     <g id="line2d_15">
      <g>
       <use xlink:href="#m0b00ad5517" x="234.531929" y="105.478125" style="stroke: #000000; stroke-width: 0.8"/>
      </g>
     </g>
     <g id="text_12">
      <!-- 0.0 -->
      <g transform="translate(226.580367 116.576563)scale(0.1 -0.1)">
       <use xlink:href="#DejaVuSans-30"/>
       <use xlink:href="#DejaVuSans-2e" x="63.623047"/>
       <use xlink:href="#DejaVuSans-30" x="95.410156"/>
      </g>
     </g>
    </g>
    <g id="xtick_6">
     <g id="line2d_16">
      <g>
       <use xlink:href="#m0b00ad5517" x="319.444973" y="105.478125" style="stroke: #000000; stroke-width: 0.8"/>
      </g>
     </g>
     <g id="text_13">
      <!-- 0.5 -->
      <g transform="translate(311.49341 116.576563)scale(0.1 -0.1)">
       <use xlink:href="#DejaVuSans-30"/>
       <use xlink:href="#DejaVuSans-2e" x="63.623047"/>
       <use xlink:href="#DejaVuSans-35" x="95.410156"/>
      </g>
     </g>
    </g>
    <g id="text_14">
     <!-- $x$ -->
     <g transform="translate(273.988451 130.254688)scale(0.1 -0.1)">
      <use xlink:href="#DejaVuSans-Oblique-78" transform="translate(0 0.3125)"/>
     </g>
    </g>
   </g>
   <g id="matplotlib.axis_6">
    <g id="ytick_5">
     <g id="line2d_17">
      <g>
       <use xlink:href="#mde2247556c" x="234.531929" y="101.518125" style="stroke: #000000; stroke-width: 0.8"/>
      </g>
     </g>
    </g>
    <g id="ytick_6">
     <g id="line2d_18">
      <g>
       <use xlink:href="#mde2247556c" x="234.531929" y="22.318125" style="stroke: #000000; stroke-width: 0.8"/>
      </g>
     </g>
    </g>
   </g>
   <g id="line2d_19">
    <path d="M 234.531929 101.518125 
L 235.389637 101.518125 
L 236.247344 101.518125 
L 237.105052 101.518125 
L 237.962759 101.518125 
L 238.820467 101.518125 
L 239.678174 101.518125 
L 240.535882 101.518125 
L 241.393589 101.518125 
L 242.251297 101.518125 
L 243.109004 101.518125 
L 243.966712 101.518125 
L 244.824419 101.518125 
L 245.682127 101.518125 
L 246.539834 101.518125 
L 247.397542 101.518125 
L 248.25525 101.518125 
L 249.112957 101.518125 
L 249.970665 101.518125 
L 250.828372 101.518125 
L 251.68608 101.518125 
L 252.543787 101.518125 
L 253.401495 101.518125 
L 254.259202 101.518125 
L 255.11691 101.518125 
L 255.974617 101.518125 
L 256.832325 101.518125 
L 257.690032 101.518125 
L 258.54774 101.518125 
L 259.405447 101.518125 
L 260.263155 101.518125 
L 261.120862 101.518125 
L 261.97857 101.518125 
L 262.836277 101.518125 
L 263.693985 101.518125 
L 264.551692 101.518125 
L 265.4094 101.518125 
L 266.267107 101.518125 
L 267.124815 101.518125 
L 267.982522 101.518125 
L 268.84023 101.518125 
L 269.697937 101.518125 
L 270.555645 101.518125 
L 271.413352 101.518125 
L 272.27106 101.518125 
L 273.128767 101.518125 
L 273.986475 101.518125 
L 274.844182 101.518125 
L 275.70189 101.518125 
L 276.559597 101.518125 
L 277.417305 101.518125 
L 278.275012 101.518125 
L 279.13272 101.518125 
L 279.990427 101.518125 
L 280.848135 101.518125 
L 281.705842 101.518125 
L 282.56355 101.518125 
L 283.421257 101.518125 
L 284.278965 101.518125 
L 285.136672 101.518125 
L 285.99438 101.518125 
L 286.852087 101.518125 
L 287.709795 101.518125 
L 288.567502 101.518125 
L 289.42521 101.518125 
L 290.282917 101.518125 
L 291.140625 101.518125 
L 291.998333 101.518125 
L 292.85604 101.518125 
L 293.713748 101.518125 
L 294.571455 101.518125 
L 295.429163 101.518125 
L 296.28687 101.518125 
L 297.144578 101.518125 
L 298.002285 101.518125 
L 298.859993 101.518125 
L 299.7177 101.518125 
L 300.575408 101.518125 
L 301.433115 101.518125 
L 302.290823 101.518125 
L 303.14853 101.518125 
L 304.006238 101.518125 
L 304.863945 101.518125 
L 305.721653 101.518125 
L 306.57936 101.518125 
L 307.437068 101.518125 
L 308.294775 101.518125 
L 309.152483 101.518125 
L 310.01019 101.518125 
L 310.867898 101.518125 
L 311.725605 101.518125 
L 312.583313 101.518125 
L 313.44102 101.518125 
L 314.298728 101.518125 
L 315.156435 101.518125 
L 316.014143 101.518125 
L 316.87185 101.518125 
L 317.729558 101.518125 
L 318.587265 101.518125 
L 319.444973 101.518125 
" clip-path="url(#pd592ceaa0c)" style="fill: none; stroke: #1f77b4; stroke-width: 1.5; stroke-linecap: square"/>
   </g>
   <g id="line2d_20">
    <path d="M 234.531929 101.518125 
L 235.389637 101.518125 
L 236.247344 101.518125 
L 237.105052 101.518125 
L 237.962759 101.518125 
L 238.820467 101.518125 
L 239.678174 101.518125 
L 240.535882 101.518125 
L 241.393589 101.518125 
L 242.251297 101.518125 
L 243.109004 101.518125 
L 243.966712 101.518125 
L 244.824419 101.518125 
L 245.682127 101.518125 
L 246.539834 101.518125 
L 247.397542 101.518125 
L 248.25525 101.518125 
L 249.112957 101.518125 
L 249.970665 101.518125 
L 250.828372 101.518125 
L 251.68608 101.518125 
L 252.543787 101.518125 
L 253.401495 101.518125 
L 254.259202 101.518125 
L 255.11691 101.518125 
L 255.974617 101.518125 
L 256.832325 101.518125 
L 257.690032 101.518125 
L 258.54774 101.518125 
L 259.405447 101.518125 
L 260.263155 101.518125 
L 261.120862 101.518125 
L 261.97857 101.518125 
L 262.836277 101.518125 
L 263.693985 101.518125 
L 264.551692 101.518125 
L 265.4094 101.518125 
L 266.267107 101.518125 
L 267.124815 101.518125 
L 267.982522 101.518125 
L 268.84023 101.518125 
L 269.697937 101.518125 
L 270.555645 101.518125 
L 271.413352 101.518125 
L 272.27106 101.518125 
L 273.128767 101.518125 
L 273.986475 101.518125 
L 274.844182 101.518125 
L 275.70189 101.518125 
L 276.559597 101.518125 
L 277.417305 101.518125 
L 278.275012 101.518125 
L 279.13272 101.518125 
L 279.990427 101.518125 
L 280.848135 101.518125 
L 281.705842 101.518125 
L 282.56355 101.518125 
L 283.421257 101.518125 
L 284.278965 101.518125 
L 285.136672 101.518125 
L 285.99438 101.518125 
L 286.852087 101.518125 
L 287.709795 101.518125 
L 288.567502 101.518125 
L 289.42521 101.518125 
L 290.282917 101.518125 
L 291.140625 101.518125 
L 291.998333 101.518125 
L 292.85604 101.518125 
L 293.713748 101.518125 
L 294.571455 101.518125 
L 295.429163 101.518125 
L 296.28687 101.518125 
L 297.144578 101.518125 
L 298.002285 101.518125 
L 298.859993 101.518125 
L 299.7177 101.518125 
L 300.575408 101.518125 
L 301.433115 101.518125 
L 302.290823 101.518125 
L 303.14853 101.518125 
L 304.006238 101.518125 
L 304.863945 101.518125 
L 305.721653 101.518125 
L 306.57936 101.518125 
L 307.437068 101.518125 
L 308.294775 101.518125 
L 309.152483 101.518125 
L 310.01019 101.518125 
L 310.867898 101.518125 
L 311.725605 101.518125 
L 312.583313 101.518125 
L 313.44102 101.518125 
L 314.298728 101.518125 
L 315.156435 101.518125 
L 316.014143 101.518125 
L 316.87185 101.518125 
L 317.729558 101.518125 
L 318.587265 101.518125 
L 319.444973 101.518125 
" clip-path="url(#pd592ceaa0c)" style="fill: none; stroke: #ff7f0e; stroke-width: 1.5; stroke-linecap: square"/>
   </g>
   <g id="line2d_21">
    <path d="M 234.531929 101.518125 
L 235.389637 101.518125 
L 236.247344 101.518125 
L 237.105052 101.518125 
L 237.962759 101.518125 
L 238.820467 101.518125 
L 239.678174 101.518125 
L 240.535882 101.518125 
L 241.393589 101.518125 
L 242.251297 101.518125 
L 243.109004 101.518125 
L 243.966712 101.518125 
L 244.824419 101.518125 
L 245.682127 101.518125 
L 246.539834 101.518125 
L 247.397542 101.518125 
L 248.25525 101.518125 
L 249.112957 101.518125 
L 249.970665 101.518125 
L 250.828372 101.518125 
L 251.68608 101.518125 
L 252.543787 101.518125 
L 253.401495 101.518125 
L 254.259202 101.518125 
L 255.11691 101.518125 
L 255.974617 101.518125 
L 256.832325 101.518125 
L 257.690032 101.518125 
L 258.54774 101.518125 
L 259.405447 101.518125 
L 260.263155 101.518125 
L 261.120862 101.518125 
L 261.97857 101.518125 
L 262.836277 101.518125 
L 263.693985 101.518125 
L 264.551692 101.518125 
L 265.4094 101.518125 
L 266.267107 101.518125 
L 267.124815 101.518125 
L 267.982522 101.518125 
L 268.84023 101.518125 
L 269.697937 101.518125 
L 270.555645 101.518125 
L 271.413352 101.518125 
L 272.27106 101.518125 
L 273.128767 101.518125 
L 273.986475 101.518125 
L 274.844182 101.518125 
L 275.70189 101.518125 
L 276.559597 101.518125 
L 277.417305 101.518125 
L 278.275012 101.518125 
L 279.13272 101.518125 
L 279.990427 101.518125 
L 280.848135 101.518125 
L 281.705842 101.518125 
L 282.56355 101.518125 
L 283.421257 101.518125 
L 284.278965 101.518125 
L 285.136672 101.518125 
L 285.99438 101.518125 
L 286.852087 101.518125 
L 287.709795 101.518125 
L 288.567502 101.518125 
L 289.42521 101.518125 
L 290.282917 101.518125 
L 291.140625 101.518125 
L 291.998333 101.518125 
L 292.85604 101.518125 
L 293.713748 101.518125 
L 294.571455 101.518125 
L 295.429163 101.518125 
L 296.28687 101.518125 
L 297.144578 101.518125 
L 298.002285 101.518125 
L 298.859993 101.518125 
L 299.7177 101.518125 
L 300.575408 101.518125 
L 301.433115 101.518125 
L 302.290823 101.518125 
L 303.14853 101.518125 
L 304.006238 101.518125 
L 304.863945 101.518125 
L 305.721653 101.518125 
L 306.57936 101.518125 
L 307.437068 101.518125 
L 308.294775 101.518125 
L 309.152483 101.518125 
L 310.01019 101.518125 
L 310.867898 101.518125 
L 311.725605 101.518125 
L 312.583313 101.518125 
L 313.44102 101.518125 
L 314.298728 101.518125 
L 315.156435 101.518125 
L 316.014143 101.518125 
L 316.87185 101.518125 
L 317.729558 101.518125 
L 318.587265 101.518125 
L 319.444973 101.518125 
" clip-path="url(#pd592ceaa0c)" style="fill: none; stroke: #2ca02c; stroke-width: 1.5; stroke-linecap: square"/>
   </g>
   <g id="patch_13">
    <path d="M 234.531929 105.478125 
L 234.531929 22.318125 
" style="fill: none; stroke: #000000; stroke-width: 0.8; stroke-linejoin: miter; stroke-linecap: square"/>
   </g>
   <g id="patch_14">
    <path d="M 319.444973 105.478125 
L 319.444973 22.318125 
" style="fill: none; stroke: #000000; stroke-width: 0.8; stroke-linejoin: miter; stroke-linecap: square"/>
   </g>
   <g id="patch_15">
    <path d="M 234.531929 105.478125 
L 319.444973 105.478125 
" style="fill: none; stroke: #000000; stroke-width: 0.8; stroke-linejoin: miter; stroke-linecap: square"/>
   </g>
   <g id="patch_16">
    <path d="M 234.531929 22.318125 
L 319.444973 22.318125 
" style="fill: none; stroke: #000000; stroke-width: 0.8; stroke-linejoin: miter; stroke-linecap: square"/>
   </g>
   <g id="text_15">
    <!-- $\kappa^{BA}$ -->
    <g transform="translate(267.208451 16.318125)scale(0.12 -0.12)">
     <use xlink:href="#DejaVuSans-Oblique-3ba" transform="translate(0 0.684375)"/>
     <use xlink:href="#DejaVuSans-Oblique-42" transform="translate(63.401693 38.965625)scale(0.7)"/>
     <use xlink:href="#DejaVuSans-Oblique-41" transform="translate(111.424154 38.965625)scale(0.7)"/>
    </g>
   </g>
  </g>
  <g id="axes_4">
   <g id="patch_17">
    <path d="M 336.427582 105.478125 
L 421.340625 105.478125 
L 421.340625 22.318125 
L 336.427582 22.318125 
z
" style="fill: #ffffff"/>
   </g>
   <g id="matplotlib.axis_7">
    <g id="xtick_7">
     <g id="line2d_22">
      <g>
       <use xlink:href="#m0b00ad5517" x="336.427582" y="105.478125" style="stroke: #000000; stroke-width: 0.8"/>
      </g>
     </g>
     <g id="text_16">
      <!-- 0.0 -->
      <g transform="translate(328.476019 116.576563)scale(0.1 -0.1)">
       <use xlink:href="#DejaVuSans-30"/>
       <use xlink:href="#DejaVuSans-2e" x="63.623047"/>
       <use xlink:href="#DejaVuSans-30" x="95.410156"/>
      </g>
     </g>
    </g>
    <g id="xtick_8">
     <g id="line2d_23">
      <g>
       <use xlink:href="#m0b00ad5517" x="421.340625" y="105.478125" style="stroke: #000000; stroke-width: 0.8"/>
      </g>
     </g>
     <g id="text_17">
      <!-- 0.5 -->
      <g transform="translate(413.389063 116.576563)scale(0.1 -0.1)">
       <use xlink:href="#DejaVuSans-30"/>
       <use xlink:href="#DejaVuSans-2e" x="63.623047"/>
       <use xlink:href="#DejaVuSans-35" x="95.410156"/>
      </g>
     </g>
    </g>
    <g id="text_18">
     <!-- $x$ -->
     <g transform="translate(375.884103 130.254688)scale(0.1 -0.1)">
      <use xlink:href="#DejaVuSans-Oblique-78" transform="translate(0 0.3125)"/>
     </g>
    </g>
   </g>
   <g id="matplotlib.axis_8">
    <g id="ytick_7">
     <g id="line2d_24">
      <g>
       <use xlink:href="#mde2247556c" x="336.427582" y="101.518125" style="stroke: #000000; stroke-width: 0.8"/>
      </g>
     </g>
    </g>
    <g id="ytick_8">
     <g id="line2d_25">
      <g>
       <use xlink:href="#mde2247556c" x="336.427582" y="22.318125" style="stroke: #000000; stroke-width: 0.8"/>
      </g>
     </g>
    </g>
   </g>
   <g id="line2d_26">
    <path d="M 336.427582 64.156911 
L 337.285289 64.156911 
L 338.142997 65.440673 
L 339.000704 68.436118 
L 339.858412 71.431563 
L 340.716119 75.313492 
L 341.573827 81.41163 
L 342.431534 87.509768 
L 343.289242 93.092212 
L 344.146949 95.580491 
L 345.004657 98.06877 
L 345.862364 100.557048 
L 346.720072 100.851498 
L 347.577779 101.145948 
L 348.435487 101.440398 
L 349.293194 101.492067 
L 350.150902 101.503272 
L 351.008609 101.514476 
L 351.866317 101.517779 
L 352.724024 101.517921 
L 353.581732 101.518062 
L 354.439439 101.518123 
L 355.297147 101.518124 
L 356.154854 101.518125 
L 357.012562 101.518125 
L 357.870269 101.518125 
L 358.727977 101.518125 
L 359.585684 101.518125 
L 360.443392 101.518125 
L 361.301099 101.518125 
L 362.158807 101.518125 
L 363.016514 101.518125 
L 363.874222 101.518125 
L 364.731929 101.518125 
L 365.589637 101.518125 
L 366.447344 101.518125 
L 367.305052 101.518125 
L 368.162759 101.518125 
L 369.020467 101.518125 
L 369.878174 101.518125 
L 370.735882 101.518125 
L 371.593589 101.518125 
L 372.451297 101.518125 
L 373.309004 101.518125 
L 374.166712 101.518125 
L 375.024419 101.518125 
L 375.882127 101.518125 
L 376.739834 101.518125 
L 377.597542 101.518125 
L 378.45525 101.518125 
L 379.312957 101.518125 
L 380.170665 101.518125 
L 381.028372 101.518125 
L 381.88608 101.518125 
L 382.743787 101.518125 
L 383.601495 101.518125 
L 384.459202 101.518125 
L 385.31691 101.518125 
L 386.174617 101.518125 
L 387.032325 101.518125 
L 387.890032 101.518125 
L 388.74774 101.518125 
L 389.605447 101.518125 
L 390.463155 101.518125 
L 391.320862 101.518125 
L 392.17857 101.518125 
L 393.036277 101.518125 
L 393.893985 101.518125 
L 394.751692 101.518125 
L 395.6094 101.518125 
L 396.467107 101.518125 
L 397.324815 101.518125 
L 398.182522 101.518125 
L 399.04023 101.518125 
L 399.897937 101.518125 
L 400.755645 101.518125 
L 401.613352 101.518125 
L 402.47106 101.518125 
L 403.328767 101.518125 
L 404.186475 101.518125 
L 405.044182 101.518125 
L 405.90189 101.518125 
L 406.759597 101.518125 
L 407.617305 101.518125 
L 408.475012 101.518125 
L 409.33272 101.518125 
L 410.190427 101.518125 
L 411.048135 101.518125 
L 411.905842 101.518125 
L 412.76355 101.518125 
L 413.621257 101.518125 
L 414.478965 101.518125 
L 415.336672 101.518125 
L 416.19438 101.518125 
L 417.052087 101.518125 
L 417.909795 101.518125 
L 418.767502 101.518125 
L 419.62521 101.518125 
L 420.482917 101.518125 
L 421.340625 101.518125 
" clip-path="url(#p1c32d6e749)" style="fill: none; stroke: #1f77b4; stroke-width: 1.5; stroke-linecap: square"/>
   </g>
   <g id="line2d_27">
    <path d="M 336.427582 91.250844 
L 337.285289 91.250844 
L 338.142997 91.310944 
L 339.000704 91.451177 
L 339.858412 91.591411 
L 340.716119 91.753927 
L 341.573827 91.972152 
L 342.431534 92.190376 
L 343.289242 92.417282 
L 344.146949 92.696275 
L 345.004657 92.975269 
L 345.862364 93.254263 
L 346.720072 93.573291 
L 347.577779 93.892319 
L 348.435487 94.211347 
L 349.293194 94.546117 
L 350.150902 94.88351 
L 351.008609 95.220903 
L 351.866317 95.556955 
L 352.724024 95.89247 
L 353.581732 96.227986 
L 354.439439 96.55277 
L 355.297147 96.869506 
L 356.154854 97.186242 
L 357.012562 97.489573 
L 357.870269 97.775031 
L 358.727977 98.060488 
L 359.585684 98.334858 
L 360.443392 98.581507 
L 361.301099 98.828155 
L 362.158807 99.06883 
L 363.016514 99.27366 
L 363.874222 99.47849 
L 364.731929 99.68332 
L 365.589637 99.847153 
L 366.447344 100.010987 
L 367.305052 100.174821 
L 368.162759 100.306562 
L 369.020467 100.432955 
L 369.878174 100.559347 
L 370.735882 100.662718 
L 371.593589 100.756881 
L 372.451297 100.851043 
L 373.309004 100.930138 
L 374.166712 100.997933 
L 375.024419 101.065728 
L 375.882127 101.1247 
L 376.739834 101.171909 
L 377.597542 101.219119 
L 378.45525 101.261929 
L 379.312957 101.293741 
L 380.170665 101.325554 
L 381.028372 101.355786 
L 381.88608 101.376541 
L 382.743787 101.397295 
L 383.601495 101.418049 
L 384.459202 101.431162 
L 385.31691 101.444275 
L 386.174617 101.457388 
L 387.032325 101.466142 
L 387.890032 101.474169 
L 388.74774 101.482195 
L 389.605447 101.48789 
L 390.463155 101.492651 
L 391.320862 101.497412 
L 392.17857 101.501017 
L 393.036277 101.503754 
L 393.893985 101.506491 
L 394.751692 101.508861 
L 395.6094 101.510741 
L 396.467107 101.512622 
L 397.324815 101.514343 
L 398.182522 101.515667 
L 399.04023 101.51699 
L 399.897937 101.518125 
L 400.755645 101.518125 
L 401.613352 101.518125 
L 402.47106 101.518125 
L 403.328767 101.518125 
L 404.186475 101.518125 
L 405.044182 101.518125 
L 405.90189 101.518125 
L 406.759597 101.518125 
L 407.617305 101.518125 
L 408.475012 101.518125 
L 409.33272 101.518125 
L 410.190427 101.518125 
L 411.048135 101.518125 
L 411.905842 101.518125 
L 412.76355 101.518125 
L 413.621257 101.518125 
L 414.478965 101.518125 
L 415.336672 101.518125 
L 416.19438 101.518125 
L 417.052087 101.518125 
L 417.909795 101.518125 
L 418.767502 101.518125 
L 419.62521 101.518125 
L 420.482917 101.518125 
L 421.340625 101.518125 
" clip-path="url(#p1c32d6e749)" style="fill: none; stroke: #ff7f0e; stroke-width: 1.5; stroke-linecap: square"/>
   </g>
   <g id="line2d_28">
    <path d="M 336.427582 76.768125 
L 337.285289 76.768125 
L 338.142997 76.768125 
L 339.000704 76.768125 
L 339.858412 76.768125 
L 340.716119 76.768125 
L 341.573827 76.768125 
L 342.431534 76.768125 
L 343.289242 76.768125 
L 344.146949 76.768125 
L 345.004657 76.768125 
L 345.862364 76.768125 
L 346.720072 76.768125 
L 347.577779 76.768125 
L 348.435487 76.768125 
L 349.293194 76.768125 
L 350.150902 76.768125 
L 351.008609 76.768125 
L 351.866317 76.768125 
L 352.724024 76.768125 
L 353.581732 76.768125 
L 354.439439 76.768125 
L 355.297147 76.768125 
L 356.154854 76.768125 
L 357.012562 76.768125 
L 357.870269 76.768125 
L 358.727977 76.768125 
L 359.585684 76.768125 
L 360.443392 76.768125 
L 361.301099 76.768125 
L 362.158807 76.768125 
L 363.016514 76.768125 
L 363.874222 76.768125 
L 364.731929 76.768125 
L 365.589637 76.768125 
L 366.447344 76.768125 
L 367.305052 76.768125 
L 368.162759 76.768125 
L 369.020467 76.768125 
L 369.878174 76.768125 
L 370.735882 76.768125 
L 371.593589 76.768125 
L 372.451297 76.768125 
L 373.309004 76.768125 
L 374.166712 76.768125 
L 375.024419 76.768125 
L 375.882127 76.768125 
L 376.739834 76.768125 
L 377.597542 76.768125 
L 378.45525 76.768125 
L 379.312957 76.768125 
L 380.170665 76.768125 
L 381.028372 76.768125 
L 381.88608 76.768125 
L 382.743787 76.768125 
L 383.601495 76.768125 
L 384.459202 76.768125 
L 385.31691 76.768125 
L 386.174617 76.768125 
L 387.032325 76.768125 
L 387.890032 76.768125 
L 388.74774 76.768125 
L 389.605447 76.768125 
L 390.463155 76.768125 
L 391.320862 76.768125 
L 392.17857 76.768125 
L 393.036277 76.768125 
L 393.893985 76.768125 
L 394.751692 76.768125 
L 395.6094 76.768125 
L 396.467107 76.768125 
L 397.324815 76.768125 
L 398.182522 76.768125 
L 399.04023 76.768125 
L 399.897937 76.768125 
L 400.755645 76.768125 
L 401.613352 76.768125 
L 402.47106 76.768125 
L 403.328767 76.768125 
L 404.186475 76.768125 
L 405.044182 76.768125 
L 405.90189 76.768125 
L 406.759597 76.768125 
L 407.617305 76.768125 
L 408.475012 76.768125 
L 409.33272 76.768125 
L 410.190427 76.768125 
L 411.048135 76.768125 
L 411.905842 76.768125 
L 412.76355 76.768125 
L 413.621257 76.768125 
L 414.478965 76.768125 
L 415.336672 76.768125 
L 416.19438 76.768125 
L 417.052087 76.768125 
L 417.909795 76.768125 
L 418.767502 76.768125 
L 419.62521 76.768125 
L 420.482917 76.768125 
L 421.340625 76.768125 
" clip-path="url(#p1c32d6e749)" style="fill: none; stroke: #2ca02c; stroke-width: 1.5; stroke-linecap: square"/>
   </g>
   <g id="patch_18">
    <path d="M 336.427582 105.478125 
L 336.427582 22.318125 
" style="fill: none; stroke: #000000; stroke-width: 0.8; stroke-linejoin: miter; stroke-linecap: square"/>
   </g>
   <g id="patch_19">
    <path d="M 421.340625 105.478125 
L 421.340625 22.318125 
" style="fill: none; stroke: #000000; stroke-width: 0.8; stroke-linejoin: miter; stroke-linecap: square"/>
   </g>
   <g id="patch_20">
    <path d="M 336.427582 105.478125 
L 421.340625 105.478125 
" style="fill: none; stroke: #000000; stroke-width: 0.8; stroke-linejoin: miter; stroke-linecap: square"/>
   </g>
   <g id="patch_21">
    <path d="M 336.427582 22.318125 
L 421.340625 22.318125 
" style="fill: none; stroke: #000000; stroke-width: 0.8; stroke-linejoin: miter; stroke-linecap: square"/>
   </g>
   <g id="text_19">
    <!-- $\kappa^{BB}$ -->
    <g transform="translate(369.104103 16.318125)scale(0.12 -0.12)">
     <use xlink:href="#DejaVuSans-Oblique-3ba" transform="translate(0 0.684375)"/>
     <use xlink:href="#DejaVuSans-Oblique-42" transform="translate(63.401693 38.965625)scale(0.7)"/>
     <use xlink:href="#DejaVuSans-Oblique-42" transform="translate(111.424154 38.965625)scale(0.7)"/>
    </g>
   </g>
   <g id="legend_1">
    <g id="patch_22">
     <path d="M 428.340625 87.415312 
L 573.06875 87.415312 
Q 575.06875 87.415312 575.06875 85.415312 
L 575.06875 42.380938 
Q 575.06875 40.380938 573.06875 40.380938 
L 428.340625 40.380938 
Q 426.340625 40.380938 426.340625 42.380938 
L 426.340625 85.415312 
Q 426.340625 87.415312 428.340625 87.415312 
L 428.340625 87.415312 
z
" style="fill: none; opacity: 0"/>
    </g>
    <g id="line2d_29">
     <path d="M 430.340625 48.479375 
L 440.340625 48.479375 
L 450.340625 48.479375 
" style="fill: none; stroke: #1f77b4; stroke-width: 1.5; stroke-linecap: square"/>
    </g>
    <g id="text_20">
     <!-- Narrow Gaussian Filter -->
     <g transform="translate(458.340625 51.979375)scale(0.1 -0.1)">
      <defs>
       <path id="DejaVuSans-4e" d="M 628 4666 
L 1478 4666 
L 3547 763 
L 3547 4666 
L 4159 4666 
L 4159 0 
L 3309 0 
L 1241 3903 
L 1241 0 
L 628 0 
L 628 4666 
z
" transform="scale(0.015625)"/>
       <path id="DejaVuSans-61" d="M 2194 1759 
Q 1497 1759 1228 1600 
Q 959 1441 959 1056 
Q 959 750 1161 570 
Q 1363 391 1709 391 
Q 2188 391 2477 730 
Q 2766 1069 2766 1631 
L 2766 1759 
L 2194 1759 
z
M 3341 1997 
L 3341 0 
L 2766 0 
L 2766 531 
Q 2569 213 2275 61 
Q 1981 -91 1556 -91 
Q 1019 -91 701 211 
Q 384 513 384 1019 
Q 384 1609 779 1909 
Q 1175 2209 1959 2209 
L 2766 2209 
L 2766 2266 
Q 2766 2663 2505 2880 
Q 2244 3097 1772 3097 
Q 1472 3097 1187 3025 
Q 903 2953 641 2809 
L 641 3341 
Q 956 3463 1253 3523 
Q 1550 3584 1831 3584 
Q 2591 3584 2966 3190 
Q 3341 2797 3341 1997 
z
" transform="scale(0.015625)"/>
       <path id="DejaVuSans-72" d="M 2631 2963 
Q 2534 3019 2420 3045 
Q 2306 3072 2169 3072 
Q 1681 3072 1420 2755 
Q 1159 2438 1159 1844 
L 1159 0 
L 581 0 
L 581 3500 
L 1159 3500 
L 1159 2956 
Q 1341 3275 1631 3429 
Q 1922 3584 2338 3584 
Q 2397 3584 2469 3576 
Q 2541 3569 2628 3553 
L 2631 2963 
z
" transform="scale(0.015625)"/>
       <path id="DejaVuSans-6f" d="M 1959 3097 
Q 1497 3097 1228 2736 
Q 959 2375 959 1747 
Q 959 1119 1226 758 
Q 1494 397 1959 397 
Q 2419 397 2687 759 
Q 2956 1122 2956 1747 
Q 2956 2369 2687 2733 
Q 2419 3097 1959 3097 
z
M 1959 3584 
Q 2709 3584 3137 3096 
Q 3566 2609 3566 1747 
Q 3566 888 3137 398 
Q 2709 -91 1959 -91 
Q 1206 -91 779 398 
Q 353 888 353 1747 
Q 353 2609 779 3096 
Q 1206 3584 1959 3584 
z
" transform="scale(0.015625)"/>
       <path id="DejaVuSans-77" d="M 269 3500 
L 844 3500 
L 1563 769 
L 2278 3500 
L 2956 3500 
L 3675 769 
L 4391 3500 
L 4966 3500 
L 4050 0 
L 3372 0 
L 2619 2869 
L 1863 0 
L 1184 0 
L 269 3500 
z
" transform="scale(0.015625)"/>
       <path id="DejaVuSans-20" transform="scale(0.015625)"/>
       <path id="DejaVuSans-47" d="M 3809 666 
L 3809 1919 
L 2778 1919 
L 2778 2438 
L 4434 2438 
L 4434 434 
Q 4069 175 3628 42 
Q 3188 -91 2688 -91 
Q 1594 -91 976 548 
Q 359 1188 359 2328 
Q 359 3472 976 4111 
Q 1594 4750 2688 4750 
Q 3144 4750 3555 4637 
Q 3966 4525 4313 4306 
L 4313 3634 
Q 3963 3931 3569 4081 
Q 3175 4231 2741 4231 
Q 1884 4231 1454 3753 
Q 1025 3275 1025 2328 
Q 1025 1384 1454 906 
Q 1884 428 2741 428 
Q 3075 428 3337 486 
Q 3600 544 3809 666 
z
" transform="scale(0.015625)"/>
       <path id="DejaVuSans-75" d="M 544 1381 
L 544 3500 
L 1119 3500 
L 1119 1403 
Q 1119 906 1312 657 
Q 1506 409 1894 409 
Q 2359 409 2629 706 
Q 2900 1003 2900 1516 
L 2900 3500 
L 3475 3500 
L 3475 0 
L 2900 0 
L 2900 538 
Q 2691 219 2414 64 
Q 2138 -91 1772 -91 
Q 1169 -91 856 284 
Q 544 659 544 1381 
z
M 1991 3584 
L 1991 3584 
z
" transform="scale(0.015625)"/>
       <path id="DejaVuSans-73" d="M 2834 3397 
L 2834 2853 
Q 2591 2978 2328 3040 
Q 2066 3103 1784 3103 
Q 1356 3103 1142 2972 
Q 928 2841 928 2578 
Q 928 2378 1081 2264 
Q 1234 2150 1697 2047 
L 1894 2003 
Q 2506 1872 2764 1633 
Q 3022 1394 3022 966 
Q 3022 478 2636 193 
Q 2250 -91 1575 -91 
Q 1294 -91 989 -36 
Q 684 19 347 128 
L 347 722 
Q 666 556 975 473 
Q 1284 391 1588 391 
Q 1994 391 2212 530 
Q 2431 669 2431 922 
Q 2431 1156 2273 1281 
Q 2116 1406 1581 1522 
L 1381 1569 
Q 847 1681 609 1914 
Q 372 2147 372 2553 
Q 372 3047 722 3315 
Q 1072 3584 1716 3584 
Q 2034 3584 2315 3537 
Q 2597 3491 2834 3397 
z
" transform="scale(0.015625)"/>
       <path id="DejaVuSans-69" d="M 603 3500 
L 1178 3500 
L 1178 0 
L 603 0 
L 603 3500 
z
M 603 4863 
L 1178 4863 
L 1178 4134 
L 603 4134 
L 603 4863 
z
" transform="scale(0.015625)"/>
       <path id="DejaVuSans-6e" d="M 3513 2113 
L 3513 0 
L 2938 0 
L 2938 2094 
Q 2938 2591 2744 2837 
Q 2550 3084 2163 3084 
Q 1697 3084 1428 2787 
Q 1159 2491 1159 1978 
L 1159 0 
L 581 0 
L 581 3500 
L 1159 3500 
L 1159 2956 
Q 1366 3272 1645 3428 
Q 1925 3584 2291 3584 
Q 2894 3584 3203 3211 
Q 3513 2838 3513 2113 
z
" transform="scale(0.015625)"/>
       <path id="DejaVuSans-46" d="M 628 4666 
L 3309 4666 
L 3309 4134 
L 1259 4134 
L 1259 2759 
L 3109 2759 
L 3109 2228 
L 1259 2228 
L 1259 0 
L 628 0 
L 628 4666 
z
" transform="scale(0.015625)"/>
       <path id="DejaVuSans-6c" d="M 603 4863 
L 1178 4863 
L 1178 0 
L 603 0 
L 603 4863 
z
" transform="scale(0.015625)"/>
       <path id="DejaVuSans-74" d="M 1172 4494 
L 1172 3500 
L 2356 3500 
L 2356 3053 
L 1172 3053 
L 1172 1153 
Q 1172 725 1289 603 
Q 1406 481 1766 481 
L 2356 481 
L 2356 0 
L 1766 0 
Q 1100 0 847 248 
Q 594 497 594 1153 
L 594 3053 
L 172 3053 
L 172 3500 
L 594 3500 
L 594 4494 
L 1172 4494 
z
" transform="scale(0.015625)"/>
       <path id="DejaVuSans-65" d="M 3597 1894 
L 3597 1613 
L 953 1613 
Q 991 1019 1311 708 
Q 1631 397 2203 397 
Q 2534 397 2845 478 
Q 3156 559 3463 722 
L 3463 178 
Q 3153 47 2828 -22 
Q 2503 -91 2169 -91 
Q 1331 -91 842 396 
Q 353 884 353 1716 
Q 353 2575 817 3079 
Q 1281 3584 2069 3584 
Q 2775 3584 3186 3129 
Q 3597 2675 3597 1894 
z
M 3022 2063 
Q 3016 2534 2758 2815 
Q 2500 3097 2075 3097 
Q 1594 3097 1305 2825 
Q 1016 2553 972 2059 
L 3022 2063 
z
" transform="scale(0.015625)"/>
      </defs>
      <use xlink:href="#DejaVuSans-4e"/>
      <use xlink:href="#DejaVuSans-61" x="74.804688"/>
      <use xlink:href="#DejaVuSans-72" x="136.083984"/>
      <use xlink:href="#DejaVuSans-72" x="175.447266"/>
      <use xlink:href="#DejaVuSans-6f" x="214.310547"/>
      <use xlink:href="#DejaVuSans-77" x="275.492188"/>
      <use xlink:href="#DejaVuSans-20" x="357.279297"/>
      <use xlink:href="#DejaVuSans-47" x="389.066406"/>
      <use xlink:href="#DejaVuSans-61" x="466.556641"/>
      <use xlink:href="#DejaVuSans-75" x="527.835938"/>
      <use xlink:href="#DejaVuSans-73" x="591.214844"/>
      <use xlink:href="#DejaVuSans-73" x="643.314453"/>
      <use xlink:href="#DejaVuSans-69" x="695.414062"/>
      <use xlink:href="#DejaVuSans-61" x="723.197266"/>
      <use xlink:href="#DejaVuSans-6e" x="784.476562"/>
      <use xlink:href="#DejaVuSans-20" x="847.855469"/>
      <use xlink:href="#DejaVuSans-46" x="879.642578"/>
      <use xlink:href="#DejaVuSans-69" x="929.912109"/>
      <use xlink:href="#DejaVuSans-6c" x="957.695312"/>
      <use xlink:href="#DejaVuSans-74" x="985.478516"/>
      <use xlink:href="#DejaVuSans-65" x="1024.6875"/>
      <use xlink:href="#DejaVuSans-72" x="1086.210938"/>
     </g>
    </g>
    <g id="line2d_30">
     <path d="M 430.340625 63.1575 
L 440.340625 63.1575 
L 450.340625 63.1575 
" style="fill: none; stroke: #ff7f0e; stroke-width: 1.5; stroke-linecap: square"/>
    </g>
    <g id="text_21">
     <!-- Broad Gaussian Filter -->
     <g transform="translate(458.340625 66.6575)scale(0.1 -0.1)">
      <defs>
       <path id="DejaVuSans-42" d="M 1259 2228 
L 1259 519 
L 2272 519 
Q 2781 519 3026 730 
Q 3272 941 3272 1375 
Q 3272 1813 3026 2020 
Q 2781 2228 2272 2228 
L 1259 2228 
z
M 1259 4147 
L 1259 2741 
L 2194 2741 
Q 2656 2741 2882 2914 
Q 3109 3088 3109 3444 
Q 3109 3797 2882 3972 
Q 2656 4147 2194 4147 
L 1259 4147 
z
M 628 4666 
L 2241 4666 
Q 2963 4666 3353 4366 
Q 3744 4066 3744 3513 
Q 3744 3084 3544 2831 
Q 3344 2578 2956 2516 
Q 3422 2416 3680 2098 
Q 3938 1781 3938 1306 
Q 3938 681 3513 340 
Q 3088 0 2303 0 
L 628 0 
L 628 4666 
z
" transform="scale(0.015625)"/>
       <path id="DejaVuSans-64" d="M 2906 2969 
L 2906 4863 
L 3481 4863 
L 3481 0 
L 2906 0 
L 2906 525 
Q 2725 213 2448 61 
Q 2172 -91 1784 -91 
Q 1150 -91 751 415 
Q 353 922 353 1747 
Q 353 2572 751 3078 
Q 1150 3584 1784 3584 
Q 2172 3584 2448 3432 
Q 2725 3281 2906 2969 
z
M 947 1747 
Q 947 1113 1208 752 
Q 1469 391 1925 391 
Q 2381 391 2643 752 
Q 2906 1113 2906 1747 
Q 2906 2381 2643 2742 
Q 2381 3103 1925 3103 
Q 1469 3103 1208 2742 
Q 947 2381 947 1747 
z
" transform="scale(0.015625)"/>
      </defs>
      <use xlink:href="#DejaVuSans-42"/>
      <use xlink:href="#DejaVuSans-72" x="68.603516"/>
      <use xlink:href="#DejaVuSans-6f" x="107.466797"/>
      <use xlink:href="#DejaVuSans-61" x="168.648438"/>
      <use xlink:href="#DejaVuSans-64" x="229.927734"/>
      <use xlink:href="#DejaVuSans-20" x="293.404297"/>
      <use xlink:href="#DejaVuSans-47" x="325.191406"/>
      <use xlink:href="#DejaVuSans-61" x="402.681641"/>
      <use xlink:href="#DejaVuSans-75" x="463.960938"/>
      <use xlink:href="#DejaVuSans-73" x="527.339844"/>
      <use xlink:href="#DejaVuSans-73" x="579.439453"/>
      <use xlink:href="#DejaVuSans-69" x="631.539062"/>
      <use xlink:href="#DejaVuSans-61" x="659.322266"/>
      <use xlink:href="#DejaVuSans-6e" x="720.601562"/>
      <use xlink:href="#DejaVuSans-20" x="783.980469"/>
      <use xlink:href="#DejaVuSans-46" x="815.767578"/>
      <use xlink:href="#DejaVuSans-69" x="866.037109"/>
      <use xlink:href="#DejaVuSans-6c" x="893.820312"/>
      <use xlink:href="#DejaVuSans-74" x="921.603516"/>
      <use xlink:href="#DejaVuSans-65" x="960.8125"/>
      <use xlink:href="#DejaVuSans-72" x="1022.335938"/>
     </g>
    </g>
    <g id="line2d_31">
     <path d="M 430.340625 77.835625 
L 440.340625 77.835625 
L 450.340625 77.835625 
" style="fill: none; stroke: #2ca02c; stroke-width: 1.5; stroke-linecap: square"/>
    </g>
    <g id="text_22">
     <!-- Average Filter -->
     <g transform="translate(458.340625 81.335625)scale(0.1 -0.1)">
      <defs>
       <path id="DejaVuSans-41" d="M 2188 4044 
L 1331 1722 
L 3047 1722 
L 2188 4044 
z
M 1831 4666 
L 2547 4666 
L 4325 0 
L 3669 0 
L 3244 1197 
L 1141 1197 
L 716 0 
L 50 0 
L 1831 4666 
z
" transform="scale(0.015625)"/>
       <path id="DejaVuSans-76" d="M 191 3500 
L 800 3500 
L 1894 563 
L 2988 3500 
L 3597 3500 
L 2284 0 
L 1503 0 
L 191 3500 
z
" transform="scale(0.015625)"/>
       <path id="DejaVuSans-67" d="M 2906 1791 
Q 2906 2416 2648 2759 
Q 2391 3103 1925 3103 
Q 1463 3103 1205 2759 
Q 947 2416 947 1791 
Q 947 1169 1205 825 
Q 1463 481 1925 481 
Q 2391 481 2648 825 
Q 2906 1169 2906 1791 
z
M 3481 434 
Q 3481 -459 3084 -895 
Q 2688 -1331 1869 -1331 
Q 1566 -1331 1297 -1286 
Q 1028 -1241 775 -1147 
L 775 -588 
Q 1028 -725 1275 -790 
Q 1522 -856 1778 -856 
Q 2344 -856 2625 -561 
Q 2906 -266 2906 331 
L 2906 616 
Q 2728 306 2450 153 
Q 2172 0 1784 0 
Q 1141 0 747 490 
Q 353 981 353 1791 
Q 353 2603 747 3093 
Q 1141 3584 1784 3584 
Q 2172 3584 2450 3431 
Q 2728 3278 2906 2969 
L 2906 3500 
L 3481 3500 
L 3481 434 
z
" transform="scale(0.015625)"/>
      </defs>
      <use xlink:href="#DejaVuSans-41"/>
      <use xlink:href="#DejaVuSans-76" x="62.533203"/>
      <use xlink:href="#DejaVuSans-65" x="121.712891"/>
      <use xlink:href="#DejaVuSans-72" x="183.236328"/>
      <use xlink:href="#DejaVuSans-61" x="224.349609"/>
      <use xlink:href="#DejaVuSans-67" x="285.628906"/>
      <use xlink:href="#DejaVuSans-65" x="349.105469"/>
      <use xlink:href="#DejaVuSans-20" x="410.628906"/>
      <use xlink:href="#DejaVuSans-46" x="442.416016"/>
      <use xlink:href="#DejaVuSans-69" x="492.685547"/>
      <use xlink:href="#DejaVuSans-6c" x="520.46875"/>
      <use xlink:href="#DejaVuSans-74" x="548.251953"/>
      <use xlink:href="#DejaVuSans-65" x="587.460938"/>
      <use xlink:href="#DejaVuSans-72" x="648.984375"/>
     </g>
    </g>
   </g>
  </g>
 </g>
 <defs>
  <clipPath id="p2d0276a193">
   <rect x="30.740625" y="22.318125" width="84.913043" height="83.16"/>
  </clipPath>
  <clipPath id="pf4b812cc0e">
   <rect x="132.636277" y="22.318125" width="84.913043" height="83.16"/>
  </clipPath>
  <clipPath id="pd592ceaa0c">
   <rect x="234.531929" y="22.318125" width="84.913043" height="83.16"/>
  </clipPath>
  <clipPath id="p1c32d6e749">
   <rect x="336.427582" y="22.318125" width="84.913043" height="83.16"/>
  </clipPath>
 </defs>
</svg>
