<?xml version="1.0" encoding="utf-8" standalone="no"?>
<!DOCTYPE svg PUBLIC "-//W3C//DTD SVG 1.1//EN"
  "http://www.w3.org/Graphics/SVG/1.1/DTD/svg11.dtd">
<svg xmlns:xlink="http://www.w3.org/1999/xlink" width="416.052813pt" height="331.750125pt" viewBox="0 0 416.052813 331.750125" xmlns="http://www.w3.org/2000/svg" version="1.1">
 <metadata>
  <rdf:RDF xmlns:dc="http://purl.org/dc/elements/1.1/" xmlns:cc="http://creativecommons.org/ns#" xmlns:rdf="http://www.w3.org/1999/02/22-rdf-syntax-ns#">
   <cc:Work>
    <dc:type rdf:resource="http://purl.org/dc/dcmitype/StillImage"/>
    <dc:date>2024-03-22T10:27:37.959192</dc:date>
    <dc:format>image/svg+xml</dc:format>
    <dc:creator>
     <cc:Agent>
      <dc:title>Matplotlib v3.5.2, https://matplotlib.org/</dc:title>
     </cc:Agent>
    </dc:creator>
   </cc:Work>
  </rdf:RDF>
 </metadata>
 <defs>
  <style type="text/css">*{stroke-linejoin: round; stroke-linecap: butt}</style>
 </defs>
 <g id="figure_1">
  <g id="patch_1">
   <path d="M 0 331.750125 
L 416.052813 331.750125 
L 416.052813 0 
L 0 0 
z
" style="fill: #ffffff"/>
  </g>
  <g id="axes_1">
   <g id="patch_2">
    <path d="M 43.78125 120.028235 
L 400.90125 120.028235 
L 400.90125 41.76 
L 43.78125 41.76 
z
" style="fill: #ffffff"/>
   </g>
   <g id="matplotlib.axis_1">
    <g id="xtick_1">
     <g id="line2d_1">
      <defs>
       <path id="ma232b29279" d="M 0 0 
L 0 3.5 
" style="stroke: #000000; stroke-width: 0.8"/>
      </defs>
      <g>
       <use xlink:href="#ma232b29279" x="43.78125" y="120.028235" style="stroke: #000000; stroke-width: 0.8"/>
      </g>
     </g>
    </g>
    <g id="xtick_2">
     <g id="line2d_2">
      <g>
       <use xlink:href="#ma232b29279" x="115.20525" y="120.028235" style="stroke: #000000; stroke-width: 0.8"/>
      </g>
     </g>
    </g>
    <g id="xtick_3">
     <g id="line2d_3">
      <g>
       <use xlink:href="#ma232b29279" x="186.62925" y="120.028235" style="stroke: #000000; stroke-width: 0.8"/>
      </g>
     </g>
    </g>
    <g id="xtick_4">
     <g id="line2d_4">
      <g>
       <use xlink:href="#ma232b29279" x="258.05325" y="120.028235" style="stroke: #000000; stroke-width: 0.8"/>
      </g>
     </g>
    </g>
    <g id="xtick_5">
     <g id="line2d_5">
      <g>
       <use xlink:href="#ma232b29279" x="329.47725" y="120.028235" style="stroke: #000000; stroke-width: 0.8"/>
      </g>
     </g>
    </g>
    <g id="xtick_6">
     <g id="line2d_6">
      <g>
       <use xlink:href="#ma232b29279" x="400.90125" y="120.028235" style="stroke: #000000; stroke-width: 0.8"/>
      </g>
     </g>
    </g>
   </g>
   <g id="matplotlib.axis_2">
    <g id="ytick_1">
     <g id="line2d_7">
      <defs>
       <path id="m5919dc54b9" d="M 0 0 
L -3.5 0 
" style="stroke: #000000; stroke-width: 0.8"/>
      </defs>
      <g>
       <use xlink:href="#m5919dc54b9" x="43.78125" y="120.028235" style="stroke: #000000; stroke-width: 0.8"/>
      </g>
     </g>
     <g id="text_1">
      <!-- 0.0 -->
      <g transform="translate(20.878125 123.827454)scale(0.1 -0.1)">
       <defs>
        <path id="DejaVuSans-30" d="M 2034 4250 
Q 1547 4250 1301 3770 
Q 1056 3291 1056 2328 
Q 1056 1369 1301 889 
Q 1547 409 2034 409 
Q 2525 409 2770 889 
Q 3016 1369 3016 2328 
Q 3016 3291 2770 3770 
Q 2525 4250 2034 4250 
z
M 2034 4750 
Q 2819 4750 3233 4129 
Q 3647 3509 3647 2328 
Q 3647 1150 3233 529 
Q 2819 -91 2034 -91 
Q 1250 -91 836 529 
Q 422 1150 422 2328 
Q 422 3509 836 4129 
Q 1250 4750 2034 4750 
z
" transform="scale(0.015625)"/>
        <path id="DejaVuSans-2e" d="M 684 794 
L 1344 794 
L 1344 0 
L 684 0 
L 684 794 
z
" transform="scale(0.015625)"/>
       </defs>
       <use xlink:href="#DejaVuSans-30"/>
       <use xlink:href="#DejaVuSans-2e" x="63.623047"/>
       <use xlink:href="#DejaVuSans-30" x="95.410156"/>
      </g>
     </g>
    </g>
    <g id="ytick_2">
     <g id="line2d_8">
      <g>
       <use xlink:href="#m5919dc54b9" x="43.78125" y="80.894118" style="stroke: #000000; stroke-width: 0.8"/>
      </g>
     </g>
     <g id="text_2">
      <!-- 0.5 -->
      <g transform="translate(20.878125 84.693336)scale(0.1 -0.1)">
       <defs>
        <path id="DejaVuSans-35" d="M 691 4666 
L 3169 4666 
L 3169 4134 
L 1269 4134 
L 1269 2991 
Q 1406 3038 1543 3061 
Q 1681 3084 1819 3084 
Q 2600 3084 3056 2656 
Q 3513 2228 3513 1497 
Q 3513 744 3044 326 
Q 2575 -91 1722 -91 
Q 1428 -91 1123 -41 
Q 819 9 494 109 
L 494 744 
Q 775 591 1075 516 
Q 1375 441 1709 441 
Q 2250 441 2565 725 
Q 2881 1009 2881 1497 
Q 2881 1984 2565 2268 
Q 2250 2553 1709 2553 
Q 1456 2553 1204 2497 
Q 953 2441 691 2322 
L 691 4666 
z
" transform="scale(0.015625)"/>
       </defs>
       <use xlink:href="#DejaVuSans-30"/>
       <use xlink:href="#DejaVuSans-2e" x="63.623047"/>
       <use xlink:href="#DejaVuSans-35" x="95.410156"/>
      </g>
     </g>
    </g>
    <g id="ytick_3">
     <g id="line2d_9">
      <g>
       <use xlink:href="#m5919dc54b9" x="43.78125" y="41.76" style="stroke: #000000; stroke-width: 0.8"/>
      </g>
     </g>
     <g id="text_3">
      <!-- 1.0 -->
      <g transform="translate(20.878125 45.559219)scale(0.1 -0.1)">
       <defs>
        <path id="DejaVuSans-31" d="M 794 531 
L 1825 531 
L 1825 4091 
L 703 3866 
L 703 4441 
L 1819 4666 
L 2450 4666 
L 2450 531 
L 3481 531 
L 3481 0 
L 794 0 
L 794 531 
z
" transform="scale(0.015625)"/>
       </defs>
       <use xlink:href="#DejaVuSans-31"/>
       <use xlink:href="#DejaVuSans-2e" x="63.623047"/>
       <use xlink:href="#DejaVuSans-30" x="95.410156"/>
      </g>
     </g>
    </g>
    <g id="text_4">
     <!-- IC -->
     <g transform="translate(14.798438 85.860524)rotate(-90)scale(0.1 -0.1)">
      <defs>
       <path id="DejaVuSans-49" d="M 628 4666 
L 1259 4666 
L 1259 0 
L 628 0 
L 628 4666 
z
" transform="scale(0.015625)"/>
       <path id="DejaVuSans-43" d="M 4122 4306 
L 4122 3641 
Q 3803 3938 3442 4084 
Q 3081 4231 2675 4231 
Q 1875 4231 1450 3742 
Q 1025 3253 1025 2328 
Q 1025 1406 1450 917 
Q 1875 428 2675 428 
Q 3081 428 3442 575 
Q 3803 722 4122 1019 
L 4122 359 
Q 3791 134 3420 21 
Q 3050 -91 2638 -91 
Q 1578 -91 968 557 
Q 359 1206 359 2328 
Q 359 3453 968 4101 
Q 1578 4750 2638 4750 
Q 3056 4750 3426 4639 
Q 3797 4528 4122 4306 
z
" transform="scale(0.015625)"/>
      </defs>
      <use xlink:href="#DejaVuSans-49"/>
      <use xlink:href="#DejaVuSans-43" x="29.492188"/>
     </g>
    </g>
   </g>
   <g id="line2d_10">
    <path d="M 43.78125 102.339614 
L 49.449821 104.687662 
L 55.118393 103.904979 
L 60.786964 101.087322 
L 66.455536 97.017374 
L 72.124107 96.704301 
L 77.792679 100.148103 
L 83.46125 103.748442 
L 89.129821 103.278833 
L 94.798393 100.461176 
L 100.466964 97.956593 
L 106.135536 99.052348 
L 111.804107 97.800056 
L 117.472679 99.208885 
L 123.14125 100.148103 
L 128.809821 102.809224 
L 134.478393 100.30464 
L 140.146964 99.365421 
L 145.815536 99.678495 
L 151.484107 101.087322 
L 157.152679 100.617713 
L 162.82125 102.026541 
L 168.489821 101.556932 
L 174.158393 99.991566 
L 179.826964 99.678495 
L 185.495536 100.148103 
L 191.164107 101.400395 
L 196.832679 100.930786 
L 202.50125 99.835032 
L 208.169821 97.956593 
L 213.838393 97.486984 
L 219.506964 96.078156 
L 225.175536 99.365421 
L 230.844107 102.183078 
L 236.512679 104.061516 
L 242.18125 105.313808 
L 247.849821 102.339614 
L 253.518393 99.052348 
L 259.186964 98.895811 
L 264.855536 98.895811 
L 270.524107 100.774249 
L 276.192679 102.49615 
L 281.86125 102.339614 
L 287.529821 101.400395 
L 293.198393 100.617713 
L 298.866964 99.208885 
L 304.535536 98.739274 
L 310.204107 99.835032 
L 315.872679 99.991566 
L 321.54125 100.30464 
L 327.209821 100.930786 
L 332.878393 102.026541 
L 338.546964 101.243859 
L 344.215536 98.426203 
L 349.884107 98.58274 
L 355.552679 99.052348 
L 361.22125 99.835032 
L 366.889821 101.713468 
L 372.558393 101.400395 
L 378.226964 99.052348 
L 383.895536 99.835032 
L 389.564107 100.617713 
L 395.232679 100.617713 
L 400.90125 101.870005 
" clip-path="url(#p3a8ce4fb18)" style="fill: none; stroke: #0000ff; stroke-width: 1.5; stroke-linecap: square"/>
   </g>
   <g id="line2d_11">
    <path d="M 43.78125 100.30464 
L 49.449821 97.956593 
L 55.118393 99.052348 
L 60.786964 101.556932 
L 66.455536 103.591906 
L 72.124107 103.748442 
L 77.792679 100.30464 
L 83.46125 98.113129 
L 89.129821 95.921619 
L 94.798393 100.30464 
L 100.466964 103.43537 
L 106.135536 102.652687 
L 111.804107 103.43537 
L 117.472679 101.713468 
L 123.14125 99.991566 
L 128.809821 100.30464 
L 134.478393 101.870005 
L 140.146964 100.30464 
L 145.815536 100.30464 
L 151.484107 99.365421 
L 157.152679 98.426203 
L 162.82125 98.269666 
L 168.489821 99.991566 
L 174.158393 100.930786 
L 179.826964 102.49615 
L 185.495536 103.748442 
L 191.164107 101.400395 
L 196.832679 100.617713 
L 202.50125 100.774249 
L 208.169821 100.617713 
L 213.838393 100.930786 
L 219.506964 99.678495 
L 225.175536 100.774249 
L 230.844107 100.774249 
L 236.512679 97.173911 
L 242.18125 95.921619 
L 247.849821 99.052348 
L 253.518393 102.183078 
L 259.186964 103.122296 
L 264.855536 101.870005 
L 270.524107 100.461176 
L 276.192679 97.956593 
L 281.86125 96.704301 
L 287.529821 97.017374 
L 293.198393 100.617713 
L 298.866964 103.43537 
L 304.535536 103.748442 
L 310.204107 101.556932 
L 315.872679 101.243859 
L 321.54125 100.148103 
L 327.209821 99.365421 
L 332.878393 99.052348 
L 338.546964 99.365421 
L 344.215536 102.652687 
L 349.884107 101.556932 
L 355.552679 101.870005 
L 361.22125 99.678495 
L 366.889821 98.895811 
L 372.558393 99.521958 
L 378.226964 100.774249 
L 383.895536 100.617713 
L 389.564107 100.148103 
L 395.232679 99.835032 
L 400.90125 100.30464 
" clip-path="url(#p3a8ce4fb18)" style="fill: none; stroke: #ff0000; stroke-width: 1.5; stroke-linecap: square"/>
   </g>
   <g id="patch_3">
    <path d="M 43.78125 120.028235 
L 43.78125 41.76 
" style="fill: none; stroke: #000000; stroke-width: 0.8; stroke-linejoin: miter; stroke-linecap: square"/>
   </g>
   <g id="patch_4">
    <path d="M 400.90125 120.028235 
L 400.90125 41.76 
" style="fill: none; stroke: #000000; stroke-width: 0.8; stroke-linejoin: miter; stroke-linecap: square"/>
   </g>
   <g id="patch_5">
    <path d="M 43.78125 120.028235 
L 400.90125 120.028235 
" style="fill: none; stroke: #000000; stroke-width: 0.8; stroke-linejoin: miter; stroke-linecap: square"/>
   </g>
   <g id="patch_6">
    <path d="M 43.78125 41.76 
L 400.90125 41.76 
" style="fill: none; stroke: #000000; stroke-width: 0.8; stroke-linejoin: miter; stroke-linecap: square"/>
   </g>
  </g>
  <g id="axes_2">
   <g id="patch_7">
    <path d="M 43.78125 213.950118 
L 400.90125 213.950118 
L 400.90125 135.681882 
L 43.78125 135.681882 
z
" style="fill: #ffffff"/>
   </g>
   <g id="matplotlib.axis_3">
    <g id="xtick_7">
     <g id="line2d_12">
      <g>
       <use xlink:href="#ma232b29279" x="43.78125" y="213.950118" style="stroke: #000000; stroke-width: 0.8"/>
      </g>
     </g>
    </g>
    <g id="xtick_8">
     <g id="line2d_13">
      <g>
       <use xlink:href="#ma232b29279" x="115.20525" y="213.950118" style="stroke: #000000; stroke-width: 0.8"/>
      </g>
     </g>
    </g>
    <g id="xtick_9">
     <g id="line2d_14">
      <g>
       <use xlink:href="#ma232b29279" x="186.62925" y="213.950118" style="stroke: #000000; stroke-width: 0.8"/>
      </g>
     </g>
    </g>
    <g id="xtick_10">
     <g id="line2d_15">
      <g>
       <use xlink:href="#ma232b29279" x="258.05325" y="213.950118" style="stroke: #000000; stroke-width: 0.8"/>
      </g>
     </g>
    </g>
    <g id="xtick_11">
     <g id="line2d_16">
      <g>
       <use xlink:href="#ma232b29279" x="329.47725" y="213.950118" style="stroke: #000000; stroke-width: 0.8"/>
      </g>
     </g>
    </g>
    <g id="xtick_12">
     <g id="line2d_17">
      <g>
       <use xlink:href="#ma232b29279" x="400.90125" y="213.950118" style="stroke: #000000; stroke-width: 0.8"/>
      </g>
     </g>
    </g>
   </g>
   <g id="matplotlib.axis_4">
    <g id="ytick_4">
     <g id="line2d_18">
      <g>
       <use xlink:href="#m5919dc54b9" x="43.78125" y="213.950118" style="stroke: #000000; stroke-width: 0.8"/>
      </g>
     </g>
     <g id="text_5">
      <!-- 0.0 -->
      <g transform="translate(20.878125 217.749336)scale(0.1 -0.1)">
       <use xlink:href="#DejaVuSans-30"/>
       <use xlink:href="#DejaVuSans-2e" x="63.623047"/>
       <use xlink:href="#DejaVuSans-30" x="95.410156"/>
      </g>
     </g>
    </g>
    <g id="ytick_5">
     <g id="line2d_19">
      <g>
       <use xlink:href="#m5919dc54b9" x="43.78125" y="174.816" style="stroke: #000000; stroke-width: 0.8"/>
      </g>
     </g>
     <g id="text_6">
      <!-- 0.5 -->
      <g transform="translate(20.878125 178.615219)scale(0.1 -0.1)">
       <use xlink:href="#DejaVuSans-30"/>
       <use xlink:href="#DejaVuSans-2e" x="63.623047"/>
       <use xlink:href="#DejaVuSans-35" x="95.410156"/>
      </g>
     </g>
    </g>
    <g id="ytick_6">
     <g id="line2d_20">
      <g>
       <use xlink:href="#m5919dc54b9" x="43.78125" y="135.681882" style="stroke: #000000; stroke-width: 0.8"/>
      </g>
     </g>
     <g id="text_7">
      <!-- 1.0 -->
      <g transform="translate(20.878125 139.481101)scale(0.1 -0.1)">
       <use xlink:href="#DejaVuSans-31"/>
       <use xlink:href="#DejaVuSans-2e" x="63.623047"/>
       <use xlink:href="#DejaVuSans-30" x="95.410156"/>
      </g>
     </g>
    </g>
    <g id="text_8">
     <!-- Target -->
     <g transform="translate(14.798438 190.287875)rotate(-90)scale(0.1 -0.1)">
      <defs>
       <path id="DejaVuSans-54" d="M -19 4666 
L 3928 4666 
L 3928 4134 
L 2272 4134 
L 2272 0 
L 1638 0 
L 1638 4134 
L -19 4134 
L -19 4666 
z
" transform="scale(0.015625)"/>
       <path id="DejaVuSans-61" d="M 2194 1759 
Q 1497 1759 1228 1600 
Q 959 1441 959 1056 
Q 959 750 1161 570 
Q 1363 391 1709 391 
Q 2188 391 2477 730 
Q 2766 1069 2766 1631 
L 2766 1759 
L 2194 1759 
z
M 3341 1997 
L 3341 0 
L 2766 0 
L 2766 531 
Q 2569 213 2275 61 
Q 1981 -91 1556 -91 
Q 1019 -91 701 211 
Q 384 513 384 1019 
Q 384 1609 779 1909 
Q 1175 2209 1959 2209 
L 2766 2209 
L 2766 2266 
Q 2766 2663 2505 2880 
Q 2244 3097 1772 3097 
Q 1472 3097 1187 3025 
Q 903 2953 641 2809 
L 641 3341 
Q 956 3463 1253 3523 
Q 1550 3584 1831 3584 
Q 2591 3584 2966 3190 
Q 3341 2797 3341 1997 
z
" transform="scale(0.015625)"/>
       <path id="DejaVuSans-72" d="M 2631 2963 
Q 2534 3019 2420 3045 
Q 2306 3072 2169 3072 
Q 1681 3072 1420 2755 
Q 1159 2438 1159 1844 
L 1159 0 
L 581 0 
L 581 3500 
L 1159 3500 
L 1159 2956 
Q 1341 3275 1631 3429 
Q 1922 3584 2338 3584 
Q 2397 3584 2469 3576 
Q 2541 3569 2628 3553 
L 2631 2963 
z
" transform="scale(0.015625)"/>
       <path id="DejaVuSans-67" d="M 2906 1791 
Q 2906 2416 2648 2759 
Q 2391 3103 1925 3103 
Q 1463 3103 1205 2759 
Q 947 2416 947 1791 
Q 947 1169 1205 825 
Q 1463 481 1925 481 
Q 2391 481 2648 825 
Q 2906 1169 2906 1791 
z
M 3481 434 
Q 3481 -459 3084 -895 
Q 2688 -1331 1869 -1331 
Q 1566 -1331 1297 -1286 
Q 1028 -1241 775 -1147 
L 775 -588 
Q 1028 -725 1275 -790 
Q 1522 -856 1778 -856 
Q 2344 -856 2625 -561 
Q 2906 -266 2906 331 
L 2906 616 
Q 2728 306 2450 153 
Q 2172 0 1784 0 
Q 1141 0 747 490 
Q 353 981 353 1791 
Q 353 2603 747 3093 
Q 1141 3584 1784 3584 
Q 2172 3584 2450 3431 
Q 2728 3278 2906 2969 
L 2906 3500 
L 3481 3500 
L 3481 434 
z
" transform="scale(0.015625)"/>
       <path id="DejaVuSans-65" d="M 3597 1894 
L 3597 1613 
L 953 1613 
Q 991 1019 1311 708 
Q 1631 397 2203 397 
Q 2534 397 2845 478 
Q 3156 559 3463 722 
L 3463 178 
Q 3153 47 2828 -22 
Q 2503 -91 2169 -91 
Q 1331 -91 842 396 
Q 353 884 353 1716 
Q 353 2575 817 3079 
Q 1281 3584 2069 3584 
Q 2775 3584 3186 3129 
Q 3597 2675 3597 1894 
z
M 3022 2063 
Q 3016 2534 2758 2815 
Q 2500 3097 2075 3097 
Q 1594 3097 1305 2825 
Q 1016 2553 972 2059 
L 3022 2063 
z
" transform="scale(0.015625)"/>
       <path id="DejaVuSans-74" d="M 1172 4494 
L 1172 3500 
L 2356 3500 
L 2356 3053 
L 1172 3053 
L 1172 1153 
Q 1172 725 1289 603 
Q 1406 481 1766 481 
L 2356 481 
L 2356 0 
L 1766 0 
Q 1100 0 847 248 
Q 594 497 594 1153 
L 594 3053 
L 172 3053 
L 172 3500 
L 594 3500 
L 594 4494 
L 1172 4494 
z
" transform="scale(0.015625)"/>
      </defs>
      <use xlink:href="#DejaVuSans-54"/>
      <use xlink:href="#DejaVuSans-61" x="44.583984"/>
      <use xlink:href="#DejaVuSans-72" x="105.863281"/>
      <use xlink:href="#DejaVuSans-67" x="145.226562"/>
      <use xlink:href="#DejaVuSans-65" x="208.703125"/>
      <use xlink:href="#DejaVuSans-74" x="270.226562"/>
     </g>
    </g>
   </g>
   <g id="line2d_21">
    <path d="M 43.78125 203.618711 
L 49.449821 203.931783 
L 55.118393 197.357252 
L 60.786964 190.000038 
L 66.455536 183.895115 
L 72.124107 184.208189 
L 77.792679 193.130767 
L 83.46125 202.053346 
L 89.129821 205.340612 
L 94.798393 203.775247 
L 100.466964 195.478814 
L 106.135536 184.834333 
L 111.804107 183.425507 
L 117.472679 186.869309 
L 123.14125 193.913448 
L 128.809821 199.861835 
L 134.478393 197.044178 
L 140.146964 192.97423 
L 145.815536 190.78272 
L 151.484107 192.817693 
L 157.152679 198.139934 
L 162.82125 200.331445 
L 168.489821 198.609544 
L 174.158393 194.696131 
L 179.826964 193.130767 
L 185.495536 191.878475 
L 191.164107 192.817693 
L 196.832679 193.600377 
L 202.50125 192.97423 
L 208.169821 189.373891 
L 213.838393 186.399699 
L 219.506964 187.808528 
L 225.175536 195.948423 
L 230.844107 203.305637 
L 236.512679 207.532122 
L 242.18125 204.08832 
L 247.849821 196.418032 
L 253.518393 186.556236 
L 259.186964 182.016678 
L 264.855536 186.243162 
L 270.524107 194.383059 
L 276.192679 203.618711 
L 281.86125 206.905976 
L 287.529821 202.992565 
L 293.198393 195.322277 
L 298.866964 185.930089 
L 304.535536 181.390531 
L 310.204107 185.303944 
L 315.872679 193.287304 
L 321.54125 202.366419 
L 327.209821 204.714466 
L 332.878393 200.487981 
L 338.546964 194.852668 
L 344.215536 188.747746 
L 349.884107 185.460481 
L 355.552679 187.651991 
L 361.22125 194.852668 
L 366.889821 198.139934 
L 372.558393 196.418032 
L 378.226964 192.817693 
L 383.895536 188.278136 
L 389.564107 190.939256 
L 395.232679 196.731106 
L 400.90125 201.740273 
" clip-path="url(#p58b0434f2d)" style="fill: none; stroke: #0000ff; stroke-opacity: 0.3; stroke-width: 1.5; stroke-linecap: square"/>
   </g>
   <g id="line2d_22">
    <path d="M 43.78125 183.26897 
L 49.449821 184.834333 
L 55.118393 192.661156 
L 60.786964 202.836028 
L 66.455536 205.653685 
L 72.124107 204.401393 
L 77.792679 196.261497 
L 83.46125 186.399699 
L 89.129821 181.07746 
L 94.798393 186.556236 
L 100.466964 195.478814 
L 106.135536 204.08832 
L 111.804107 204.55793 
L 117.472679 200.801054 
L 123.14125 195.478814 
L 128.809821 190.626183 
L 134.478393 190.000038 
L 140.146964 193.756914 
L 145.815536 197.044178 
L 151.484107 195.322277 
L 157.152679 190.78272 
L 162.82125 189.217354 
L 168.489821 189.843501 
L 174.158393 193.913448 
L 179.826964 197.983398 
L 185.495536 198.453007 
L 191.164107 196.887643 
L 196.832679 193.130767 
L 202.50125 194.226522 
L 208.169821 199.392226 
L 213.838393 202.679492 
L 219.506964 200.801054 
L 225.175536 191.408867 
L 230.844107 183.425507 
L 236.512679 179.668631 
L 242.18125 185.147407 
L 247.849821 194.696131 
L 253.518393 203.462174 
L 259.186964 205.966758 
L 264.855536 203.149101 
L 270.524107 193.756914 
L 276.192679 183.895115 
L 281.86125 178.259802 
L 287.529821 186.086625 
L 293.198393 195.791888 
L 298.866964 202.209882 
L 304.535536 205.184075 
L 310.204107 203.775247 
L 315.872679 198.76608 
L 321.54125 189.843501 
L 327.209821 184.677797 
L 332.878393 186.712773 
L 338.546964 192.817693 
L 344.215536 199.548762 
L 349.884107 200.644518 
L 355.552679 198.29647 
L 361.22125 191.878475 
L 366.889821 191.565401 
L 372.558393 191.721938 
L 378.226964 196.731106 
L 383.895536 199.392226 
L 389.564107 200.644518 
L 395.232679 195.165742 
L 400.90125 187.808528 
" clip-path="url(#p58b0434f2d)" style="fill: none; stroke: #ff0000; stroke-opacity: 0.3; stroke-width: 1.5; stroke-linecap: square"/>
   </g>
   <g id="line2d_23">
    <path d="M 43.78125 213.793581 
L 49.449821 213.167435 
L 55.118393 199.861835 
L 60.786964 178.729413 
L 66.455536 168.241469 
L 72.124107 175.911755 
L 77.792679 195.165742 
L 83.46125 212.384753 
L 89.129821 213.950118 
L 94.798393 213.480508 
L 100.466964 204.714466 
L 106.135536 180.138239 
L 111.804107 162.606154 
L 117.472679 161.510399 
L 123.14125 180.138239 
L 128.809821 203.931783 
L 134.478393 213.637045 
L 140.146964 213.637045 
L 145.815536 211.445534 
L 151.484107 196.418032 
L 157.152679 182.79936 
L 162.82125 183.112433 
L 168.489821 196.261497 
L 174.158393 210.662852 
L 179.826964 213.793581 
L 185.495536 213.323972 
L 191.164107 203.931783 
L 196.832679 179.199021 
L 202.50125 158.692746 
L 208.169821 156.188162 
L 213.838393 170.746053 
L 219.506964 196.731106 
L 225.175536 213.010899 
L 230.844107 213.793581 
L 236.512679 213.950118 
L 242.18125 212.228216 
L 247.849821 193.600377 
L 253.518393 174.346392 
L 259.186964 167.771861 
L 264.855536 181.860141 
L 270.524107 202.209882 
L 276.192679 212.854362 
L 281.86125 213.793581 
L 287.529821 212.854362 
L 293.198393 198.453007 
L 298.866964 176.381366 
L 304.535536 165.736885 
L 310.204107 173.720245 
L 315.872679 194.852668 
L 321.54125 212.697826 
L 327.209821 213.480508 
L 332.878393 213.950118 
L 338.546964 208.158268 
L 344.215536 190.000038 
L 349.884107 172.154882 
L 355.552679 168.08493 
L 361.22125 176.537902 
L 366.889821 187.495454 
L 372.558393 191.095793 
L 378.226964 190.156575 
L 383.895536 191.878475 
L 389.564107 200.331445 
L 395.232679 211.132461 
L 400.90125 213.637045 
" clip-path="url(#p58b0434f2d)" style="fill: none; stroke: #0000ff; stroke-width: 1.5; stroke-linecap: square"/>
   </g>
   <g id="line2d_24">
    <path d="M 43.78125 161.040791 
L 49.449821 177.790192 
L 55.118393 200.331445 
L 60.786964 212.854362 
L 66.455536 213.637045 
L 72.124107 213.167435 
L 77.792679 203.931783 
L 83.46125 182.329749 
L 89.129821 168.398003 
L 94.798393 173.094098 
L 100.466964 191.25233 
L 106.135536 211.288998 
L 111.804107 213.793581 
L 117.472679 213.793581 
L 123.14125 212.07168 
L 128.809821 195.791888 
L 134.478393 174.972537 
L 140.146964 168.554542 
L 145.815536 179.981705 
L 151.484107 200.801054 
L 157.152679 211.445534 
L 162.82125 212.697826 
L 168.489821 200.174908 
L 174.158393 177.00751 
L 179.826964 165.423811 
L 185.495536 170.746053 
L 191.164107 193.44384 
L 196.832679 211.758607 
L 202.50125 213.793581 
L 208.169821 213.950118 
L 213.838393 213.323972 
L 219.506964 202.992565 
L 225.175536 179.355558 
L 230.844107 163.388835 
L 236.512679 162.136546 
L 242.18125 183.582041 
L 247.849821 206.123294 
L 253.518393 213.793581 
L 259.186964 213.950118 
L 264.855536 211.758607 
L 270.524107 195.791888 
L 276.192679 174.972537 
L 281.86125 165.423811 
L 287.529821 175.755218 
L 293.198393 197.983398 
L 298.866964 212.541289 
L 304.535536 213.793581 
L 310.204107 212.697826 
L 315.872679 201.583736 
L 321.54125 181.07746 
L 327.209821 167.458787 
L 332.878393 171.215661 
L 338.546964 189.686965 
L 344.215536 208.158268 
L 349.884107 213.637045 
L 355.552679 211.445534 
L 361.22125 207.375586 
L 366.889821 200.174908 
L 372.558393 200.018372 
L 378.226964 204.55793 
L 383.895536 208.158268 
L 389.564107 198.453007 
L 395.232679 176.850974 
L 400.90125 161.980011 
" clip-path="url(#p58b0434f2d)" style="fill: none; stroke: #ff0000; stroke-width: 1.5; stroke-linecap: square"/>
   </g>
   <g id="patch_8">
    <path d="M 43.78125 213.950118 
L 43.78125 135.681882 
" style="fill: none; stroke: #000000; stroke-width: 0.8; stroke-linejoin: miter; stroke-linecap: square"/>
   </g>
   <g id="patch_9">
    <path d="M 400.90125 213.950118 
L 400.90125 135.681882 
" style="fill: none; stroke: #000000; stroke-width: 0.8; stroke-linejoin: miter; stroke-linecap: square"/>
   </g>
   <g id="patch_10">
    <path d="M 43.78125 213.950118 
L 400.90125 213.950118 
" style="fill: none; stroke: #000000; stroke-width: 0.8; stroke-linejoin: miter; stroke-linecap: square"/>
   </g>
   <g id="patch_11">
    <path d="M 43.78125 135.681882 
L 400.90125 135.681882 
" style="fill: none; stroke: #000000; stroke-width: 0.8; stroke-linejoin: miter; stroke-linecap: square"/>
   </g>
  </g>
  <g id="axes_3">
   <g id="patch_12">
    <path d="M 43.78125 307.872 
L 400.90125 307.872 
L 400.90125 229.603765 
L 43.78125 229.603765 
z
" style="fill: #ffffff"/>
   </g>
   <g id="matplotlib.axis_5">
    <g id="xtick_13">
     <g id="line2d_25">
      <g>
       <use xlink:href="#ma232b29279" x="43.78125" y="307.872" style="stroke: #000000; stroke-width: 0.8"/>
      </g>
     </g>
     <g id="text_9">
      <!-- 0.0 -->
      <g transform="translate(35.829688 322.470437)scale(0.1 -0.1)">
       <use xlink:href="#DejaVuSans-30"/>
       <use xlink:href="#DejaVuSans-2e" x="63.623047"/>
       <use xlink:href="#DejaVuSans-30" x="95.410156"/>
      </g>
     </g>
    </g>
    <g id="xtick_14">
     <g id="line2d_26">
      <g>
       <use xlink:href="#ma232b29279" x="115.20525" y="307.872" style="stroke: #000000; stroke-width: 0.8"/>
      </g>
     </g>
     <g id="text_10">
      <!-- 0.2 -->
      <g transform="translate(107.253688 322.470437)scale(0.1 -0.1)">
       <defs>
        <path id="DejaVuSans-32" d="M 1228 531 
L 3431 531 
L 3431 0 
L 469 0 
L 469 531 
Q 828 903 1448 1529 
Q 2069 2156 2228 2338 
Q 2531 2678 2651 2914 
Q 2772 3150 2772 3378 
Q 2772 3750 2511 3984 
Q 2250 4219 1831 4219 
Q 1534 4219 1204 4116 
Q 875 4013 500 3803 
L 500 4441 
Q 881 4594 1212 4672 
Q 1544 4750 1819 4750 
Q 2544 4750 2975 4387 
Q 3406 4025 3406 3419 
Q 3406 3131 3298 2873 
Q 3191 2616 2906 2266 
Q 2828 2175 2409 1742 
Q 1991 1309 1228 531 
z
" transform="scale(0.015625)"/>
       </defs>
       <use xlink:href="#DejaVuSans-30"/>
       <use xlink:href="#DejaVuSans-2e" x="63.623047"/>
       <use xlink:href="#DejaVuSans-32" x="95.410156"/>
      </g>
     </g>
    </g>
    <g id="xtick_15">
     <g id="line2d_27">
      <g>
       <use xlink:href="#ma232b29279" x="186.62925" y="307.872" style="stroke: #000000; stroke-width: 0.8"/>
      </g>
     </g>
     <g id="text_11">
      <!-- 0.4 -->
      <g transform="translate(178.677688 322.470437)scale(0.1 -0.1)">
       <defs>
        <path id="DejaVuSans-34" d="M 2419 4116 
L 825 1625 
L 2419 1625 
L 2419 4116 
z
M 2253 4666 
L 3047 4666 
L 3047 1625 
L 3713 1625 
L 3713 1100 
L 3047 1100 
L 3047 0 
L 2419 0 
L 2419 1100 
L 313 1100 
L 313 1709 
L 2253 4666 
z
" transform="scale(0.015625)"/>
       </defs>
       <use xlink:href="#DejaVuSans-30"/>
       <use xlink:href="#DejaVuSans-2e" x="63.623047"/>
       <use xlink:href="#DejaVuSans-34" x="95.410156"/>
      </g>
     </g>
    </g>
    <g id="xtick_16">
     <g id="line2d_28">
      <g>
       <use xlink:href="#ma232b29279" x="258.05325" y="307.872" style="stroke: #000000; stroke-width: 0.8"/>
      </g>
     </g>
     <g id="text_12">
      <!-- 0.6 -->
      <g transform="translate(250.101688 322.470437)scale(0.1 -0.1)">
       <defs>
        <path id="DejaVuSans-36" d="M 2113 2584 
Q 1688 2584 1439 2293 
Q 1191 2003 1191 1497 
Q 1191 994 1439 701 
Q 1688 409 2113 409 
Q 2538 409 2786 701 
Q 3034 994 3034 1497 
Q 3034 2003 2786 2293 
Q 2538 2584 2113 2584 
z
M 3366 4563 
L 3366 3988 
Q 3128 4100 2886 4159 
Q 2644 4219 2406 4219 
Q 1781 4219 1451 3797 
Q 1122 3375 1075 2522 
Q 1259 2794 1537 2939 
Q 1816 3084 2150 3084 
Q 2853 3084 3261 2657 
Q 3669 2231 3669 1497 
Q 3669 778 3244 343 
Q 2819 -91 2113 -91 
Q 1303 -91 875 529 
Q 447 1150 447 2328 
Q 447 3434 972 4092 
Q 1497 4750 2381 4750 
Q 2619 4750 2861 4703 
Q 3103 4656 3366 4563 
z
" transform="scale(0.015625)"/>
       </defs>
       <use xlink:href="#DejaVuSans-30"/>
       <use xlink:href="#DejaVuSans-2e" x="63.623047"/>
       <use xlink:href="#DejaVuSans-36" x="95.410156"/>
      </g>
     </g>
    </g>
    <g id="xtick_17">
     <g id="line2d_29">
      <g>
       <use xlink:href="#ma232b29279" x="329.47725" y="307.872" style="stroke: #000000; stroke-width: 0.8"/>
      </g>
     </g>
     <g id="text_13">
      <!-- 0.8 -->
      <g transform="translate(321.525688 322.470437)scale(0.1 -0.1)">
       <defs>
        <path id="DejaVuSans-38" d="M 2034 2216 
Q 1584 2216 1326 1975 
Q 1069 1734 1069 1313 
Q 1069 891 1326 650 
Q 1584 409 2034 409 
Q 2484 409 2743 651 
Q 3003 894 3003 1313 
Q 3003 1734 2745 1975 
Q 2488 2216 2034 2216 
z
M 1403 2484 
Q 997 2584 770 2862 
Q 544 3141 544 3541 
Q 544 4100 942 4425 
Q 1341 4750 2034 4750 
Q 2731 4750 3128 4425 
Q 3525 4100 3525 3541 
Q 3525 3141 3298 2862 
Q 3072 2584 2669 2484 
Q 3125 2378 3379 2068 
Q 3634 1759 3634 1313 
Q 3634 634 3220 271 
Q 2806 -91 2034 -91 
Q 1263 -91 848 271 
Q 434 634 434 1313 
Q 434 1759 690 2068 
Q 947 2378 1403 2484 
z
M 1172 3481 
Q 1172 3119 1398 2916 
Q 1625 2713 2034 2713 
Q 2441 2713 2670 2916 
Q 2900 3119 2900 3481 
Q 2900 3844 2670 4047 
Q 2441 4250 2034 4250 
Q 1625 4250 1398 4047 
Q 1172 3844 1172 3481 
z
" transform="scale(0.015625)"/>
       </defs>
       <use xlink:href="#DejaVuSans-30"/>
       <use xlink:href="#DejaVuSans-2e" x="63.623047"/>
       <use xlink:href="#DejaVuSans-38" x="95.410156"/>
      </g>
     </g>
    </g>
    <g id="xtick_18">
     <g id="line2d_30">
      <g>
       <use xlink:href="#ma232b29279" x="400.90125" y="307.872" style="stroke: #000000; stroke-width: 0.8"/>
      </g>
     </g>
     <g id="text_14">
      <!-- 1.0 -->
      <g transform="translate(392.949687 322.470437)scale(0.1 -0.1)">
       <use xlink:href="#DejaVuSans-31"/>
       <use xlink:href="#DejaVuSans-2e" x="63.623047"/>
       <use xlink:href="#DejaVuSans-30" x="95.410156"/>
      </g>
     </g>
    </g>
   </g>
   <g id="matplotlib.axis_6">
    <g id="ytick_7">
     <g id="line2d_31">
      <g>
       <use xlink:href="#m5919dc54b9" x="43.78125" y="307.872" style="stroke: #000000; stroke-width: 0.8"/>
      </g>
     </g>
     <g id="text_15">
      <!-- 0.0 -->
      <g transform="translate(20.878125 311.671219)scale(0.1 -0.1)">
       <use xlink:href="#DejaVuSans-30"/>
       <use xlink:href="#DejaVuSans-2e" x="63.623047"/>
       <use xlink:href="#DejaVuSans-30" x="95.410156"/>
      </g>
     </g>
    </g>
    <g id="ytick_8">
     <g id="line2d_32">
      <g>
       <use xlink:href="#m5919dc54b9" x="43.78125" y="268.737882" style="stroke: #000000; stroke-width: 0.8"/>
      </g>
     </g>
     <g id="text_16">
      <!-- 0.5 -->
      <g transform="translate(20.878125 272.537101)scale(0.1 -0.1)">
       <use xlink:href="#DejaVuSans-30"/>
       <use xlink:href="#DejaVuSans-2e" x="63.623047"/>
       <use xlink:href="#DejaVuSans-35" x="95.410156"/>
      </g>
     </g>
    </g>
    <g id="ytick_9">
     <g id="line2d_33">
      <g>
       <use xlink:href="#m5919dc54b9" x="43.78125" y="229.603765" style="stroke: #000000; stroke-width: 0.8"/>
      </g>
     </g>
     <g id="text_17">
      <!-- 1.0 -->
      <g transform="translate(20.878125 233.402983)scale(0.1 -0.1)">
       <use xlink:href="#DejaVuSans-31"/>
       <use xlink:href="#DejaVuSans-2e" x="63.623047"/>
       <use xlink:href="#DejaVuSans-30" x="95.410156"/>
      </g>
     </g>
    </g>
    <g id="text_18">
     <!-- Prediction -->
     <g transform="translate(14.798438 293.574601)rotate(-90)scale(0.1 -0.1)">
      <defs>
       <path id="DejaVuSans-50" d="M 1259 4147 
L 1259 2394 
L 2053 2394 
Q 2494 2394 2734 2622 
Q 2975 2850 2975 3272 
Q 2975 3691 2734 3919 
Q 2494 4147 2053 4147 
L 1259 4147 
z
M 628 4666 
L 2053 4666 
Q 2838 4666 3239 4311 
Q 3641 3956 3641 3272 
Q 3641 2581 3239 2228 
Q 2838 1875 2053 1875 
L 1259 1875 
L 1259 0 
L 628 0 
L 628 4666 
z
" transform="scale(0.015625)"/>
       <path id="DejaVuSans-64" d="M 2906 2969 
L 2906 4863 
L 3481 4863 
L 3481 0 
L 2906 0 
L 2906 525 
Q 2725 213 2448 61 
Q 2172 -91 1784 -91 
Q 1150 -91 751 415 
Q 353 922 353 1747 
Q 353 2572 751 3078 
Q 1150 3584 1784 3584 
Q 2172 3584 2448 3432 
Q 2725 3281 2906 2969 
z
M 947 1747 
Q 947 1113 1208 752 
Q 1469 391 1925 391 
Q 2381 391 2643 752 
Q 2906 1113 2906 1747 
Q 2906 2381 2643 2742 
Q 2381 3103 1925 3103 
Q 1469 3103 1208 2742 
Q 947 2381 947 1747 
z
" transform="scale(0.015625)"/>
       <path id="DejaVuSans-69" d="M 603 3500 
L 1178 3500 
L 1178 0 
L 603 0 
L 603 3500 
z
M 603 4863 
L 1178 4863 
L 1178 4134 
L 603 4134 
L 603 4863 
z
" transform="scale(0.015625)"/>
       <path id="DejaVuSans-63" d="M 3122 3366 
L 3122 2828 
Q 2878 2963 2633 3030 
Q 2388 3097 2138 3097 
Q 1578 3097 1268 2742 
Q 959 2388 959 1747 
Q 959 1106 1268 751 
Q 1578 397 2138 397 
Q 2388 397 2633 464 
Q 2878 531 3122 666 
L 3122 134 
Q 2881 22 2623 -34 
Q 2366 -91 2075 -91 
Q 1284 -91 818 406 
Q 353 903 353 1747 
Q 353 2603 823 3093 
Q 1294 3584 2113 3584 
Q 2378 3584 2631 3529 
Q 2884 3475 3122 3366 
z
" transform="scale(0.015625)"/>
       <path id="DejaVuSans-6f" d="M 1959 3097 
Q 1497 3097 1228 2736 
Q 959 2375 959 1747 
Q 959 1119 1226 758 
Q 1494 397 1959 397 
Q 2419 397 2687 759 
Q 2956 1122 2956 1747 
Q 2956 2369 2687 2733 
Q 2419 3097 1959 3097 
z
M 1959 3584 
Q 2709 3584 3137 3096 
Q 3566 2609 3566 1747 
Q 3566 888 3137 398 
Q 2709 -91 1959 -91 
Q 1206 -91 779 398 
Q 353 888 353 1747 
Q 353 2609 779 3096 
Q 1206 3584 1959 3584 
z
" transform="scale(0.015625)"/>
       <path id="DejaVuSans-6e" d="M 3513 2113 
L 3513 0 
L 2938 0 
L 2938 2094 
Q 2938 2591 2744 2837 
Q 2550 3084 2163 3084 
Q 1697 3084 1428 2787 
Q 1159 2491 1159 1978 
L 1159 0 
L 581 0 
L 581 3500 
L 1159 3500 
L 1159 2956 
Q 1366 3272 1645 3428 
Q 1925 3584 2291 3584 
Q 2894 3584 3203 3211 
Q 3513 2838 3513 2113 
z
" transform="scale(0.015625)"/>
      </defs>
      <use xlink:href="#DejaVuSans-50"/>
      <use xlink:href="#DejaVuSans-72" x="58.552734"/>
      <use xlink:href="#DejaVuSans-65" x="97.416016"/>
      <use xlink:href="#DejaVuSans-64" x="158.939453"/>
      <use xlink:href="#DejaVuSans-69" x="222.416016"/>
      <use xlink:href="#DejaVuSans-63" x="250.199219"/>
      <use xlink:href="#DejaVuSans-74" x="305.179688"/>
      <use xlink:href="#DejaVuSans-69" x="344.388672"/>
      <use xlink:href="#DejaVuSans-6f" x="372.171875"/>
      <use xlink:href="#DejaVuSans-6e" x="433.353516"/>
     </g>
    </g>
   </g>
   <g id="line2d_34">
    <path d="M 43.78125 296.23663 
L 49.449821 295.714042 
L 55.118393 291.56406 
L 60.786964 284.628765 
L 66.455536 280.155836 
L 72.124107 282.483354 
L 77.792679 290.059327 
L 83.46125 296.216934 
L 89.129821 297.606031 
L 94.798393 294.588973 
L 100.466964 287.996057 
L 106.135536 281.840146 
L 111.804107 280.91942 
L 117.472679 283.97222 
L 123.14125 288.20312 
L 128.809821 290.733119 
L 134.478393 290.036771 
L 140.146964 290.469041 
L 145.815536 291.753887 
L 151.484107 293.441342 
L 157.152679 294.267255 
L 162.82125 293.270989 
L 168.489821 290.765845 
L 174.158393 288.207076 
L 179.826964 288.040378 
L 185.495536 288.464608 
L 191.164107 289.085855 
L 196.832679 288.321491 
L 202.50125 285.729204 
L 208.169821 282.452666 
L 213.838393 281.267795 
L 219.506964 284.095128 
L 225.175536 289.811792 
L 230.844107 295.512631 
L 236.512679 298.35911 
L 242.18125 297.594674 
L 247.849821 292.713616 
L 253.518393 284.333821 
L 259.186964 278.760925 
L 264.855536 280.909999 
L 270.524107 288.792575 
L 276.192679 295.598358 
L 281.86125 298.233254 
L 287.529821 296.846297 
L 293.198393 291.294514 
L 298.866964 283.410811 
L 304.535536 278.839482 
L 310.204107 280.778351 
L 315.872679 287.400492 
L 321.54125 293.435347 
L 327.209821 296.367697 
L 332.878393 295.869583 
L 338.546964 291.089061 
L 344.215536 285.353464 
L 349.884107 282.105528 
L 355.552679 283.718968 
L 361.22125 288.829507 
L 366.889821 292.013612 
L 372.558393 292.158386 
L 378.226964 289.653086 
L 383.895536 285.622746 
L 389.564107 285.471674 
L 395.232679 288.68036 
L 400.90125 292.905288 
" clip-path="url(#p91715b073a)" style="fill: none; stroke: #0000ff; stroke-opacity: 0.3; stroke-width: 1.5; stroke-linecap: square"/>
   </g>
   <g id="line2d_35">
    <path d="M 43.78125 281.203141 
L 49.449821 282.332602 
L 55.118393 288.307131 
L 60.786964 294.751321 
L 66.455536 297.810875 
L 72.124107 296.189078 
L 77.792679 289.666491 
L 83.46125 281.449664 
L 89.129821 278.841189 
L 94.798393 283.818172 
L 100.466964 291.616834 
L 106.135536 296.432244 
L 111.804107 296.25708 
L 117.472679 294.294483 
L 123.14125 290.896022 
L 128.809821 288.46319 
L 134.478393 289.471674 
L 140.146964 288.707427 
L 145.815536 286.85568 
L 151.484107 284.481295 
L 157.152679 283.444627 
L 162.82125 285.12562 
L 168.489821 288.654188 
L 174.158393 291.67854 
L 179.826964 291.274538 
L 185.495536 290.750558 
L 191.164107 289.639004 
L 196.832679 289.501909 
L 202.50125 291.118827 
L 208.169821 293.435907 
L 213.838393 294.471589 
L 219.506964 292.980322 
L 225.175536 290.654397 
L 230.844107 284.254933 
L 236.512679 279.750959 
L 242.18125 281.059482 
L 247.849821 287.302004 
L 253.518393 294.899087 
L 259.186964 298.28624 
L 264.855536 297.111313 
L 270.524107 291.858053 
L 276.192679 283.633703 
L 281.86125 278.803215 
L 287.529821 281.14638 
L 293.198393 287.758913 
L 298.866964 295.046704 
L 304.535536 298.132136 
L 310.204107 297.285104 
L 315.872679 292.907196 
L 321.54125 286.544542 
L 327.209821 281.984379 
L 332.878393 282.525692 
L 338.546964 287.282606 
L 344.215536 292.604129 
L 349.884107 294.92524 
L 355.552679 293.660254 
L 361.22125 289.049828 
L 366.889821 285.523779 
L 372.558393 285.457949 
L 378.226964 288.611556 
L 383.895536 292.892118 
L 389.564107 293.115077 
L 395.232679 290.206135 
L 400.90125 285.228545 
" clip-path="url(#p91715b073a)" style="fill: none; stroke: #ff0000; stroke-opacity: 0.3; stroke-width: 1.5; stroke-linecap: square"/>
   </g>
   <g id="line2d_36">
    <path d="M 43.78125 305.307072 
L 49.449821 300.194781 
L 55.118393 294.575617 
L 60.786964 293.973257 
L 66.455536 294.989155 
L 72.124107 297.751586 
L 77.792679 300.744254 
L 83.46125 303.151362 
L 89.129821 304.567047 
L 94.798393 300.798634 
L 100.466964 278.948009 
L 106.135536 247.79216 
L 111.804107 239.416601 
L 117.472679 243.712789 
L 123.14125 264.236218 
L 128.809821 290.526836 
L 134.478393 302.722682 
L 140.146964 305.827792 
L 145.815536 306.918194 
L 151.484107 307.109971 
L 157.152679 307.135529 
L 162.82125 306.8536 
L 168.489821 305.755634 
L 174.158393 303.994236 
L 179.826964 297.297616 
L 185.495536 278.670641 
L 191.164107 250.666555 
L 196.832679 239.575034 
L 202.50125 242.304081 
L 208.169821 261.629523 
L 213.838393 293.204263 
L 219.506964 304.316918 
L 225.175536 306.378415 
L 230.844107 306.553696 
L 236.512679 305.79486 
L 242.18125 301.92924 
L 247.849821 283.381237 
L 253.518393 262.735378 
L 259.186964 260.097898 
L 264.855536 277.055367 
L 270.524107 298.032549 
L 276.192679 304.85744 
L 281.86125 305.828256 
L 287.529821 303.917459 
L 293.198393 291.439698 
L 298.866964 266.681255 
L 304.535536 257.568873 
L 310.204107 269.79317 
L 315.872679 297.827192 
L 321.54125 305.475918 
L 327.209821 306.958958 
L 332.878393 307.075603 
L 338.546964 305.248585 
L 344.215536 291.023037 
L 349.884107 255.788111 
L 355.552679 240.730811 
L 361.22125 241.036607 
L 366.889821 254.997158 
L 372.558393 282.507214 
L 378.226964 298.819341 
L 383.895536 305.354412 
L 389.564107 306.856143 
L 395.232679 307.250852 
L 400.90125 307.177028 
" clip-path="url(#p91715b073a)" style="fill: none; stroke: #0000ff; stroke-width: 1.5; stroke-linecap: square"/>
   </g>
   <g id="line2d_37">
    <path d="M 43.78125 256.385063 
L 49.449821 287.161266 
L 55.118393 302.450769 
L 60.786964 305.367299 
L 66.455536 302.565214 
L 72.124107 300.325604 
L 77.792679 295.690352 
L 83.46125 289.088782 
L 89.129821 286.439376 
L 94.798393 289.538717 
L 100.466964 300.261108 
L 106.135536 305.778761 
L 111.804107 307.319807 
L 117.472679 307.359438 
L 123.14125 306.960271 
L 128.809821 305.366553 
L 134.478393 298.717128 
L 140.146964 278.309005 
L 145.815536 250.474971 
L 151.484107 238.89492 
L 157.152679 238.718405 
L 162.82125 251.582856 
L 168.489821 280.737027 
L 174.158393 298.891105 
L 179.826964 304.034179 
L 185.495536 306.034645 
L 191.164107 307.004602 
L 196.832679 307.20389 
L 202.50125 306.751909 
L 208.169821 305.177815 
L 213.838393 298.120061 
L 219.506964 287.047123 
L 225.175536 277.844858 
L 230.844107 276.080029 
L 236.512679 280.420385 
L 242.18125 290.846613 
L 247.849821 302.458898 
L 253.518393 305.999441 
L 259.186964 306.169416 
L 264.855536 303.115996 
L 270.524107 290.578675 
L 276.192679 275.232271 
L 281.86125 270.57594 
L 287.529821 279.138406 
L 293.198393 296.456153 
L 298.866964 305.215775 
L 304.535536 306.565571 
L 310.204107 305.204271 
L 315.872679 296.013505 
L 321.54125 275.933002 
L 327.209821 260.66525 
L 332.878393 257.794965 
L 338.546964 271.523539 
L 344.215536 295.092889 
L 349.884107 305.761894 
L 355.552679 307.132205 
L 361.22125 307.421675 
L 366.889821 307.177044 
L 372.558393 306.069614 
L 378.226964 302.775654 
L 383.895536 289.220227 
L 389.564107 261.499645 
L 395.232679 242.944854 
L 400.90125 240.321085 
" clip-path="url(#p91715b073a)" style="fill: none; stroke: #ff0000; stroke-width: 1.5; stroke-linecap: square"/>
   </g>
   <g id="patch_13">
    <path d="M 43.78125 307.872 
L 43.78125 229.603765 
" style="fill: none; stroke: #000000; stroke-width: 0.8; stroke-linejoin: miter; stroke-linecap: square"/>
   </g>
   <g id="patch_14">
    <path d="M 400.90125 307.872 
L 400.90125 229.603765 
" style="fill: none; stroke: #000000; stroke-width: 0.8; stroke-linejoin: miter; stroke-linecap: square"/>
   </g>
   <g id="patch_15">
    <path d="M 43.78125 307.872 
L 400.90125 307.872 
" style="fill: none; stroke: #000000; stroke-width: 0.8; stroke-linejoin: miter; stroke-linecap: square"/>
   </g>
   <g id="patch_16">
    <path d="M 43.78125 229.603765 
L 400.90125 229.603765 
" style="fill: none; stroke: #000000; stroke-width: 0.8; stroke-linejoin: miter; stroke-linecap: square"/>
   </g>
  </g>
  <g id="text_19">
   <!-- Segregated Phase -->
   <g transform="translate(162.087188 16.318125)scale(0.12 -0.12)">
    <defs>
     <path id="DejaVuSans-53" d="M 3425 4513 
L 3425 3897 
Q 3066 4069 2747 4153 
Q 2428 4238 2131 4238 
Q 1616 4238 1336 4038 
Q 1056 3838 1056 3469 
Q 1056 3159 1242 3001 
Q 1428 2844 1947 2747 
L 2328 2669 
Q 3034 2534 3370 2195 
Q 3706 1856 3706 1288 
Q 3706 609 3251 259 
Q 2797 -91 1919 -91 
Q 1588 -91 1214 -16 
Q 841 59 441 206 
L 441 856 
Q 825 641 1194 531 
Q 1563 422 1919 422 
Q 2459 422 2753 634 
Q 3047 847 3047 1241 
Q 3047 1584 2836 1778 
Q 2625 1972 2144 2069 
L 1759 2144 
Q 1053 2284 737 2584 
Q 422 2884 422 3419 
Q 422 4038 858 4394 
Q 1294 4750 2059 4750 
Q 2388 4750 2728 4690 
Q 3069 4631 3425 4513 
z
" transform="scale(0.015625)"/>
     <path id="DejaVuSans-20" transform="scale(0.015625)"/>
     <path id="DejaVuSans-68" d="M 3513 2113 
L 3513 0 
L 2938 0 
L 2938 2094 
Q 2938 2591 2744 2837 
Q 2550 3084 2163 3084 
Q 1697 3084 1428 2787 
Q 1159 2491 1159 1978 
L 1159 0 
L 581 0 
L 581 4863 
L 1159 4863 
L 1159 2956 
Q 1366 3272 1645 3428 
Q 1925 3584 2291 3584 
Q 2894 3584 3203 3211 
Q 3513 2838 3513 2113 
z
" transform="scale(0.015625)"/>
     <path id="DejaVuSans-73" d="M 2834 3397 
L 2834 2853 
Q 2591 2978 2328 3040 
Q 2066 3103 1784 3103 
Q 1356 3103 1142 2972 
Q 928 2841 928 2578 
Q 928 2378 1081 2264 
Q 1234 2150 1697 2047 
L 1894 2003 
Q 2506 1872 2764 1633 
Q 3022 1394 3022 966 
Q 3022 478 2636 193 
Q 2250 -91 1575 -91 
Q 1294 -91 989 -36 
Q 684 19 347 128 
L 347 722 
Q 666 556 975 473 
Q 1284 391 1588 391 
Q 1994 391 2212 530 
Q 2431 669 2431 922 
Q 2431 1156 2273 1281 
Q 2116 1406 1581 1522 
L 1381 1569 
Q 847 1681 609 1914 
Q 372 2147 372 2553 
Q 372 3047 722 3315 
Q 1072 3584 1716 3584 
Q 2034 3584 2315 3537 
Q 2597 3491 2834 3397 
z
" transform="scale(0.015625)"/>
    </defs>
    <use xlink:href="#DejaVuSans-53"/>
    <use xlink:href="#DejaVuSans-65" x="63.476562"/>
    <use xlink:href="#DejaVuSans-67" x="125"/>
    <use xlink:href="#DejaVuSans-72" x="188.476562"/>
    <use xlink:href="#DejaVuSans-65" x="227.339844"/>
    <use xlink:href="#DejaVuSans-67" x="288.863281"/>
    <use xlink:href="#DejaVuSans-61" x="352.339844"/>
    <use xlink:href="#DejaVuSans-74" x="413.619141"/>
    <use xlink:href="#DejaVuSans-65" x="452.828125"/>
    <use xlink:href="#DejaVuSans-64" x="514.351562"/>
    <use xlink:href="#DejaVuSans-20" x="577.828125"/>
    <use xlink:href="#DejaVuSans-50" x="609.615234"/>
    <use xlink:href="#DejaVuSans-68" x="669.917969"/>
    <use xlink:href="#DejaVuSans-61" x="733.296875"/>
    <use xlink:href="#DejaVuSans-73" x="794.576172"/>
    <use xlink:href="#DejaVuSans-65" x="846.675781"/>
   </g>
  </g>
 </g>
 <defs>
  <clipPath id="p3a8ce4fb18">
   <rect x="43.78125" y="41.76" width="357.12" height="78.268235"/>
  </clipPath>
  <clipPath id="p58b0434f2d">
   <rect x="43.78125" y="135.681882" width="357.12" height="78.268235"/>
  </clipPath>
  <clipPath id="p91715b073a">
   <rect x="43.78125" y="229.603765" width="357.12" height="78.268235"/>
  </clipPath>
 </defs>
</svg>
