<?xml version="1.0" encoding="utf-8" standalone="no"?>
<!DOCTYPE svg PUBLIC "-//W3C//DTD SVG 1.1//EN"
  "http://www.w3.org/Graphics/SVG/1.1/DTD/svg11.dtd">
<svg xmlns:xlink="http://www.w3.org/1999/xlink" width="515.950313pt" height="139.534375pt" viewBox="0 0 515.950313 139.534375" xmlns="http://www.w3.org/2000/svg" version="1.1">
 <metadata>
  <rdf:RDF xmlns:dc="http://purl.org/dc/elements/1.1/" xmlns:cc="http://creativecommons.org/ns#" xmlns:rdf="http://www.w3.org/1999/02/22-rdf-syntax-ns#">
   <cc:Work>
    <dc:type rdf:resource="http://purl.org/dc/dcmitype/StillImage"/>
    <dc:date>2024-03-22T10:57:04.276227</dc:date>
    <dc:format>image/svg+xml</dc:format>
    <dc:creator>
     <cc:Agent>
      <dc:title>Matplotlib v3.5.2, https://matplotlib.org/</dc:title>
     </cc:Agent>
    </dc:creator>
   </cc:Work>
  </rdf:RDF>
 </metadata>
 <defs>
  <style type="text/css">*{stroke-linejoin: round; stroke-linecap: butt}</style>
 </defs>
 <g id="figure_1">
  <g id="patch_1">
   <path d="M 0 139.534375 
L 515.950313 139.534375 
L 515.950313 0 
L 0 0 
z
" style="fill: #ffffff"/>
  </g>
  <g id="axes_1">
   <g id="patch_2">
    <path d="M 39.120313 105.478125 
L 124.033356 105.478125 
L 124.033356 22.318125 
L 39.120313 22.318125 
z
" style="fill: #ffffff"/>
   </g>
   <g id="matplotlib.axis_1">
    <g id="xtick_1">
     <g id="line2d_1">
      <defs>
       <path id="m5833c2e418" d="M 0 0 
L 0 -3.5 
" style="stroke: #000000; stroke-width: 0.8"/>
      </defs>
      <g>
       <use xlink:href="#m5833c2e418" x="39.120313" y="105.478125" style="stroke: #000000; stroke-width: 0.8"/>
      </g>
     </g>
     <g id="text_1">
      <!-- 0.0 -->
      <g transform="translate(31.16875 116.576563)scale(0.1 -0.1)">
       <defs>
        <path id="DejaVuSans-30" d="M 2034 4250 
Q 1547 4250 1301 3770 
Q 1056 3291 1056 2328 
Q 1056 1369 1301 889 
Q 1547 409 2034 409 
Q 2525 409 2770 889 
Q 3016 1369 3016 2328 
Q 3016 3291 2770 3770 
Q 2525 4250 2034 4250 
z
M 2034 4750 
Q 2819 4750 3233 4129 
Q 3647 3509 3647 2328 
Q 3647 1150 3233 529 
Q 2819 -91 2034 -91 
Q 1250 -91 836 529 
Q 422 1150 422 2328 
Q 422 3509 836 4129 
Q 1250 4750 2034 4750 
z
" transform="scale(0.015625)"/>
        <path id="DejaVuSans-2e" d="M 684 794 
L 1344 794 
L 1344 0 
L 684 0 
L 684 794 
z
" transform="scale(0.015625)"/>
       </defs>
       <use xlink:href="#DejaVuSans-30"/>
       <use xlink:href="#DejaVuSans-2e" x="63.623047"/>
       <use xlink:href="#DejaVuSans-30" x="95.410156"/>
      </g>
     </g>
    </g>
    <g id="xtick_2">
     <g id="line2d_2">
      <g>
       <use xlink:href="#m5833c2e418" x="124.033356" y="105.478125" style="stroke: #000000; stroke-width: 0.8"/>
      </g>
     </g>
     <g id="text_2">
      <!-- 0.5 -->
      <g transform="translate(116.081793 116.576563)scale(0.1 -0.1)">
       <defs>
        <path id="DejaVuSans-35" d="M 691 4666 
L 3169 4666 
L 3169 4134 
L 1269 4134 
L 1269 2991 
Q 1406 3038 1543 3061 
Q 1681 3084 1819 3084 
Q 2600 3084 3056 2656 
Q 3513 2228 3513 1497 
Q 3513 744 3044 326 
Q 2575 -91 1722 -91 
Q 1428 -91 1123 -41 
Q 819 9 494 109 
L 494 744 
Q 775 591 1075 516 
Q 1375 441 1709 441 
Q 2250 441 2565 725 
Q 2881 1009 2881 1497 
Q 2881 1984 2565 2268 
Q 2250 2553 1709 2553 
Q 1456 2553 1204 2497 
Q 953 2441 691 2322 
L 691 4666 
z
" transform="scale(0.015625)"/>
       </defs>
       <use xlink:href="#DejaVuSans-30"/>
       <use xlink:href="#DejaVuSans-2e" x="63.623047"/>
       <use xlink:href="#DejaVuSans-35" x="95.410156"/>
      </g>
     </g>
    </g>
    <g id="text_3">
     <!-- $x$ -->
     <g transform="translate(78.576834 130.254688)scale(0.1 -0.1)">
      <defs>
       <path id="DejaVuSans-Oblique-78" d="M 3841 3500 
L 2234 1784 
L 3219 0 
L 2559 0 
L 1819 1388 
L 531 0 
L -166 0 
L 1556 1844 
L 641 3500 
L 1300 3500 
L 1972 2234 
L 3144 3500 
L 3841 3500 
z
" transform="scale(0.015625)"/>
      </defs>
      <use xlink:href="#DejaVuSans-Oblique-78" transform="translate(0 0.3125)"/>
     </g>
    </g>
   </g>
   <g id="matplotlib.axis_2">
    <g id="ytick_1">
     <g id="line2d_3">
      <defs>
       <path id="m3120e6cd60" d="M 0 0 
L 3.5 0 
" style="stroke: #000000; stroke-width: 0.8"/>
      </defs>
      <g>
       <use xlink:href="#m3120e6cd60" x="39.120313" y="98.548125" style="stroke: #000000; stroke-width: 0.8"/>
      </g>
     </g>
     <g id="text_4">
      <!-- −1 -->
      <g transform="translate(20.878125 102.347344)scale(0.1 -0.1)">
       <defs>
        <path id="DejaVuSans-2212" d="M 678 2272 
L 4684 2272 
L 4684 1741 
L 678 1741 
L 678 2272 
z
" transform="scale(0.015625)"/>
        <path id="DejaVuSans-31" d="M 794 531 
L 1825 531 
L 1825 4091 
L 703 3866 
L 703 4441 
L 1819 4666 
L 2450 4666 
L 2450 531 
L 3481 531 
L 3481 0 
L 794 0 
L 794 531 
z
" transform="scale(0.015625)"/>
       </defs>
       <use xlink:href="#DejaVuSans-2212"/>
       <use xlink:href="#DejaVuSans-31" x="83.789062"/>
      </g>
     </g>
    </g>
    <g id="ytick_2">
     <g id="line2d_4">
      <g>
       <use xlink:href="#m3120e6cd60" x="39.120313" y="63.898125" style="stroke: #000000; stroke-width: 0.8"/>
      </g>
     </g>
     <g id="text_5">
      <!-- 0 -->
      <g transform="translate(29.257813 67.697344)scale(0.1 -0.1)">
       <use xlink:href="#DejaVuSans-30"/>
      </g>
     </g>
    </g>
    <g id="ytick_3">
     <g id="line2d_5">
      <g>
       <use xlink:href="#m3120e6cd60" x="39.120313" y="29.248125" style="stroke: #000000; stroke-width: 0.8"/>
      </g>
     </g>
     <g id="text_6">
      <!-- 1 -->
      <g transform="translate(29.257813 33.047344)scale(0.1 -0.1)">
       <use xlink:href="#DejaVuSans-31"/>
      </g>
     </g>
    </g>
    <g id="text_7">
     <!-- $\kappa(x)$ -->
     <g transform="translate(14.798438 73.748125)rotate(-90)scale(0.1 -0.1)">
      <defs>
       <path id="DejaVuSans-Oblique-3ba" d="M 938 3500 
L 1531 3500 
L 1247 2047 
L 3041 3500 
L 3741 3500 
L 2106 2181 
L 3275 0 
L 2572 0 
L 1628 1806 
L 1122 1403 
L 850 0 
L 256 0 
L 938 3500 
z
" transform="scale(0.015625)"/>
       <path id="DejaVuSans-28" d="M 1984 4856 
Q 1566 4138 1362 3434 
Q 1159 2731 1159 2009 
Q 1159 1288 1364 580 
Q 1569 -128 1984 -844 
L 1484 -844 
Q 1016 -109 783 600 
Q 550 1309 550 2009 
Q 550 2706 781 3412 
Q 1013 4119 1484 4856 
L 1984 4856 
z
" transform="scale(0.015625)"/>
       <path id="DejaVuSans-29" d="M 513 4856 
L 1013 4856 
Q 1481 4119 1714 3412 
Q 1947 2706 1947 2009 
Q 1947 1309 1714 600 
Q 1481 -109 1013 -844 
L 513 -844 
Q 928 -128 1133 580 
Q 1338 1288 1338 2009 
Q 1338 2731 1133 3434 
Q 928 4138 513 4856 
z
" transform="scale(0.015625)"/>
      </defs>
      <use xlink:href="#DejaVuSans-Oblique-3ba" transform="translate(0 0.125)"/>
      <use xlink:href="#DejaVuSans-28" transform="translate(58.935547 0.125)"/>
      <use xlink:href="#DejaVuSans-Oblique-78" transform="translate(97.949219 0.125)"/>
      <use xlink:href="#DejaVuSans-29" transform="translate(157.128906 0.125)"/>
     </g>
    </g>
   </g>
   <g id="line2d_6">
    <path d="M 39.120313 36.416367 
L 39.97802 36.416367 
L 40.835728 36.080648 
L 41.693435 35.297303 
L 42.551143 34.513958 
L 43.40885 36.547347 
L 44.266558 45.622574 
L 45.124265 54.6978 
L 45.981973 62.936922 
L 46.83968 66.159415 
L 47.697388 69.381909 
L 48.555095 72.604403 
L 49.412803 73.203128 
L 50.27051 73.801853 
L 51.128218 74.400578 
L 51.985925 74.192661 
L 52.843633 73.850304 
L 53.70134 73.507946 
L 54.559048 72.455054 
L 55.416755 71.117948 
L 56.274463 69.780842 
L 57.13217 68.680241 
L 57.989878 67.757019 
L 58.847585 66.833796 
L 59.705293 66.127776 
L 60.563 65.711359 
L 61.420708 65.294941 
L 62.278415 65.068478 
L 63.136123 65.316902 
L 63.99383 65.565326 
L 64.851538 65.817992 
L 65.709245 66.096109 
L 66.566953 66.374225 
L 67.42466 66.652342 
L 68.282368 66.661838 
L 69.140075 66.671334 
L 69.997783 66.68083 
L 70.85549 66.614161 
L 71.713198 66.534798 
L 72.570905 66.455435 
L 73.428613 66.362231 
L 74.28632 66.263491 
L 75.144028 66.164751 
L 76.001735 65.999433 
L 76.859443 65.78418 
L 77.71715 65.568927 
L 78.574858 65.388454 
L 79.432565 65.254352 
L 80.290273 65.120251 
L 81.14798 64.997032 
L 82.005688 64.901017 
L 82.863396 64.805003 
L 83.721103 64.708488 
L 84.578811 64.608966 
L 85.436518 64.509445 
L 86.294226 64.409924 
L 87.151933 64.374228 
L 88.009641 64.338532 
L 88.867348 64.302836 
L 89.725056 64.296324 
L 90.582763 64.294675 
L 91.440471 64.293026 
L 92.298178 64.316548 
L 93.155886 64.350139 
L 94.013593 64.383729 
L 94.871301 64.406513 
L 95.729008 64.421191 
L 96.586716 64.43587 
L 97.444423 64.435079 
L 98.302131 64.413664 
L 99.159838 64.392249 
L 100.017546 64.367827 
L 100.875253 64.335888 
L 101.732961 64.303948 
L 102.590668 64.270732 
L 103.448376 64.229857 
L 104.306083 64.188982 
L 105.163791 64.148107 
L 106.021498 64.132393 
L 106.879206 64.116679 
L 107.736913 64.100965 
L 108.594621 64.089528 
L 109.452328 64.078805 
L 110.310036 64.068081 
L 111.167743 64.045326 
L 112.025451 64.017759 
L 112.883158 63.990192 
L 113.740866 63.973776 
L 114.598573 63.965722 
L 115.456281 63.957669 
L 116.313988 63.95148 
L 117.171696 63.947778 
L 118.029403 63.944076 
L 118.887111 63.943147 
L 119.744818 63.949149 
L 120.602526 63.955152 
L 121.460233 63.961051 
L 122.317941 63.966331 
L 123.175648 63.971611 
L 124.033356 63.97689 
" clip-path="url(#pac9d7d1a32)" style="fill: none; stroke: #1f77b4; stroke-width: 1.5; stroke-linecap: square"/>
   </g>
   <g id="line2d_7">
    <path d="M 39.120313 44.308861 
L 39.97802 44.308861 
L 40.835728 43.105753 
L 41.693435 40.298499 
L 42.551143 37.491246 
L 43.40885 37.007894 
L 44.266558 42.334294 
L 45.124265 47.660694 
L 45.981973 53.0362 
L 46.83968 58.706339 
L 47.697388 64.376478 
L 48.555095 70.046617 
L 49.412803 72.760336 
L 50.27051 75.474055 
L 51.128218 78.187774 
L 51.985925 77.914806 
L 52.843633 77.144057 
L 53.70134 76.373308 
L 54.559048 75.829827 
L 55.416755 75.377253 
L 56.274463 74.92468 
L 57.13217 73.166845 
L 57.989878 70.430065 
L 58.847585 67.693284 
L 59.705293 65.72266 
L 60.563 64.773576 
L 61.420708 63.824492 
L 62.278415 63.224765 
L 63.136123 63.49843 
L 63.99383 63.772095 
L 64.851538 64.092959 
L 65.709245 64.697013 
L 66.566953 65.301067 
L 67.42466 65.905122 
L 68.282368 66.044483 
L 69.140075 66.183844 
L 69.997783 66.323205 
L 70.85549 66.236958 
L 71.713198 66.11311 
L 72.570905 65.989262 
L 73.428613 65.802704 
L 74.28632 65.591062 
L 75.144028 65.37942 
L 76.001735 65.162132 
L 76.859443 64.940609 
L 77.71715 64.719085 
L 78.574858 64.532763 
L 79.432565 64.393377 
L 80.290273 64.25399 
L 81.14798 64.143639 
L 82.005688 64.105878 
L 82.863396 64.068117 
L 83.721103 64.036831 
L 84.578811 64.0444 
L 85.436518 64.051969 
L 86.294226 64.059538 
L 87.151933 64.117755 
L 88.009641 64.175972 
L 88.867348 64.23419 
L 89.725056 64.261883 
L 90.582763 64.284489 
L 91.440471 64.307095 
L 92.298178 64.289046 
L 93.155886 64.254734 
L 94.013593 64.220423 
L 94.871301 64.169741 
L 95.729008 64.106782 
L 96.586716 64.043822 
L 97.444423 63.977908 
L 98.302131 63.908057 
L 99.159838 63.838206 
L 100.017546 63.77486 
L 100.875253 63.727777 
L 101.732961 63.680694 
L 102.590668 63.637326 
L 103.448376 63.616256 
L 104.306083 63.595185 
L 105.163791 63.574115 
L 106.021498 63.594099 
L 106.879206 63.614083 
L 107.736913 63.634068 
L 108.594621 63.666821 
L 109.452328 63.701703 
L 110.310036 63.736585 
L 111.167743 63.769617 
L 112.025451 63.801908 
L 112.883158 63.8342 
L 113.740866 63.861549 
L 114.598573 63.885191 
L 115.456281 63.908833 
L 116.313988 63.926329 
L 117.171696 63.935632 
L 118.029403 63.944935 
L 118.887111 63.952291 
L 119.744818 63.954783 
L 120.602526 63.957275 
L 121.460233 63.959187 
L 122.317941 63.957628 
L 123.175648 63.956068 
L 124.033356 63.954509 
" clip-path="url(#pac9d7d1a32)" style="fill: none; stroke: #ff7f0e; stroke-width: 1.5; stroke-linecap: square"/>
   </g>
   <g id="line2d_8">
    <path d="M 39.120313 47.114374 
L 39.97802 47.114374 
L 40.835728 45.934924 
L 41.693435 43.182873 
L 42.551143 40.430822 
L 43.40885 38.987768 
L 44.266558 40.817206 
L 45.124265 42.646644 
L 45.981973 44.72531 
L 46.83968 48.299346 
L 47.697388 51.873382 
L 48.555095 55.447417 
L 49.412803 60.047691 
L 50.27051 64.647965 
L 51.128218 69.248238 
L 51.985925 71.329151 
L 52.843633 72.990168 
L 53.70134 74.651186 
L 54.559048 74.471129 
L 55.416755 73.554642 
L 56.274463 72.638154 
L 57.13217 71.311528 
L 57.989878 69.677297 
L 58.847585 68.043066 
L 59.705293 66.608056 
L 60.563 65.438673 
L 61.420708 64.269291 
L 62.278415 63.400779 
L 63.136123 63.284441 
L 63.99383 63.168103 
L 64.851538 63.115174 
L 65.709245 63.442701 
L 66.566953 63.770228 
L 67.42466 64.097754 
L 68.282368 64.441245 
L 69.140075 64.784736 
L 69.997783 65.128228 
L 70.85549 65.325362 
L 71.713198 65.498104 
L 72.570905 65.670846 
L 73.428613 65.748904 
L 74.28632 65.789088 
L 75.144028 65.829271 
L 76.001735 65.805125 
L 76.859443 65.732731 
L 77.71715 65.660337 
L 78.574858 65.562135 
L 79.432565 65.429521 
L 80.290273 65.296908 
L 81.14798 65.166291 
L 82.005688 65.040668 
L 82.863396 64.915044 
L 83.721103 64.799536 
L 84.578811 64.744716 
L 85.436518 64.689896 
L 86.294226 64.635075 
L 87.151933 64.658293 
L 88.009641 64.681511 
L 88.867348 64.704728 
L 89.725056 64.729629 
L 90.582763 64.754811 
L 91.440471 64.779992 
L 92.298178 64.78833 
L 93.155886 64.789931 
L 94.013593 64.791532 
L 94.871301 64.784752 
L 95.729008 64.771687 
L 96.586716 64.758621 
L 97.444423 64.745244 
L 98.302131 64.731452 
L 99.159838 64.717659 
L 100.017546 64.703789 
L 100.875253 64.689725 
L 101.732961 64.675661 
L 102.590668 64.661235 
L 103.448376 64.644633 
L 104.306083 64.628031 
L 105.163791 64.61143 
L 106.021498 64.568588 
L 106.879206 64.525747 
L 107.736913 64.482905 
L 108.594621 64.435282 
L 109.452328 64.386861 
L 110.310036 64.33844 
L 111.167743 64.306617 
L 112.025451 64.281432 
L 112.883158 64.256248 
L 113.740866 64.247015 
L 114.598573 64.249745 
L 115.456281 64.252475 
L 116.313988 64.268144 
L 117.171696 64.301065 
L 118.029403 64.333986 
L 118.887111 64.369428 
L 119.744818 64.411171 
L 120.602526 64.452915 
L 121.460233 64.49191 
L 122.317941 64.514412 
L 123.175648 64.536915 
L 124.033356 64.559418 
" clip-path="url(#pac9d7d1a32)" style="fill: none; stroke: #2ca02c; stroke-width: 1.5; stroke-linecap: square"/>
   </g>
   <g id="line2d_9">
    <path d="M 39.120313 43.535648 
L 39.97802 43.535648 
L 40.835728 42.960976 
L 41.693435 41.620074 
L 42.551143 40.279173 
L 43.40885 40.05737 
L 44.266558 42.633311 
L 45.124265 45.209252 
L 45.981973 47.943819 
L 46.83968 51.630142 
L 47.697388 55.316465 
L 48.555095 59.002788 
L 49.412803 62.68696 
L 50.27051 66.371133 
L 51.128218 70.055306 
L 51.985925 71.352959 
L 52.843633 72.252861 
L 53.70134 73.152762 
L 54.559048 72.581861 
L 55.416755 71.422638 
L 56.274463 70.263415 
L 57.13217 69.057598 
L 57.989878 67.816834 
L 58.847585 66.576071 
L 59.705293 65.679242 
L 60.563 65.240991 
L 61.420708 64.802739 
L 62.278415 64.469241 
L 63.136123 64.397623 
L 63.99383 64.326005 
L 64.851538 64.296585 
L 65.709245 64.52035 
L 66.566953 64.744116 
L 67.42466 64.967882 
L 68.282368 65.190547 
L 69.140075 65.413212 
L 69.997783 65.635878 
L 70.85549 65.813646 
L 71.713198 65.983932 
L 72.570905 66.154218 
L 73.428613 66.237094 
L 74.28632 66.285006 
L 75.144028 66.332919 
L 76.001735 66.311971 
L 76.859443 66.23938 
L 77.71715 66.166788 
L 78.574858 66.071131 
L 79.432565 65.944719 
L 80.290273 65.818308 
L 81.14798 65.701672 
L 82.005688 65.609475 
L 82.863396 65.517277 
L 83.721103 65.434276 
L 84.578811 65.406453 
L 85.436518 65.378629 
L 86.294226 65.350806 
L 87.151933 65.378554 
L 88.009641 65.406302 
L 88.867348 65.43405 
L 89.725056 65.474304 
L 90.582763 65.516643 
L 91.440471 65.558981 
L 92.298178 65.58563 
L 93.155886 65.606003 
L 94.013593 65.626375 
L 94.871301 65.648872 
L 95.729008 65.672962 
L 96.586716 65.697051 
L 97.444423 65.714102 
L 98.302131 65.721767 
L 99.159838 65.729433 
L 100.017546 65.735466 
L 100.875253 65.737422 
L 101.732961 65.739377 
L 102.590668 65.739893 
L 103.448376 65.731779 
L 104.306083 65.723665 
L 105.163791 65.715551 
L 106.021498 65.697409 
L 106.879206 65.679268 
L 107.736913 65.661127 
L 108.594621 65.640466 
L 109.452328 65.619385 
L 110.310036 65.598304 
L 111.167743 65.58352 
L 112.025451 65.571256 
L 112.883158 65.558992 
L 113.740866 65.555607 
L 114.598573 65.55888 
L 115.456281 65.562154 
L 116.313988 65.568867 
L 117.171696 65.580167 
L 118.029403 65.591466 
L 118.887111 65.605518 
L 119.744818 65.626451 
L 120.602526 65.647384 
L 121.460233 65.667376 
L 122.317941 65.681724 
L 123.175648 65.696071 
L 124.033356 65.710418 
" clip-path="url(#pac9d7d1a32)" style="fill: none; stroke: #d62728; stroke-width: 1.5; stroke-linecap: square"/>
   </g>
   <g id="patch_3">
    <path d="M 39.120313 105.478125 
L 39.120313 22.318125 
" style="fill: none; stroke: #000000; stroke-width: 0.8; stroke-linejoin: miter; stroke-linecap: square"/>
   </g>
   <g id="patch_4">
    <path d="M 124.033356 105.478125 
L 124.033356 22.318125 
" style="fill: none; stroke: #000000; stroke-width: 0.8; stroke-linejoin: miter; stroke-linecap: square"/>
   </g>
   <g id="patch_5">
    <path d="M 39.120313 105.478125 
L 124.033356 105.478125 
" style="fill: none; stroke: #000000; stroke-width: 0.8; stroke-linejoin: miter; stroke-linecap: square"/>
   </g>
   <g id="patch_6">
    <path d="M 39.120313 22.318125 
L 124.033356 22.318125 
" style="fill: none; stroke: #000000; stroke-width: 0.8; stroke-linejoin: miter; stroke-linecap: square"/>
   </g>
   <g id="text_8">
    <!-- $\kappa^{AA}$ -->
    <g transform="translate(71.856834 16.318125)scale(0.12 -0.12)">
     <defs>
      <path id="DejaVuSans-Oblique-41" d="M 2356 4666 
L 3072 4666 
L 3938 0 
L 3278 0 
L 3084 1197 
L 984 1197 
L 325 0 
L -341 0 
L 2356 4666 
z
M 2584 4044 
L 1275 1722 
L 2988 1722 
L 2584 4044 
z
" transform="scale(0.015625)"/>
     </defs>
     <use xlink:href="#DejaVuSans-Oblique-3ba" transform="translate(0 0.684375)"/>
     <use xlink:href="#DejaVuSans-Oblique-41" transform="translate(63.401693 38.965625)scale(0.7)"/>
     <use xlink:href="#DejaVuSans-Oblique-41" transform="translate(111.287435 38.965625)scale(0.7)"/>
    </g>
   </g>
  </g>
  <g id="axes_2">
   <g id="patch_7">
    <path d="M 141.015965 105.478125 
L 225.929008 105.478125 
L 225.929008 22.318125 
L 141.015965 22.318125 
z
" style="fill: #ffffff"/>
   </g>
   <g id="matplotlib.axis_3">
    <g id="xtick_3">
     <g id="line2d_10">
      <g>
       <use xlink:href="#m5833c2e418" x="141.015965" y="105.478125" style="stroke: #000000; stroke-width: 0.8"/>
      </g>
     </g>
     <g id="text_9">
      <!-- 0.0 -->
      <g transform="translate(133.064402 116.576563)scale(0.1 -0.1)">
       <use xlink:href="#DejaVuSans-30"/>
       <use xlink:href="#DejaVuSans-2e" x="63.623047"/>
       <use xlink:href="#DejaVuSans-30" x="95.410156"/>
      </g>
     </g>
    </g>
    <g id="xtick_4">
     <g id="line2d_11">
      <g>
       <use xlink:href="#m5833c2e418" x="225.929008" y="105.478125" style="stroke: #000000; stroke-width: 0.8"/>
      </g>
     </g>
     <g id="text_10">
      <!-- 0.5 -->
      <g transform="translate(217.977446 116.576563)scale(0.1 -0.1)">
       <use xlink:href="#DejaVuSans-30"/>
       <use xlink:href="#DejaVuSans-2e" x="63.623047"/>
       <use xlink:href="#DejaVuSans-35" x="95.410156"/>
      </g>
     </g>
    </g>
    <g id="text_11">
     <!-- $x$ -->
     <g transform="translate(180.472486 130.254688)scale(0.1 -0.1)">
      <use xlink:href="#DejaVuSans-Oblique-78" transform="translate(0 0.3125)"/>
     </g>
    </g>
   </g>
   <g id="matplotlib.axis_4">
    <g id="ytick_4">
     <g id="line2d_12">
      <g>
       <use xlink:href="#m3120e6cd60" x="141.015965" y="98.548125" style="stroke: #000000; stroke-width: 0.8"/>
      </g>
     </g>
    </g>
    <g id="ytick_5">
     <g id="line2d_13">
      <g>
       <use xlink:href="#m3120e6cd60" x="141.015965" y="63.898125" style="stroke: #000000; stroke-width: 0.8"/>
      </g>
     </g>
    </g>
    <g id="ytick_6">
     <g id="line2d_14">
      <g>
       <use xlink:href="#m3120e6cd60" x="141.015965" y="29.248125" style="stroke: #000000; stroke-width: 0.8"/>
      </g>
     </g>
    </g>
   </g>
   <g id="line2d_15">
    <path d="M 141.015965 94.146136 
L 141.873672 94.146136 
L 142.73138 88.681606 
L 143.589087 75.931034 
L 144.446795 63.180463 
L 145.304502 54.009762 
L 146.16221 53.788737 
L 147.019917 53.567713 
L 147.877625 53.670035 
L 148.735332 55.71244 
L 149.59304 57.754844 
L 150.450747 59.797249 
L 151.308455 61.527476 
L 152.166162 63.257703 
L 153.02387 64.98793 
L 153.881577 65.156951 
L 154.739285 65.065771 
L 155.596992 64.974592 
L 156.4547 63.683793 
L 157.312407 61.913145 
L 158.170115 60.142498 
L 159.027822 59.953256 
L 159.88553 60.95007 
L 160.743237 61.946884 
L 161.600945 62.448822 
L 162.458652 62.290926 
L 163.31636 62.133031 
L 164.174067 62.096592 
L 165.031775 62.363793 
L 165.889482 62.630995 
L 166.74719 62.899793 
L 167.604897 63.178176 
L 168.462605 63.456559 
L 169.320313 63.734942 
L 170.17802 63.903629 
L 171.035728 64.072317 
L 171.893435 64.241004 
L 172.751143 64.343525 
L 173.60885 64.435018 
L 174.466558 64.526511 
L 175.324265 64.563848 
L 176.181973 64.579522 
L 177.03968 64.595197 
L 177.897388 64.520049 
L 178.755095 64.376785 
L 179.612803 64.233521 
L 180.47051 64.11624 
L 181.328218 64.033604 
L 182.185925 63.950968 
L 183.043633 63.873478 
L 183.90134 63.808855 
L 184.759048 63.744233 
L 185.616755 63.683804 
L 186.474463 63.648542 
L 187.33217 63.61328 
L 188.189878 63.578018 
L 189.047585 63.633574 
L 189.905293 63.68913 
L 190.763 63.744686 
L 191.620708 63.756092 
L 192.478415 63.760139 
L 193.336123 63.764187 
L 194.19383 63.782524 
L 195.051538 63.806577 
L 195.909245 63.830631 
L 196.766953 63.847238 
L 197.62466 63.858262 
L 198.482368 63.869286 
L 199.340075 63.882061 
L 200.197783 63.897173 
L 201.05549 63.912285 
L 201.913198 63.929343 
L 202.770905 63.951269 
L 203.628613 63.973196 
L 204.48632 63.988714 
L 205.344028 63.965783 
L 206.201735 63.942852 
L 207.059443 63.919922 
L 207.91715 63.904007 
L 208.774858 63.888092 
L 209.632565 63.872177 
L 210.490273 63.848563 
L 211.34798 63.823665 
L 212.205688 63.798767 
L 213.063396 63.779283 
L 213.921103 63.761964 
L 214.778811 63.744646 
L 215.636518 63.744516 
L 216.494226 63.757277 
L 217.351933 63.770039 
L 218.209641 63.776323 
L 219.067348 63.773972 
L 219.925056 63.771622 
L 220.782763 63.768777 
L 221.640471 63.764698 
L 222.498178 63.760619 
L 223.355886 63.757107 
L 224.213593 63.756998 
L 225.071301 63.756889 
L 225.929008 63.75678 
" clip-path="url(#pa79ba99f74)" style="fill: none; stroke: #1f77b4; stroke-width: 1.5; stroke-linecap: square"/>
   </g>
   <g id="line2d_16">
    <path d="M 141.015965 43.994339 
L 141.873672 43.994339 
L 142.73138 45.555777 
L 143.589087 49.199134 
L 144.446795 52.84249 
L 145.304502 56.950395 
L 146.16221 62.219671 
L 147.019917 67.488947 
L 147.877625 72.079576 
L 148.735332 72.598321 
L 149.59304 73.117067 
L 150.450747 73.635812 
L 151.308455 69.970279 
L 152.166162 66.304746 
L 153.02387 62.639213 
L 153.881577 60.056578 
L 154.739285 57.654426 
L 155.596992 55.252274 
L 156.4547 55.037281 
L 157.312407 55.697152 
L 158.170115 56.357022 
L 159.027822 57.578621 
L 159.88553 59.221515 
L 160.743237 60.864409 
L 161.600945 62.357497 
L 162.458652 63.650843 
L 163.31636 64.94419 
L 164.174067 65.930374 
L 165.031775 66.148652 
L 165.889482 66.366931 
L 166.74719 66.495506 
L 167.604897 66.085854 
L 168.462605 65.676202 
L 169.320313 65.26655 
L 170.17802 64.845397 
L 171.035728 64.424243 
L 171.893435 64.003089 
L 172.751143 63.762158 
L 173.60885 63.551263 
L 174.466558 63.340369 
L 175.324265 63.344729 
L 176.181973 63.435191 
L 177.03968 63.525654 
L 177.897388 63.675164 
L 178.755095 63.868961 
L 179.612803 64.062758 
L 180.47051 64.246112 
L 181.328218 64.415542 
L 182.185925 64.584972 
L 183.043633 64.719413 
L 183.90134 64.766381 
L 184.759048 64.813348 
L 185.616755 64.840354 
L 186.474463 64.747588 
L 187.33217 64.654821 
L 188.189878 64.562055 
L 189.047585 64.429388 
L 189.905293 64.296721 
L 190.763 64.164054 
L 191.620708 64.059626 
L 192.478415 63.959904 
L 193.336123 63.860182 
L 194.19383 63.808241 
L 195.051538 63.775413 
L 195.909245 63.742584 
L 196.766953 63.757317 
L 197.62466 63.807721 
L 198.482368 63.858126 
L 199.340075 63.919254 
L 200.197783 63.994682 
L 201.05549 64.070109 
L 201.913198 64.133427 
L 202.770905 64.166471 
L 203.628613 64.199515 
L 204.48632 64.228707 
L 205.344028 64.234786 
L 206.201735 64.240864 
L 207.059443 64.246942 
L 207.91715 64.213436 
L 208.774858 64.17993 
L 209.632565 64.146424 
L 210.490273 64.095215 
L 211.34798 64.041056 
L 212.205688 63.986897 
L 213.063396 63.941839 
L 213.921103 63.900422 
L 214.778811 63.859004 
L 215.636518 63.824289 
L 216.494226 63.794601 
L 217.351933 63.764913 
L 218.209641 63.741936 
L 219.067348 63.727906 
L 219.925056 63.713877 
L 220.782763 63.705703 
L 221.640471 63.712169 
L 222.498178 63.718634 
L 223.355886 63.724448 
L 224.213593 63.726348 
L 225.071301 63.728247 
L 225.929008 63.730147 
" clip-path="url(#pa79ba99f74)" style="fill: none; stroke: #ff7f0e; stroke-width: 1.5; stroke-linecap: square"/>
   </g>
   <g id="line2d_17">
    <path d="M 141.015965 59.946266 
L 141.873672 59.946266 
L 142.73138 59.701609 
L 143.589087 59.130742 
L 144.446795 58.559876 
L 145.304502 58.176317 
L 146.16221 58.261026 
L 147.019917 58.345736 
L 147.877625 58.736278 
L 148.735332 60.961813 
L 149.59304 63.187348 
L 150.450747 65.412883 
L 151.308455 66.730346 
L 152.166162 68.047808 
L 153.02387 69.365271 
L 153.881577 69.247194 
L 154.739285 68.88986 
L 155.596992 68.532527 
L 156.4547 67.531927 
L 157.312407 66.27402 
L 158.170115 65.016113 
L 159.027822 64.003679 
L 159.88553 63.175351 
L 160.743237 62.347022 
L 161.600945 61.839877 
L 162.458652 61.760977 
L 163.31636 61.682076 
L 164.174067 61.700328 
L 165.031775 61.961457 
L 165.889482 62.222587 
L 166.74719 62.474641 
L 167.604897 62.672244 
L 168.462605 62.869846 
L 169.320313 63.067448 
L 170.17802 63.157585 
L 171.035728 63.247721 
L 171.893435 63.337857 
L 172.751143 63.382383 
L 173.60885 63.419307 
L 174.466558 63.456232 
L 175.324265 63.502711 
L 176.181973 63.553012 
L 177.03968 63.603313 
L 177.897388 63.642417 
L 178.755095 63.673123 
L 179.612803 63.703829 
L 180.47051 63.707826 
L 181.328218 63.676212 
L 182.185925 63.644598 
L 183.043633 63.616704 
L 183.90134 63.598113 
L 184.759048 63.579521 
L 185.616755 63.563637 
L 186.474463 63.563996 
L 187.33217 63.564354 
L 188.189878 63.564713 
L 189.047585 63.547901 
L 189.905293 63.531089 
L 190.763 63.514276 
L 191.620708 63.508671 
L 192.478415 63.504934 
L 193.336123 63.501197 
L 194.19383 63.507371 
L 195.051538 63.517511 
L 195.909245 63.52765 
L 196.766953 63.548533 
L 197.62466 63.577473 
L 198.482368 63.606412 
L 199.340075 63.641868 
L 200.197783 63.686012 
L 201.05549 63.730156 
L 201.913198 63.774154 
L 202.770905 63.817784 
L 203.628613 63.861415 
L 204.48632 63.901648 
L 205.344028 63.921498 
L 206.201735 63.941347 
L 207.059443 63.961197 
L 207.91715 63.957795 
L 208.774858 63.954393 
L 209.632565 63.950991 
L 210.490273 63.935275 
L 211.34798 63.917506 
L 212.205688 63.899738 
L 213.063396 63.87685 
L 213.921103 63.851915 
L 214.778811 63.82698 
L 215.636518 63.809424 
L 216.494226 63.797403 
L 217.351933 63.785382 
L 218.209641 63.782891 
L 219.067348 63.793106 
L 219.925056 63.803321 
L 220.782763 63.815417 
L 221.640471 63.832218 
L 222.498178 63.849019 
L 223.355886 63.865283 
L 224.213593 63.87833 
L 225.071301 63.891378 
L 225.929008 63.904425 
" clip-path="url(#pa79ba99f74)" style="fill: none; stroke: #2ca02c; stroke-width: 1.5; stroke-linecap: square"/>
   </g>
   <g id="line2d_18">
    <path d="M 141.015965 69.627023 
L 141.873672 69.627023 
L 142.73138 69.240853 
L 143.589087 68.339789 
L 144.446795 67.438726 
L 145.304502 66.473805 
L 146.16221 65.349241 
L 147.019917 64.224677 
L 147.877625 63.096576 
L 148.735332 61.94726 
L 149.59304 60.797943 
L 150.450747 59.648626 
L 151.308455 60.02311 
L 152.166162 60.397595 
L 153.02387 60.772079 
L 153.881577 61.421437 
L 154.739285 62.116607 
L 155.596992 62.811777 
L 156.4547 63.281696 
L 157.312407 63.661513 
L 158.170115 64.04133 
L 159.027822 64.349057 
L 159.88553 64.602717 
L 160.743237 64.856376 
L 161.600945 64.994777 
L 162.458652 64.979501 
L 163.31636 64.964225 
L 164.174067 64.876505 
L 165.031775 64.607674 
L 165.889482 64.338842 
L 166.74719 64.086991 
L 167.604897 63.937019 
L 168.462605 63.787048 
L 169.320313 63.637076 
L 170.17802 63.662677 
L 171.035728 63.688278 
L 171.893435 63.713879 
L 172.751143 63.793729 
L 173.60885 63.882621 
L 174.466558 63.971513 
L 175.324265 64.085968 
L 176.181973 64.210649 
L 177.03968 64.33533 
L 177.897388 64.399868 
L 178.755095 64.419299 
L 179.612803 64.43873 
L 180.47051 64.416749 
L 181.328218 64.339551 
L 182.185925 64.262352 
L 183.043633 64.178702 
L 183.90134 64.078921 
L 184.759048 63.979141 
L 185.616755 63.881776 
L 186.474463 63.798908 
L 187.33217 63.716039 
L 188.189878 63.633171 
L 189.047585 63.612778 
L 189.905293 63.592385 
L 190.763 63.571992 
L 191.620708 63.561809 
L 192.478415 63.553328 
L 193.336123 63.544847 
L 194.19383 63.563947 
L 195.051538 63.594079 
L 195.909245 63.624212 
L 196.766953 63.654867 
L 197.62466 63.685914 
L 198.482368 63.716962 
L 199.340075 63.747292 
L 200.197783 63.776665 
L 201.05549 63.806037 
L 201.913198 63.845123 
L 202.770905 63.908489 
L 203.628613 63.971855 
L 204.48632 64.028584 
L 205.344028 64.045491 
L 206.201735 64.062397 
L 207.059443 64.079304 
L 207.91715 64.084282 
L 208.774858 64.089261 
L 209.632565 64.094239 
L 210.490273 64.07434 
L 211.34798 64.050295 
L 212.205688 64.02625 
L 213.063396 63.987191 
L 213.921103 63.942128 
L 214.778811 63.897064 
L 215.636518 63.861198 
L 216.494226 63.832229 
L 217.351933 63.80326 
L 218.209641 63.781527 
L 219.067348 63.769441 
L 219.925056 63.757355 
L 220.782763 63.750732 
L 221.640471 63.757767 
L 222.498178 63.764801 
L 223.355886 63.771936 
L 224.213593 63.779672 
L 225.071301 63.787408 
L 225.929008 63.795143 
" clip-path="url(#pa79ba99f74)" style="fill: none; stroke: #d62728; stroke-width: 1.5; stroke-linecap: square"/>
   </g>
   <g id="patch_8">
    <path d="M 141.015965 105.478125 
L 141.015965 22.318125 
" style="fill: none; stroke: #000000; stroke-width: 0.8; stroke-linejoin: miter; stroke-linecap: square"/>
   </g>
   <g id="patch_9">
    <path d="M 225.929008 105.478125 
L 225.929008 22.318125 
" style="fill: none; stroke: #000000; stroke-width: 0.8; stroke-linejoin: miter; stroke-linecap: square"/>
   </g>
   <g id="patch_10">
    <path d="M 141.015965 105.478125 
L 225.929008 105.478125 
" style="fill: none; stroke: #000000; stroke-width: 0.8; stroke-linejoin: miter; stroke-linecap: square"/>
   </g>
   <g id="patch_11">
    <path d="M 141.015965 22.318125 
L 225.929008 22.318125 
" style="fill: none; stroke: #000000; stroke-width: 0.8; stroke-linejoin: miter; stroke-linecap: square"/>
   </g>
   <g id="text_12">
    <!-- $\kappa^{AB}$ -->
    <g transform="translate(173.692486 16.318125)scale(0.12 -0.12)">
     <defs>
      <path id="DejaVuSans-Oblique-42" d="M 1081 4666 
L 2694 4666 
Q 3350 4666 3675 4422 
Q 4000 4178 4000 3688 
Q 4000 3238 3720 2911 
Q 3441 2584 2988 2516 
Q 3375 2428 3569 2181 
Q 3763 1934 3763 1522 
Q 3763 819 3242 409 
Q 2722 0 1819 0 
L 172 0 
L 1081 4666 
z
M 1234 2228 
L 903 519 
L 1919 519 
Q 2491 519 2800 781 
Q 3109 1044 3109 1522 
Q 3109 1891 2904 2059 
Q 2700 2228 2247 2228 
L 1234 2228 
z
M 1606 4147 
L 1331 2741 
L 2272 2741 
Q 2775 2741 3058 2959 
Q 3341 3178 3341 3566 
Q 3341 3869 3150 4008 
Q 2959 4147 2541 4147 
L 1606 4147 
z
" transform="scale(0.015625)"/>
     </defs>
     <use xlink:href="#DejaVuSans-Oblique-3ba" transform="translate(0 0.684375)"/>
     <use xlink:href="#DejaVuSans-Oblique-41" transform="translate(63.401693 38.965625)scale(0.7)"/>
     <use xlink:href="#DejaVuSans-Oblique-42" transform="translate(111.287435 38.965625)scale(0.7)"/>
    </g>
   </g>
  </g>
  <g id="axes_3">
   <g id="patch_12">
    <path d="M 242.911617 105.478125 
L 327.82466 105.478125 
L 327.82466 22.318125 
L 242.911617 22.318125 
z
" style="fill: #ffffff"/>
   </g>
   <g id="matplotlib.axis_5">
    <g id="xtick_5">
     <g id="line2d_19">
      <g>
       <use xlink:href="#m5833c2e418" x="242.911617" y="105.478125" style="stroke: #000000; stroke-width: 0.8"/>
      </g>
     </g>
     <g id="text_13">
      <!-- 0.0 -->
      <g transform="translate(234.960054 116.576563)scale(0.1 -0.1)">
       <use xlink:href="#DejaVuSans-30"/>
       <use xlink:href="#DejaVuSans-2e" x="63.623047"/>
       <use xlink:href="#DejaVuSans-30" x="95.410156"/>
      </g>
     </g>
    </g>
    <g id="xtick_6">
     <g id="line2d_20">
      <g>
       <use xlink:href="#m5833c2e418" x="327.82466" y="105.478125" style="stroke: #000000; stroke-width: 0.8"/>
      </g>
     </g>
     <g id="text_14">
      <!-- 0.5 -->
      <g transform="translate(319.873098 116.576563)scale(0.1 -0.1)">
       <use xlink:href="#DejaVuSans-30"/>
       <use xlink:href="#DejaVuSans-2e" x="63.623047"/>
       <use xlink:href="#DejaVuSans-35" x="95.410156"/>
      </g>
     </g>
    </g>
    <g id="text_15">
     <!-- $x$ -->
     <g transform="translate(282.368139 130.254688)scale(0.1 -0.1)">
      <use xlink:href="#DejaVuSans-Oblique-78" transform="translate(0 0.3125)"/>
     </g>
    </g>
   </g>
   <g id="matplotlib.axis_6">
    <g id="ytick_7">
     <g id="line2d_21">
      <g>
       <use xlink:href="#m3120e6cd60" x="242.911617" y="98.548125" style="stroke: #000000; stroke-width: 0.8"/>
      </g>
     </g>
    </g>
    <g id="ytick_8">
     <g id="line2d_22">
      <g>
       <use xlink:href="#m3120e6cd60" x="242.911617" y="63.898125" style="stroke: #000000; stroke-width: 0.8"/>
      </g>
     </g>
    </g>
    <g id="ytick_9">
     <g id="line2d_23">
      <g>
       <use xlink:href="#m3120e6cd60" x="242.911617" y="29.248125" style="stroke: #000000; stroke-width: 0.8"/>
      </g>
     </g>
    </g>
   </g>
   <g id="line2d_24">
    <path d="M 242.911617 92.227228 
L 243.769324 92.227228 
L 244.627032 87.069132 
L 245.484739 75.033575 
L 246.342447 62.998018 
L 247.200154 54.167666 
L 248.057862 53.350323 
L 248.915569 52.532979 
L 249.773277 52.189803 
L 250.630984 54.691628 
L 251.488692 57.193454 
L 252.346399 59.695279 
L 253.204107 61.760041 
L 254.061814 63.824804 
L 254.919522 65.889566 
L 255.777229 65.744522 
L 256.634937 65.231177 
L 257.492645 64.717832 
L 258.350352 64.347812 
L 259.20806 64.035121 
L 260.065767 63.72243 
L 260.923475 63.673312 
L 261.781182 63.821873 
L 262.63889 63.970435 
L 263.496597 63.900757 
L 264.354305 63.540094 
L 265.212012 63.179431 
L 266.06972 62.789139 
L 266.927427 62.324771 
L 267.785135 61.860404 
L 268.642842 61.470949 
L 269.50055 61.530968 
L 270.358257 61.590987 
L 271.215965 61.651006 
L 272.073672 61.974225 
L 272.93138 62.297443 
L 273.789087 62.620661 
L 274.646795 62.926185 
L 275.504502 63.228761 
L 276.36221 63.531336 
L 277.219917 63.746359 
L 278.077625 63.926362 
L 278.935332 64.106364 
L 279.79304 64.260782 
L 280.650747 64.396011 
L 281.508455 64.531239 
L 282.366162 64.59921 
L 283.22387 64.577504 
L 284.081577 64.555798 
L 284.939285 64.522337 
L 285.796992 64.459488 
L 286.6547 64.396638 
L 287.512407 64.33053 
L 288.370115 64.244876 
L 289.227822 64.159222 
L 290.08553 64.073567 
L 290.943237 63.986264 
L 291.800945 63.898961 
L 292.658652 63.811658 
L 293.51636 63.782431 
L 294.374067 63.762883 
L 295.231775 63.743336 
L 296.089482 63.72702 
L 296.94719 63.711996 
L 297.804897 63.696972 
L 298.662605 63.702146 
L 299.520313 63.722468 
L 300.37802 63.74279 
L 301.235728 63.769268 
L 302.093435 63.803952 
L 302.951143 63.838637 
L 303.80885 63.864392 
L 304.666558 63.867823 
L 305.524265 63.871255 
L 306.381973 63.871968 
L 307.23968 63.856375 
L 308.097388 63.840782 
L 308.955095 63.825189 
L 309.812803 63.800803 
L 310.67051 63.776418 
L 311.528218 63.752032 
L 312.385925 63.735478 
L 313.243633 63.72023 
L 314.10134 63.704981 
L 314.959048 63.707043 
L 315.816755 63.716028 
L 316.674463 63.725014 
L 317.53217 63.732938 
L 318.389878 63.740065 
L 319.247585 63.747193 
L 320.105293 63.755175 
L 320.963 63.764296 
L 321.820708 63.773416 
L 322.678415 63.780291 
L 323.536123 63.781549 
L 324.39383 63.782807 
L 325.251538 63.783002 
L 326.109245 63.776815 
L 326.966953 63.770628 
L 327.82466 63.764441 
" clip-path="url(#p2ef1cc57c4)" style="fill: none; stroke: #1f77b4; stroke-width: 1.5; stroke-linecap: square"/>
   </g>
   <g id="line2d_25">
    <path d="M 242.911617 60.649792 
L 243.769324 60.649792 
L 244.627032 60.067207 
L 245.484739 58.707844 
L 246.342447 57.34848 
L 247.200154 56.957188 
L 248.057862 58.986073 
L 248.915569 61.014958 
L 249.773277 62.847199 
L 250.630984 63.499571 
L 251.488692 64.151944 
L 252.346399 64.804316 
L 253.204107 64.581755 
L 254.061814 64.359193 
L 254.919522 64.136631 
L 255.777229 62.499452 
L 256.634937 60.626504 
L 257.492645 58.753555 
L 258.350352 59.168084 
L 259.20806 60.497604 
L 260.065767 61.827124 
L 260.923475 62.477341 
L 261.781182 62.618081 
L 262.63889 62.75882 
L 263.496597 63.079969 
L 264.354305 63.641664 
L 265.212012 64.203359 
L 266.06972 64.69559 
L 266.927427 65.014163 
L 267.785135 65.332736 
L 268.642842 65.584908 
L 269.50055 65.438679 
L 270.358257 65.292449 
L 271.215965 65.14622 
L 272.073672 64.805189 
L 272.93138 64.464159 
L 273.789087 64.123128 
L 274.646795 63.939664 
L 275.504502 63.782462 
L 276.36221 63.625259 
L 277.219917 63.636014 
L 278.077625 63.713953 
L 278.935332 63.791892 
L 279.79304 63.883218 
L 280.650747 63.984584 
L 281.508455 64.08595 
L 282.366162 64.202306 
L 283.22387 64.338647 
L 284.081577 64.474988 
L 284.939285 64.573377 
L 285.796992 64.576885 
L 286.6547 64.580393 
L 287.512407 64.573426 
L 288.370115 64.503606 
L 289.227822 64.433786 
L 290.08553 64.363966 
L 290.943237 64.304589 
L 291.800945 64.245213 
L 292.658652 64.185836 
L 293.51636 64.153338 
L 294.374067 64.12532 
L 295.231775 64.097302 
L 296.089482 64.085462 
L 296.94719 64.080094 
L 297.804897 64.074726 
L 298.662605 64.083006 
L 299.520313 64.101522 
L 300.37802 64.120038 
L 301.235728 64.13699 
L 302.093435 64.151857 
L 302.951143 64.166725 
L 303.80885 64.173959 
L 304.666558 64.162107 
L 305.524265 64.150255 
L 306.381973 64.137976 
L 307.23968 64.123131 
L 308.097388 64.108286 
L 308.955095 64.093441 
L 309.812803 64.092186 
L 310.67051 64.09093 
L 311.528218 64.089675 
L 312.385925 64.09774 
L 313.243633 64.107357 
L 314.10134 64.116975 
L 314.959048 64.131512 
L 315.816755 64.148017 
L 316.674463 64.164521 
L 317.53217 64.172288 
L 318.389878 64.173502 
L 319.247585 64.174717 
L 320.105293 64.174654 
L 320.963 64.172888 
L 321.820708 64.171122 
L 322.678415 64.166324 
L 323.536123 64.153944 
L 324.39383 64.141565 
L 325.251538 64.129852 
L 326.109245 64.122136 
L 326.966953 64.114421 
L 327.82466 64.106705 
" clip-path="url(#p2ef1cc57c4)" style="fill: none; stroke: #ff7f0e; stroke-width: 1.5; stroke-linecap: square"/>
   </g>
   <g id="line2d_26">
    <path d="M 242.911617 73.009751 
L 243.769324 73.009751 
L 244.627032 72.040233 
L 245.484739 69.778024 
L 246.342447 67.515815 
L 247.200154 65.378001 
L 248.057862 63.551173 
L 248.915569 61.724345 
L 249.773277 60.057273 
L 250.630984 59.34874 
L 251.488692 58.640206 
L 252.346399 57.931673 
L 253.204107 58.785675 
L 254.061814 59.639678 
L 254.919522 60.49368 
L 255.777229 61.099704 
L 256.634937 61.664397 
L 257.492645 62.229091 
L 258.350352 62.810674 
L 259.20806 63.399013 
L 260.065767 63.987353 
L 260.923475 64.262248 
L 261.781182 64.30206 
L 262.63889 64.341873 
L 263.496597 64.259725 
L 264.354305 64.014963 
L 265.212012 63.770201 
L 266.06972 63.53952 
L 266.927427 63.344043 
L 267.785135 63.148566 
L 268.642842 62.990578 
L 269.50055 63.057532 
L 270.358257 63.124486 
L 271.215965 63.19144 
L 272.073672 63.373651 
L 272.93138 63.555862 
L 273.789087 63.738074 
L 274.646795 63.887907 
L 275.504502 64.032344 
L 276.36221 64.17678 
L 277.219917 64.246479 
L 278.077625 64.286282 
L 278.935332 64.326085 
L 279.79304 64.278113 
L 280.650747 64.164311 
L 281.508455 64.05051 
L 282.366162 63.93591 
L 283.22387 63.820246 
L 284.081577 63.704582 
L 284.939285 63.596425 
L 285.796992 63.507037 
L 286.6547 63.417649 
L 287.512407 63.34568 
L 288.370115 63.378228 
L 289.227822 63.410777 
L 290.08553 63.443325 
L 290.943237 63.574851 
L 291.800945 63.706378 
L 292.658652 63.837905 
L 293.51636 63.932983 
L 294.374067 64.021986 
L 295.231775 64.110989 
L 296.089482 64.16404 
L 296.94719 64.20271 
L 297.804897 64.241379 
L 298.662605 64.21903 
L 299.520313 64.150918 
L 300.37802 64.082806 
L 301.235728 64.020071 
L 302.093435 63.964507 
L 302.951143 63.908943 
L 303.80885 63.862023 
L 304.666558 63.836712 
L 305.524265 63.8114 
L 306.381973 63.791974 
L 307.23968 63.807856 
L 308.097388 63.823738 
L 308.955095 63.83962 
L 309.812803 63.864869 
L 310.67051 63.890118 
L 311.528218 63.915367 
L 312.385925 63.913461 
L 313.243633 63.907029 
L 314.10134 63.900598 
L 314.959048 63.892892 
L 315.816755 63.884677 
L 316.674463 63.876462 
L 317.53217 63.874542 
L 318.389878 63.877343 
L 319.247585 63.880144 
L 320.105293 63.901934 
L 320.963 63.949043 
L 321.820708 63.996152 
L 322.678415 64.048288 
L 323.536123 64.112992 
L 324.39383 64.177697 
L 325.251538 64.239574 
L 326.109245 64.284484 
L 326.966953 64.329393 
L 327.82466 64.374303 
" clip-path="url(#p2ef1cc57c4)" style="fill: none; stroke: #2ca02c; stroke-width: 1.5; stroke-linecap: square"/>
   </g>
   <g id="line2d_27">
    <path d="M 242.911617 60.30159 
L 243.769324 60.30159 
L 244.627032 60.094374 
L 245.484739 59.610871 
L 246.342447 59.127368 
L 247.200154 59.110156 
L 248.057862 60.258668 
L 248.915569 61.407181 
L 249.773277 62.523789 
L 250.630984 63.44897 
L 251.488692 64.37415 
L 252.346399 65.29933 
L 253.204107 67.044607 
L 254.061814 68.789884 
L 254.919522 70.535162 
L 255.777229 69.629938 
L 256.634937 68.282965 
L 257.492645 66.935991 
L 258.350352 65.721263 
L 259.20806 64.559433 
L 260.065767 63.397603 
L 260.923475 62.800312 
L 261.781182 62.626423 
L 262.63889 62.452535 
L 263.496597 62.475593 
L 264.354305 62.761246 
L 265.212012 63.046899 
L 266.06972 63.348966 
L 266.927427 63.692067 
L 267.785135 64.035168 
L 268.642842 64.325061 
L 269.50055 64.295706 
L 270.358257 64.266351 
L 271.215965 64.236996 
L 272.073672 64.114918 
L 272.93138 63.99284 
L 273.789087 63.870762 
L 274.646795 63.766943 
L 275.504502 63.666168 
L 276.36221 63.565392 
L 277.219917 63.518437 
L 278.077625 63.49301 
L 278.935332 63.467582 
L 279.79304 63.461175 
L 280.650747 63.469033 
L 281.508455 63.476891 
L 282.366162 63.489133 
L 283.22387 63.507222 
L 284.081577 63.525311 
L 284.939285 63.543278 
L 285.796992 63.56094 
L 286.6547 63.578601 
L 287.512407 63.595334 
L 288.370115 63.606496 
L 289.227822 63.617657 
L 290.08553 63.628819 
L 290.943237 63.650848 
L 291.800945 63.672877 
L 292.658652 63.694905 
L 293.51636 63.72267 
L 294.374067 63.751391 
L 295.231775 63.780112 
L 296.089482 63.799215 
L 296.94719 63.814471 
L 297.804897 63.829727 
L 298.662605 63.84093 
L 299.520313 63.849094 
L 300.37802 63.857257 
L 301.235728 63.858813 
L 302.093435 63.851557 
L 302.951143 63.8443 
L 303.80885 63.831652 
L 304.666558 63.805521 
L 305.524265 63.779391 
L 306.381973 63.753966 
L 307.23968 63.73277 
L 308.097388 63.711574 
L 308.955095 63.690379 
L 309.812803 63.676735 
L 310.67051 63.663091 
L 311.528218 63.649447 
L 312.385925 63.639413 
L 313.243633 63.629981 
L 314.10134 63.620549 
L 314.959048 63.621291 
L 315.816755 63.626103 
L 316.674463 63.630914 
L 317.53217 63.634104 
L 318.389878 63.636079 
L 319.247585 63.638053 
L 320.105293 63.63627 
L 320.963 63.629476 
L 321.820708 63.622683 
L 322.678415 63.613131 
L 323.536123 63.596681 
L 324.39383 63.580232 
L 325.251538 63.564474 
L 326.109245 63.552865 
L 326.966953 63.541255 
L 327.82466 63.529646 
" clip-path="url(#p2ef1cc57c4)" style="fill: none; stroke: #d62728; stroke-width: 1.5; stroke-linecap: square"/>
   </g>
   <g id="patch_13">
    <path d="M 242.911617 105.478125 
L 242.911617 22.318125 
" style="fill: none; stroke: #000000; stroke-width: 0.8; stroke-linejoin: miter; stroke-linecap: square"/>
   </g>
   <g id="patch_14">
    <path d="M 327.82466 105.478125 
L 327.82466 22.318125 
" style="fill: none; stroke: #000000; stroke-width: 0.8; stroke-linejoin: miter; stroke-linecap: square"/>
   </g>
   <g id="patch_15">
    <path d="M 242.911617 105.478125 
L 327.82466 105.478125 
" style="fill: none; stroke: #000000; stroke-width: 0.8; stroke-linejoin: miter; stroke-linecap: square"/>
   </g>
   <g id="patch_16">
    <path d="M 242.911617 22.318125 
L 327.82466 22.318125 
" style="fill: none; stroke: #000000; stroke-width: 0.8; stroke-linejoin: miter; stroke-linecap: square"/>
   </g>
   <g id="text_16">
    <!-- $\kappa^{BA}$ -->
    <g transform="translate(275.588139 16.318125)scale(0.12 -0.12)">
     <use xlink:href="#DejaVuSans-Oblique-3ba" transform="translate(0 0.684375)"/>
     <use xlink:href="#DejaVuSans-Oblique-42" transform="translate(63.401693 38.965625)scale(0.7)"/>
     <use xlink:href="#DejaVuSans-Oblique-41" transform="translate(111.424154 38.965625)scale(0.7)"/>
    </g>
   </g>
  </g>
  <g id="axes_4">
   <g id="patch_17">
    <path d="M 344.807269 105.478125 
L 429.720313 105.478125 
L 429.720313 22.318125 
L 344.807269 22.318125 
z
" style="fill: #ffffff"/>
   </g>
   <g id="matplotlib.axis_7">
    <g id="xtick_7">
     <g id="line2d_28">
      <g>
       <use xlink:href="#m5833c2e418" x="344.807269" y="105.478125" style="stroke: #000000; stroke-width: 0.8"/>
      </g>
     </g>
     <g id="text_17">
      <!-- 0.0 -->
      <g transform="translate(336.855707 116.576563)scale(0.1 -0.1)">
       <use xlink:href="#DejaVuSans-30"/>
       <use xlink:href="#DejaVuSans-2e" x="63.623047"/>
       <use xlink:href="#DejaVuSans-30" x="95.410156"/>
      </g>
     </g>
    </g>
    <g id="xtick_8">
     <g id="line2d_29">
      <g>
       <use xlink:href="#m5833c2e418" x="429.720313" y="105.478125" style="stroke: #000000; stroke-width: 0.8"/>
      </g>
     </g>
     <g id="text_18">
      <!-- 0.5 -->
      <g transform="translate(421.76875 116.576563)scale(0.1 -0.1)">
       <use xlink:href="#DejaVuSans-30"/>
       <use xlink:href="#DejaVuSans-2e" x="63.623047"/>
       <use xlink:href="#DejaVuSans-35" x="95.410156"/>
      </g>
     </g>
    </g>
    <g id="text_19">
     <!-- $x$ -->
     <g transform="translate(384.263791 130.254688)scale(0.1 -0.1)">
      <use xlink:href="#DejaVuSans-Oblique-78" transform="translate(0 0.3125)"/>
     </g>
    </g>
   </g>
   <g id="matplotlib.axis_8">
    <g id="ytick_10">
     <g id="line2d_30">
      <g>
       <use xlink:href="#m3120e6cd60" x="344.807269" y="98.548125" style="stroke: #000000; stroke-width: 0.8"/>
      </g>
     </g>
    </g>
    <g id="ytick_11">
     <g id="line2d_31">
      <g>
       <use xlink:href="#m3120e6cd60" x="344.807269" y="63.898125" style="stroke: #000000; stroke-width: 0.8"/>
      </g>
     </g>
    </g>
    <g id="ytick_12">
     <g id="line2d_32">
      <g>
       <use xlink:href="#m3120e6cd60" x="344.807269" y="29.248125" style="stroke: #000000; stroke-width: 0.8"/>
      </g>
     </g>
    </g>
   </g>
   <g id="line2d_33">
    <path d="M 344.807269 36.262244 
L 345.664977 36.262244 
L 346.522684 34.597233 
L 347.380392 30.712207 
L 348.238099 26.827181 
L 349.095807 27.366065 
L 349.953514 38.964726 
L 350.811222 50.563387 
L 351.668929 61.002269 
L 352.526637 64.482494 
L 353.384344 67.962719 
L 354.242052 71.442945 
L 355.099759 72.551586 
L 355.957467 73.660227 
L 356.815174 74.768868 
L 357.672882 75.226593 
L 358.530589 75.575832 
L 359.388297 75.925072 
L 360.246004 74.373776 
L 361.103712 72.062266 
L 361.961419 69.750757 
L 362.819127 68.486149 
L 363.676834 68.006717 
L 364.534542 67.527286 
L 365.392249 66.889569 
L 366.249957 66.040806 
L 367.107664 65.192042 
L 367.965372 64.557614 
L 368.823079 64.459026 
L 369.680787 64.360438 
L 370.538494 64.2917 
L 371.396202 64.40206 
L 372.253909 64.512421 
L 373.111617 64.622782 
L 373.969324 64.702025 
L 374.827032 64.781268 
L 375.684739 64.860511 
L 376.542447 65.031553 
L 377.400154 65.217896 
L 378.257862 65.404239 
L 379.115569 65.492709 
L 379.973277 65.542029 
L 380.830984 65.591348 
L 381.688692 65.672334 
L 382.546399 65.777068 
L 383.404107 65.881802 
L 384.261814 65.91909 
L 385.119522 65.86645 
L 385.977229 65.81381 
L 386.834937 65.729484 
L 387.692645 65.565942 
L 388.550352 65.4024 
L 389.40806 65.244249 
L 390.265767 65.118447 
L 391.123475 64.992644 
L 391.981182 64.866842 
L 392.83889 64.736211 
L 393.696597 64.60558 
L 394.554305 64.474949 
L 395.412012 64.415914 
L 396.26972 64.368811 
L 397.127427 64.321707 
L 397.985135 64.280622 
L 398.842842 64.241944 
L 399.70055 64.203265 
L 400.558257 64.162136 
L 401.415965 64.119168 
L 402.273672 64.0762 
L 403.13138 64.03997 
L 403.989087 64.012726 
L 404.846795 63.985481 
L 405.704502 63.962795 
L 406.56221 63.951505 
L 407.419917 63.940214 
L 408.277625 63.93238 
L 409.135332 63.945283 
L 409.99304 63.958187 
L 410.850747 63.97109 
L 411.708455 63.976354 
L 412.566162 63.981618 
L 413.42387 63.986882 
L 414.281577 63.971191 
L 415.139285 63.952007 
L 415.996992 63.932823 
L 416.8547 63.918212 
L 417.712407 63.90543 
L 418.570115 63.892648 
L 419.427822 63.88003 
L 420.28553 63.867534 
L 421.143237 63.855038 
L 422.000945 63.852187 
L 422.858652 63.862198 
L 423.71636 63.872208 
L 424.574067 63.888241 
L 425.431775 63.919331 
L 426.289482 63.950421 
L 427.14719 63.979931 
L 428.004897 63.999965 
L 428.862605 64.019998 
L 429.720313 64.040032 
" clip-path="url(#pea4c767e80)" style="fill: none; stroke: #1f77b4; stroke-width: 1.5; stroke-linecap: square"/>
   </g>
   <g id="line2d_34">
    <path d="M 344.807269 24.297248 
L 345.664977 24.297248 
L 346.522684 26.044038 
L 347.380392 30.119883 
L 348.238099 34.195728 
L 349.095807 39.59283 
L 349.953514 48.293078 
L 350.811222 56.993326 
L 351.668929 64.945562 
L 352.526637 68.409722 
L 353.384344 71.873882 
L 354.242052 75.338042 
L 355.099759 74.826762 
L 355.957467 74.315481 
L 356.815174 73.804201 
L 357.672882 73.07152 
L 358.530589 72.301938 
L 359.388297 71.532356 
L 360.246004 70.578393 
L 361.103712 69.550678 
L 361.961419 68.522962 
L 362.819127 67.564141 
L 363.676834 66.656989 
L 364.534542 65.749838 
L 365.392249 65.082474 
L 366.249957 64.734827 
L 367.107664 64.387181 
L 367.965372 64.140596 
L 368.823079 64.146664 
L 369.680787 64.152731 
L 370.538494 64.186818 
L 371.396202 64.389012 
L 372.253909 64.591207 
L 373.111617 64.793402 
L 373.969324 64.931301 
L 374.827032 65.0692 
L 375.684739 65.207099 
L 376.542447 65.254744 
L 377.400154 65.287347 
L 378.257862 65.31995 
L 379.115569 65.27644 
L 379.973277 65.202485 
L 380.830984 65.12853 
L 381.688692 65.005459 
L 382.546399 64.845552 
L 383.404107 64.685645 
L 384.261814 64.566468 
L 385.119522 64.501599 
L 385.977229 64.43673 
L 386.834937 64.38838 
L 387.692645 64.381326 
L 388.550352 64.374272 
L 389.40806 64.375209 
L 390.265767 64.424094 
L 391.123475 64.47298 
L 391.981182 64.521865 
L 392.83889 64.588856 
L 393.696597 64.655846 
L 394.554305 64.722836 
L 395.412012 64.743061 
L 396.26972 64.755492 
L 397.127427 64.767923 
L 397.985135 64.739894 
L 398.842842 64.695681 
L 399.70055 64.651467 
L 400.558257 64.597809 
L 401.415965 64.537067 
L 402.273672 64.476325 
L 403.13138 64.425357 
L 403.989087 64.38742 
L 404.846795 64.349484 
L 405.704502 64.314422 
L 406.56221 64.286547 
L 407.419917 64.258672 
L 408.277625 64.233374 
L 409.135332 64.223531 
L 409.99304 64.213689 
L 410.850747 64.203846 
L 411.708455 64.181929 
L 412.566162 64.160011 
L 413.42387 64.138093 
L 414.281577 64.0961 
L 415.139285 64.05076 
L 415.996992 64.005421 
L 416.8547 63.962087 
L 417.712407 63.919555 
L 418.570115 63.877023 
L 419.427822 63.84192 
L 420.28553 63.812388 
L 421.143237 63.782856 
L 422.000945 63.77035 
L 422.858652 63.780546 
L 423.71636 63.790741 
L 424.574067 63.806912 
L 425.431775 63.838024 
L 426.289482 63.869136 
L 427.14719 63.899614 
L 428.004897 63.926292 
L 428.862605 63.95297 
L 429.720313 63.979647 
" clip-path="url(#pea4c767e80)" style="fill: none; stroke: #ff7f0e; stroke-width: 1.5; stroke-linecap: square"/>
   </g>
   <g id="line2d_35">
    <path d="M 344.807269 46.941025 
L 345.664977 46.941025 
L 346.522684 45.874091 
L 347.380392 43.384577 
L 348.238099 40.895063 
L 349.095807 39.294684 
L 349.953514 39.91714 
L 350.811222 40.539596 
L 351.668929 41.982931 
L 352.526637 48.351545 
L 353.384344 54.720159 
L 354.242052 61.088773 
L 355.099759 64.658539 
L 355.957467 68.228306 
L 356.815174 71.798072 
L 357.672882 72.972679 
L 358.530589 73.748093 
L 359.388297 74.523507 
L 360.246004 73.55827 
L 361.103712 71.896774 
L 361.961419 70.235277 
L 362.819127 68.751477 
L 363.676834 67.400948 
L 364.534542 66.050419 
L 365.392249 65.134947 
L 366.249957 64.799549 
L 367.107664 64.464151 
L 367.965372 64.279886 
L 368.823079 64.473455 
L 369.680787 64.667024 
L 370.538494 64.876038 
L 371.396202 65.177724 
L 372.253909 65.47941 
L 373.111617 65.781096 
L 373.969324 65.944722 
L 374.827032 66.108349 
L 375.684739 66.271975 
L 376.542447 66.267677 
L 377.400154 66.235392 
L 378.257862 66.203107 
L 379.115569 66.169947 
L 379.973277 66.136435 
L 380.830984 66.102924 
L 381.688692 66.043057 
L 382.546399 65.963423 
L 383.404107 65.88379 
L 384.261814 65.795648 
L 385.119522 65.696162 
L 385.977229 65.596677 
L 386.834937 65.518108 
L 387.692645 65.491833 
L 388.550352 65.465558 
L 389.40806 65.445046 
L 390.265767 65.459118 
L 391.123475 65.473189 
L 391.981182 65.48726 
L 392.83889 65.554296 
L 393.696597 65.621333 
L 394.554305 65.688369 
L 395.412012 65.778343 
L 396.26972 65.872139 
L 397.127427 65.965936 
L 397.985135 66.013207 
L 398.842842 66.041868 
L 399.70055 66.070529 
L 400.558257 66.051622 
L 401.415965 65.997039 
L 402.273672 65.942456 
L 403.13138 65.876633 
L 403.989087 65.795821 
L 404.846795 65.715009 
L 405.704502 65.638664 
L 406.56221 65.573487 
L 407.419917 65.50831 
L 408.277625 65.451463 
L 409.135332 65.444596 
L 409.99304 65.437729 
L 410.850747 65.430862 
L 411.708455 65.470576 
L 412.566162 65.51029 
L 413.42387 65.550004 
L 414.281577 65.591763 
L 415.139285 65.633863 
L 415.996992 65.675962 
L 416.8547 65.695356 
L 417.712407 65.705667 
L 418.570115 65.715979 
L 419.427822 65.715737 
L 420.28553 65.707582 
L 421.143237 65.699426 
L 422.000945 65.692706 
L 422.858652 65.687901 
L 423.71636 65.683096 
L 424.574067 65.680132 
L 425.431775 65.68177 
L 426.289482 65.683409 
L 427.14719 65.685761 
L 428.004897 65.692401 
L 428.862605 65.699041 
L 429.720313 65.70568 
" clip-path="url(#pea4c767e80)" style="fill: none; stroke: #2ca02c; stroke-width: 1.5; stroke-linecap: square"/>
   </g>
   <g id="line2d_36">
    <path d="M 344.807269 42.579506 
L 345.664977 42.579506 
L 346.522684 41.634535 
L 347.380392 39.429601 
L 348.238099 37.224668 
L 349.095807 36.281459 
L 349.953514 38.492561 
L 350.811222 40.703663 
L 351.668929 43.327779 
L 352.526637 48.429978 
L 353.384344 53.532176 
L 354.242052 58.634375 
L 355.099759 61.498989 
L 355.957467 64.363604 
L 356.815174 67.228219 
L 357.672882 69.814036 
L 358.530589 72.353387 
L 359.388297 74.892737 
L 360.246004 74.718318 
L 361.103712 73.458392 
L 361.961419 72.198466 
L 362.819127 70.587381 
L 363.676834 68.712928 
L 364.534542 66.838474 
L 365.392249 65.432622 
L 366.249957 64.651571 
L 367.107664 63.870521 
L 367.965372 63.295993 
L 368.823079 63.237771 
L 369.680787 63.17955 
L 370.538494 63.210116 
L 371.396202 63.773414 
L 372.253909 64.336712 
L 373.111617 64.90001 
L 373.969324 65.158651 
L 374.827032 65.417292 
L 375.684739 65.675933 
L 376.542447 65.813294 
L 377.400154 65.930441 
L 378.257862 66.047588 
L 379.115569 66.008574 
L 379.973277 65.907095 
L 380.830984 65.805616 
L 381.688692 65.685611 
L 382.546399 65.55171 
L 383.404107 65.417809 
L 384.261814 65.297168 
L 385.119522 65.194206 
L 385.977229 65.091243 
L 386.834937 65.005107 
L 387.692645 64.961035 
L 388.550352 64.916963 
L 389.40806 64.884606 
L 390.265767 64.922531 
L 391.123475 64.960457 
L 391.981182 64.998382 
L 392.83889 65.033134 
L 393.696597 65.067885 
L 394.554305 65.102637 
L 395.412012 65.109445 
L 396.26972 65.111595 
L 397.127427 65.113746 
L 397.985135 65.107014 
L 398.842842 65.096728 
L 399.70055 65.086442 
L 400.558257 65.064783 
L 401.415965 65.034593 
L 402.273672 65.004403 
L 403.13138 64.977892 
L 403.989087 64.956285 
L 404.846795 64.934678 
L 405.704502 64.914427 
L 406.56221 64.897564 
L 407.419917 64.880701 
L 408.277625 64.862749 
L 409.135332 64.838264 
L 409.99304 64.813779 
L 410.850747 64.789295 
L 411.708455 64.783653 
L 412.566162 64.778012 
L 413.42387 64.77237 
L 414.281577 64.780962 
L 415.139285 64.791926 
L 415.996992 64.80289 
L 416.8547 64.819234 
L 417.712407 64.837729 
L 418.570115 64.856225 
L 419.427822 64.870746 
L 420.28553 64.882287 
L 421.143237 64.893828 
L 422.000945 64.892772 
L 422.858652 64.87492 
L 423.71636 64.857068 
L 424.574067 64.836275 
L 425.431775 64.808129 
L 426.289482 64.779983 
L 427.14719 64.752348 
L 428.004897 64.727778 
L 428.862605 64.703208 
L 429.720313 64.678638 
" clip-path="url(#pea4c767e80)" style="fill: none; stroke: #d62728; stroke-width: 1.5; stroke-linecap: square"/>
   </g>
   <g id="patch_18">
    <path d="M 344.807269 105.478125 
L 344.807269 22.318125 
" style="fill: none; stroke: #000000; stroke-width: 0.8; stroke-linejoin: miter; stroke-linecap: square"/>
   </g>
   <g id="patch_19">
    <path d="M 429.720313 105.478125 
L 429.720313 22.318125 
" style="fill: none; stroke: #000000; stroke-width: 0.8; stroke-linejoin: miter; stroke-linecap: square"/>
   </g>
   <g id="patch_20">
    <path d="M 344.807269 105.478125 
L 429.720313 105.478125 
" style="fill: none; stroke: #000000; stroke-width: 0.8; stroke-linejoin: miter; stroke-linecap: square"/>
   </g>
   <g id="patch_21">
    <path d="M 344.807269 22.318125 
L 429.720313 22.318125 
" style="fill: none; stroke: #000000; stroke-width: 0.8; stroke-linejoin: miter; stroke-linecap: square"/>
   </g>
   <g id="text_20">
    <!-- $\kappa^{BB}$ -->
    <g transform="translate(377.483791 16.318125)scale(0.12 -0.12)">
     <use xlink:href="#DejaVuSans-Oblique-3ba" transform="translate(0 0.684375)"/>
     <use xlink:href="#DejaVuSans-Oblique-42" transform="translate(63.401693 38.965625)scale(0.7)"/>
     <use xlink:href="#DejaVuSans-Oblique-42" transform="translate(111.424154 38.965625)scale(0.7)"/>
    </g>
   </g>
   <g id="legend_1">
    <g id="patch_22">
     <path d="M 435.320313 94.454375 
L 507.150313 94.454375 
Q 508.750313 94.454375 508.750313 92.854375 
L 508.750313 34.941875 
Q 508.750313 33.341875 507.150313 33.341875 
L 435.320313 33.341875 
Q 433.720313 33.341875 433.720313 34.941875 
L 433.720313 92.854375 
Q 433.720313 94.454375 435.320313 94.454375 
L 435.320313 94.454375 
z
" style="fill: none; opacity: 0"/>
    </g>
    <g id="text_21">
     <!-- Phase -->
     <g transform="translate(459.292188 42.620625)scale(0.08 -0.08)">
      <defs>
       <path id="DejaVuSans-50" d="M 1259 4147 
L 1259 2394 
L 2053 2394 
Q 2494 2394 2734 2622 
Q 2975 2850 2975 3272 
Q 2975 3691 2734 3919 
Q 2494 4147 2053 4147 
L 1259 4147 
z
M 628 4666 
L 2053 4666 
Q 2838 4666 3239 4311 
Q 3641 3956 3641 3272 
Q 3641 2581 3239 2228 
Q 2838 1875 2053 1875 
L 1259 1875 
L 1259 0 
L 628 0 
L 628 4666 
z
" transform="scale(0.015625)"/>
       <path id="DejaVuSans-68" d="M 3513 2113 
L 3513 0 
L 2938 0 
L 2938 2094 
Q 2938 2591 2744 2837 
Q 2550 3084 2163 3084 
Q 1697 3084 1428 2787 
Q 1159 2491 1159 1978 
L 1159 0 
L 581 0 
L 581 4863 
L 1159 4863 
L 1159 2956 
Q 1366 3272 1645 3428 
Q 1925 3584 2291 3584 
Q 2894 3584 3203 3211 
Q 3513 2838 3513 2113 
z
" transform="scale(0.015625)"/>
       <path id="DejaVuSans-61" d="M 2194 1759 
Q 1497 1759 1228 1600 
Q 959 1441 959 1056 
Q 959 750 1161 570 
Q 1363 391 1709 391 
Q 2188 391 2477 730 
Q 2766 1069 2766 1631 
L 2766 1759 
L 2194 1759 
z
M 3341 1997 
L 3341 0 
L 2766 0 
L 2766 531 
Q 2569 213 2275 61 
Q 1981 -91 1556 -91 
Q 1019 -91 701 211 
Q 384 513 384 1019 
Q 384 1609 779 1909 
Q 1175 2209 1959 2209 
L 2766 2209 
L 2766 2266 
Q 2766 2663 2505 2880 
Q 2244 3097 1772 3097 
Q 1472 3097 1187 3025 
Q 903 2953 641 2809 
L 641 3341 
Q 956 3463 1253 3523 
Q 1550 3584 1831 3584 
Q 2591 3584 2966 3190 
Q 3341 2797 3341 1997 
z
" transform="scale(0.015625)"/>
       <path id="DejaVuSans-73" d="M 2834 3397 
L 2834 2853 
Q 2591 2978 2328 3040 
Q 2066 3103 1784 3103 
Q 1356 3103 1142 2972 
Q 928 2841 928 2578 
Q 928 2378 1081 2264 
Q 1234 2150 1697 2047 
L 1894 2003 
Q 2506 1872 2764 1633 
Q 3022 1394 3022 966 
Q 3022 478 2636 193 
Q 2250 -91 1575 -91 
Q 1294 -91 989 -36 
Q 684 19 347 128 
L 347 722 
Q 666 556 975 473 
Q 1284 391 1588 391 
Q 1994 391 2212 530 
Q 2431 669 2431 922 
Q 2431 1156 2273 1281 
Q 2116 1406 1581 1522 
L 1381 1569 
Q 847 1681 609 1914 
Q 372 2147 372 2553 
Q 372 3047 722 3315 
Q 1072 3584 1716 3584 
Q 2034 3584 2315 3537 
Q 2597 3491 2834 3397 
z
" transform="scale(0.015625)"/>
       <path id="DejaVuSans-65" d="M 3597 1894 
L 3597 1613 
L 953 1613 
Q 991 1019 1311 708 
Q 1631 397 2203 397 
Q 2534 397 2845 478 
Q 3156 559 3463 722 
L 3463 178 
Q 3153 47 2828 -22 
Q 2503 -91 2169 -91 
Q 1331 -91 842 396 
Q 353 884 353 1716 
Q 353 2575 817 3079 
Q 1281 3584 2069 3584 
Q 2775 3584 3186 3129 
Q 3597 2675 3597 1894 
z
M 3022 2063 
Q 3016 2534 2758 2815 
Q 2500 3097 2075 3097 
Q 1594 3097 1305 2825 
Q 1016 2553 972 2059 
L 3022 2063 
z
" transform="scale(0.015625)"/>
      </defs>
      <use xlink:href="#DejaVuSans-50"/>
      <use xlink:href="#DejaVuSans-68" x="60.302734"/>
      <use xlink:href="#DejaVuSans-61" x="123.681641"/>
      <use xlink:href="#DejaVuSans-73" x="184.960938"/>
      <use xlink:href="#DejaVuSans-65" x="237.060547"/>
     </g>
    </g>
    <g id="line2d_37">
     <path d="M 436.920313 51.563125 
L 444.920313 51.563125 
L 452.920313 51.563125 
" style="fill: none; stroke: #1f77b4; stroke-width: 1.5; stroke-linecap: square"/>
    </g>
    <g id="text_22">
     <!-- Segregated -->
     <g transform="translate(459.320313 54.363125)scale(0.08 -0.08)">
      <defs>
       <path id="DejaVuSans-53" d="M 3425 4513 
L 3425 3897 
Q 3066 4069 2747 4153 
Q 2428 4238 2131 4238 
Q 1616 4238 1336 4038 
Q 1056 3838 1056 3469 
Q 1056 3159 1242 3001 
Q 1428 2844 1947 2747 
L 2328 2669 
Q 3034 2534 3370 2195 
Q 3706 1856 3706 1288 
Q 3706 609 3251 259 
Q 2797 -91 1919 -91 
Q 1588 -91 1214 -16 
Q 841 59 441 206 
L 441 856 
Q 825 641 1194 531 
Q 1563 422 1919 422 
Q 2459 422 2753 634 
Q 3047 847 3047 1241 
Q 3047 1584 2836 1778 
Q 2625 1972 2144 2069 
L 1759 2144 
Q 1053 2284 737 2584 
Q 422 2884 422 3419 
Q 422 4038 858 4394 
Q 1294 4750 2059 4750 
Q 2388 4750 2728 4690 
Q 3069 4631 3425 4513 
z
" transform="scale(0.015625)"/>
       <path id="DejaVuSans-67" d="M 2906 1791 
Q 2906 2416 2648 2759 
Q 2391 3103 1925 3103 
Q 1463 3103 1205 2759 
Q 947 2416 947 1791 
Q 947 1169 1205 825 
Q 1463 481 1925 481 
Q 2391 481 2648 825 
Q 2906 1169 2906 1791 
z
M 3481 434 
Q 3481 -459 3084 -895 
Q 2688 -1331 1869 -1331 
Q 1566 -1331 1297 -1286 
Q 1028 -1241 775 -1147 
L 775 -588 
Q 1028 -725 1275 -790 
Q 1522 -856 1778 -856 
Q 2344 -856 2625 -561 
Q 2906 -266 2906 331 
L 2906 616 
Q 2728 306 2450 153 
Q 2172 0 1784 0 
Q 1141 0 747 490 
Q 353 981 353 1791 
Q 353 2603 747 3093 
Q 1141 3584 1784 3584 
Q 2172 3584 2450 3431 
Q 2728 3278 2906 2969 
L 2906 3500 
L 3481 3500 
L 3481 434 
z
" transform="scale(0.015625)"/>
       <path id="DejaVuSans-72" d="M 2631 2963 
Q 2534 3019 2420 3045 
Q 2306 3072 2169 3072 
Q 1681 3072 1420 2755 
Q 1159 2438 1159 1844 
L 1159 0 
L 581 0 
L 581 3500 
L 1159 3500 
L 1159 2956 
Q 1341 3275 1631 3429 
Q 1922 3584 2338 3584 
Q 2397 3584 2469 3576 
Q 2541 3569 2628 3553 
L 2631 2963 
z
" transform="scale(0.015625)"/>
       <path id="DejaVuSans-74" d="M 1172 4494 
L 1172 3500 
L 2356 3500 
L 2356 3053 
L 1172 3053 
L 1172 1153 
Q 1172 725 1289 603 
Q 1406 481 1766 481 
L 2356 481 
L 2356 0 
L 1766 0 
Q 1100 0 847 248 
Q 594 497 594 1153 
L 594 3053 
L 172 3053 
L 172 3500 
L 594 3500 
L 594 4494 
L 1172 4494 
z
" transform="scale(0.015625)"/>
       <path id="DejaVuSans-64" d="M 2906 2969 
L 2906 4863 
L 3481 4863 
L 3481 0 
L 2906 0 
L 2906 525 
Q 2725 213 2448 61 
Q 2172 -91 1784 -91 
Q 1150 -91 751 415 
Q 353 922 353 1747 
Q 353 2572 751 3078 
Q 1150 3584 1784 3584 
Q 2172 3584 2448 3432 
Q 2725 3281 2906 2969 
z
M 947 1747 
Q 947 1113 1208 752 
Q 1469 391 1925 391 
Q 2381 391 2643 752 
Q 2906 1113 2906 1747 
Q 2906 2381 2643 2742 
Q 2381 3103 1925 3103 
Q 1469 3103 1208 2742 
Q 947 2381 947 1747 
z
" transform="scale(0.015625)"/>
      </defs>
      <use xlink:href="#DejaVuSans-53"/>
      <use xlink:href="#DejaVuSans-65" x="63.476562"/>
      <use xlink:href="#DejaVuSans-67" x="125"/>
      <use xlink:href="#DejaVuSans-72" x="188.476562"/>
      <use xlink:href="#DejaVuSans-65" x="227.339844"/>
      <use xlink:href="#DejaVuSans-67" x="288.863281"/>
      <use xlink:href="#DejaVuSans-61" x="352.339844"/>
      <use xlink:href="#DejaVuSans-74" x="413.619141"/>
      <use xlink:href="#DejaVuSans-65" x="452.828125"/>
      <use xlink:href="#DejaVuSans-64" x="514.351562"/>
     </g>
    </g>
    <g id="line2d_38">
     <path d="M 436.920313 63.305625 
L 444.920313 63.305625 
L 452.920313 63.305625 
" style="fill: none; stroke: #ff7f0e; stroke-width: 1.5; stroke-linecap: square"/>
    </g>
    <g id="text_23">
     <!-- Integrated -->
     <g transform="translate(459.320313 66.105625)scale(0.08 -0.08)">
      <defs>
       <path id="DejaVuSans-49" d="M 628 4666 
L 1259 4666 
L 1259 0 
L 628 0 
L 628 4666 
z
" transform="scale(0.015625)"/>
       <path id="DejaVuSans-6e" d="M 3513 2113 
L 3513 0 
L 2938 0 
L 2938 2094 
Q 2938 2591 2744 2837 
Q 2550 3084 2163 3084 
Q 1697 3084 1428 2787 
Q 1159 2491 1159 1978 
L 1159 0 
L 581 0 
L 581 3500 
L 1159 3500 
L 1159 2956 
Q 1366 3272 1645 3428 
Q 1925 3584 2291 3584 
Q 2894 3584 3203 3211 
Q 3513 2838 3513 2113 
z
" transform="scale(0.015625)"/>
      </defs>
      <use xlink:href="#DejaVuSans-49"/>
      <use xlink:href="#DejaVuSans-6e" x="29.492188"/>
      <use xlink:href="#DejaVuSans-74" x="92.871094"/>
      <use xlink:href="#DejaVuSans-65" x="132.080078"/>
      <use xlink:href="#DejaVuSans-67" x="193.603516"/>
      <use xlink:href="#DejaVuSans-72" x="257.080078"/>
      <use xlink:href="#DejaVuSans-61" x="298.193359"/>
      <use xlink:href="#DejaVuSans-74" x="359.472656"/>
      <use xlink:href="#DejaVuSans-65" x="398.681641"/>
      <use xlink:href="#DejaVuSans-64" x="460.205078"/>
     </g>
    </g>
    <g id="line2d_39">
     <path d="M 436.920313 75.048125 
L 444.920313 75.048125 
L 452.920313 75.048125 
" style="fill: none; stroke: #2ca02c; stroke-width: 1.5; stroke-linecap: square"/>
    </g>
    <g id="text_24">
     <!-- Migration 1 -->
     <g transform="translate(459.320313 77.848125)scale(0.08 -0.08)">
      <defs>
       <path id="DejaVuSans-4d" d="M 628 4666 
L 1569 4666 
L 2759 1491 
L 3956 4666 
L 4897 4666 
L 4897 0 
L 4281 0 
L 4281 4097 
L 3078 897 
L 2444 897 
L 1241 4097 
L 1241 0 
L 628 0 
L 628 4666 
z
" transform="scale(0.015625)"/>
       <path id="DejaVuSans-69" d="M 603 3500 
L 1178 3500 
L 1178 0 
L 603 0 
L 603 3500 
z
M 603 4863 
L 1178 4863 
L 1178 4134 
L 603 4134 
L 603 4863 
z
" transform="scale(0.015625)"/>
       <path id="DejaVuSans-6f" d="M 1959 3097 
Q 1497 3097 1228 2736 
Q 959 2375 959 1747 
Q 959 1119 1226 758 
Q 1494 397 1959 397 
Q 2419 397 2687 759 
Q 2956 1122 2956 1747 
Q 2956 2369 2687 2733 
Q 2419 3097 1959 3097 
z
M 1959 3584 
Q 2709 3584 3137 3096 
Q 3566 2609 3566 1747 
Q 3566 888 3137 398 
Q 2709 -91 1959 -91 
Q 1206 -91 779 398 
Q 353 888 353 1747 
Q 353 2609 779 3096 
Q 1206 3584 1959 3584 
z
" transform="scale(0.015625)"/>
       <path id="DejaVuSans-20" transform="scale(0.015625)"/>
      </defs>
      <use xlink:href="#DejaVuSans-4d"/>
      <use xlink:href="#DejaVuSans-69" x="86.279297"/>
      <use xlink:href="#DejaVuSans-67" x="114.0625"/>
      <use xlink:href="#DejaVuSans-72" x="177.539062"/>
      <use xlink:href="#DejaVuSans-61" x="218.652344"/>
      <use xlink:href="#DejaVuSans-74" x="279.931641"/>
      <use xlink:href="#DejaVuSans-69" x="319.140625"/>
      <use xlink:href="#DejaVuSans-6f" x="346.923828"/>
      <use xlink:href="#DejaVuSans-6e" x="408.105469"/>
      <use xlink:href="#DejaVuSans-20" x="471.484375"/>
      <use xlink:href="#DejaVuSans-31" x="503.271484"/>
     </g>
    </g>
    <g id="line2d_40">
     <path d="M 436.920313 86.790625 
L 444.920313 86.790625 
L 452.920313 86.790625 
" style="fill: none; stroke: #d62728; stroke-width: 1.5; stroke-linecap: square"/>
    </g>
    <g id="text_25">
     <!-- Migration 2 -->
     <g transform="translate(459.320313 89.590625)scale(0.08 -0.08)">
      <defs>
       <path id="DejaVuSans-32" d="M 1228 531 
L 3431 531 
L 3431 0 
L 469 0 
L 469 531 
Q 828 903 1448 1529 
Q 2069 2156 2228 2338 
Q 2531 2678 2651 2914 
Q 2772 3150 2772 3378 
Q 2772 3750 2511 3984 
Q 2250 4219 1831 4219 
Q 1534 4219 1204 4116 
Q 875 4013 500 3803 
L 500 4441 
Q 881 4594 1212 4672 
Q 1544 4750 1819 4750 
Q 2544 4750 2975 4387 
Q 3406 4025 3406 3419 
Q 3406 3131 3298 2873 
Q 3191 2616 2906 2266 
Q 2828 2175 2409 1742 
Q 1991 1309 1228 531 
z
" transform="scale(0.015625)"/>
      </defs>
      <use xlink:href="#DejaVuSans-4d"/>
      <use xlink:href="#DejaVuSans-69" x="86.279297"/>
      <use xlink:href="#DejaVuSans-67" x="114.0625"/>
      <use xlink:href="#DejaVuSans-72" x="177.539062"/>
      <use xlink:href="#DejaVuSans-61" x="218.652344"/>
      <use xlink:href="#DejaVuSans-74" x="279.931641"/>
      <use xlink:href="#DejaVuSans-69" x="319.140625"/>
      <use xlink:href="#DejaVuSans-6f" x="346.923828"/>
      <use xlink:href="#DejaVuSans-6e" x="408.105469"/>
      <use xlink:href="#DejaVuSans-20" x="471.484375"/>
      <use xlink:href="#DejaVuSans-32" x="503.271484"/>
     </g>
    </g>
   </g>
  </g>
 </g>
 <defs>
  <clipPath id="pac9d7d1a32">
   <rect x="39.120313" y="22.318125" width="84.913043" height="83.16"/>
  </clipPath>
  <clipPath id="pa79ba99f74">
   <rect x="141.015965" y="22.318125" width="84.913043" height="83.16"/>
  </clipPath>
  <clipPath id="p2ef1cc57c4">
   <rect x="242.911617" y="22.318125" width="84.913043" height="83.16"/>
  </clipPath>
  <clipPath id="pea4c767e80">
   <rect x="344.807269" y="22.318125" width="84.913043" height="83.16"/>
  </clipPath>
 </defs>
</svg>
